<?xml version="1.0" standalone="no"?>
<!DOCTYPE svg PUBLIC "-//W3C//DTD SVG 1.1//EN" "http://www.w3.org/Graphics/SVG/1.1/DTD/svg11.dtd" >
<svg>
<metadata>
Created by FontForge 20090622 at Mon Apr 16 10:03:33 2018
 By deploy user
Copyright &#194;&#169; 2013 Monotype Imaging Inc. All rights reserved.
</metadata>
<defs>
<font id="BurlingamePro-Regular" horiz-adv-x="490" >
  <font-face 
    font-family="Burlingame Pro"
    font-weight="400"
    font-stretch="normal"
    units-per-em="1000"
    panose-1="2 11 5 4 4 5 4 2 2 4"
    ascent="760"
    descent="-240"
    x-height="561"
    cap-height="750"
    bbox="-189 -275 1339 1005"
    underline-thickness="50"
    underline-position="-50"
    unicode-range="U+0020-U+FB04"
  />
<missing-glyph horiz-adv-x="377" 
 />
    <glyph glyph-name="IJ" unicode="IJ" horiz-adv-x="875" 
d="M107 0v750h81v-750h-81zM493 -11q-50 0 -94 6t-73 14v70q12 -3 30 -6t40 -5.5t45.5 -4t47.5 -1.5q59 0 97 11t59 33q11 11 19.5 27t14.5 39.5t9 55t3 74.5v448h82v-454q0 -50 -4.5 -88.5t-12.5 -67.5t-21 -50.5t-29 -37.5q-28 -28 -78 -45.5t-135 -17.5z" />
    <glyph glyph-name="ij" unicode="ij" horiz-adv-x="559" 
d="M99 0v561h81v-561h-81zM191 748q0 -12 -3 -23t-9 -16t-16.5 -7t-21.5 -2q-28 0 -38 10q-10 12 -10 38q0 30 15 40q4 3 13 5.5t22 2.5q25 0 36 -9q12 -11 12 -39zM460 -75q0 -48 -8.5 -85t-28.5 -62.5t-54.5 -39t-85.5 -13.5q-32 0 -58 3.5l-40 5.5v59q14 -1 36.5 -3
t50.5 -2q33 0 53.5 7.5t32.5 23.5t16.5 42t4.5 63v637h81v-636zM471 748q0 -12 -3 -23t-9 -16t-16.5 -7t-21.5 -2q-28 0 -38 10q-10 12 -10 38q0 30 15 40q4 3 13 5.5t22 2.5q25 0 36 -9q12 -11 12 -39z" />
    <glyph glyph-name="napostrophe" unicode="&#x22;n" horiz-adv-x="742" 
d="M121 750h93l-136 -256h-75zM562 -1v345q0 48 -9 77t-26 46t-45.5 24t-65.5 7q-48 0 -90.5 -9.5t-72.5 -21.5v-468h-81v561h62l19 -64h6q2 3 8 9l12.5 13t12 12t7.5 6q19 11 63 21.5t96 10.5t85 -11t56 -33q23 -23 33.5 -62t10.5 -93v-370h-81z" />
    <glyph glyph-name="f_f" unicode="ff" horiz-adv-x="791" 
d="M383 496h-180v-496h-81v496h-108l4 65h104v65q0 99 44 143t141 44q32 0 63.5 -3.5t46.5 -5.5v-60q-15 1 -40 3.5t-58 2.5q-37 0 -60 -8.5t-35.5 -25t-16.5 -42t-4 -58.5v-55h194zM778 496h-180v-496h-81v496h-108l4 65h104v65q0 99 44 143t141 44q32 0 63.5 -3.5
t46.5 -5.5v-60q-15 1 -40 3.5t-58 2.5q-37 0 -60 -8.5t-35.5 -25t-16.5 -42t-4 -58.5v-55h194z" />
    <glyph glyph-name="f_f_i" unicode="ffi" horiz-adv-x="1071" 
d="M890 0v561h81v-561h-81zM982 748q0 -12 -3 -23t-9 -16t-16.5 -7t-21.5 -2q-28 0 -38 10q-10 12 -10 38q0 30 15 40q4 3 13 5.5t22 2.5q25 0 36 -9q12 -11 12 -39zM383 496h-180v-496h-81v496h-108l4 65h104v65q0 99 44 143t141 44q32 0 63.5 -3.5t46.5 -5.5v-60
q-15 1 -40 3.5t-58 2.5q-37 0 -60 -8.5t-35.5 -25t-16.5 -42t-4 -58.5v-55h194zM778 496h-180v-496h-81v496h-108l4 65h104v65q0 99 44 143t141 44q32 0 63.5 -3.5t46.5 -5.5v-60q-15 1 -40 3.5t-58 2.5q-37 0 -60 -8.5t-35.5 -25t-16.5 -42t-4 -58.5v-55h194z" />
    <glyph glyph-name="f_f_l" unicode="ffl" horiz-adv-x="1129" 
d="M969 810v-666q0 -50 19 -67t54 -17q23 0 41.5 2t33.5 5v-61q-20 -5 -46 -9.5t-55 -4.5q-68 0 -98 34t-30 111v673h81zM383 496h-180v-496h-81v496h-108l4 65h104v65q0 99 44 143t141 44q32 0 63.5 -3.5t46.5 -5.5v-60q-15 1 -40 3.5t-58 2.5q-37 0 -60 -8.5t-35.5 -25
t-16.5 -42t-4 -58.5v-55h194zM778 496h-180v-496h-81v496h-108l4 65h104v65q0 99 44 143t141 44q32 0 63.5 -3.5t46.5 -5.5v-60q-15 1 -40 3.5t-58 2.5q-37 0 -60 -8.5t-35.5 -25t-16.5 -42t-4 -58.5v-55h194z" />
    <glyph glyph-name="f_i" unicode="fi" horiz-adv-x="675" 
d="M494 0v561h81v-561h-81zM586 748q0 -12 -3 -23t-9 -16t-16.5 -7t-21.5 -2q-28 0 -38 10q-10 12 -10 38q0 30 15 40q4 3 13 5.5t22 2.5q25 0 36 -9q12 -11 12 -39zM383 496h-180v-496h-81v496h-108l4 65h104v65q0 99 44 143t141 44q32 0 63.5 -3.5t46.5 -5.5v-60
q-15 1 -40 3.5t-58 2.5q-37 0 -60 -8.5t-35.5 -25t-16.5 -42t-4 -58.5v-55h194z" />
    <glyph glyph-name="f_l" unicode="fl" horiz-adv-x="734" 
d="M573 810v-666q0 -50 19 -67t54 -17q23 0 41.5 2t33.5 5v-61q-20 -5 -46 -9.5t-55 -4.5q-68 0 -98 34t-30 111v673h81zM383 496h-180v-496h-81v496h-108l4 65h104v65q0 99 44 143t141 44q32 0 63.5 -3.5t46.5 -5.5v-60q-15 1 -40 3.5t-58 2.5q-37 0 -60 -8.5t-35.5 -25
t-16.5 -42t-4 -58.5v-55h194z" />
    <glyph glyph-name=".notdef" horiz-adv-x="377" 
 />
    <glyph glyph-name=".null" horiz-adv-x="0" 
 />
    <glyph glyph-name="nonmarkingreturn" horiz-adv-x="0" 
 />
    <glyph glyph-name="space" unicode=" " horiz-adv-x="243" 
 />
    <glyph glyph-name="exclam" unicode="!" horiz-adv-x="294" 
d="M198 45q0 -13 -3 -24t-10 -17q-6 -5 -17 -7.5t-23 -2.5q-29 0 -42 11q-12 14 -12 40q0 15 5.5 26t11.5 16q6 3 15 6t23 3q27 0 39 -10q13 -10 13 -41zM111 202l-8 548h84l-7 -548h-69z" />
    <glyph glyph-name="quotedbl" unicode="&#x22;" horiz-adv-x="438" 
d="M266 750h80l-11 -256h-61zM92 750h80l-11 -256h-61z" />
    <glyph glyph-name="numbersign" unicode="#" horiz-adv-x="616" 
d="M105 539h115l38 211h53l-39 -211h131l38 211h52l-39 -211h115l-10 -62h-115l-37 -204h114l-11 -62h-114l-38 -211h-52l38 211h-130l-39 -211h-52l39 211h-115l11 62h114l37 204h-115zM224 273h131l37 204h-131z" />
    <glyph glyph-name="dollar" unicode="$" horiz-adv-x="679" 
d="M315 1q-69 1 -126.5 9t-95.5 19v66q38 -9 94 -17t128 -9v273l-64 18t-59 19.5t-48.5 22.5t-32.5 27q-9 11 -14.5 25.5t-9.5 31t-5.5 33t-1.5 31.5q0 42 13 80t38 61q20 20 67.5 36t116.5 21v89h54v-88q60 -1 111 -6t86 -13v-67q-35 5 -85 11t-112 7v-279l63 -18t58 -18.5
t47 -20.5t29 -23q17 -22 25 -55t8 -70q0 -47 -15.5 -85.5t-38.5 -58.5q-25 -21 -71 -33.5t-105 -16.5v-113h-54v111zM497 278q-16 15 -51 27.5t-77 24.5v-259q47 4 78.5 13t42.5 19q11 11 20 34.5t9 55.5q0 29 -5.5 52.5t-16.5 32.5zM176 474q12 -16 51 -30t88 -27v264
q-48 -3 -84 -13t-48 -25q-11 -12 -18.5 -36t-7.5 -53q0 -25 4.5 -46t14.5 -34z" />
    <glyph glyph-name="percent" unicode="%" horiz-adv-x="978" 
d="M741 44q30 0 50 7.5t34 21.5q16 17 25.5 51.5t9.5 83.5q0 92 -26 129q-13 17 -34.5 25.5t-48.5 8.5q-57 0 -85 -32q-13 -14 -24 -48.5t-11 -85.5q0 -45 7.5 -76.5t20.5 -49.5q26 -35 82 -35zM923 212q0 -65 -15.5 -110.5t-40.5 -70.5q-20 -23 -55 -33t-73 -10
q-49 0 -77.5 13.5t-48.5 34.5q-17 20 -30.5 59t-13.5 105q0 69 17 114t40 68q21 20 52.5 32.5t74.5 12.5q48 0 78.5 -13t49.5 -34q17 -20 29.5 -60t12.5 -108zM226 375q31 0 51 7.5t34 21.5q15 16 25 51t10 84q0 91 -27 129q-25 34 -83 34t-84 -32q-13 -14 -24 -49t-11 -85
q0 -45 7.5 -76.5t20.5 -49.5q24 -35 81 -35zM239 758q48 0 78.5 -13t48.5 -34q17 -20 29.5 -60.5t12.5 -108.5q0 -64 -15.5 -109.5t-39.5 -71.5q-21 -22 -56 -32t-73 -10q-49 0 -77.5 13t-48.5 35q-17 20 -30 59t-13 105q0 69 16.5 114t39.5 68q21 20 53 32.5t75 12.5z
M649 750h64l-377 -750h-65z" />
    <glyph glyph-name="ampersand" unicode="&#x26;" horiz-adv-x="866" 
d="M827 0h-95l-112 168q-25 -39 -52 -72t-61 -56.5t-79 -36.5t-106 -13q-70 0 -118.5 15t-78.5 42.5t-43 66.5t-13 87q0 44 14.5 84.5t42.5 69.5l80 46v5q-47 23 -69.5 59t-22.5 93q0 43 12.5 80t41.5 64t75.5 42.5t115.5 15.5q115 0 171 -43.5t56 -134.5q0 -51 -17 -86
t-33 -55l-71 -41v-5q28 -9 50.5 -18t40.5 -21t34 -28.5t33 -40.5l107 185h91l-152 -240zM240 385q-42 -28 -67.5 -69.5t-25.5 -100.5q0 -82 46 -119t137 -37q48 0 83 10t63.5 30t52.5 50t50 71q-19 26 -33.5 44t-31 31.5t-37.5 24t-52.5 20t-76.5 20zM355 697
q-86 0 -124 -33.5t-38 -96.5q0 -34 10 -58t36.5 -41.5t71.5 -30.5t115 -25q34 26 59 63.5t25 92.5q0 68 -37.5 98.5t-117.5 30.5z" />
    <glyph glyph-name="quotesingle" unicode="'" horiz-adv-x="268" 
d="M94 750h81l-12 -256h-62z" />
    <glyph glyph-name="parenleft" unicode="(" horiz-adv-x="321" 
d="M62 371q0 109 14.5 190t41.5 129q10 18 24.5 35t30 32t30 26.5t24.5 17.5h74q-33 -26 -65 -59.5t-52 -67.5q-24 -39 -38 -113t-14 -190q0 -115 14 -189t37 -114q20 -35 53 -68t65 -59h-74q-10 6 -24.5 17t-29.5 25.5t-30 32t-25 36.5q-26 48 -41 129t-15 190z" />
    <glyph glyph-name="parenright" unicode=")" horiz-adv-x="321" 
d="M259 371q0 -109 -15 -190t-41 -129q-11 -19 -25.5 -36.5t-30 -32t-29.5 -25.5t-24 -17h-73q32 26 64 59t52 68q23 40 37.5 114t14.5 189t-14.5 189.5t-37.5 113.5q-20 34 -52.5 67.5t-64.5 59.5h74q10 -6 24.5 -17.5t30 -26.5t30 -32t24.5 -35q27 -48 41.5 -129
t14.5 -190z" />
    <glyph glyph-name="asterisk" unicode="*" horiz-adv-x="536" 
d="M239 781h59l-1 -103l-18 -105l82 68l89 52l30 -52l-89 -50l-99 -38l99 -37l89 -51l-29 -51l-89 51l-83 68l19 -105l-1 -103h-59l1 103l18 105l-83 -68l-88 -52l-30 53l89 50l100 37l-100 38l-89 51l30 51l88 -51l83 -67l-18 103v103z" />
    <glyph glyph-name="plus" unicode="+" horiz-adv-x="679" 
d="M70 373h235v241h69v-241h235v-68h-235v-241h-69v241h-235v68z" />
    <glyph glyph-name="comma" unicode="," horiz-adv-x="280" 
d="M130 130h91l-131 -246h-74z" />
    <glyph glyph-name="hyphen" unicode="-" horiz-adv-x="418" 
d="M344 275h-270v76h270v-76z" />
    <glyph glyph-name="period" unicode="." horiz-adv-x="268" 
d="M187 45q0 -13 -3 -24t-10 -17q-6 -5 -17 -7.5t-23 -2.5q-29 0 -42 11q-11 13 -11 40q0 15 5 26t11 16q5 3 14.5 6t23.5 3q27 0 39 -10q13 -10 13 -41z" />
    <glyph glyph-name="slash" unicode="/" horiz-adv-x="464" 
d="M375 750h65l-350 -750h-65z" />
    <glyph glyph-name="zero" unicode="0" horiz-adv-x="679" 
d="M331 62q58 0 95 13.5t63 41.5q28 30 46.5 98t18.5 161q0 94 -13 155.5t-38 94.5q-23 31 -63 46.5t-91 15.5q-52 0 -92.5 -15t-66.5 -45q-12 -13 -23.5 -37t-20.5 -57t-15 -74.5t-6 -89.5q0 -88 14.5 -150.5t40.5 -95.5q46 -62 151 -62zM351 760q81 0 131.5 -22t79.5 -59
q30 -35 50.5 -106.5t20.5 -190.5q0 -113 -24.5 -193.5t-66.5 -125.5q-37 -40 -92.5 -57.5t-118.5 -17.5q-81 0 -130 23t-81 60q-29 34 -52 104.5t-23 186.5q0 119 27 199t68 122q34 35 87 56t124 21z" />
    <glyph glyph-name="one" unicode="1" horiz-adv-x="679" 
d="M107 0v68h211v619l-212 -37v68l291 52v-702h191v-68h-481z" />
    <glyph glyph-name="two" unicode="2" horiz-adv-x="679" 
d="M581 0h-516v75q5 40 19.5 73.5t42.5 63.5t71.5 59.5t106.5 62.5q39 20 67.5 36t49 29t34 24.5t22.5 23.5q16 20 21.5 46.5t5.5 54.5q0 37 -8.5 63t-29.5 43t-57 25t-91 8q-32 0 -64.5 -3.5t-61.5 -8.5t-54 -10.5t-41 -9.5v70q21 6 48 12t58 11.5t64.5 8.5t67.5 3
q70 0 118.5 -11.5t78.5 -35.5t43 -61.5t13 -90.5q0 -101 -39 -150q-28 -36 -78.5 -66.5t-124.5 -67.5q-64 -32 -103.5 -59t-61.5 -51t-30 -47t-9 -46h456z" />
    <glyph glyph-name="three" unicode="3" horiz-adv-x="679" 
d="M559 570q0 -51 -17 -89.5t-32 -53.5l-83 -38v-6l89 -30q25 -22 41 -63t16 -90q0 -54 -15 -94t-49.5 -65.5t-89.5 -38t-135 -12.5q-61 0 -116 7.5t-88 16.5v67q17 -3 40 -6.5t49.5 -7t55 -5.5t56.5 -2q65 0 106 9.5t64 28t31.5 45t8.5 60.5q0 46 -15 74t-41.5 43t-62 20
t-76.5 5h-139v71h128q40 0 75.5 6t61 21.5t40.5 42.5t15 69q0 33 -7.5 58t-27 41.5t-54 25t-87.5 8.5q-60 0 -115 -9t-91 -18v67q19 5 44.5 10.5t54.5 10t61 7.5t64 3q70 0 116.5 -12.5t74 -36.5t38.5 -59t11 -81z" />
    <glyph glyph-name="four" unicode="4" horiz-adv-x="679" 
d="M495 0h-76v203h-378v72l315 475h139v-481h160l-21 -66h-139v-203zM419 269v413h-27l-265 -401v-12h292z" />
    <glyph glyph-name="five" unicode="5" horiz-adv-x="679" 
d="M586 227q0 -61 -15.5 -105.5t-51 -73.5t-92.5 -43t-139 -14q-54 0 -106 6t-90 14v69q35 -6 88.5 -12.5t108.5 -6.5q60 0 101 8.5t66.5 27.5t36.5 49t11 73q0 46 -8.5 75.5t-29.5 46.5t-56 24t-89 7q-27 0 -57 -2t-57.5 -5t-51.5 -6l-40 -5v396h448v-70h-379v-254
q30 5 72.5 10t93.5 5q64 0 109 -9.5t73.5 -33.5t41 -65.5t12.5 -105.5z" />
    <glyph glyph-name="six" unicode="6" horiz-adv-x="679" 
d="M228 598q-32 -35 -52.5 -93t-23.5 -131h6l39 37q29 11 80 22.5t112 11.5q64 0 108 -14t71 -41t39 -67.5t12 -92.5q0 -55 -14.5 -99.5t-47 -75.5t-83.5 -47.5t-124 -16.5q-78 0 -131 23.5t-86 68.5t-47 110.5t-14 149.5q0 106 26 181.5t73 124.5q25 27 59 48t78.5 36
t102 23t131.5 10l26 -71q-72 -1 -126.5 -8t-95 -19.5t-69 -30t-49.5 -39.5zM540 221q0 41 -9 70t-30.5 48t-56.5 27.5t-87 8.5q-58 0 -112.5 -12t-92.5 -27q1 -75 14 -127.5t37.5 -85.5t62 -48t88.5 -15q97 0 141.5 39.5t44.5 121.5z" />
    <glyph glyph-name="seven" unicode="7" horiz-adv-x="679" 
d="M496 664v14h-433l19 72h504v-81l-341 -669h-92z" />
    <glyph glyph-name="eight" unicode="8" horiz-adv-x="679" 
d="M340 693q-47 0 -79.5 -10.5t-52.5 -29t-29 -43.5t-9 -55q0 -41 13.5 -66.5t43.5 -41t79 -24.5t120 -16q39 30 61 66.5t22 85.5q0 69 -40 101.5t-129 32.5zM242 364q-18 -12 -35.5 -27.5t-31 -35t-21.5 -44.5t-8 -56q0 -33 10 -60t32.5 -45.5t59 -28.5t89.5 -10
q101 0 145 40t44 105q0 46 -15 73.5t-48.5 44t-88 25.5t-132.5 19zM65 192q0 49 18 86.5t47 64.5l74 36v6l-66 32q-18 19 -34.5 51t-16.5 82q0 46 15 85t46.5 66.5t80.5 43t116 15.5q65 0 111.5 -13.5t76 -38t43 -60t13.5 -79.5q0 -51 -17 -83t-37 -53l-67 -38v-6l78 -28
q29 -23 45 -62.5t16 -88.5t-15.5 -89.5t-49 -69.5t-86.5 -45t-129 -16q-140 0 -201 53.5t-61 148.5z" />
    <glyph glyph-name="nine" unicode="9" horiz-adv-x="679" 
d="M452 150q32 36 52.5 94t23.5 132h-6l-38 -38q-27 -11 -75 -21.5t-107 -10.5q-67 0 -113 13.5t-74 40.5t-40 67t-12 92q0 117 67.5 179t202.5 62q75 0 127.5 -21t85.5 -64.5t47.5 -109t14.5 -153.5q0 -108 -26.5 -185.5t-71.5 -126.5q-25 -27 -59 -48t-79.5 -35.5
t-104.5 -23t-134 -10.5l-25 72q71 1 125.5 7.5t96 18.5t71.5 29.5t51 39.5zM143 524q0 -39 9 -67t30 -46t55.5 -27t85.5 -9q59 0 113.5 11t91.5 24q-1 73 -12 126t-34.5 87.5t-61 51t-91.5 16.5q-97 0 -141.5 -43t-44.5 -124z" />
    <glyph glyph-name="colon" unicode=":" horiz-adv-x="268" 
d="M178 526q0 -14 -2.5 -25t-10.5 -17q-6 -5 -17 -7.5t-23 -2.5q-30 0 -42 11q-11 13 -11 40q0 15 4.5 26t12.5 15q5 3 14 6t23 3q28 0 39 -9q8 -5 10.5 -15.5t2.5 -24.5zM178 45q0 -14 -2.5 -24.5t-10.5 -17.5q-6 -5 -17 -7t-23 -2q-30 0 -42 11q-11 13 -11 39q0 33 17 42
q11 9 37 9q29 0 39 -10q8 -5 10.5 -15.5t2.5 -24.5z" />
    <glyph glyph-name="semicolon" unicode=";" horiz-adv-x="265" 
d="M189 526q0 -14 -3 -25t-10 -17q-6 -5 -17 -7.5t-24 -2.5q-30 0 -41 11q-11 13 -11 40q0 15 4 26t12 15q5 3 14.5 6t23.5 3q28 0 39 -9q7 -5 10 -15.5t3 -24.5zM121 130h91l-131 -246h-73z" />
    <glyph glyph-name="less" unicode="&#x3c;" horiz-adv-x="679" 
d="M609 639v-75l-459 -227l459 -224v-75l-539 268v65z" />
    <glyph glyph-name="equal" unicode="=" horiz-adv-x="679" 
d="M70 488h539v-68h-539v68zM70 258h539v-69h-539v69z" />
    <glyph glyph-name="greater" unicode="&#x3e;" horiz-adv-x="679" 
d="M70 38v75l459 227l-459 224v75l539 -268v-65z" />
    <glyph glyph-name="question" unicode="?" horiz-adv-x="567" 
d="M268 760q70 0 117 -12t75.5 -35.5t40 -59t11.5 -83.5q0 -40 -8.5 -70t-27.5 -55t-49.5 -46.5t-74.5 -44.5q-25 -13 -40 -25.5t-22.5 -25.5t-9.5 -27t-2 -29v-36h-77v27q0 33 3.5 56.5t15.5 42.5t35 36t61 38q34 18 56 34.5t35 33.5t18 38t5 48q0 30 -7.5 53t-27.5 39
t-54 24t-87 8q-33 0 -64 -3.5t-58.5 -8t-50 -9.5t-38.5 -8v68q40 11 97.5 21.5t127.5 10.5zM292 45q0 -14 -2.5 -24.5t-9.5 -17.5q-7 -5 -18 -7t-23 -2q-31 0 -41 11q-12 12 -12 39q0 16 4.5 26.5t11.5 15.5q5 4 15 6.5t24 2.5q28 0 39 -10q7 -5 9.5 -15.5t2.5 -24.5z" />
    <glyph glyph-name="at" unicode="@" horiz-adv-x="966" 
d="M613 478q-19 2 -43 5.5t-56 3.5q-36 0 -62 -6.5t-45 -22.5q-35 -26 -53.5 -79t-20.5 -113q-1 -41 6 -64t18 -33t30 -16t42 -6q47 0 77 11t58 23zM896 377q0 -77 -17.5 -139t-47.5 -94q-26 -27 -68 -41t-87 -14q-40 0 -63.5 9t-35.5 22l-10 40h-3l-38 -47
q-18 -8 -48.5 -15.5t-69.5 -7.5q-31 0 -59 9t-46 27q-17 17 -26.5 49.5t-7.5 83.5q0 35 6 70t18 66.5t29.5 58.5t41.5 45q27 21 63.5 31t80.5 10q41 0 74 -5.5t60 -13.5l27 14h18l-49 -301q-8 -50 3 -68t53 -18q25 0 48.5 7.5t38.5 23.5q18 17 32.5 67.5t14.5 129.5
q0 72 -16 131.5t-51 98.5q-32 38 -101.5 58t-162.5 20q-92 0 -154.5 -18.5t-104.5 -56.5q-18 -17 -36 -44.5t-32.5 -65.5t-23 -87t-8.5 -109q0 -110 21.5 -178.5t62.5 -111.5q33 -34 100.5 -56.5t166.5 -22.5q81 0 146 10t113 22v-57q-45 -14 -112 -25t-156 -11
q-61 0 -109.5 7.5t-87 21t-67 31.5t-49.5 40q-20 21 -37.5 49t-30.5 66.5t-20.5 89.5t-7.5 118q0 66 10 122.5t27 101.5t40 79.5t50 57.5q104 86 301 86q111 0 190 -23.5t124 -71.5q40 -44 61.5 -111t21.5 -160z" />
    <glyph glyph-name="A" unicode="A" horiz-adv-x="758" 
d="M635 0l-87 248h-339l-94 -248h-85l290 750h136l271 -750h-92zM399 672h-31l-135 -354h292z" />
    <glyph glyph-name="B" unicode="B" horiz-adv-x="695" 
d="M640 214q0 -35 -6.5 -63t-17 -50.5t-23.5 -38t-26 -24.5q-54 -38 -171 -38h-289v750h277q109 0 149 -26q29 -17 45 -53t16 -90t-15 -88t-29 -50q-4 -3 -12 -7.5l-17.5 -10l-19 -10.5l-17.5 -9v-4q32 -5 61.5 -14t46.5 -26q20 -17 34 -54t14 -94zM510 563q0 75 -38 101
q-14 11 -43.5 15t-76.5 4h-164v-260h156q38 0 66.5 3t44.5 11q20 10 37.5 42.5t17.5 83.5zM556 213q0 43 -11.5 72.5t-31.5 43.5q-18 14 -56.5 19.5t-91.5 5.5h-177v-284h186q102 0 138 27q19 14 31.5 43t12.5 73z" />
    <glyph glyph-name="C" unicode="C" horiz-adv-x="705" 
d="M646 669l-83 11t-110 6q-79 0 -125 -14.5t-75 -37.5q-35 -28 -61 -96t-26 -166q0 -89 18 -153t50 -97q28 -28 75.5 -42.5t121.5 -14.5q63 0 118 8.5t97 16.5v-68q-46 -12 -105.5 -22t-126.5 -10q-47 0 -84.5 5t-67.5 15t-53.5 25t-42.5 35q-35 37 -59.5 107.5
t-24.5 185.5q0 68 10.5 121t26.5 93t36 67t40 43q40 34 99 53.5t152 19.5q65 0 112.5 -6.5t87.5 -14.5v-70z" />
    <glyph glyph-name="D" unicode="D" horiz-adv-x="800" 
d="M367 750q56 0 98.5 -4t75 -12.5t56 -21t41.5 -29.5q35 -35 57 -108t22 -187q0 -112 -29 -194.5t-77 -124.5q-19 -17 -43 -29.5t-57 -21.5t-75 -13.5t-97 -4.5h-232v750h260zM188 677v-603h135q98 0 151 12t82 37q32 28 54.5 94.5t22.5 166.5q0 85 -15 147t-47 96
q-29 31 -86.5 40.5t-127.5 9.5h-169z" />
    <glyph glyph-name="E" unicode="E" horiz-adv-x="633" 
d="M575 0h-466v750h469l-16 -72h-373v-259h328l-16 -71h-312v-275h406z" />
    <glyph glyph-name="F" unicode="F" horiz-adv-x="589" 
d="M107 0v750h467l-16 -72h-370v-280h326l-16 -72h-310v-326h-81z" />
    <glyph glyph-name="G" unicode="G" horiz-adv-x="777" 
d="M673 668q-40 5 -93.5 11t-122.5 6q-80 0 -128 -14.5t-77 -38.5q-35 -27 -61 -93.5t-26 -166.5q0 -96 17.5 -158.5t51.5 -95.5q28 -27 74.5 -41t122.5 -14q54 0 95 5.5t71 10.5v247h-207l15 68h274v-362q-48 -15 -116 -28.5t-148 -13.5q-90 0 -149 18.5t-99 56.5
q-17 17 -32.5 43t-27.5 62.5t-19 84t-7 108.5q0 66 9.5 118.5t25.5 92t36.5 67.5t42.5 46q19 16 43 29t54.5 23t69.5 15.5t90 5.5q67 0 122.5 -7t98.5 -15v-70z" />
    <glyph glyph-name="H" unicode="H" horiz-adv-x="804" 
d="M616 0v343h-428v-343h-81v750h81v-333h428v333h81v-750h-81z" />
    <glyph glyph-name="I" unicode="I" horiz-adv-x="295" 
d="M107 0v750h81v-750h-81z" />
    <glyph glyph-name="J" unicode="J" horiz-adv-x="579" 
d="M198 -11q-50 0 -94 6t-73 14v70q12 -3 30 -6t40 -5.5t45.5 -4t47.5 -1.5q59 0 97 11t59 33q11 11 19.5 27t14.5 39.5t9 55t3 74.5v448h82v-454q0 -50 -4.5 -88.5t-12.5 -67.5t-21 -50.5t-29 -37.5q-28 -28 -78 -45.5t-135 -17.5z" />
    <glyph glyph-name="K" unicode="K" horiz-adv-x="681" 
d="M657 0h-112l-310 347h-47v-347h-81v750h81v-387l353 387h106l-340 -361z" />
    <glyph glyph-name="L" unicode="L" horiz-adv-x="601" 
d="M190 73h392l-20 -73h-453v750h81v-677z" />
    <glyph glyph-name="M" unicode="M" horiz-adv-x="996" 
d="M807 0v671h-15l-250 -563h-103l-239 563h-16v-671h-75v750h141l237 -561h15l246 561h138v-750h-79z" />
    <glyph glyph-name="N" unicode="N" horiz-adv-x="842" 
d="M603 0l-401 669h-18v-669h-75v750h133l397 -663h17v663h77v-750h-130z" />
    <glyph glyph-name="O" unicode="O" horiz-adv-x="838" 
d="M408 63q70 0 115.5 16t71.5 39q31 28 54.5 95.5t23.5 161.5q0 93 -16 157.5t-46 96.5q-27 29 -75 44t-108 15q-66 0 -111 -15.5t-74 -41.5q-30 -29 -53 -97t-23 -165q0 -96 17 -153.5t46 -89.5q27 -32 74.5 -47.5t103.5 -15.5zM429 762q49 0 87 -6t67.5 -16.5t51.5 -25
t39 -32.5t32 -44t26 -63t17.5 -84.5t6.5 -108.5q0 -116 -30 -196.5t-75 -122.5q-40 -37 -103 -55.5t-141 -18.5q-92 0 -149 23t-92 61q-16 17 -31 41.5t-26.5 59.5t-18.5 81.5t-7 106.5q0 118 31 201t76 123q38 35 98 55.5t141 20.5z" />
    <glyph glyph-name="P" unicode="P" horiz-adv-x="665" 
d="M190 294v-294h-81v750h294q102 0 145 -31q29 -21 47 -64.5t18 -112.5q0 -63 -19.5 -114.5t-51.5 -78.5q-17 -15 -38 -25.5t-48 -17t-62.5 -9.5t-81.5 -3h-122zM529 535q0 48 -11.5 79t-29.5 45q-17 14 -45 19t-66 5h-187v-317h133q57 0 93.5 5t55.5 19q23 17 40 52.5
t17 92.5z" />
    <glyph glyph-name="Q" unicode="Q" horiz-adv-x="838" 
d="M429 762q49 0 87 -6t67.5 -16.5t51.5 -25t39 -32.5q34 -35 58 -107t24 -193q0 -115 -30 -196t-75 -123q-27 -25 -64 -41.5t-86 -24.5v-3l58 -28l132 -172h-103l-139 197q-10 -1 -20.5 -1.5t-21.5 -0.5q-93 0 -149.5 23t-91.5 61q-16 17 -31 41.5t-26.5 59.5t-18.5 81.5
t-7 106.5q0 118 31 201t76 123q38 34 97.5 55t141.5 21zM408 63q70 0 115.5 16t71.5 39q31 28 54.5 95.5t23.5 162.5q0 93 -16.5 157t-46.5 96q-27 29 -74.5 44t-107.5 15q-66 0 -111 -16t-73 -42q-31 -28 -54 -96t-23 -165q0 -96 17 -153.5t46 -89.5q27 -32 75.5 -47.5
t102.5 -15.5z" />
    <glyph glyph-name="R" unicode="R" horiz-adv-x="681" 
d="M356 750q80 0 123 -8.5t66 -24.5q26 -19 43 -56.5t17 -98.5q0 -56 -16 -97t-38 -64q-6 -5 -16.5 -11.5t-24.5 -14t-30 -14t-31 -11.5v-4q17 -8 37.5 -19.5t29.5 -22.5q11 -13 27 -43t35 -70.5l40.5 -89.5l44.5 -101h-93q-58 136 -95 209t-65 92q-15 11 -51.5 14.5
t-87.5 3.5h-83v-319h-81v750h249zM188 390h142q47 0 76 4t46 12q28 12 48.5 48.5t20.5 92.5q0 43 -10.5 69.5t-26.5 39.5q-17 13 -47.5 20t-91.5 7h-157v-293z" />
    <glyph glyph-name="S" unicode="S" horiz-adv-x="632" 
d="M571 191q0 -49 -16 -88.5t-40 -61.5q-31 -26 -88 -39.5t-137 -13.5q-67 0 -124.5 8t-95.5 19v69q42 -8 97.5 -15.5t125.5 -7.5q66 0 106.5 9.5t55.5 23.5q13 12 22 34.5t9 55.5q0 62 -23 85q-15 14 -43.5 26.5t-63.5 24.5l-73 24t-73 25.5t-63 28.5t-43 34
q-19 23 -26 57.5t-7 66.5q0 46 14 84.5t40 63.5q25 24 76.5 41t144.5 17q61 0 112.5 -5.5t88.5 -13.5v-69q-45 6 -93.5 11t-113.5 5q-63 0 -102.5 -10t-54.5 -27q-12 -13 -20.5 -36t-8.5 -52q0 -27 5 -47.5t16 -34.5q11 -13 38.5 -26t63.5 -26t76 -26t76.5 -27t65.5 -29.5
t42 -31.5q18 -23 26 -56.5t8 -69.5z" />
    <glyph glyph-name="T" unicode="T" horiz-adv-x="638" 
d="M607 677h-251v-677h-81v677h-260l17 73h590z" />
    <glyph glyph-name="U" unicode="U" horiz-adv-x="784" 
d="M682 750v-457q0 -97 -17.5 -152t-48.5 -88q-14 -14 -33.5 -26t-48 -21t-67 -14t-89.5 -5q-49 0 -86 6.5t-64.5 17t-46 24.5t-29.5 28t-20 32t-15 43.5t-9.5 60.5t-3.5 84v467h81v-449q0 -40 2 -69t6 -51t10.5 -37t15.5 -26q19 -23 58 -39.5t110 -16.5q69 0 109 12.5
t61 34.5q21 21 32 63t11 124v454h82z" />
    <glyph glyph-name="V" unicode="V" horiz-adv-x="744" 
d="M431 0h-138l-262 750h92l227 -670h29l243 670h90z" />
    <glyph glyph-name="W" unicode="W" horiz-adv-x="1131" 
d="M885 0h-138l-175 670h-15l-204 -670h-134l-173 750h85l152 -670h21l201 670h127l176 -670h22l169 670h86z" />
    <glyph glyph-name="X" unicode="X" horiz-adv-x="725" 
d="M338 340l-199 -340h-92l226 377l-207 373h94l181 -333h50l195 333h91l-221 -372l216 -378h-96l-189 340h-49z" />
    <glyph glyph-name="Y" unicode="Y" horiz-adv-x="685" 
d="M375 0h-82v271l-269 479h92l216 -391h10l226 391h92l-285 -480v-270z" />
    <glyph glyph-name="Z" unicode="Z" horiz-adv-x="697" 
d="M632 659l-483 -573v-15h507l-18 -71h-585v89l483 577v13h-450l16 71h530v-91z" />
    <glyph glyph-name="bracketleft" unicode="[" horiz-adv-x="357" 
d="M100 840h210v-56h-144v-818h144v-56h-210v930z" />
    <glyph glyph-name="backslash" unicode="\" horiz-adv-x="464" 
d="M432 0h-65l-334 750h65z" />
    <glyph glyph-name="bracketright" unicode="]" horiz-adv-x="357" 
d="M257 -90h-211v56h145v818h-145v56h211v-930z" />
    <glyph glyph-name="asciicircum" unicode="^" horiz-adv-x="679" 
d="M617 288h-73l-205 383l-204 -383h-73l248 457h60z" />
    <glyph glyph-name="underscore" unicode="_" horiz-adv-x="555" 
d="M-3 -108h560v-56h-560v56z" />
    <glyph glyph-name="grave" unicode="`" horiz-adv-x="370" 
d="M264 627h-71l-167 134h95z" />
    <glyph glyph-name="a" unicode="a" horiz-adv-x="617" 
d="M456 0l-18 65h-5q-8 -11 -20 -25t-16 -17q-14 -10 -55.5 -21.5t-103.5 -11.5q-57 0 -89 11.5t-50 31.5q-16 18 -25 46t-9 66q0 54 17 83.5t36 40.5q35 23 118 38.5t201 26.5q0 57 -6.5 89t-20.5 48q-13 17 -41.5 23.5t-71.5 6.5q-26 0 -53.5 -2.5t-53.5 -6t-49 -7
t-38 -6.5v62q17 5 41 10.5t52 10t58.5 8t62.5 3.5q114 0 158 -44q20 -20 31.5 -58.5t11.5 -115.5v-355h-62zM437 276q-42 -3 -86 -7t-82.5 -10t-66 -13t-35.5 -15q-10 -10 -16 -27.5t-6 -46.5q0 -49 22 -73q12 -12 36.5 -20t66.5 -8q56 0 101 11t66 21v188z" />
    <glyph glyph-name="b" unicode="b" horiz-adv-x="670" 
d="M598 306q0 -94 -22.5 -158.5t-60.5 -99.5q-30 -27 -75.5 -41t-112.5 -14q-54 0 -100.5 8t-82.5 17l-34 -18h-11v810h81v-311h6q4 5 10.5 12l13.5 14l12.5 12.5t8.5 7.5q6 4 20 9t34 9t44.5 7t51.5 3q54 0 90 -11t59 -33q32 -28 50 -82t18 -141zM514 293q0 73 -14 115
t-36 62q-17 16 -45.5 24t-72.5 8q-46 0 -90.5 -7.5t-75.5 -20.5v-401q26 -5 62 -8.5t77 -3.5q97 0 139 39q26 23 41 70.5t15 122.5z" />
    <glyph glyph-name="c" unicode="c" horiz-adv-x="563" 
d="M357 506q-51 0 -88 -10t-60 -33q-54 -54 -54 -188q0 -66 13.5 -109.5t41.5 -67.5q23 -21 56.5 -29.5t76.5 -8.5q51 0 93 5.5t72 10.5v-60q-31 -10 -76 -18.5t-106 -8.5q-119 0 -179 53q-76 69 -76 227q0 82 20 144t59 99q67 64 193 64q54 0 95.5 -6t69.5 -12v-65
q-26 3 -64.5 8t-86.5 5z" />
    <glyph glyph-name="d" unicode="d" horiz-adv-x="666" 
d="M486 813h82v-813h-66l-16 59h-6l-10 -12l-12.5 -14l-11.5 -12t-8 -7q-15 -8 -50.5 -17t-87.5 -9q-56 0 -95 11.5t-65 34.5q-30 26 -49 80.5t-19 147.5q0 90 21 153.5t59 98.5q61 57 180 57q50 0 86 -6t68 -14v262zM156 270q0 -75 14 -117.5t37 -62.5q19 -17 51 -25.5
t74 -8.5q40 0 80.5 7.5t73.5 23.5v404q-26 4 -62 8.5t-78 4.5q-48 0 -80 -9.5t-55 -30.5q-25 -23 -40 -70.5t-15 -123.5z" />
    <glyph glyph-name="e" unicode="e" horiz-adv-x="619" 
d="M73 272q0 153 64 227.5t199 74.5q63 0 105 -15.5t67.5 -45t36 -72.5t10.5 -98v-73h-398q0 -51 8.5 -90.5t30 -66t58 -40t92.5 -13.5q60 0 108.5 7t79.5 12l-6 -63q-33 -9 -84.5 -18t-111.5 -9q-72 0 -121 17.5t-80 53t-44.5 88.5t-13.5 124zM328 509q-88 0 -126 -44
t-43 -136h315v18q0 83 -32.5 122.5t-113.5 39.5z" />
    <glyph glyph-name="f" unicode="f" horiz-adv-x="395" 
d="M383 496h-180v-496h-81v496h-108l4 65h104v65q0 99 44 143t141 44q32 0 63.5 -3.5t46.5 -5.5v-60q-15 1 -40 3.5t-58 2.5q-37 0 -60 -8.5t-35.5 -25t-16.5 -42t-4 -58.5v-55h194z" />
    <glyph glyph-name="g" unicode="g" horiz-adv-x="669" 
d="M569 36q0 -56 -5 -97t-15 -71t-23.5 -51t-29.5 -36q-28 -25 -74.5 -40t-123.5 -15q-63 0 -115.5 8.5t-83.5 16.5v66q30 -5 82.5 -12t112.5 -7q62 0 96.5 10t54.5 27q20 19 31.5 63t11.5 128v38h-5l-11 -13t-13 -14l-12.5 -12.5t-8.5 -7.5q-14 -8 -51 -16t-88 -8
q-55 0 -92 11t-62 32q-36 28 -55.5 81.5t-19.5 140.5q0 89 21 152.5t60 99.5q30 27 76.5 42.5t115.5 15.5q57 0 101.5 -8.5t79.5 -17.5l33 19h12v-525zM153 270q0 -72 13.5 -113.5t37.5 -61.5q20 -17 53 -25t73 -8q42 0 84 7.5t74 22.5v398l-63 7t-77 4q-100 0 -142 -41
q-24 -25 -38.5 -71.5t-14.5 -118.5z" />
    <glyph glyph-name="h" unicode="h" horiz-adv-x="669" 
d="M488 0v341q0 51 -8 82t-26 48q-17 15 -44.5 22.5t-69.5 7.5q-46 0 -88.5 -10.5t-71.5 -24.5v-466h-81v810h81v-312h5q3 3 8.5 9.5t11.5 12.5l11.5 11.5l7.5 7.5q19 11 61.5 21t93.5 10q57 0 90.5 -11t55.5 -32q25 -24 35 -63.5t10 -95.5v-368h-82z" />
    <glyph glyph-name="i" unicode="i" horiz-adv-x="280" 
d="M99 0v561h81v-561h-81zM191 748q0 -12 -3 -23t-9 -16t-16.5 -7t-21.5 -2q-28 0 -38 10q-10 12 -10 38q0 30 15 40q4 3 13 5.5t22 2.5q25 0 36 -9q12 -11 12 -39z" />
    <glyph glyph-name="j" unicode="j" horiz-adv-x="280" 
d="M180 -75q0 -48 -8.5 -85t-28.5 -62.5t-54.5 -39t-85.5 -13.5q-32 0 -58 3.5l-40 5.5v59q14 -1 36.5 -3t50.5 -2q33 0 53.5 7.5t32.5 23.5t16.5 42t4.5 63v637h81v-636zM191 748q0 -12 -3 -23t-9 -16t-16.5 -7t-21.5 -2q-28 0 -38 10q-10 12 -10 38q0 30 15 40q4 3 13 5.5
t22 2.5q25 0 36 -9q12 -11 12 -39z" />
    <glyph glyph-name="k" unicode="k" horiz-adv-x="586" 
d="M573 0h-109l-243 273h-41v-273h-81v810h81v-524l275 275h106l-265 -255z" />
    <glyph glyph-name="l" unicode="l" horiz-adv-x="339" 
d="M178 810v-666q0 -50 19 -67t54 -17q23 0 41.5 2t33.5 5v-61q-20 -5 -46 -9.5t-55 -4.5q-68 0 -98 34t-30 111v673h81z" />
    <glyph glyph-name="m" unicode="m" horiz-adv-x="1019" 
d="M839 0v343q0 52 -8 81t-25 46q-17 15 -44 22.5t-61 7.5q-48 0 -86 -12t-64 -23v-465h-82v368q0 38 -6.5 62t-22.5 41q-15 15 -44 22t-62 7q-48 0 -87 -10.5t-66 -21.5v-468h-82v561h63l18 -64h6q2 2 8 9l12.5 14.5l12 13.5t6.5 6q19 9 59 19t89 10q51 0 84 -9.5t56 -29.5
q21 -19 29 -41h6q2 3 8.5 10t13 15l12 14.5t6.5 6.5q22 12 64 23t92 11q48 0 78.5 -10t52.5 -30q25 -23 35 -62t10 -96v-371h-81z" />
    <glyph glyph-name="n" unicode="n" horiz-adv-x="669" 
d="M489 0v345q0 48 -9 77t-26 46t-45.5 24t-65.5 7q-48 0 -90.5 -9.5t-72.5 -21.5v-468h-81v561h62l19 -64h6q2 3 8 9l12.5 13t12 12t7.5 6q19 11 63 21.5t96 10.5t85 -11t56 -33q23 -23 33.5 -62t10.5 -93v-370h-81z" />
    <glyph glyph-name="o" unicode="o" horiz-adv-x="673" 
d="M601 293q0 -83 -19 -144.5t-53 -95.5q-30 -30 -77.5 -47.5t-122.5 -17.5q-72 0 -119.5 18t-76.5 50q-25 27 -43 78t-18 133q0 84 21.5 147t59.5 98q31 29 79 46.5t117 17.5q67 0 113 -16t72 -44q32 -32 49.5 -84t17.5 -139zM334 56q44 0 77.5 11.5t53.5 31.5
q24 24 39 68.5t15 114.5q0 40 -3.5 69.5t-10 50.5t-15.5 35.5t-19 25.5q-19 20 -50 31.5t-79 11.5q-47 0 -79.5 -12.5t-49.5 -29.5q-23 -21 -40.5 -69t-17.5 -120q0 -60 11 -103t31 -65q19 -22 51 -36.5t86 -14.5z" />
    <glyph glyph-name="p" unicode="p" horiz-adv-x="667" 
d="M181 -273h-81v835h64l17 -58h5l10 12t12.5 13.5t12 11.5t8.5 7q14 9 54 17.5t88 8.5q55 0 92 -11.5t64 -34.5q29 -27 48.5 -81t19.5 -146q0 -94 -22 -156t-59 -97q-59 -56 -178 -56q-49 0 -87 5t-68 13v-283zM511 292q0 72 -13.5 115.5t-36.5 64.5q-37 33 -126 33
q-42 0 -82 -8.5t-72 -22.5v-404q26 -4 63.5 -8t78.5 -4q46 0 78.5 9t54.5 30q24 23 39.5 71t15.5 124z" />
    <glyph glyph-name="q" unicode="q" horiz-adv-x="672" 
d="M72 263q0 93 22 156.5t62 98.5q29 27 76.5 41.5t116.5 14.5q54 0 98 -8t80 -17l34 18h11v-832h-82v330h-5l-10 -12.5t-12.5 -14.5l-12 -12.5t-8.5 -6.5q-14 -9 -52 -17.5t-93 -8.5q-105 0 -154 43q-32 29 -51.5 84.5t-19.5 142.5zM156 273q0 -71 15 -114.5t36 -63.5
q36 -33 122 -33q43 0 86.5 6.5t74.5 20.5v406q-26 4 -62 8t-76 4q-98 0 -140 -41q-26 -23 -41 -70.5t-15 -122.5z" />
    <glyph glyph-name="r" unicode="r" horiz-adv-x="438" 
d="M162 561l18 -67h6q2 3 8 10l12.5 14.5l11.5 13t7 6.5q18 12 52.5 22t82.5 10q20 0 35 -1t26 -3v-78q-14 3 -36 6.5t-51 3.5q-47 0 -87.5 -12t-66.5 -29v-457h-81v561h63z" />
    <glyph glyph-name="s" unicode="s" horiz-adv-x="515" 
d="M454 158q0 -40 -10.5 -71t-35.5 -52.5t-67.5 -32.5t-106.5 -11q-45 0 -92.5 5.5t-78.5 13.5v64q32 -6 77 -12t89 -6t72.5 6t45 18t23 30t6.5 41q0 32 -15 51q-13 14 -41 24t-77 23q-60 14 -96 29.5t-56 41.5q-14 17 -19 39.5t-5 48.5q0 39 11.5 69.5t37 52.5t66 33.5
t98.5 11.5q49 0 90.5 -5t67.5 -10v-64q-32 5 -70.5 9t-81.5 4q-42 0 -69 -6.5t-43 -18.5t-22 -30t-6 -41q0 -14 3 -27t11 -23q12 -14 38.5 -25t80.5 -23q59 -14 93.5 -27.5t52.5 -33.5q29 -33 29 -96z" />
    <glyph glyph-name="t" unicode="t" horiz-adv-x="462" 
d="M409 496h-190v-342q0 -29 5.5 -46.5t17.5 -27.5t29.5 -13.5t41.5 -3.5q31 0 61 3.5l47 5.5l-7 -64q-24 -6 -57.5 -11t-70.5 -5q-81 0 -114.5 34.5t-33.5 112.5v357h-105l5 65h100v111l81 18v-129h205z" />
    <glyph glyph-name="u" unicode="u" horiz-adv-x="669" 
d="M507 0l-19 67h-6q-3 -3 -9 -10.5l-12 -15.5t-11.5 -14.5t-6.5 -6.5q-20 -11 -61.5 -19.5t-92.5 -8.5q-57 0 -90 11.5t-55 34.5q-24 24 -35 62.5t-11 92.5v368h81v-338q0 -51 8 -81.5t25 -47.5q32 -32 115 -32q45 0 88 9.5t72 22.5v467h82v-561h-62z" />
    <glyph glyph-name="v" unicode="v" horiz-adv-x="604" 
d="M361 0h-130l-205 561h88l172 -486h25l178 486h88z" />
    <glyph glyph-name="w" unicode="w" horiz-adv-x="959" 
d="M741 0h-124l-136 486h-16l-156 -486h-127l-137 561h82l113 -486h20l157 486h122l134 -486h20l133 486h82z" />
    <glyph glyph-name="x" unicode="x" horiz-adv-x="586" 
d="M273 248l-153 -248h-92l183 284l-168 277h94l139 -239h39l152 239h89l-179 -277l174 -284h-94l-146 248h-38z" />
    <glyph glyph-name="y" unicode="y" horiz-adv-x="604" 
d="M258 -274h-82l106 274h-53l-203 561h88l170 -488h25l181 488h87z" />
    <glyph glyph-name="z" unicode="z" horiz-adv-x="561" 
d="M499 472l-353 -390v-14h374l-19 -68h-451v82l358 398v13h-343l17 68h417v-89z" />
    <glyph glyph-name="braceleft" unicode="{" horiz-adv-x="376" 
d="M28 398q47 8 73.5 24t33.5 33q7 18 10.5 50.5t6.5 67.5t7 67.5t13 51.5t23.5 36.5t29.5 32t29.5 24.5t24.5 16h77q-34 -26 -67 -57.5t-51 -67.5q-10 -20 -14 -55.5t-7.5 -73t-8 -70.5t-14.5 -49q-10 -15 -34.5 -29.5t-53.5 -23.5v-8q29 -9 54 -23.5t35 -28.5
q10 -16 14.5 -49t7.5 -70.5t7 -72.5t14 -55q17 -36 51 -68.5t67 -58.5h-77q-10 6 -24.5 16t-29.5 24.5t-29 32t-24 37.5q-9 19 -13 51.5t-7 67.5t-6.5 67.5t-10.5 50.5q-7 17 -33.5 33t-73.5 24v53z" />
    <glyph glyph-name="bar" unicode="|" horiz-adv-x="233" 
d="M92 853h49v-1126h-49v1126z" />
    <glyph glyph-name="braceright" unicode="}" horiz-adv-x="376" 
d="M348 344q-47 -8 -73.5 -24t-33.5 -33q-8 -18 -11 -50.5l-6 -67.5t-7 -67.5t-13 -51.5q-10 -20 -24 -37t-29.5 -31.5t-30 -24.5t-24.5 -16h-75q33 26 66.5 57.5t50.5 67.5q10 20 14.5 55.5t7.5 73t7.5 70.5t14.5 49q10 15 34.5 29.5t53.5 23.5v8q-29 9 -53.5 23.5
t-34.5 28.5q-10 16 -14.5 49t-7.5 70.5t-7.5 72.5t-14.5 55q-17 36 -50.5 68.5t-66.5 58.5h76q10 -6 24 -16.5t29.5 -24.5t29.5 -31.5t24 -37.5q9 -19 13 -51.5t7 -67.5t6.5 -67.5t10.5 -50.5q7 -17 33.5 -33t73.5 -24v-53z" />
    <glyph glyph-name="asciitilde" unicode="~" horiz-adv-x="679" 
d="M454 259q-38 0 -68.5 14t-57 31.5t-52 31.5t-54.5 14q-17 0 -36 -7.5t-38.5 -20t-40 -28.5t-39.5 -34v75q15 15 34 29.5t40 26t43.5 18t43.5 6.5q37 0 66.5 -14t56 -31t51.5 -31t53 -14q21 0 41.5 8t40 20.5t38 28.5l35.5 31v-75q-36 -35 -77 -57t-80 -22z" />
    <glyph glyph-name="uni00A0" unicode="&#xa0;" horiz-adv-x="245" 
 />
    <glyph glyph-name="exclamdown" unicode="&#xa1;" horiz-adv-x="296" 
d="M182 361l6 -548h-83l8 548h69zM93 518q0 28 14 42q6 5 17 7t24 2q28 0 41 -11q11 -13 11 -40q0 -15 -4.5 -26t-11.5 -16q-6 -3 -15 -5.5t-23 -2.5q-29 0 -39 9q-14 11 -14 41z" />
    <glyph glyph-name="cent" unicode="&#xa2;" horiz-adv-x="679" 
d="M338 93q-58 2 -100 17t-71 43q-70 67 -70 214q0 74 17.5 131t50.5 94q58 65 173 73v85h45v-84q48 -1 86 -7t64 -12v-65q-27 5 -64.5 9t-85.5 5v-433q46 2 84 7.5t66 10.5v-60q-27 -9 -64.5 -17t-85.5 -10v-94h-45v93zM229 205q38 -37 109 -41v430q-79 -6 -116 -50
q-43 -54 -43 -172t50 -167z" />
    <glyph glyph-name="sterling" unicode="&#xa3;" horiz-adv-x="679" 
d="M481 329h-226v-209l-45 -43v-6h431l-17 -71h-565l16 71h101v258h-102l16 59h86v136q0 118 63.5 176.5t203.5 58.5q51 0 93.5 -5t78.5 -12v-69q-32 5 -75 11t-94 6q-55 0 -92 -11t-59 -32.5t-31 -53.5t-9 -74v-131h242z" />
    <glyph glyph-name="currency" unicode="&#xa4;" horiz-adv-x="679" 
d="M127 597l79 -79q28 20 61.5 32.5t71.5 12.5t71.5 -12t62.5 -33l79 79l45 -45l-81 -80q22 -27 34 -61t12 -71q0 -38 -12 -71.5t-33 -61.5l80 -79l-45 -45l-79 79q-28 -21 -62 -32.5t-72 -11.5t-71.5 11.5t-61.5 32.5l-79 -79l-44 45l78 79q-20 27 -32 61t-12 72t12 72
t32 61l-78 79zM179 340q0 -34 12.5 -63t34.5 -50.5t51 -34t62 -12.5t62 12.5t51 34t34.5 50.5t12.5 63q0 33 -12.5 62t-34.5 51t-51 34.5t-62 12.5t-62 -12.5t-51 -34.5t-34.5 -51t-12.5 -62z" />
    <glyph glyph-name="yen" unicode="&#xa5;" horiz-adv-x="679" 
d="M283 308l-257 442h93l211 -373h8l222 373h93l-273 -442h228l-15 -52h-221v-97h236l-15 -52h-221v-107h-81v107h-236l15 52h221v97h-236l15 52h213z" />
    <glyph glyph-name="brokenbar" unicode="&#xa6;" horiz-adv-x="234" 
d="M92 853h49v-450h-49v450zM92 177h49v-450h-49v450z" />
    <glyph glyph-name="section" unicode="&#xa7;" horiz-adv-x="575" 
d="M528 329q0 -69 -29 -108.5t-80 -54.5q23 -10 36 -23q28 -31 28 -95q0 -35 -9.5 -64t-34.5 -50t-67.5 -32.5t-109.5 -11.5q-45 0 -91.5 5t-78.5 13v61q29 -5 72 -10t91 -5q44 0 73 5.5t45.5 17t23 29t6.5 41.5q0 14 -3 27t-13 23q-14 14 -52.5 24t-86.5 20
q-69 13 -107.5 27.5t-60.5 38.5q-16 17 -25 45.5t-9 75.5q0 59 25 99t84 57q-21 8 -35 24q-13 15 -20 38.5t-7 48.5q0 75 48.5 116t164.5 41q49 0 89.5 -5.5t69.5 -11.5v-60q-33 5 -71 10t-80 5q-43 0 -71 -6t-44 -18t-22 -29t-6 -39q0 -14 4 -27t13 -21q14 -12 49.5 -21.5
t93.5 -20.5q71 -13 108 -28.5t54 -33.5q17 -17 26 -44t9 -73zM427 400q-16 15 -45.5 25.5t-82.5 21.5q-27 6 -45 8t-29 2q-51 0 -77.5 -32.5t-26.5 -87.5q0 -33 6.5 -54t17.5 -32q14 -14 45 -24.5t91 -24.5l28 -5t34 -3q51 0 80 31t29 92q0 32 -6.5 51.5t-18.5 31.5z" />
    <glyph glyph-name="dieresis" unicode="&#xa8;" horiz-adv-x="370" 
d="M133 682q0 -22 -10 -31q-11 -9 -32 -9q-22 0 -33 10q-9 9 -9 30q0 22 12 32q10 7 31 7q10 0 18 -1.5t13 -5.5q10 -9 10 -32zM319 682q0 -21 -10 -31q-5 -5 -14 -7t-19 -2q-22 0 -32 10q-10 8 -10 30t13 32q9 7 31 7q10 0 18 -1.5t13 -5.5q10 -10 10 -32z" />
    <glyph glyph-name="copyright" unicode="&#xa9;" horiz-adv-x="807" 
d="M439 552q-87 0 -123 -40q-21 -23 -30 -58t-9 -85q0 -51 10.5 -85.5t33.5 -54.5q19 -17 47 -24t66 -7q43 0 76 6t56 11v-53q-24 -8 -60 -15.5t-89 -7.5q-50 0 -86 11.5t-61 33.5q-32 29 -46 74.5t-14 103.5q0 67 14 115.5t45 79.5q54 54 163 54q43 0 76.5 -5.5t58.5 -11.5
v-55q-23 4 -54 8.5t-74 4.5zM397 31q81 0 134.5 16.5t91.5 49.5q21 18 39.5 46t32 63.5t21.5 78.5t8 91q0 100 -21.5 166t-56.5 103q-33 35 -91 54.5t-133 19.5t-131 -18.5t-96 -52.5q-17 -15 -35 -41t-32.5 -61.5t-24 -80t-9.5 -96.5q0 -94 23 -160t61 -105
q30 -32 83.5 -52.5t135.5 -20.5zM422 760q95 0 156.5 -24.5t97.5 -59.5q17 -17 33.5 -43t29 -62t20.5 -83t8 -107q0 -113 -34 -192.5t-82 -123.5q-39 -36 -104.5 -56.5t-151.5 -20.5q-95 0 -153 24.5t-96 62.5q-17 17 -34.5 42.5t-31 60.5t-22 80.5t-8.5 102.5
q0 60 9.5 109.5t26 89t38 69.5t45.5 50q40 34 102 57.5t151 23.5z" />
    <glyph glyph-name="ordfeminine" unicode="&#xaa;" horiz-adv-x="435" 
d="M306 384l-11 44l-23 -29q-8 -5 -37.5 -13t-69.5 -8q-38 0 -61 8.5t-34 20.5q-23 23 -23 73q0 28 8.5 47.5t20.5 29.5q22 17 77.5 27t140.5 18q0 36 -3.5 54.5t-11.5 27.5q-8 8 -25 12.5t-48 4.5q-34 0 -72 -5t-62 -10v47q10 3 27.5 6.5t38.5 6.5t43.5 5t43.5 2
q41 0 66.5 -8t39.5 -22q13 -14 20.5 -38.5t7.5 -76.5v-224h-53zM294 557q-27 -2 -55.5 -4.5t-52.5 -6.5t-42 -9t-24 -11q-11 -9 -11 -40q0 -30 13 -43q14 -16 66 -16q35 0 64 6.5t42 13.5v110z" />
    <glyph glyph-name="guillemotleft" unicode="&#xab;" horiz-adv-x="557" 
d="M495 43l-207 213v55l207 211v-80l-143 -148v-19l143 -151v-81zM260 43l-207 213v55l207 211v-80l-143 -148v-19l143 -151v-81z" />
    <glyph glyph-name="logicalnot" unicode="&#xac;" horiz-adv-x="679" 
d="M609 151h-67v254h-472v67h539v-321z" />
    <glyph glyph-name="uni00AD" unicode="&#xad;" horiz-adv-x="414" 
d="M342 275h-270v76h270v-76z" />
    <glyph glyph-name="registered" unicode="&#xae;" horiz-adv-x="807" 
d="M422 760q95 0 156.5 -24t96.5 -59q18 -18 34.5 -44t29.5 -62t20.5 -83t7.5 -107q0 -113 -34 -192.5t-82 -123.5q-39 -36 -104.5 -56.5t-151.5 -20.5q-95 0 -153 24.5t-96 62.5q-17 17 -34.5 42.5t-31 60.5t-22 80.5t-8.5 102.5q0 60 9.5 109.5t26 89t38 69.5t45.5 50
q41 35 102.5 58t150.5 23zM397 30q81 0 134.5 17t91.5 49q21 18 39.5 46t32 64t21.5 79t8 91q0 100 -21.5 166t-56.5 103q-33 35 -91 54.5t-133 19.5t-131 -18.5t-96 -52.5q-17 -15 -35 -41t-32.5 -61.5t-24 -80t-9.5 -96.5q0 -94 23 -160.5t61 -104.5q30 -32 83.5 -53
t135.5 -21zM418 603q41 0 71 -5t50 -18q20 -12 32 -38t12 -67q0 -32 -12 -59.5t-33 -42.5q-5 -2 -24 -9t-42 -14v-1l26 -11.5t20 -12.5q19 -17 44.5 -65l58.5 -113h-72l-57 109q-15 30 -27.5 45.5t-24.5 21.5q-11 5 -29.5 7t-35.5 2h-67v-185h-65v456h175zM308 381h79
q23 0 44.5 2.5t33.5 7.5q23 8 37 29.5t14 51.5q0 46 -23 64q-11 8 -34 12t-53 4h-98v-171z" />
    <glyph glyph-name="macron" unicode="&#xaf;" horiz-adv-x="370" 
d="M57 701h258v-54h-258v54z" />
    <glyph glyph-name="degree" unicode="&#xb0;" horiz-adv-x="440" 
d="M50 590q0 35 13 66t36 54t54 36.5t67 13.5q35 0 66 -13.5t54 -36.5t36 -54t13 -66t-13 -66t-36 -54t-54 -36.5t-66 -13.5q-36 0 -67 13.5t-54 36.5t-36 54t-13 66zM96 590q0 -26 9.5 -48.5t26.5 -39.5t39.5 -26.5t48.5 -9.5q25 0 47.5 9.5t39.5 26.5t26.5 39.5t9.5 48.5
t-9.5 48.5t-26.5 39.5t-39.5 26.5t-47.5 9.5q-26 0 -48.5 -9.5t-39.5 -26.5t-26.5 -39.5t-9.5 -48.5z" />
    <glyph glyph-name="plusminus" unicode="&#xb1;" horiz-adv-x="679" 
d="M70 450h236v218h67v-218h236v-67h-236v-219h-67v219h-236v67zM609 0h-539v67h539v-67z" />
    <glyph glyph-name="twosuperior" unicode="&#xb2;" horiz-adv-x="491" 
d="M413 395h-356v38q1 30 10.5 53.5t29 44.5t49.5 41t74 41q53 25 79 40.5t37 29.5q10 12 13 27t3 31q0 21 -5 36.5t-18.5 25t-36.5 14t-60 4.5q-43 0 -85.5 -6.5t-67.5 -11.5v51q31 8 76.5 14.5t90.5 6.5q50 0 83.5 -7.5t53.5 -23.5t28.5 -39.5t8.5 -56.5q0 -32 -6.5 -54.5
t-19.5 -39.5q-19 -22 -52.5 -41t-92.5 -46q-38 -17 -62 -32.5t-38 -29.5t-20 -27.5t-7 -27.5h305z" />
    <glyph glyph-name="threesuperior" unicode="&#xb3;" 
d="M399 755q0 -33 -12.5 -57.5t-22.5 -34.5l-49 -22l52 -17q17 -14 28.5 -41t11.5 -59q0 -34 -10 -59.5t-33 -42.5t-60.5 -25.5t-92.5 -8.5q-45 0 -80.5 5.5t-60.5 11.5v50q26 -5 63 -9.5t72 -4.5q42 0 68.5 5.5t41.5 16t20.5 25.5t5.5 35q0 27 -8.5 44t-25.5 26t-42 12.5
t-59 3.5h-84v52h82q28 0 52 3.5t40.5 13t26 25.5t9.5 41q0 20 -4.5 34.5t-17 24.5t-34.5 14.5t-56 4.5q-39 0 -76 -5t-63 -10v49q28 6 68.5 12.5t84.5 6.5q47 0 78.5 -7.5t51 -22.5t27.5 -37.5t8 -52.5z" />
    <glyph glyph-name="acute" unicode="&#xb4;" horiz-adv-x="370" 
d="M243 761h95l-169 -134h-72z" />
    <glyph glyph-name="mu" unicode="&#xb5;" horiz-adv-x="669" 
d="M507 0l-19 73h-6l-7 -11t-11 -16t-10.5 -15t-5.5 -7q-17 -10 -50.5 -20.5t-78.5 -10.5q-53 0 -87.5 15.5t-51.5 41.5v-323h-81v834h81v-348q0 -44 11.5 -72.5t32 -45.5t47.5 -24t57 -7q45 0 87.5 11.5t71.5 28.5v457h81v-561h-61z" />
    <glyph glyph-name="paragraph" unicode="&#xb6;" horiz-adv-x="575" 
d="M431 690q-17 2 -37.5 4t-43.5 3v-807h-50v450q-21 -6 -47.5 -9.5t-56.5 -3.5q-37 0 -62.5 10.5t-41.5 27.5q-17 21 -30.5 58.5t-13.5 100.5q0 66 16 112.5t44 70.5q21 20 61.5 32.5t109.5 12.5q30 0 62 -2.5t64.5 -6t62.5 -9t56 -11.5v-50l-21 4.5t-23 4.5v-792h-49v800z
" />
    <glyph glyph-name="periodcentered" unicode="&#xb7;" horiz-adv-x="268" 
d="M187 340q0 -13 -3 -24t-10 -17q-6 -5 -17 -7.5t-23 -2.5q-29 0 -42 11q-11 13 -11 40q0 15 5 26t11 16q5 3 14.5 6t23.5 3q27 0 39 -10q13 -10 13 -41z" />
    <glyph glyph-name="cedilla" unicode="&#xb8;" horiz-adv-x="370" 
d="M154 0h39l-11 -51q30 -1 51 -5t33 -15q12 -9 18 -26.5t6 -39.5q0 -23 -7.5 -41t-18.5 -28q-14 -11 -38.5 -17t-62.5 -6q-29 0 -54 4t-42 9v42q17 -4 41 -7.5t50 -3.5q31 0 45.5 4t20.5 10q5 4 9.5 13.5t4.5 21.5t-4 21t-9 14q-7 6 -22 9.5t-45 3.5h-24z" />
    <glyph glyph-name="onesuperior" unicode="&#xb9;" 
d="M81 395v53h142l-1 371l-141 -23v53l205 34v-435h129v-53h-334z" />
    <glyph glyph-name="ordmasculine" unicode="&#xba;" horiz-adv-x="466" 
d="M413 569q0 -54 -15 -94t-38 -61q-21 -18 -52 -29t-79 -11q-51 0 -82 11.5t-50 31.5q-17 18 -30.5 51.5t-13.5 87.5t16.5 94.5t40.5 62.5q20 17 52.5 28.5t79.5 11.5t77.5 -11t47.5 -29q20 -20 33 -53.5t13 -90.5zM350 563q0 47 -8.5 72.5t-22.5 38.5q-12 12 -32 19t-50 7
t-51 -7.5t-32 -17.5q-14 -12 -25.5 -42.5t-11.5 -72.5q0 -38 8 -64.5t20 -40.5q12 -13 32.5 -21t53.5 -8q29 0 50 6.5t34 17.5q15 14 25 42t10 71z" />
    <glyph glyph-name="guillemotright" unicode="&#xbb;" horiz-adv-x="557" 
d="M288 522l207 -211v-56l-207 -212v80l144 149v20l-144 149v81zM53 522l207 -211v-56l-207 -212v80l144 149v20l-144 149v81z" />
    <glyph glyph-name="onequarter" unicode="&#xbc;" horiz-adv-x="1138" 
d="M984 0h-59v127h-252v53l213 294h98v-294h110l-15 -53h-95v-127zM925 180v242h-12q-5 -6 -18.5 -24.5l-31 -43l-37.5 -52l-37.5 -52l-31 -43t-18.5 -24.5v-3h186zM81 275v53h142l-1 371l-141 -23v53l205 34v-435h129v-53h-334zM793 750h60l-495 -750h-61z" />
    <glyph glyph-name="onehalf" unicode="&#xbd;" horiz-adv-x="1158" 
d="M1078 0h-356v37q1 30 10.5 54t29 45t49.5 41t74 41q53 25 79 40.5t37 29.5q10 12 13 27t3 31q0 21 -5 36.5t-18.5 25t-36.5 14t-60 4.5q-21 0 -43.5 -2t-43 -5t-37.5 -6l-29 -5v51q31 8 76.5 14.5t90.5 6.5q50 0 83.5 -7.5t53.5 -23.5t28.5 -39.5t8.5 -56.5
q0 -32 -6.5 -54.5t-19.5 -39.5q-19 -22 -52.5 -40.5t-92.5 -46.5q-38 -18 -62 -33t-38 -29t-20 -27.5t-7 -27.5h305zM81 275v53h142l-1 371l-141 -23v53l205 34v-435h129v-53h-334zM796 750h60l-495 -750h-61z" />
    <glyph glyph-name="threequarters" unicode="&#xbe;" horiz-adv-x="1130" 
d="M399 635q0 -33 -12.5 -57.5t-22.5 -34.5l-49 -22l52 -17q17 -14 28.5 -41t11.5 -59q0 -34 -10 -59.5t-33 -42.5t-60.5 -25.5t-92.5 -8.5q-45 0 -80.5 5.5t-60.5 11.5v50q26 -5 63 -9.5t72 -4.5q42 0 68.5 5.5t41.5 16t20.5 25.5t5.5 35q0 27 -8.5 44t-25.5 26t-42 12.5
t-59 3.5h-84v52h82q28 0 52 3.5t40.5 13t26 25.5t9.5 41q0 20 -4.5 34.5t-17 24.5t-34.5 14.5t-56 4.5q-39 0 -76 -5t-63 -10v49q28 6 68.5 12.5t84.5 6.5q47 0 78.5 -7.5t51 -22.5t27.5 -37.5t8 -52.5zM976 0h-59v127h-252v53l213 294h98v-294h110l-15 -53h-95v-127z
M917 180v242h-12q-5 -6 -18.5 -24.5l-31 -43l-37.5 -52l-37.5 -52l-31 -43t-18.5 -24.5v-3h186zM785 750h60l-495 -750h-61z" />
    <glyph glyph-name="questiondown" unicode="&#xbf;" horiz-adv-x="565" 
d="M299 -191q-71 0 -118 12t-75 36t-39.5 59.5t-11.5 82.5q0 40 8.5 70t27 55t49 47t75.5 45q25 12 39.5 24.5t22 25.5t9.5 26.5t2 28.5v37h76v-27q0 -33 -3.5 -56.5t-15.5 -42.5t-34.5 -35.5t-60.5 -36.5q-35 -19 -57 -35.5t-34.5 -34t-17.5 -38t-5 -47.5q0 -30 7.5 -53.5
t27.5 -39t54 -23.5t87 -8q33 0 64 3.5t58.5 8t50 9.5t38.5 9v-69q-41 -12 -98 -22.5t-126 -10.5zM272 523q0 14 3 25.5t11 17.5q6 5 17 7.5t23 2.5q29 0 42 -11q11 -13 11 -41q0 -33 -16 -43q-5 -3 -14.5 -6t-23.5 -3q-27 0 -39 10q-8 5 -11 16t-3 25z" />
    <glyph glyph-name="Agrave" unicode="&#xc0;" horiz-adv-x="758" 
d="M635 0l-87 248h-339l-94 -248h-85l290 750h136l271 -750h-92zM399 672h-31l-135 -354h292zM450 816h-71l-167 134h95z" />
    <glyph glyph-name="Aacute" unicode="&#xc1;" horiz-adv-x="758" 
d="M635 0l-87 248h-339l-94 -248h-85l290 750h136l271 -750h-92zM399 672h-31l-135 -354h292zM466 950h95l-169 -134h-72z" />
    <glyph glyph-name="Acircumflex" unicode="&#xc2;" horiz-adv-x="758" 
d="M635 0l-87 248h-339l-94 -248h-85l290 750h136l271 -750h-92zM399 672h-31l-135 -354h292zM543 821h-65l-92 83l-92 -83h-65l129 125h56z" />
    <glyph glyph-name="Atilde" unicode="&#xc3;" horiz-adv-x="758" 
d="M635 0l-87 248h-339l-94 -248h-85l290 750h136l271 -750h-92zM399 672h-31l-135 -354h292zM227 831q5 43 27.5 70.5t65.5 27.5q22 0 40.5 -9t34.5 -20.5t31 -20.5t32 -9q18 0 30 12t17 40h44q-5 -46 -28 -72.5t-64 -26.5q-23 0 -41.5 9t-34.5 20.5t-31.5 20.5t-31.5 9
q-37 0 -46 -51h-45z" />
    <glyph glyph-name="Adieresis" unicode="&#xc4;" horiz-adv-x="758" 
d="M635 0l-87 248h-339l-94 -248h-85l290 750h136l271 -750h-92zM399 672h-31l-135 -354h292zM335 871q0 -22 -10 -31q-11 -9 -32 -9q-22 0 -33 10q-9 9 -9 30q0 22 12 32q10 7 31 7q10 0 18 -1.5t13 -5.5q10 -9 10 -32zM521 871q0 -21 -10 -31q-5 -5 -14 -7t-19 -2
q-22 0 -32 10q-10 8 -10 30t13 32q9 7 31 7q10 0 18 -1.5t13 -5.5q10 -10 10 -32z" />
    <glyph glyph-name="Aring" unicode="&#xc5;" horiz-adv-x="758" 
d="M635 0l-87 248h-339l-94 -248h-85l290 750h136l271 -750h-92zM399 672h-31l-135 -354h292zM439 883q0 20 -4 29t-10 14q-9 9 -34 9t-35 -10q-7 -5 -12 -16.5t-5 -27.5q0 -13 3.5 -22.5t8.5 -14.5q11 -13 38 -13q26 0 36 11q6 5 10 14.5t4 26.5zM481 887q0 -23 -7.5 -41.5
t-18.5 -29.5q-11 -9 -26.5 -15t-41.5 -6q-23 0 -39.5 6t-26.5 16q-9 8 -16 23.5t-7 37.5q0 25 8 43t21 29q11 9 27.5 15t40.5 6q22 0 37.5 -6t24.5 -14q11 -10 17.5 -25t6.5 -39z" />
    <glyph glyph-name="AE" unicode="&#xc6;" horiz-adv-x="1006" 
d="M950 750l-16 -72h-372v-259h328l-16 -71h-312v-275h406l-20 -73h-467v246h-273l-131 -246h-91l408 750h556zM481 678h-43l-194 -361h237v361z" />
    <glyph glyph-name="Ccedilla" unicode="&#xc7;" horiz-adv-x="705" 
d="M393 -10q-85 2 -137.5 22t-89.5 58q-35 37 -59.5 107.5t-24.5 185.5q0 68 10.5 121t26.5 93t36 67t40 43q40 34 99 53.5t152 19.5q65 0 112.5 -6.5t87.5 -14.5v-70l-83 11t-110 6q-79 0 -125 -14.5t-75 -37.5q-35 -28 -61 -96t-26 -166q0 -89 18 -153t50 -97
q28 -28 75.5 -42.5t121.5 -14.5q63 0 118 8.5t97 16.5v-68q-43 -11 -97.5 -20.5t-116.5 -11.5l-9 -41q30 -1 51 -5t33 -15q12 -9 18 -26.5t6 -39.5q0 -23 -7.5 -41t-18.5 -28q-14 -11 -38.5 -17t-62.5 -6q-29 0 -54 4t-42 9v42q17 -4 41 -7.5t50 -3.5q31 0 45.5 4t20.5 10
q5 4 9.5 13.5t4.5 21.5t-4 21t-9 14q-7 6 -22 9.5t-45 3.5h-24z" />
    <glyph glyph-name="Egrave" unicode="&#xc8;" horiz-adv-x="633" 
d="M575 0h-466v750h469l-16 -72h-373v-259h328l-16 -71h-312v-275h406zM411 816h-71l-167 134h95z" />
    <glyph glyph-name="Eacute" unicode="&#xc9;" horiz-adv-x="633" 
d="M575 0h-466v750h469l-16 -72h-373v-259h328l-16 -71h-312v-275h406zM412 950h95l-169 -134h-72z" />
    <glyph glyph-name="Ecircumflex" unicode="&#xca;" horiz-adv-x="633" 
d="M575 0h-466v750h469l-16 -72h-373v-259h328l-16 -71h-312v-275h406zM500 821h-65l-92 83l-92 -83h-65l129 125h56z" />
    <glyph glyph-name="Edieresis" unicode="&#xcb;" horiz-adv-x="633" 
d="M575 0h-466v750h469l-16 -72h-373v-259h328l-16 -71h-312v-275h406zM298 871q0 -22 -10 -31q-11 -9 -32 -9q-22 0 -33 10q-9 9 -9 30q0 22 12 32q10 7 31 7q10 0 18 -1.5t13 -5.5q10 -9 10 -32zM484 871q0 -21 -10 -31q-5 -5 -14 -7t-19 -2q-22 0 -32 10q-10 8 -10 30
t13 32q9 7 31 7q10 0 18 -1.5t13 -5.5q10 -10 10 -32z" />
    <glyph glyph-name="Igrave" unicode="&#xcc;" horiz-adv-x="295" 
d="M107 0v750h81v-750h-81zM205 816h-71l-167 134h95z" />
    <glyph glyph-name="Iacute" unicode="&#xcd;" horiz-adv-x="295" 
d="M107 0v750h81v-750h-81zM228 950h95l-169 -134h-72z" />
    <glyph glyph-name="Icircumflex" unicode="&#xce;" horiz-adv-x="295" 
d="M107 0v750h81v-750h-81zM305 821h-65l-92 83l-92 -83h-65l129 125h56z" />
    <glyph glyph-name="Idieresis" unicode="&#xcf;" horiz-adv-x="295" 
d="M107 0v750h81v-750h-81zM97 871q0 -22 -10 -31q-11 -9 -32 -9q-22 0 -33 10q-9 9 -9 30q0 22 12 32q10 7 31 7q10 0 18 -1.5t13 -5.5q10 -9 10 -32zM283 871q0 -21 -10 -31q-5 -5 -14 -7t-19 -2q-22 0 -32 10q-10 8 -10 30t13 32q9 7 31 7q10 0 18 -1.5t13 -5.5
q10 -10 10 -32z" />
    <glyph glyph-name="Eth" unicode="&#xd0;" horiz-adv-x="800" 
d="M367 750q56 0 98.5 -4t75 -12.5t56 -21t41.5 -29.5q35 -35 57 -108t22 -187q0 -112 -29 -194.5t-77 -124.5q-19 -17 -43 -29.5t-57 -21.5t-75 -13.5t-97 -4.5h-232v351h-99l12 56h87v343h260zM188 677v-270h225l-13 -56h-212v-277h135q98 0 151 12t82 37q32 28 54.5 94.5
t22.5 166.5q0 85 -15 147t-47 96q-29 31 -86.5 40.5t-127.5 9.5h-169z" />
    <glyph glyph-name="Ntilde" unicode="&#xd1;" horiz-adv-x="842" 
d="M603 0l-401 669h-18v-669h-75v750h133l397 -663h17v663h77v-750h-130zM272 831q5 43 27.5 70.5t65.5 27.5q22 0 40.5 -9t34.5 -20.5t31 -20.5t32 -9q18 0 30 12t17 40h44q-5 -46 -28 -72.5t-64 -26.5q-23 0 -41.5 9t-34.5 20.5t-31.5 20.5t-31.5 9q-37 0 -46 -51h-45z
" />
    <glyph glyph-name="Ograve" unicode="&#xd2;" horiz-adv-x="838" 
d="M408 63q70 0 115.5 16t71.5 39q31 28 54.5 95.5t23.5 161.5q0 93 -16 157.5t-46 96.5q-27 29 -75 44t-108 15q-66 0 -111 -15.5t-74 -41.5q-30 -29 -53 -97t-23 -165q0 -96 17 -153.5t46 -89.5q27 -32 74.5 -47.5t103.5 -15.5zM429 762q49 0 87 -6t67.5 -16.5t51.5 -25
t39 -32.5t32 -44t26 -63t17.5 -84.5t6.5 -108.5q0 -116 -30 -196.5t-75 -122.5q-40 -37 -103 -55.5t-141 -18.5q-92 0 -149 23t-92 61q-16 17 -31 41.5t-26.5 59.5t-18.5 81.5t-7 106.5q0 118 31 201t76 123q38 35 98 55.5t141 20.5zM496 816h-71l-167 134h95z" />
    <glyph glyph-name="Oacute" unicode="&#xd3;" horiz-adv-x="838" 
d="M408 63q70 0 115.5 16t71.5 39q31 28 54.5 95.5t23.5 161.5q0 93 -16 157.5t-46 96.5q-27 29 -75 44t-108 15q-66 0 -111 -15.5t-74 -41.5q-30 -29 -53 -97t-23 -165q0 -96 17 -153.5t46 -89.5q27 -32 74.5 -47.5t103.5 -15.5zM429 762q49 0 87 -6t67.5 -16.5t51.5 -25
t39 -32.5t32 -44t26 -63t17.5 -84.5t6.5 -108.5q0 -116 -30 -196.5t-75 -122.5q-40 -37 -103 -55.5t-141 -18.5q-92 0 -149 23t-92 61q-16 17 -31 41.5t-26.5 59.5t-18.5 81.5t-7 106.5q0 118 31 201t76 123q38 35 98 55.5t141 20.5zM487 950h95l-169 -134h-72z" />
    <glyph glyph-name="Ocircumflex" unicode="&#xd4;" horiz-adv-x="838" 
d="M408 63q70 0 115.5 16t71.5 39q31 28 54.5 95.5t23.5 161.5q0 93 -16 157.5t-46 96.5q-27 29 -75 44t-108 15q-66 0 -111 -15.5t-74 -41.5q-30 -29 -53 -97t-23 -165q0 -96 17 -153.5t46 -89.5q27 -32 74.5 -47.5t103.5 -15.5zM429 762q49 0 87 -6t67.5 -16.5t51.5 -25
t39 -32.5t32 -44t26 -63t17.5 -84.5t6.5 -108.5q0 -116 -30 -196.5t-75 -122.5q-40 -37 -103 -55.5t-141 -18.5q-92 0 -149 23t-92 61q-16 17 -31 41.5t-26.5 59.5t-18.5 81.5t-7 106.5q0 118 31 201t76 123q38 35 98 55.5t141 20.5zM581 821h-65l-92 83l-92 -83h-65
l129 125h56z" />
    <glyph glyph-name="Otilde" unicode="&#xd5;" horiz-adv-x="838" 
d="M408 63q70 0 115.5 16t71.5 39q31 28 54.5 95.5t23.5 161.5q0 93 -16 157.5t-46 96.5q-27 29 -75 44t-108 15q-66 0 -111 -15.5t-74 -41.5q-30 -29 -53 -97t-23 -165q0 -96 17 -153.5t46 -89.5q27 -32 74.5 -47.5t103.5 -15.5zM429 762q49 0 87 -6t67.5 -16.5t51.5 -25
t39 -32.5t32 -44t26 -63t17.5 -84.5t6.5 -108.5q0 -116 -30 -196.5t-75 -122.5q-40 -37 -103 -55.5t-141 -18.5q-92 0 -149 23t-92 61q-16 17 -31 41.5t-26.5 59.5t-18.5 81.5t-7 106.5q0 118 31 201t76 123q38 35 98 55.5t141 20.5zM267 831q5 43 27.5 70.5t65.5 27.5
q22 0 40.5 -9t34.5 -20.5t31 -20.5t32 -9q18 0 30 12t17 40h44q-5 -46 -28 -72.5t-64 -26.5q-23 0 -41.5 9t-34.5 20.5t-31.5 20.5t-31.5 9q-37 0 -46 -51h-45z" />
    <glyph glyph-name="Odieresis" unicode="&#xd6;" horiz-adv-x="838" 
d="M408 63q70 0 115.5 16t71.5 39q31 28 54.5 95.5t23.5 161.5q0 93 -16 157.5t-46 96.5q-27 29 -75 44t-108 15q-66 0 -111 -15.5t-74 -41.5q-30 -29 -53 -97t-23 -165q0 -96 17 -153.5t46 -89.5q27 -32 74.5 -47.5t103.5 -15.5zM429 762q49 0 87 -6t67.5 -16.5t51.5 -25
t39 -32.5t32 -44t26 -63t17.5 -84.5t6.5 -108.5q0 -116 -30 -196.5t-75 -122.5q-40 -37 -103 -55.5t-141 -18.5q-92 0 -149 23t-92 61q-16 17 -31 41.5t-26.5 59.5t-18.5 81.5t-7 106.5q0 118 31 201t76 123q38 35 98 55.5t141 20.5zM372 871q0 -22 -10 -31q-11 -9 -32 -9
q-22 0 -33 10q-9 9 -9 30q0 22 12 32q10 7 31 7q10 0 18 -1.5t13 -5.5q10 -9 10 -32zM558 871q0 -21 -10 -31q-5 -5 -14 -7t-19 -2q-22 0 -32 10q-10 8 -10 30t13 32q9 7 31 7q10 0 18 -1.5t13 -5.5q10 -10 10 -32z" />
    <glyph glyph-name="multiply" unicode="&#xd7;" horiz-adv-x="679" 
d="M135 590l203 -204l204 204l47 -48l-203 -204l203 -203l-47 -47l-204 203l-203 -203l-48 47l204 203l-204 204z" />
    <glyph glyph-name="Oslash" unicode="&#xd8;" horiz-adv-x="838" 
d="M407 -11q-79 0 -131.5 17t-87.5 47l-43 -53h-66l73 90q-28 36 -48.5 100.5t-20.5 171.5q0 118 31 201t76 123q38 34 98 55t141 21q84 0 136 -16.5t86 -42.5l39 47h65l-68 -84q29 -38 49 -106.5t20 -177.5q0 -116 -30 -196.5t-75 -122.5q-40 -37 -103 -55.5t-141 -18.5z
M166 369q0 -75 11.5 -125t31.5 -84l390 479q-29 26 -73 37.5t-98 11.5q-66 0 -111 -15.5t-74 -41.5q-15 -14 -29 -38.5t-24.5 -58.5t-17 -75.5t-6.5 -89.5zM408 63q70 0 115.5 16t72.5 39q30 28 53.5 95.5t23.5 161.5q0 74 -11 130t-31 91l-391 -479q27 -27 72 -40.5
t96 -13.5z" />
    <glyph glyph-name="Ugrave" unicode="&#xd9;" horiz-adv-x="784" 
d="M682 750v-457q0 -97 -17.5 -152t-48.5 -88q-14 -14 -33.5 -26t-48 -21t-67 -14t-89.5 -5q-49 0 -86 6.5t-64.5 17t-46 24.5t-29.5 28t-20 32t-15 43.5t-9.5 60.5t-3.5 84v467h81v-449q0 -40 2 -69t6 -51t10.5 -37t15.5 -26q19 -23 58 -39.5t110 -16.5q69 0 109 12.5
t61 34.5q21 21 32 63t11 124v454h82zM464 816h-71l-167 134h95z" />
    <glyph glyph-name="Uacute" unicode="&#xda;" horiz-adv-x="784" 
d="M682 750v-457q0 -97 -17.5 -152t-48.5 -88q-14 -14 -33.5 -26t-48 -21t-67 -14t-89.5 -5q-49 0 -86 6.5t-64.5 17t-46 24.5t-29.5 28t-20 32t-15 43.5t-9.5 60.5t-3.5 84v467h81v-449q0 -40 2 -69t6 -51t10.5 -37t15.5 -26q19 -23 58 -39.5t110 -16.5q69 0 109 12.5
t61 34.5q21 21 32 63t11 124v454h82zM479 950h95l-169 -134h-72z" />
    <glyph glyph-name="Ucircumflex" unicode="&#xdb;" horiz-adv-x="784" 
d="M682 750v-457q0 -97 -17.5 -152t-48.5 -88q-14 -14 -33.5 -26t-48 -21t-67 -14t-89.5 -5q-49 0 -86 6.5t-64.5 17t-46 24.5t-29.5 28t-20 32t-15 43.5t-9.5 60.5t-3.5 84v467h81v-449q0 -40 2 -69t6 -51t10.5 -37t15.5 -26q19 -23 58 -39.5t110 -16.5q69 0 109 12.5
t61 34.5q21 21 32 63t11 124v454h82zM554 821h-65l-92 83l-92 -83h-65l129 125h56z" />
    <glyph glyph-name="Udieresis" unicode="&#xdc;" horiz-adv-x="784" 
d="M682 750v-457q0 -97 -17.5 -152t-48.5 -88q-14 -14 -33.5 -26t-48 -21t-67 -14t-89.5 -5q-49 0 -86 6.5t-64.5 17t-46 24.5t-29.5 28t-20 32t-15 43.5t-9.5 60.5t-3.5 84v467h81v-449q0 -40 2 -69t6 -51t10.5 -37t15.5 -26q19 -23 58 -39.5t110 -16.5q69 0 109 12.5
t61 34.5q21 21 32 63t11 124v454h82zM342 871q0 -22 -10 -31q-11 -9 -32 -9q-22 0 -33 10q-9 9 -9 30q0 22 12 32q10 7 31 7q10 0 18 -1.5t13 -5.5q10 -9 10 -32zM528 871q0 -21 -10 -31q-5 -5 -14 -7t-19 -2q-22 0 -32 10q-10 8 -10 30t13 32q9 7 31 7q10 0 18 -1.5
t13 -5.5q10 -10 10 -32z" />
    <glyph glyph-name="Yacute" unicode="&#xdd;" horiz-adv-x="685" 
d="M375 0h-82v271l-269 479h92l216 -391h10l226 391h92l-285 -480v-270zM436 950h95l-169 -134h-72z" />
    <glyph glyph-name="Thorn" unicode="&#xde;" horiz-adv-x="665" 
d="M190 160v-160h-81v750h81v-136h215q101 0 142 -31q29 -21 47.5 -64.5t18.5 -112.5q0 -63 -19.5 -114t-51.5 -77q-17 -15 -37.5 -25.5t-47.5 -17t-62.5 -9.5t-82.5 -3h-122zM529 398q0 48 -11.5 79t-29.5 45q-17 13 -46 17.5t-65 4.5h-187v-313h133q59 0 95 5t54 18
q23 15 40 51t17 93z" />
    <glyph glyph-name="germandbls" unicode="&#xdf;" horiz-adv-x="693" 
d="M286 424q0 74 38.5 109.5t119.5 39.5q2 0 15.5 0.5t20.5 0.5q2 11 4 26t2 32q0 26 -6 47t-20 37q-32 33 -117 33q-42 0 -74.5 -9t-52.5 -32q-36 -40 -36 -142v-566h-81v568q0 63 15.5 109.5t43.5 75.5q32 32 79 46t110 14q128 0 177 -54q42 -43 42 -136q0 -32 -6 -59.5
t-11 -45.5h-60q-37 0 -61 -6t-38 -18t-19.5 -29t-5.5 -38q0 -17 3.5 -32t11.5 -23q11 -13 35 -23.5t72 -22.5q54 -14 82 -28.5t42 -31.5q13 -16 20 -39t7 -61t-7 -64.5t-27 -52.5t-62.5 -41t-115.5 -15q-45 0 -87 6t-73 14v60q28 -5 64.5 -10.5t86.5 -5.5q48 0 77.5 8.5
t46.5 29.5q11 14 15 28.5t4 37.5q0 21 -4 34t-12 23q-11 14 -36 25.5t-67 22.5q-53 13 -82.5 26t-48.5 36q-13 15 -18.5 39.5t-5.5 56.5z" />
    <glyph glyph-name="agrave" unicode="&#xe0;" horiz-adv-x="617" 
d="M456 0l-18 65h-5q-8 -11 -20 -25t-16 -17q-14 -10 -55.5 -21.5t-103.5 -11.5q-57 0 -89 11.5t-50 31.5q-16 18 -25 46t-9 66q0 54 17 83.5t36 40.5q35 23 118 38.5t201 26.5q0 57 -6.5 89t-20.5 48q-13 17 -41.5 23.5t-71.5 6.5q-26 0 -53.5 -2.5t-53.5 -6t-49 -7
t-38 -6.5v62q17 5 41 10.5t52 10t58.5 8t62.5 3.5q114 0 158 -44q20 -20 31.5 -58.5t11.5 -115.5v-355h-62zM437 276q-42 -3 -86 -7t-82.5 -10t-66 -13t-35.5 -15q-10 -10 -16 -27.5t-6 -46.5q0 -49 22 -73q12 -12 36.5 -20t66.5 -8q56 0 101 11t66 21v188zM378 627h-71
l-167 134h95z" />
    <glyph glyph-name="aacute" unicode="&#xe1;" horiz-adv-x="617" 
d="M456 0l-18 65h-5q-8 -11 -20 -25t-16 -17q-14 -10 -55.5 -21.5t-103.5 -11.5q-57 0 -89 11.5t-50 31.5q-16 18 -25 46t-9 66q0 54 17 83.5t36 40.5q35 23 118 38.5t201 26.5q0 57 -6.5 89t-20.5 48q-13 17 -41.5 23.5t-71.5 6.5q-26 0 -53.5 -2.5t-53.5 -6t-49 -7
t-38 -6.5v62q17 5 41 10.5t52 10t58.5 8t62.5 3.5q114 0 158 -44q20 -20 31.5 -58.5t11.5 -115.5v-355h-62zM437 276q-42 -3 -86 -7t-82.5 -10t-66 -13t-35.5 -15q-10 -10 -16 -27.5t-6 -46.5q0 -49 22 -73q12 -12 36.5 -20t66.5 -8q56 0 101 11t66 21v188zM383 761h95
l-169 -134h-72z" />
    <glyph glyph-name="acircumflex" unicode="&#xe2;" horiz-adv-x="617" 
d="M456 0l-18 65h-5q-8 -11 -20 -25t-16 -17q-14 -10 -55.5 -21.5t-103.5 -11.5q-57 0 -89 11.5t-50 31.5q-16 18 -25 46t-9 66q0 54 17 83.5t36 40.5q35 23 118 38.5t201 26.5q0 57 -6.5 89t-20.5 48q-13 17 -41.5 23.5t-71.5 6.5q-26 0 -53.5 -2.5t-53.5 -6t-49 -7
t-38 -6.5v62q17 5 41 10.5t52 10t58.5 8t62.5 3.5q114 0 158 -44q20 -20 31.5 -58.5t11.5 -115.5v-355h-62zM437 276q-42 -3 -86 -7t-82.5 -10t-66 -13t-35.5 -15q-10 -10 -16 -27.5t-6 -46.5q0 -49 22 -73q12 -12 36.5 -20t66.5 -8q56 0 101 11t66 21v188zM464 632h-65
l-92 83l-92 -83h-65l129 125h56z" />
    <glyph glyph-name="atilde" unicode="&#xe3;" horiz-adv-x="617" 
d="M456 0l-18 65h-5q-8 -11 -20 -25t-16 -17q-14 -10 -55.5 -21.5t-103.5 -11.5q-57 0 -89 11.5t-50 31.5q-16 18 -25 46t-9 66q0 54 17 83.5t36 40.5q35 23 118 38.5t201 26.5q0 57 -6.5 89t-20.5 48q-13 17 -41.5 23.5t-71.5 6.5q-26 0 -53.5 -2.5t-53.5 -6t-49 -7
t-38 -6.5v62q17 5 41 10.5t52 10t58.5 8t62.5 3.5q114 0 158 -44q20 -20 31.5 -58.5t11.5 -115.5v-355h-62zM437 276q-42 -3 -86 -7t-82.5 -10t-66 -13t-35.5 -15q-10 -10 -16 -27.5t-6 -46.5q0 -49 22 -73q12 -12 36.5 -20t66.5 -8q56 0 101 11t66 21v188zM149 642
q5 43 27.5 70.5t65.5 27.5q22 0 40.5 -9t34.5 -20.5t31 -20.5t32 -9q18 0 30 12t17 40h44q-5 -46 -28 -72.5t-64 -26.5q-23 0 -41.5 9t-34.5 20.5t-31.5 20.5t-31.5 9q-37 0 -46 -51h-45z" />
    <glyph glyph-name="adieresis" unicode="&#xe4;" horiz-adv-x="617" 
d="M456 0l-18 65h-5q-8 -11 -20 -25t-16 -17q-14 -10 -55.5 -21.5t-103.5 -11.5q-57 0 -89 11.5t-50 31.5q-16 18 -25 46t-9 66q0 54 17 83.5t36 40.5q35 23 118 38.5t201 26.5q0 57 -6.5 89t-20.5 48q-13 17 -41.5 23.5t-71.5 6.5q-26 0 -53.5 -2.5t-53.5 -6t-49 -7
t-38 -6.5v62q17 5 41 10.5t52 10t58.5 8t62.5 3.5q114 0 158 -44q20 -20 31.5 -58.5t11.5 -115.5v-355h-62zM437 276q-42 -3 -86 -7t-82.5 -10t-66 -13t-35.5 -15q-10 -10 -16 -27.5t-6 -46.5q0 -49 22 -73q12 -12 36.5 -20t66.5 -8q56 0 101 11t66 21v188zM254 682
q0 -22 -10 -31q-11 -9 -32 -9q-22 0 -33 10q-9 9 -9 30q0 22 12 32q10 7 31 7q10 0 18 -1.5t13 -5.5q10 -9 10 -32zM440 682q0 -21 -10 -31q-5 -5 -14 -7t-19 -2q-22 0 -32 10q-10 8 -10 30t13 32q9 7 31 7q10 0 18 -1.5t13 -5.5q10 -10 10 -32z" />
    <glyph glyph-name="aring" unicode="&#xe5;" horiz-adv-x="617" 
d="M456 0l-18 65h-5q-8 -11 -20 -25t-16 -17q-14 -10 -55.5 -21.5t-103.5 -11.5q-57 0 -89 11.5t-50 31.5q-16 18 -25 46t-9 66q0 54 17 83.5t36 40.5q35 23 118 38.5t201 26.5q0 57 -6.5 89t-20.5 48q-13 17 -41.5 23.5t-71.5 6.5q-26 0 -53.5 -2.5t-53.5 -6t-49 -7
t-38 -6.5v62q17 5 41 10.5t52 10t58.5 8t62.5 3.5q114 0 158 -44q20 -20 31.5 -58.5t11.5 -115.5v-355h-62zM437 276q-42 -3 -86 -7t-82.5 -10t-66 -13t-35.5 -15q-10 -10 -16 -27.5t-6 -46.5q0 -49 22 -73q12 -12 36.5 -20t66.5 -8q56 0 101 11t66 21v188zM360 705
q0 20 -4 29t-10 14q-9 9 -34 9t-35 -10q-7 -5 -12 -16.5t-5 -27.5q0 -13 3.5 -22.5t8.5 -14.5q11 -13 38 -13q26 0 36 11q6 5 10 14.5t4 26.5zM402 709q0 -23 -7.5 -41.5t-18.5 -29.5q-11 -9 -26.5 -15t-41.5 -6q-23 0 -39.5 6t-26.5 16q-9 8 -16 23.5t-7 37.5q0 25 8 43
t21 29q11 9 27.5 15t40.5 6q22 0 37.5 -6t24.5 -14q11 -10 17.5 -25t6.5 -39z" />
    <glyph glyph-name="ae" unicode="&#xe6;" horiz-adv-x="978" 
d="M320 573q41 0 69.5 -6.5t48 -19.5t31.5 -32t19 -44q58 103 206 103q63 0 105.5 -16t68 -46t36 -72.5t10.5 -96.5v-73h-398q0 -50 8 -89t29 -66t57.5 -41t93.5 -14q59 0 109 7t80 12l-7 -63q-35 -9 -86 -18t-110 -9q-86 0 -137.5 24.5t-79.5 74.5h-4q-1 -2 -7 -9.5
l-12.5 -16t-12.5 -15.5t-7 -7q-10 -7 -28 -16t-43 -16.5t-55.5 -12.5t-66.5 -5q-54 0 -86.5 11.5t-51.5 31.5q-34 39 -34 112q0 56 17.5 84.5t35.5 40.5q35 24 118 39t201 21q0 57 -6.5 90.5t-20.5 50.5q-12 17 -41 23.5t-72 6.5q-26 0 -53.5 -2.5t-54 -6t-49 -7t-37.5 -6.5
v62l42 10t53.5 10.5t60 8t61.5 3.5zM463 109q-26 64 -26 161q-45 -1 -89.5 -4t-81.5 -8t-63.5 -12t-35.5 -15q-10 -8 -16 -26.5t-6 -47.5q0 -49 22 -73q25 -27 99 -27q32 0 61.5 5.5t55 13.5t46 17t34.5 16zM687 508q-44 0 -75 -11t-51.5 -33t-30.5 -56t-13 -79h315v18
q0 84 -32 122.5t-113 38.5z" />
    <glyph glyph-name="ccedilla" unicode="&#xe7;" horiz-adv-x="563" 
d="M296 -10q-99 4 -152 52q-76 69 -76 227q0 82 20 144t59 99q67 64 193 64q54 0 95.5 -6t69.5 -12v-65q-26 3 -64.5 8t-86.5 5q-51 0 -88 -10t-60 -33q-54 -54 -54 -188q0 -66 13.5 -109.5t41.5 -67.5q23 -21 56.5 -29.5t76.5 -8.5q51 0 93 5.5t72 10.5v-60
q-29 -10 -71 -17.5t-99 -9.5l-8 -40q30 -1 51 -5t33 -15q12 -9 18 -26.5t6 -39.5q0 -23 -7.5 -41t-18.5 -28q-14 -11 -38.5 -17t-62.5 -6q-29 0 -54 4t-42 9v42q17 -4 41 -7.5t50 -3.5q31 0 45.5 4t20.5 10q5 4 9.5 13.5t4.5 21.5t-4 21t-9 14q-7 6 -22 9.5t-45 3.5h-24z
" />
    <glyph glyph-name="egrave" unicode="&#xe8;" horiz-adv-x="619" 
d="M104 272q0 153 64 227.5t199 74.5q63 0 105 -15.5t67.5 -45t36 -72.5t10.5 -98v-73h-398q0 -51 8.5 -90.5t30 -66t58 -40t92.5 -13.5q60 0 108.5 7t79.5 12l-6 -63q-33 -9 -84.5 -18t-111.5 -9q-72 0 -121 17.5t-80 53t-44.5 88.5t-13.5 124zM359 509q-88 0 -126 -44
t-43 -136h315v18q0 83 -32.5 122.5t-113.5 39.5zM440 627h-71l-167 134h95z" />
    <glyph glyph-name="eacute" unicode="&#xe9;" horiz-adv-x="619" 
d="M105 272q0 153 64 227.5t199 74.5q63 0 105 -15.5t67.5 -45t36 -72.5t10.5 -98v-73h-398q0 -51 8.5 -90.5t30 -66t58 -40t92.5 -13.5q60 0 108.5 7t79.5 12l-6 -63q-33 -9 -84.5 -18t-111.5 -9q-72 0 -121 17.5t-80 53t-44.5 88.5t-13.5 124zM360 509q-88 0 -126 -44
t-43 -136h315v18q0 83 -32.5 122.5t-113.5 39.5zM427 761h95l-169 -134h-72z" />
    <glyph glyph-name="ecircumflex" unicode="&#xea;" horiz-adv-x="619" 
d="M104 272q0 153 64 227.5t199 74.5q63 0 105 -15.5t67.5 -45t36 -72.5t10.5 -98v-73h-398q0 -51 8.5 -90.5t30 -66t58 -40t92.5 -13.5q60 0 108.5 7t79.5 12l-6 -63q-33 -9 -84.5 -18t-111.5 -9q-72 0 -121 17.5t-80 53t-44.5 88.5t-13.5 124zM359 509q-88 0 -126 -44
t-43 -136h315v18q0 83 -32.5 122.5t-113.5 39.5zM521 632h-65l-92 83l-92 -83h-65l129 125h56z" />
    <glyph glyph-name="edieresis" unicode="&#xeb;" horiz-adv-x="619" 
d="M104 272q0 153 64 227.5t199 74.5q63 0 105 -15.5t67.5 -45t36 -72.5t10.5 -98v-73h-398q0 -51 8.5 -90.5t30 -66t58 -40t92.5 -13.5q60 0 108.5 7t79.5 12l-6 -63q-33 -9 -84.5 -18t-111.5 -9q-72 0 -121 17.5t-80 53t-44.5 88.5t-13.5 124zM359 509q-88 0 -126 -44
t-43 -136h315v18q0 83 -32.5 122.5t-113.5 39.5zM312 682q0 -22 -10 -31q-11 -9 -32 -9q-22 0 -33 10q-9 9 -9 30q0 22 12 32q10 7 31 7q10 0 18 -1.5t13 -5.5q10 -9 10 -32zM498 682q0 -21 -10 -31q-5 -5 -14 -7t-19 -2q-22 0 -32 10q-10 8 -10 30t13 32q9 7 31 7
q10 0 18 -1.5t13 -5.5q10 -10 10 -32z" />
    <glyph glyph-name="igrave" unicode="&#xec;" horiz-adv-x="280" 
d="M99 0v561h81v-561h-81zM202 627h-71l-167 134h95z" />
    <glyph glyph-name="iacute" unicode="&#xed;" horiz-adv-x="280" 
d="M99 0v561h81v-561h-81zM222 761h95l-169 -134h-72z" />
    <glyph glyph-name="icircumflex" unicode="&#xee;" horiz-adv-x="280" 
d="M99 0v561h81v-561h-81zM298 632h-65l-92 83l-92 -83h-65l129 125h56z" />
    <glyph glyph-name="idieresis" unicode="&#xef;" horiz-adv-x="280" 
d="M99 0v561h81v-561h-81zM89 682q0 -22 -10 -31q-11 -9 -32 -9q-22 0 -33 10q-9 9 -9 30q0 22 12 32q10 7 31 7q10 0 18 -1.5t13 -5.5q10 -9 10 -32zM275 682q0 -21 -10 -31q-5 -5 -14 -7t-19 -2q-22 0 -32 10q-10 8 -10 30t13 32q9 7 31 7q10 0 18 -1.5t13 -5.5
q10 -10 10 -32z" />
    <glyph glyph-name="eth" unicode="&#xf0;" horiz-adv-x="667" 
d="M453 710q140 -126 140 -413q0 -91 -21.5 -153.5t-55.5 -94.5q-30 -28 -75 -44t-117 -16q-74 0 -119 16.5t-73 45.5q-26 26 -44 72.5t-18 120.5q0 76 21 134.5t58 90.5q29 26 78 42t118 16q46 0 80 -9t64 -22q-14 55 -40 98.5t-63 73.5l-149 -89l-17 46l119 72
q-42 23 -94 35t-120 13l26 65q81 -4 145 -21t114 -49l126 76l16 -45zM511 279q0 42 -2 78t-10 67q-26 17 -67.5 27t-89.5 10t-81.5 -11t-50.5 -27q-23 -18 -40.5 -62t-17.5 -108q0 -54 12 -92.5t32 -58.5q18 -19 47.5 -32t84.5 -13q44 0 76 10t51 28q24 22 40 65.5t16 118.5
z" />
    <glyph glyph-name="ntilde" unicode="&#xf1;" horiz-adv-x="669" 
d="M489 0v345q0 48 -9 77t-26 46t-45.5 24t-65.5 7q-48 0 -90.5 -9.5t-72.5 -21.5v-468h-81v561h62l19 -64h6q2 3 8 9l12.5 13t12 12t7.5 6q19 11 63 21.5t96 10.5t85 -11t56 -33q23 -23 33.5 -62t10.5 -93v-370h-81zM182 642q5 43 27.5 70.5t65.5 27.5q22 0 40.5 -9
t34.5 -20.5t31 -20.5t32 -9q18 0 30 12t17 40h44q-5 -46 -28 -72.5t-64 -26.5q-23 0 -41.5 9t-34.5 20.5t-31.5 20.5t-31.5 9q-37 0 -46 -51h-45z" />
    <glyph glyph-name="ograve" unicode="&#xf2;" horiz-adv-x="673" 
d="M601 293q0 -83 -19 -144.5t-53 -95.5q-30 -30 -77.5 -47.5t-122.5 -17.5q-72 0 -119.5 18t-76.5 50q-25 27 -43 78t-18 133q0 84 21.5 147t59.5 98q31 29 79 46.5t117 17.5q67 0 113 -16t72 -44q32 -32 49.5 -84t17.5 -139zM334 56q44 0 77.5 11.5t53.5 31.5
q24 24 39 68.5t15 114.5q0 40 -3.5 69.5t-10 50.5t-15.5 35.5t-19 25.5q-19 20 -50 31.5t-79 11.5q-47 0 -79.5 -12.5t-49.5 -29.5q-23 -21 -40.5 -69t-17.5 -120q0 -60 11 -103t31 -65q19 -22 51 -36.5t86 -14.5zM414 627h-71l-167 134h95z" />
    <glyph glyph-name="oacute" unicode="&#xf3;" horiz-adv-x="673" 
d="M601 293q0 -83 -19 -144.5t-53 -95.5q-30 -30 -77.5 -47.5t-122.5 -17.5q-72 0 -119.5 18t-76.5 50q-25 27 -43 78t-18 133q0 84 21.5 147t59.5 98q31 29 79 46.5t117 17.5q67 0 113 -16t72 -44q32 -32 49.5 -84t17.5 -139zM334 56q44 0 77.5 11.5t53.5 31.5
q24 24 39 68.5t15 114.5q0 40 -3.5 69.5t-10 50.5t-15.5 35.5t-19 25.5q-19 20 -50 31.5t-79 11.5q-47 0 -79.5 -12.5t-49.5 -29.5q-23 -21 -40.5 -69t-17.5 -120q0 -60 11 -103t31 -65q19 -22 51 -36.5t86 -14.5zM416 761h95l-169 -134h-72z" />
    <glyph glyph-name="ocircumflex" unicode="&#xf4;" horiz-adv-x="673" 
d="M601 293q0 -83 -19 -144.5t-53 -95.5q-30 -30 -77.5 -47.5t-122.5 -17.5q-72 0 -119.5 18t-76.5 50q-25 27 -43 78t-18 133q0 84 21.5 147t59.5 98q31 29 79 46.5t117 17.5q67 0 113 -16t72 -44q32 -32 49.5 -84t17.5 -139zM334 56q44 0 77.5 11.5t53.5 31.5
q24 24 39 68.5t15 114.5q0 40 -3.5 69.5t-10 50.5t-15.5 35.5t-19 25.5q-19 20 -50 31.5t-79 11.5q-47 0 -79.5 -12.5t-49.5 -29.5q-23 -21 -40.5 -69t-17.5 -120q0 -60 11 -103t31 -65q19 -22 51 -36.5t86 -14.5zM497 632h-65l-92 83l-92 -83h-65l129 125h56z" />
    <glyph glyph-name="otilde" unicode="&#xf5;" horiz-adv-x="673" 
d="M601 293q0 -83 -19 -144.5t-53 -95.5q-30 -30 -77.5 -47.5t-122.5 -17.5q-72 0 -119.5 18t-76.5 50q-25 27 -43 78t-18 133q0 84 21.5 147t59.5 98q31 29 79 46.5t117 17.5q67 0 113 -16t72 -44q32 -32 49.5 -84t17.5 -139zM334 56q44 0 77.5 11.5t53.5 31.5
q24 24 39 68.5t15 114.5q0 40 -3.5 69.5t-10 50.5t-15.5 35.5t-19 25.5q-19 20 -50 31.5t-79 11.5q-47 0 -79.5 -12.5t-49.5 -29.5q-23 -21 -40.5 -69t-17.5 -120q0 -60 11 -103t31 -65q19 -22 51 -36.5t86 -14.5zM178 642q5 43 27.5 70.5t65.5 27.5q22 0 40.5 -9
t34.5 -20.5t31 -20.5t32 -9q18 0 30 12t17 40h44q-5 -46 -28 -72.5t-64 -26.5q-23 0 -41.5 9t-34.5 20.5t-31.5 20.5t-31.5 9q-37 0 -46 -51h-45z" />
    <glyph glyph-name="odieresis" unicode="&#xf6;" horiz-adv-x="673" 
d="M601 293q0 -83 -19 -144.5t-53 -95.5q-30 -30 -77.5 -47.5t-122.5 -17.5q-72 0 -119.5 18t-76.5 50q-25 27 -43 78t-18 133q0 84 21.5 147t59.5 98q31 29 79 46.5t117 17.5q67 0 113 -16t72 -44q32 -32 49.5 -84t17.5 -139zM334 56q44 0 77.5 11.5t53.5 31.5
q24 24 39 68.5t15 114.5q0 40 -3.5 69.5t-10 50.5t-15.5 35.5t-19 25.5q-19 20 -50 31.5t-79 11.5q-47 0 -79.5 -12.5t-49.5 -29.5q-23 -21 -40.5 -69t-17.5 -120q0 -60 11 -103t31 -65q19 -22 51 -36.5t86 -14.5zM286 682q0 -22 -10 -31q-11 -9 -32 -9q-22 0 -33 10
q-9 9 -9 30q0 22 12 32q10 7 31 7q10 0 18 -1.5t13 -5.5q10 -9 10 -32zM472 682q0 -21 -10 -31q-5 -5 -14 -7t-19 -2q-22 0 -32 10q-10 8 -10 30t13 32q9 7 31 7q10 0 18 -1.5t13 -5.5q10 -10 10 -32z" />
    <glyph glyph-name="divide" unicode="&#xf7;" horiz-adv-x="679" 
d="M381 124q0 -11 -2.5 -20.5t-7.5 -14.5t-14.5 -6.5t-18.5 -1.5q-24 0 -34 9q-8 8 -8 33q0 27 13 35q9 7 30 7q23 0 32 -8q5 -4 7.5 -13t2.5 -20zM381 555q0 -11 -2.5 -20.5t-7.5 -14.5t-14.5 -6.5t-18.5 -1.5q-24 0 -34 9q-8 8 -8 34t13 34q9 7 30 7q23 0 32 -8
q5 -4 7.5 -13t2.5 -20zM609 306h-539v66h539v-66z" />
    <glyph glyph-name="oslash" unicode="&#xf8;" horiz-adv-x="668" 
d="M329 -12q-62 0 -105 13.5t-72 38.5l-37 -43h-62l67 76q-20 29 -34 76.5t-14 117.5q0 84 21.5 147t59.5 98q31 29 79 46.5t117 17.5q59 0 101 -13t70 -35l32 36h62l-61 -70q23 -31 35.5 -79t12.5 -122q0 -83 -19 -144.5t-53 -95.5q-30 -30 -77.5 -47.5t-122.5 -17.5z
M154 275q0 -44 6 -78t17 -59l290 329q-20 19 -50 29t-75 10q-48 0 -81 -12.5t-51 -29.5q-23 -21 -39.5 -69t-16.5 -120zM334 56q44 0 78.5 11.5t54.5 31.5q24 24 39 68.5t15 114.5q0 57 -7.5 91t-18.5 55l-291 -330q20 -18 50.5 -30t79.5 -12z" />
    <glyph glyph-name="ugrave" unicode="&#xf9;" horiz-adv-x="669" 
d="M507 0l-19 67h-6q-3 -3 -9 -10.5l-12 -15.5t-11.5 -14.5t-6.5 -6.5q-20 -11 -61.5 -19.5t-92.5 -8.5q-57 0 -90 11.5t-55 34.5q-24 24 -35 62.5t-11 92.5v368h81v-338q0 -51 8 -81.5t25 -47.5q32 -32 115 -32q45 0 88 9.5t72 22.5v467h82v-561h-62zM407 627h-71l-167 134
h95z" />
    <glyph glyph-name="uacute" unicode="&#xfa;" horiz-adv-x="669" 
d="M507 0l-19 67h-6q-3 -3 -9 -10.5l-12 -15.5t-11.5 -14.5t-6.5 -6.5q-20 -11 -61.5 -19.5t-92.5 -8.5q-57 0 -90 11.5t-55 34.5q-24 24 -35 62.5t-11 92.5v368h81v-338q0 -51 8 -81.5t25 -47.5q32 -32 115 -32q45 0 88 9.5t72 22.5v467h82v-561h-62zM413 761h95l-169 -134
h-72z" />
    <glyph glyph-name="ucircumflex" unicode="&#xfb;" horiz-adv-x="669" 
d="M507 0l-19 67h-6q-3 -3 -9 -10.5l-12 -15.5t-11.5 -14.5t-6.5 -6.5q-20 -11 -61.5 -19.5t-92.5 -8.5q-57 0 -90 11.5t-55 34.5q-24 24 -35 62.5t-11 92.5v368h81v-338q0 -51 8 -81.5t25 -47.5q32 -32 115 -32q45 0 88 9.5t72 22.5v467h82v-561h-62zM493 632h-65l-92 83
l-92 -83h-65l129 125h56z" />
    <glyph glyph-name="udieresis" unicode="&#xfc;" horiz-adv-x="669" 
d="M507 0l-19 67h-6q-3 -3 -9 -10.5l-12 -15.5t-11.5 -14.5t-6.5 -6.5q-20 -11 -61.5 -19.5t-92.5 -8.5q-57 0 -90 11.5t-55 34.5q-24 24 -35 62.5t-11 92.5v368h81v-338q0 -51 8 -81.5t25 -47.5q32 -32 115 -32q45 0 88 9.5t72 22.5v467h82v-561h-62zM284 682
q0 -22 -10 -31q-11 -9 -32 -9q-22 0 -33 10q-9 9 -9 30q0 22 12 32q10 7 31 7q10 0 18 -1.5t13 -5.5q10 -9 10 -32zM470 682q0 -21 -10 -31q-5 -5 -14 -7t-19 -2q-22 0 -32 10q-10 8 -10 30t13 32q9 7 31 7q10 0 18 -1.5t13 -5.5q10 -10 10 -32z" />
    <glyph glyph-name="yacute" unicode="&#xfd;" horiz-adv-x="604" 
d="M258 -274h-82l106 274h-53l-203 561h88l170 -488h25l181 488h87zM388 761h95l-169 -134h-72z" />
    <glyph glyph-name="thorn" unicode="&#xfe;" horiz-adv-x="667" 
d="M181 -273h-81v1083h81v-306h5l10 12t12.5 13.5t12 11.5t8.5 7q14 9 54 17.5t88 8.5q55 0 92 -11.5t64 -34.5q29 -27 48.5 -81t19.5 -146q0 -94 -22 -156t-59 -97q-59 -56 -178 -56q-49 0 -87 5t-68 13v-283zM511 292q0 72 -13.5 115.5t-36.5 64.5q-37 33 -126 33
q-42 0 -82 -8t-72 -22v-405q26 -4 63.5 -8t78.5 -4q46 0 78.5 9t54.5 30q24 23 39.5 71t15.5 124z" />
    <glyph glyph-name="ydieresis" unicode="&#xff;" horiz-adv-x="604" 
d="M258 -274h-82l106 274h-53l-203 561h88l170 -488h25l181 488h87zM251 682q0 -22 -10 -31q-11 -9 -32 -9q-22 0 -33 10q-9 9 -9 30q0 22 12 32q10 7 31 7q10 0 18 -1.5t13 -5.5q10 -9 10 -32zM437 682q0 -21 -10 -31q-5 -5 -14 -7t-19 -2q-22 0 -32 10q-10 8 -10 30t13 32
q9 7 31 7q10 0 18 -1.5t13 -5.5q10 -10 10 -32z" />
    <glyph glyph-name="Amacron" unicode="&#x100;" horiz-adv-x="758" 
d="M635 0l-87 248h-339l-94 -248h-85l290 750h136l271 -750h-92zM399 672h-31l-135 -354h292zM257 890h258v-54h-258v54z" />
    <glyph glyph-name="amacron" unicode="&#x101;" horiz-adv-x="617" 
d="M456 0l-18 65h-5q-8 -11 -20 -25t-16 -17q-14 -10 -55.5 -21.5t-103.5 -11.5q-57 0 -89 11.5t-50 31.5q-16 18 -25 46t-9 66q0 54 17 83.5t36 40.5q35 23 118 38.5t201 26.5q0 57 -6.5 89t-20.5 48q-13 17 -41.5 23.5t-71.5 6.5q-26 0 -53.5 -2.5t-53.5 -6t-49 -7
t-38 -6.5v62q17 5 41 10.5t52 10t58.5 8t62.5 3.5q114 0 158 -44q20 -20 31.5 -58.5t11.5 -115.5v-355h-62zM437 276q-42 -3 -86 -7t-82.5 -10t-66 -13t-35.5 -15q-10 -10 -16 -27.5t-6 -46.5q0 -49 22 -73q12 -12 36.5 -20t66.5 -8q56 0 101 11t66 21v188zM183 701h258v-54
h-258v54z" />
    <glyph glyph-name="Abreve" unicode="&#x102;" horiz-adv-x="758" 
d="M635 0l-87 248h-339l-94 -248h-85l290 750h136l271 -750h-92zM399 672h-31l-135 -354h292zM285 954q5 -47 27 -66.5t73 -19.5q52 0 74.5 19.5t25.5 66.5h51q-7 -70 -42.5 -100.5t-108.5 -30.5t-108 30t-41 101h49z" />
    <glyph glyph-name="abreve" unicode="&#x103;" horiz-adv-x="617" 
d="M456 0l-18 65h-5q-8 -11 -20 -25t-16 -17q-14 -10 -55.5 -21.5t-103.5 -11.5q-57 0 -89 11.5t-50 31.5q-16 18 -25 46t-9 66q0 54 17 83.5t36 40.5q35 23 118 38.5t201 26.5q0 57 -6.5 89t-20.5 48q-13 17 -41.5 23.5t-71.5 6.5q-26 0 -53.5 -2.5t-53.5 -6t-49 -7
t-38 -6.5v62q17 5 41 10.5t52 10t58.5 8t62.5 3.5q114 0 158 -44q20 -20 31.5 -58.5t11.5 -115.5v-355h-62zM437 276q-42 -3 -86 -7t-82.5 -10t-66 -13t-35.5 -15q-10 -10 -16 -27.5t-6 -46.5q0 -49 22 -73q12 -12 36.5 -20t66.5 -8q56 0 101 11t66 21v188zM212 764
q5 -47 27 -66.5t73 -19.5q52 0 74.5 19.5t25.5 66.5h51q-7 -70 -42.5 -100.5t-108.5 -30.5t-108 30t-41 101h49z" />
    <glyph glyph-name="Aogonek" unicode="&#x104;" horiz-adv-x="758" 
d="M399 672h-31l-135 -354h292zM548 248h-339l-94 -248h-85l290 750h136l271 -750h-37l-48 -35l-44.5 -35.5t-21.5 -21.5q-12 -14 -12 -39q0 -26 13 -36q6 -5 20.5 -9t41.5 -4q28 0 49 3.5t37 5.5v-41q-14 -4 -40 -8t-55 -4q-37 0 -58.5 5t-34.5 17q-23 20 -23 64
q0 43 23 66q11 12 37 30.5l61 41.5z" />
    <glyph glyph-name="aogonek" unicode="&#x105;" horiz-adv-x="617" 
d="M437 276q-42 -3 -86 -7t-82.5 -10t-66 -13t-35.5 -15q-10 -10 -16 -27.5t-6 -46.5q0 -49 22 -73q12 -12 36.5 -20t66.5 -8q56 0 101 11t66 21v188zM538 -212q-14 -4 -40 -8t-55 -4q-37 0 -58.5 5t-34.5 17q-23 20 -23 64q0 42 22 66q11 12 40.5 32l64.5 43l-16 62h-5
q-8 -11 -20 -25t-16 -17q-14 -10 -55.5 -21.5t-103.5 -11.5q-57 0 -89 11.5t-50 31.5q-16 18 -25 46t-9 66q0 54 17 83.5t36 40.5q35 23 118 38.5t201 26.5q0 57 -6.5 89t-20.5 48q-13 17 -41.5 23.5t-71.5 6.5q-26 0 -53.5 -2.5t-53.5 -6t-49 -7t-38 -6.5v62q17 5 41 10.5
t52 10t58.5 8t62.5 3.5q114 0 158 -44q20 -20 31.5 -58.5t11.5 -115.5v-355h-15l-48 -35q-56 -43 -66 -57q-12 -14 -12 -39q0 -26 13 -36q7 -5 21.5 -9t40.5 -4q29 0 50 3.5t36 5.5v-41z" />
    <glyph glyph-name="Cacute" unicode="&#x106;" horiz-adv-x="705" 
d="M646 669l-83 11t-110 6q-79 0 -125 -14.5t-75 -37.5q-35 -28 -61 -96t-26 -166q0 -89 18 -153t50 -97q28 -28 75.5 -42.5t121.5 -14.5q63 0 118 8.5t97 16.5v-68q-46 -12 -105.5 -22t-126.5 -10q-47 0 -84.5 5t-67.5 15t-53.5 25t-42.5 35q-35 37 -59.5 107.5
t-24.5 185.5q0 68 10.5 121t26.5 93t36 67t40 43q40 34 99 53.5t152 19.5q65 0 112.5 -6.5t87.5 -14.5v-70zM500 950h95l-169 -134h-72z" />
    <glyph glyph-name="cacute" unicode="&#x107;" horiz-adv-x="563" 
d="M357 506q-51 0 -88 -10t-60 -33q-54 -54 -54 -188q0 -66 13.5 -109.5t41.5 -67.5q23 -21 56.5 -29.5t76.5 -8.5q51 0 93 5.5t72 10.5v-60q-31 -10 -76 -18.5t-106 -8.5q-119 0 -179 53q-76 69 -76 227q0 82 20 144t59 99q67 64 193 64q54 0 95.5 -6t69.5 -12v-65
q-26 3 -64.5 8t-86.5 5zM395 761h95l-169 -134h-72z" />
    <glyph glyph-name="Ccircumflex" unicode="&#x108;" horiz-adv-x="705" 
d="M646 669l-83 11t-110 6q-79 0 -125 -14.5t-75 -37.5q-35 -28 -61 -96t-26 -166q0 -89 18 -153t50 -97q28 -28 75.5 -42.5t121.5 -14.5q63 0 118 8.5t97 16.5v-68q-46 -12 -105.5 -22t-126.5 -10q-47 0 -84.5 5t-67.5 15t-53.5 25t-42.5 35q-35 37 -59.5 107.5
t-24.5 185.5q0 68 10.5 121t26.5 93t36 67t40 43q40 34 99 53.5t152 19.5q65 0 112.5 -6.5t87.5 -14.5v-70zM586 821h-65l-92 83l-92 -83h-65l129 125h56z" />
    <glyph glyph-name="ccircumflex" unicode="&#x109;" horiz-adv-x="563" 
d="M357 506q-51 0 -88 -10t-60 -33q-54 -54 -54 -188q0 -66 13.5 -109.5t41.5 -67.5q23 -21 56.5 -29.5t76.5 -8.5q51 0 93 5.5t72 10.5v-60q-31 -10 -76 -18.5t-106 -8.5q-119 0 -179 53q-76 69 -76 227q0 82 20 144t59 99q67 64 193 64q54 0 95.5 -6t69.5 -12v-65
q-26 3 -64.5 8t-86.5 5zM489 632h-65l-92 83l-92 -83h-65l129 125h56z" />
    <glyph glyph-name="Cdotaccent" unicode="&#x10a;" horiz-adv-x="705" 
d="M646 669l-83 11t-110 6q-79 0 -125 -14.5t-75 -37.5q-35 -28 -61 -96t-26 -166q0 -89 18 -153t50 -97q28 -28 75.5 -42.5t121.5 -14.5q63 0 118 8.5t97 16.5v-68q-46 -12 -105.5 -22t-126.5 -10q-47 0 -84.5 5t-67.5 15t-53.5 25t-42.5 35q-35 37 -59.5 107.5
t-24.5 185.5q0 68 10.5 121t26.5 93t36 67t40 43q40 34 99 53.5t152 19.5q65 0 112.5 -6.5t87.5 -14.5v-70zM480 872q0 -12 -3 -22t-9 -15q-5 -5 -14.5 -7t-20.5 -2q-26 0 -36 10q-4 5 -7.5 13.5t-3.5 21.5q0 14 4.5 23t10.5 14q5 3 13.5 5.5t20.5 2.5q23 0 33 -8
q12 -10 12 -36z" />
    <glyph glyph-name="cdotaccent" unicode="&#x10b;" horiz-adv-x="563" 
d="M357 506q-51 0 -88 -10t-60 -33q-54 -54 -54 -188q0 -66 13.5 -109.5t41.5 -67.5q23 -21 56.5 -29.5t76.5 -8.5q51 0 93 5.5t72 10.5v-60q-31 -10 -76 -18.5t-106 -8.5q-119 0 -179 53q-76 69 -76 227q0 82 20 144t59 99q67 64 193 64q54 0 95.5 -6t69.5 -12v-65
q-26 3 -64.5 8t-86.5 5zM388 683q0 -12 -3 -22t-9 -15q-5 -5 -14.5 -7t-20.5 -2q-26 0 -36 10q-4 5 -7.5 13.5t-3.5 21.5q0 14 4.5 23t10.5 14q5 3 13.5 5.5t20.5 2.5q23 0 33 -8q12 -10 12 -36z" />
    <glyph glyph-name="Ccaron" unicode="&#x10c;" horiz-adv-x="705" 
d="M646 669l-83 11t-110 6q-79 0 -125 -14.5t-75 -37.5q-35 -28 -61 -96t-26 -166q0 -89 18 -153t50 -97q28 -28 75.5 -42.5t121.5 -14.5q63 0 118 8.5t97 16.5v-68q-46 -12 -105.5 -22t-126.5 -10q-47 0 -84.5 5t-67.5 15t-53.5 25t-42.5 35q-35 37 -59.5 107.5
t-24.5 185.5q0 68 10.5 121t26.5 93t36 67t40 43q40 34 99 53.5t152 19.5q65 0 112.5 -6.5t87.5 -14.5v-70zM276 946h65l92 -82l92 82h65l-129 -125h-56z" />
    <glyph glyph-name="ccaron" unicode="&#x10d;" horiz-adv-x="563" 
d="M357 506q-51 0 -88 -10t-60 -33q-54 -54 -54 -188q0 -66 13.5 -109.5t41.5 -67.5q23 -21 56.5 -29.5t76.5 -8.5q51 0 93 5.5t72 10.5v-60q-31 -10 -76 -18.5t-106 -8.5q-119 0 -179 53q-76 69 -76 227q0 82 20 144t59 99q67 64 193 64q54 0 95.5 -6t69.5 -12v-65
q-26 3 -64.5 8t-86.5 5zM178 757h65l92 -82l92 82h65l-129 -125h-56z" />
    <glyph glyph-name="Dcaron" unicode="&#x10e;" horiz-adv-x="800" 
d="M367 750q56 0 98.5 -4t75 -12.5t56 -21t41.5 -29.5q35 -35 57 -108t22 -187q0 -112 -29 -194.5t-77 -124.5q-19 -17 -43 -29.5t-57 -21.5t-75 -13.5t-97 -4.5h-232v750h260zM188 677v-603h135q98 0 151 12t82 37q32 28 54.5 94.5t22.5 166.5q0 85 -15 147t-47 96
q-29 31 -86.5 40.5t-127.5 9.5h-169zM246 946h65l92 -82l92 82h65l-129 -125h-56z" />
    <glyph glyph-name="dcaron" unicode="&#x10f;" horiz-adv-x="666" 
d="M486 813h82v-813h-66l-16 59h-6l-10 -12l-12.5 -14l-11.5 -12t-8 -7q-15 -8 -50.5 -17t-87.5 -9q-56 0 -95 11.5t-65 34.5q-30 26 -49 80.5t-19 147.5q0 90 21 153.5t59 98.5q61 57 180 57q50 0 86 -6t68 -14v262zM156 270q0 -75 14 -117.5t37 -62.5q19 -17 51 -25.5
t74 -8.5q40 0 80.5 7.5t73.5 23.5v404q-26 4 -62 8.5t-78 4.5q-48 0 -80 -9.5t-55 -30.5q-25 -23 -40 -70.5t-15 -123.5zM683 824h70l-82 -234h-56z" />
    <glyph glyph-name="Dcroat" unicode="&#x110;" horiz-adv-x="800" 
d="M367 750q56 0 98.5 -4t75 -12.5t56 -21t41.5 -29.5q35 -35 57 -108t22 -187q0 -112 -29 -194.5t-77 -124.5q-19 -17 -43 -29.5t-57 -21.5t-75 -13.5t-97 -4.5h-232v351h-99l12 56h87v343h260zM188 677v-270h225l-13 -56h-212v-277h135q98 0 151 12t82 37q32 28 54.5 94.5
t22.5 166.5q0 85 -15 147t-47 96q-29 31 -86.5 40.5t-127.5 9.5h-169z" />
    <glyph glyph-name="dcroat" unicode="&#x111;" horiz-adv-x="666" 
d="M156 270q0 -75 14 -117.5t37 -62.5q19 -17 51 -25.5t74 -8.5q40 0 80.5 7.5t73.5 23.5v404q-26 4 -62 8.5t-78 4.5q-48 0 -80 -9.5t-55 -30.5q-25 -23 -40 -70.5t-15 -123.5zM438 14q-15 -8 -50.5 -17t-87.5 -9q-56 0 -95 11.5t-65 34.5q-30 26 -49 80.5t-19 147.5
q0 90 21 153.5t59 98.5q61 57 180 57q50 0 86 -6t68 -14v116h-180v59h180v101h82v-101h99v-59h-99v-667h-66l-16 59h-6l-10 -12l-12.5 -14l-11.5 -12t-8 -7z" />
    <glyph glyph-name="Emacron" unicode="&#x112;" horiz-adv-x="633" 
d="M575 0h-466v750h469l-16 -72h-373v-259h328l-16 -71h-312v-275h406zM223 890h258v-54h-258v54z" />
    <glyph glyph-name="emacron" unicode="&#x113;" horiz-adv-x="619" 
d="M104 272q0 153 64 227.5t199 74.5q63 0 105 -15.5t67.5 -45t36 -72.5t10.5 -98v-73h-398q0 -51 8.5 -90.5t30 -66t58 -40t92.5 -13.5q60 0 108.5 7t79.5 12l-6 -63q-33 -9 -84.5 -18t-111.5 -9q-72 0 -121 17.5t-80 53t-44.5 88.5t-13.5 124zM359 509q-88 0 -126 -44
t-43 -136h315v18q0 83 -32.5 122.5t-113.5 39.5zM233 701h258v-54h-258v54z" />
    <glyph glyph-name="Ebreve" unicode="&#x114;" horiz-adv-x="633" 
d="M575 0h-466v750h469l-16 -72h-373v-259h328l-16 -71h-312v-275h406zM251 954q5 -47 27 -66.5t73 -19.5q52 0 74.5 19.5t25.5 66.5h51q-7 -70 -42.5 -100.5t-108.5 -30.5t-108 30t-41 101h49z" />
    <glyph glyph-name="ebreve" unicode="&#x115;" horiz-adv-x="619" 
d="M104 272q0 153 64 227.5t199 74.5q63 0 105 -15.5t67.5 -45t36 -72.5t10.5 -98v-73h-398q0 -51 8.5 -90.5t30 -66t58 -40t92.5 -13.5q60 0 108.5 7t79.5 12l-6 -63q-33 -9 -84.5 -18t-111.5 -9q-72 0 -121 17.5t-80 53t-44.5 88.5t-13.5 124zM359 509q-88 0 -126 -44
t-43 -136h315v18q0 83 -32.5 122.5t-113.5 39.5zM262 764q5 -47 27 -66.5t73 -19.5q52 0 74.5 19.5t25.5 66.5h51q-7 -70 -42.5 -100.5t-108.5 -30.5t-108 30t-41 101h49z" />
    <glyph glyph-name="Edotaccent" unicode="&#x116;" horiz-adv-x="633" 
d="M575 0h-466v750h469l-16 -72h-373v-259h328l-16 -71h-312v-275h406zM404 872q0 -12 -3 -22t-9 -15q-5 -5 -14.5 -7t-20.5 -2q-26 0 -36 10q-4 5 -7.5 13.5t-3.5 21.5q0 14 4.5 23t10.5 14q5 3 13.5 5.5t20.5 2.5q23 0 33 -8q12 -10 12 -36z" />
    <glyph glyph-name="edotaccent" unicode="&#x117;" horiz-adv-x="619" 
d="M104 272q0 153 64 227.5t199 74.5q63 0 105 -15.5t67.5 -45t36 -72.5t10.5 -98v-73h-398q0 -51 8.5 -90.5t30 -66t58 -40t92.5 -13.5q60 0 108.5 7t79.5 12l-6 -63q-33 -9 -84.5 -18t-111.5 -9q-72 0 -121 17.5t-80 53t-44.5 88.5t-13.5 124zM359 509q-88 0 -126 -44
t-43 -136h315v18q0 83 -32.5 122.5t-113.5 39.5zM412 683q0 -12 -3 -22t-9 -15q-5 -5 -14.5 -7t-20.5 -2q-26 0 -36 10q-4 5 -7.5 13.5t-3.5 21.5q0 14 4.5 23t10.5 14q5 3 13.5 5.5t20.5 2.5q23 0 33 -8q12 -10 12 -36z" />
    <glyph glyph-name="Eogonek" unicode="&#x118;" horiz-adv-x="633" 
d="M109 0v750h469l-16 -72h-373v-259h328l-16 -71h-312v-275h406l-20 -73h-53l-54 -39q-56 -41 -65 -53q-12 -14 -12 -39q0 -26 13 -36q6 -5 20.5 -9t41.5 -4q28 0 49 3.5t37 5.5v-41q-14 -4 -40 -8t-55 -4q-37 0 -58.5 5t-34.5 17q-23 20 -23 64q0 43 23 66q11 12 37 30.5
l61 41.5h-353z" />
    <glyph glyph-name="eogonek" unicode="&#x119;" horiz-adv-x="619" 
d="M439 -224q-37 0 -58.5 5t-34.5 17q-23 20 -23 64q0 43 23 66q11 11 34 28t54 37q-17 -2 -35 -3t-36 -1q-72 0 -121 17.5t-80 53t-44.5 88.5t-13.5 124q0 153 64 227.5t198 74.5q63 0 105 -15.5t67.5 -45t36.5 -72.5t11 -98v-73h-398q0 -51 8.5 -90.5t29.5 -66t57.5 -40
t93.5 -13.5q60 0 108.5 7t79.5 12l-6 -63q-23 -7 -55 -11l-53 -41q-29 -21 -45 -35t-21 -21q-12 -14 -12 -39q0 -26 13 -36q7 -5 21.5 -9t40.5 -4q28 0 49 3.5t37 5.5v-41q-14 -4 -40 -8t-55 -4zM359 509q-88 0 -126 -44t-43 -136h315v18q0 83 -32.5 122.5t-113.5 39.5z" />
    <glyph glyph-name="Ecaron" unicode="&#x11a;" horiz-adv-x="633" 
d="M575 0h-466v750h469l-16 -72h-373v-259h328l-16 -71h-312v-275h406zM203 946h65l92 -82l92 82h65l-129 -125h-56z" />
    <glyph glyph-name="ecaron" unicode="&#x11b;" horiz-adv-x="619" 
d="M104 272q0 153 64 227.5t199 74.5q63 0 105 -15.5t67.5 -45t36 -72.5t10.5 -98v-73h-398q0 -51 8.5 -90.5t30 -66t58 -40t92.5 -13.5q60 0 108.5 7t79.5 12l-6 -63q-33 -9 -84.5 -18t-111.5 -9q-72 0 -121 17.5t-80 53t-44.5 88.5t-13.5 124zM359 509q-88 0 -126 -44
t-43 -136h315v18q0 83 -32.5 122.5t-113.5 39.5zM208 757h65l92 -82l92 82h65l-129 -125h-56z" />
    <glyph glyph-name="Gcircumflex" unicode="&#x11c;" horiz-adv-x="777" 
d="M673 668q-40 5 -93.5 11t-122.5 6q-80 0 -128 -14.5t-77 -38.5q-35 -27 -61 -93.5t-26 -166.5q0 -96 17.5 -158.5t51.5 -95.5q28 -27 74.5 -41t122.5 -14q54 0 95 5.5t71 10.5v247h-207l15 68h274v-362q-48 -15 -116 -28.5t-148 -13.5q-90 0 -149 18.5t-99 56.5
q-17 17 -32.5 43t-27.5 62.5t-19 84t-7 108.5q0 66 9.5 118.5t25.5 92t36.5 67.5t42.5 46q19 16 43 29t54.5 23t69.5 15.5t90 5.5q67 0 122.5 -7t98.5 -15v-70zM585 821h-65l-92 83l-92 -83h-65l129 125h56z" />
    <glyph glyph-name="gcircumflex" unicode="&#x11d;" horiz-adv-x="669" 
d="M569 36q0 -56 -5 -97t-15 -71t-23.5 -51t-29.5 -36q-28 -25 -74.5 -40t-123.5 -15q-63 0 -115.5 8.5t-83.5 16.5v66q30 -5 82.5 -12t112.5 -7q62 0 96.5 10t54.5 27q20 19 31.5 63t11.5 128v38h-5l-11 -13t-13 -14l-12.5 -12.5t-8.5 -7.5q-14 -8 -51 -16t-88 -8
q-55 0 -92 11t-62 32q-36 28 -55.5 81.5t-19.5 140.5q0 89 21 152.5t60 99.5q30 27 76.5 42.5t115.5 15.5q57 0 101.5 -8.5t79.5 -17.5l33 19h12v-525zM153 270q0 -72 13.5 -113.5t37.5 -61.5q20 -17 53 -25t73 -8q42 0 84 7.5t74 22.5v398l-63 7t-77 4q-100 0 -142 -41
q-24 -25 -38.5 -71.5t-14.5 -118.5zM507 632h-65l-92 83l-92 -83h-65l129 125h56z" />
    <glyph glyph-name="Gbreve" unicode="&#x11e;" horiz-adv-x="777" 
d="M673 668q-40 5 -93.5 11t-122.5 6q-80 0 -128 -14.5t-77 -38.5q-35 -27 -61 -93.5t-26 -166.5q0 -96 17.5 -158.5t51.5 -95.5q28 -27 74.5 -41t122.5 -14q54 0 95 5.5t71 10.5v247h-207l15 68h274v-362q-48 -15 -116 -28.5t-148 -13.5q-90 0 -149 18.5t-99 56.5
q-17 17 -32.5 43t-27.5 62.5t-19 84t-7 108.5q0 66 9.5 118.5t25.5 92t36.5 67.5t42.5 46q19 16 43 29t54.5 23t69.5 15.5t90 5.5q67 0 122.5 -7t98.5 -15v-70zM329 954q5 -47 27 -66.5t73 -19.5q52 0 74.5 19.5t25.5 66.5h51q-7 -70 -42.5 -100.5t-108.5 -30.5t-108 30
t-41 101h49z" />
    <glyph glyph-name="gbreve" unicode="&#x11f;" horiz-adv-x="669" 
d="M569 36q0 -56 -5 -97t-15 -71t-23.5 -51t-29.5 -36q-28 -25 -74.5 -40t-123.5 -15q-63 0 -115.5 8.5t-83.5 16.5v66q30 -5 82.5 -12t112.5 -7q62 0 96.5 10t54.5 27q20 19 31.5 63t11.5 128v38h-5l-11 -13t-13 -14l-12.5 -12.5t-8.5 -7.5q-14 -8 -51 -16t-88 -8
q-55 0 -92 11t-62 32q-36 28 -55.5 81.5t-19.5 140.5q0 89 21 152.5t60 99.5q30 27 76.5 42.5t115.5 15.5q57 0 101.5 -8.5t79.5 -17.5l33 19h12v-525zM153 270q0 -72 13.5 -113.5t37.5 -61.5q20 -17 53 -25t73 -8q42 0 84 7.5t74 22.5v398l-63 7t-77 4q-100 0 -142 -41
q-24 -25 -38.5 -71.5t-14.5 -118.5zM244 764q5 -47 27 -66.5t73 -19.5q52 0 74.5 19.5t25.5 66.5h51q-7 -70 -42.5 -100.5t-108.5 -30.5t-108 30t-41 101h49z" />
    <glyph glyph-name="Gdotaccent" unicode="&#x120;" horiz-adv-x="777" 
d="M673 668q-40 5 -93.5 11t-122.5 6q-80 0 -128 -14.5t-77 -38.5q-35 -27 -61 -93.5t-26 -166.5q0 -96 17.5 -158.5t51.5 -95.5q28 -27 74.5 -41t122.5 -14q54 0 95 5.5t71 10.5v247h-207l15 68h274v-362q-48 -15 -116 -28.5t-148 -13.5q-90 0 -149 18.5t-99 56.5
q-17 17 -32.5 43t-27.5 62.5t-19 84t-7 108.5q0 66 9.5 118.5t25.5 92t36.5 67.5t42.5 46q19 16 43 29t54.5 23t69.5 15.5t90 5.5q67 0 122.5 -7t98.5 -15v-70zM485 872q0 -12 -3 -22t-9 -15q-5 -5 -14.5 -7t-20.5 -2q-26 0 -36 10q-4 5 -7.5 13.5t-3.5 21.5q0 14 4.5 23
t10.5 14q5 3 13.5 5.5t20.5 2.5q23 0 33 -8q12 -10 12 -36z" />
    <glyph glyph-name="gdotaccent" unicode="&#x121;" horiz-adv-x="669" 
d="M569 36q0 -56 -5 -97t-15 -71t-23.5 -51t-29.5 -36q-28 -25 -74.5 -40t-123.5 -15q-63 0 -115.5 8.5t-83.5 16.5v66q30 -5 82.5 -12t112.5 -7q62 0 96.5 10t54.5 27q20 19 31.5 63t11.5 128v38h-5l-11 -13t-13 -14l-12.5 -12.5t-8.5 -7.5q-14 -8 -51 -16t-88 -8
q-55 0 -92 11t-62 32q-36 28 -55.5 81.5t-19.5 140.5q0 89 21 152.5t60 99.5q30 27 76.5 42.5t115.5 15.5q57 0 101.5 -8.5t79.5 -17.5l33 19h12v-525zM153 270q0 -72 13.5 -113.5t37.5 -61.5q20 -17 53 -25t73 -8q42 0 84 7.5t74 22.5v398l-63 7t-77 4q-100 0 -142 -41
q-24 -25 -38.5 -71.5t-14.5 -118.5zM399 683q0 -12 -3 -22t-9 -15q-5 -5 -14.5 -7t-20.5 -2q-26 0 -36 10q-4 5 -7.5 13.5t-3.5 21.5q0 14 4.5 23t10.5 14q5 3 13.5 5.5t20.5 2.5q23 0 33 -8q12 -10 12 -36z" />
    <glyph glyph-name="Gcommaaccent" unicode="&#x122;" horiz-adv-x="777" 
d="M673 668q-40 5 -93.5 11t-122.5 6q-80 0 -128 -14.5t-77 -38.5q-35 -27 -61 -93.5t-26 -166.5q0 -96 17.5 -158.5t51.5 -95.5q28 -27 74.5 -41t122.5 -14q54 0 95 5.5t71 10.5v247h-207l15 68h274v-362q-48 -15 -116 -28.5t-148 -13.5q-90 0 -149 18.5t-99 56.5
q-17 17 -32.5 43t-27.5 62.5t-19 84t-7 108.5q0 66 9.5 118.5t25.5 92t36.5 67.5t42.5 46q19 16 43 29t54.5 23t69.5 15.5t90 5.5q67 0 122.5 -7t98.5 -15v-70zM402 -87h77l-91 -135h-61z" />
    <glyph glyph-name="gcommaaccent" unicode="&#x123;" horiz-adv-x="669" 
d="M569 36q0 -56 -5 -97t-15 -71t-23.5 -51t-29.5 -36q-28 -25 -74.5 -40t-123.5 -15q-63 0 -115.5 8.5t-83.5 16.5v66q30 -5 82.5 -12t112.5 -7q62 0 96.5 10t54.5 27q20 19 31.5 63t11.5 128v38h-5l-11 -13t-13 -14l-12.5 -12.5t-8.5 -7.5q-14 -8 -51 -16t-88 -8
q-55 0 -92 11t-62 32q-36 28 -55.5 81.5t-19.5 140.5q0 89 21 152.5t60 99.5q30 27 76.5 42.5t115.5 15.5q57 0 101.5 -8.5t79.5 -17.5l33 19h12v-525zM153 270q0 -72 13.5 -113.5t37.5 -61.5q20 -17 53 -25t73 -8q42 0 84 7.5t74 22.5v398l-63 7t-77 4q-100 0 -142 -41
q-24 -25 -38.5 -71.5t-14.5 -118.5zM370 633h-77l91 136h61z" />
    <glyph glyph-name="Hcircumflex" unicode="&#x124;" horiz-adv-x="804" 
d="M616 0v343h-428v-343h-81v750h81v-333h428v333h81v-750h-81zM561 821h-65l-92 83l-92 -83h-65l129 125h56z" />
    <glyph glyph-name="hcircumflex" unicode="&#x125;" horiz-adv-x="669" 
d="M488 0v341q0 51 -8 82t-26 48q-17 15 -44.5 22.5t-69.5 7.5q-46 0 -88.5 -10.5t-71.5 -24.5v-466h-81v810h81v-312h5q3 3 8.5 9.5t11.5 12.5l11.5 11.5l7.5 7.5q19 11 61.5 21t93.5 10q57 0 90.5 -11t55.5 -32q25 -24 35 -63.5t10 -95.5v-368h-82zM299 858h-65l-92 83
l-92 -83h-65l129 125h56z" />
    <glyph glyph-name="Hbar" unicode="&#x126;" horiz-adv-x="804" 
d="M6 614h101v136h81v-136h428v136h81v-136h100v-57h-100v-557h-81v342h-428v-342h-81v557h-101v57zM616 416v141h-428v-141h428z" />
    <glyph glyph-name="hbar" unicode="&#x127;" horiz-adv-x="669" 
d="M180 0h-81v667h-94v59h94v84h81v-84h186v-59h-186v-169h5q3 3 8.5 9.5t11.5 12.5l11.5 11.5l7.5 7.5q19 11 61.5 21t93.5 10q57 0 90.5 -11t55.5 -32q25 -24 35 -63.5t10 -95.5v-368h-82v341q0 51 -8 82t-26 48q-17 15 -44.5 22.5t-69.5 7.5q-46 0 -88.5 -10.5
t-71.5 -24.5v-466z" />
    <glyph glyph-name="Itilde" unicode="&#x128;" horiz-adv-x="295" 
d="M107 0v750h81v-750h-81zM-12 831q5 43 27.5 70.5t65.5 27.5q22 0 40.5 -9t34.5 -20.5t31 -20.5t32 -9q18 0 30 12t17 40h44q-5 -46 -28 -72.5t-64 -26.5q-23 0 -41.5 9t-34.5 20.5t-31.5 20.5t-31.5 9q-37 0 -46 -51h-45z" />
    <glyph glyph-name="itilde" unicode="&#x129;" horiz-adv-x="280" 
d="M99 0v561h81v-561h-81zM-21 642q5 43 27.5 70.5t65.5 27.5q22 0 40.5 -9t34.5 -20.5t31 -20.5t32 -9q18 0 30 12t17 40h44q-5 -46 -28 -72.5t-64 -26.5q-23 0 -41.5 9t-34.5 20.5t-31.5 20.5t-31.5 9q-37 0 -46 -51h-45z" />
    <glyph glyph-name="Imacron" unicode="&#x12a;" horiz-adv-x="295" 
d="M107 0v750h81v-750h-81zM21 890h258v-54h-258v54z" />
    <glyph glyph-name="imacron" unicode="&#x12b;" horiz-adv-x="280" 
d="M99 0v561h81v-561h-81zM13 701h258v-54h-258v54z" />
    <glyph glyph-name="Ibreve" unicode="&#x12c;" horiz-adv-x="295" 
d="M107 0v750h81v-750h-81zM49 954q5 -47 27 -66.5t73 -19.5q52 0 74.5 19.5t25.5 66.5h51q-7 -70 -42.5 -100.5t-108.5 -30.5t-108 30t-41 101h49z" />
    <glyph glyph-name="ibreve" unicode="&#x12d;" horiz-adv-x="280" 
d="M99 0v561h81v-561h-81zM41 764q5 -47 27 -66.5t73 -19.5q52 0 74.5 19.5t25.5 66.5h51q-7 -70 -42.5 -100.5t-108.5 -30.5t-108 30t-41 101h49z" />
    <glyph glyph-name="Iogonek" unicode="&#x12e;" horiz-adv-x="295" 
d="M107 0v750h81v-750h-7l-25 -24q-54 -51 -62 -67q-5 -8 -7.5 -17t-2.5 -23q0 -26 13 -36q6 -5 20.5 -9t40.5 -4q29 0 50 3.5t37 5.5v-41q-14 -4 -40.5 -8t-55.5 -4q-36 0 -58 5t-35 17q-23 20 -23 64q0 20 6 38t16 29q11 13 32.5 32t46.5 39h-27z" />
    <glyph glyph-name="iogonek" unicode="&#x12f;" horiz-adv-x="280" 
d="M191 748q0 -12 -3 -23t-9 -16t-16.5 -7t-21.5 -2q-28 0 -38 10q-10 12 -10 38q0 30 15 40q4 3 13 5.5t22 2.5q25 0 36 -9q12 -11 12 -39zM99 0v561h81v-561h-7l-20 -19q-25 -23 -42 -41.5t-23 -26.5q-10 -17 -10 -44q0 -26 13 -36q6 -5 20.5 -9t40.5 -4q29 0 50 3.5
t37 5.5v-41q-14 -4 -40.5 -8t-55.5 -4q-36 0 -58 5t-35 17q-23 20 -23 64q0 20 6 37t15 29q10 13 31.5 32.5t46.5 39.5h-27z" />
    <glyph glyph-name="Idotaccent" unicode="&#x130;" horiz-adv-x="295" 
d="M107 0v750h81v-750h-81zM196 872q0 -12 -3 -22t-9 -15q-5 -5 -14.5 -7t-20.5 -2q-26 0 -36 10q-4 5 -7.5 13.5t-3.5 21.5q0 14 4.5 23t10.5 14q5 3 13.5 5.5t20.5 2.5q23 0 33 -8q12 -10 12 -36z" />
    <glyph glyph-name="dotlessi" unicode="&#x131;" horiz-adv-x="280" 
d="M99 0v561h81v-561h-81z" />
    <glyph glyph-name="Jcircumflex" unicode="&#x134;" horiz-adv-x="579" 
d="M198 -11q-50 0 -94 6t-73 14v70q12 -3 30 -6t40 -5.5t45.5 -4t47.5 -1.5q59 0 97 11t59 33q11 11 19.5 27t14.5 39.5t9 55t3 74.5v448h82v-454q0 -50 -4.5 -88.5t-12.5 -67.5t-21 -50.5t-29 -37.5q-28 -28 -78 -45.5t-135 -17.5zM594 821h-65l-92 83l-92 -83h-65l129 125
h56z" />
    <glyph glyph-name="jcircumflex" unicode="&#x135;" horiz-adv-x="280" 
d="M180 -75q0 -48 -8.5 -85t-28.5 -62.5t-54.5 -39t-85.5 -13.5q-32 0 -58 3.5l-40 5.5v59q14 -1 36.5 -3t50.5 -2q33 0 53.5 7.5t32.5 23.5t16.5 42t4.5 63v637h81v-636zM298 632h-65l-92 83l-92 -83h-65l129 125h56z" />
    <glyph glyph-name="Kcommaaccent" unicode="&#x136;" horiz-adv-x="681" 
d="M657 0h-112l-310 347h-47v-347h-81v750h81v-387l353 387h106l-340 -361zM330 -87h77l-91 -135h-61z" />
    <glyph glyph-name="kcommaaccent" unicode="&#x137;" horiz-adv-x="586" 
d="M573 0h-109l-243 273h-41v-273h-81v810h81v-524l275 275h106l-265 -255zM293 -87h77l-91 -135h-61z" />
    <glyph glyph-name="kgreenlandic" unicode="&#x138;" horiz-adv-x="586" 
d="M573 0h-109l-243 271h-41v-271h-81v561h81v-278l275 278h106l-264 -259z" />
    <glyph glyph-name="Lacute" unicode="&#x139;" horiz-adv-x="601" 
d="M190 73h392l-20 -73h-453v750h81v-677zM247 950h95l-169 -134h-72z" />
    <glyph glyph-name="lacute" unicode="&#x13a;" horiz-adv-x="339" 
d="M178 810v-666q0 -50 19 -67t54 -17q23 0 41.5 2t33.5 5v-61q-20 -5 -46 -9.5t-55 -4.5q-68 0 -98 34t-30 111v673h81zM239 1005h95l-169 -134h-72z" />
    <glyph glyph-name="Lcommaaccent" unicode="&#x13b;" horiz-adv-x="601" 
d="M190 73h392l-20 -73h-453v750h81v-677zM290 -87h77l-91 -135h-61z" />
    <glyph glyph-name="lcommaaccent" unicode="&#x13c;" horiz-adv-x="339" 
d="M178 810v-666q0 -50 19 -67t54 -17q23 0 41.5 2t33.5 5v-61q-20 -5 -46 -9.5t-55 -4.5q-68 0 -98 34t-30 111v673h81zM183 -87h77l-91 -135h-61z" />
    <glyph glyph-name="Lcaron" unicode="&#x13d;" horiz-adv-x="601" 
d="M190 73h392l-20 -73h-453v750h81v-677zM446 750h70l-82 -234h-56z" />
    <glyph glyph-name="lcaron" unicode="&#x13e;" horiz-adv-x="339" 
d="M178 810v-666q0 -50 19 -67t54 -17q23 0 41.5 2t33.5 5v-61q-20 -5 -46 -9.5t-55 -4.5q-68 0 -98 34t-30 111v673h81zM308 811h70l-82 -234h-56z" />
    <glyph glyph-name="Ldot" unicode="&#x13f;" horiz-adv-x="601" 
d="M190 73h392l-20 -73h-453v750h81v-677zM501 412q0 -13 -3 -24t-10 -17q-6 -5 -17 -7.5t-23 -2.5q-29 0 -42 11q-11 13 -11 40q0 15 5 26t11 16q5 3 14.5 6t23.5 3q27 0 39 -10q13 -10 13 -41z" />
    <glyph glyph-name="ldot" unicode="&#x140;" horiz-adv-x="358" 
d="M178 810v-666q0 -50 19 -67t54 -17q23 0 41.5 2t33.5 5v-61q-20 -5 -46 -9.5t-55 -4.5q-68 0 -98 34t-30 111v673h81zM366 419q0 -13 -3 -24t-10 -17q-6 -5 -17 -7.5t-23 -2.5q-29 0 -42 11q-11 13 -11 40q0 15 5 26t11 16q5 3 14.5 6t23.5 3q27 0 39 -10q13 -10 13 -41z
" />
    <glyph glyph-name="Lslash" unicode="&#x141;" horiz-adv-x="601" 
d="M384 467l-194 -129v-264h392l-20 -74h-453v285l-99 -65v74l99 65v391h81v-337l194 128v-74z" />
    <glyph glyph-name="lslash" unicode="&#x142;" horiz-adv-x="339" 
d="M178 811v-364l134 89v-74l-134 -89v-229q0 -50 19 -67t54 -17q23 0 41.5 2t33.5 5v-61q-20 -5 -46 -9.5t-55 -4.5q-68 0 -98 34t-30 111v184l-95 -62v74l95 62v416h81z" />
    <glyph glyph-name="Nacute" unicode="&#x143;" horiz-adv-x="842" 
d="M603 0l-401 669h-18v-669h-75v750h133l397 -663h17v663h77v-750h-130zM504 950h95l-169 -134h-72z" />
    <glyph glyph-name="nacute" unicode="&#x144;" horiz-adv-x="669" 
d="M489 0v345q0 48 -9 77t-26 46t-45.5 24t-65.5 7q-48 0 -90.5 -9.5t-72.5 -21.5v-468h-81v561h62l19 -64h6q2 3 8 9l12.5 13t12 12t7.5 6q19 11 63 21.5t96 10.5t85 -11t56 -33q23 -23 33.5 -62t10.5 -93v-370h-81zM394 761h95l-169 -134h-72z" />
    <glyph glyph-name="Ncommaaccent" unicode="&#x145;" horiz-adv-x="842" 
d="M603 0l-401 669h-18v-669h-75v750h133l397 -663h17v663h77v-750h-130zM412 -87h77l-91 -135h-61z" />
    <glyph glyph-name="ncommaaccent" unicode="&#x146;" horiz-adv-x="669" 
d="M489 0v345q0 48 -9 77t-26 46t-45.5 24t-65.5 7q-48 0 -90.5 -9.5t-72.5 -21.5v-468h-81v561h62l19 -64h6q2 3 8 9l12.5 13t12 12t7.5 6q19 11 63 21.5t96 10.5t85 -11t56 -33q23 -23 33.5 -62t10.5 -93v-370h-81zM325 -87h77l-91 -135h-61z" />
    <glyph glyph-name="Ncaron" unicode="&#x147;" horiz-adv-x="842" 
d="M603 0l-401 669h-18v-669h-75v750h133l397 -663h17v663h77v-750h-130zM277 946h65l92 -82l92 82h65l-129 -125h-56z" />
    <glyph glyph-name="ncaron" unicode="&#x148;" horiz-adv-x="669" 
d="M489 0v345q0 48 -9 77t-26 46t-45.5 24t-65.5 7q-48 0 -90.5 -9.5t-72.5 -21.5v-468h-81v561h62l19 -64h6q2 3 8 9l12.5 13t12 12t7.5 6q19 11 63 21.5t96 10.5t85 -11t56 -33q23 -23 33.5 -62t10.5 -93v-370h-81zM178 757h65l92 -82l92 82h65l-129 -125h-56z" />
    <glyph glyph-name="Eng" unicode="&#x14a;" horiz-adv-x="842" 
d="M453 -233q-49 0 -93.5 6.5t-73.5 14.5v70q24 -5 70 -11t94 -6q117 0 159 44q18 18 30 46t16 69h-52l-401 669h-18v-669h-75v750h133l397 -663h17v663h77v-712q0 -73 -17 -124t-50 -84q-28 -27 -78 -45t-135 -18z" />
    <glyph glyph-name="eng" unicode="&#x14b;" horiz-adv-x="669" 
d="M570 -75q0 -48 -8.5 -85t-29 -62.5t-54.5 -39t-86 -13.5q-32 0 -57.5 3.5l-39.5 5.5v59q14 -1 36 -3t51 -2q33 0 53.5 7.5t32.5 23.5t16.5 42t4.5 63v424q0 47 -9 75.5t-26 44.5q-17 17 -45 24t-66 7q-48 0 -90.5 -9.5t-72.5 -21.5v-468h-81v561h62l19 -65h6q2 2 7.5 8.5
t12 13l12 12.5t7.5 7q20 11 63.5 21.5t94.5 10.5q54 0 87.5 -11t55.5 -34q23 -23 33.5 -61.5t10.5 -92.5v-445z" />
    <glyph glyph-name="Omacron" unicode="&#x14c;" horiz-adv-x="838" 
d="M408 63q70 0 115.5 16t71.5 39q31 28 54.5 95.5t23.5 161.5q0 93 -16 157.5t-46 96.5q-27 29 -75 44t-108 15q-66 0 -111 -15.5t-74 -41.5q-30 -29 -53 -97t-23 -165q0 -96 17 -153.5t46 -89.5q27 -32 74.5 -47.5t103.5 -15.5zM429 762q49 0 87 -6t67.5 -16.5t51.5 -25
t39 -32.5t32 -44t26 -63t17.5 -84.5t6.5 -108.5q0 -116 -30 -196.5t-75 -122.5q-40 -37 -103 -55.5t-141 -18.5q-92 0 -149 23t-92 61q-16 17 -31 41.5t-26.5 59.5t-18.5 81.5t-7 106.5q0 118 31 201t76 123q38 35 98 55.5t141 20.5zM294 890h258v-54h-258v54z" />
    <glyph glyph-name="omacron" unicode="&#x14d;" horiz-adv-x="673" 
d="M601 293q0 -83 -19 -144.5t-53 -95.5q-30 -30 -77.5 -47.5t-122.5 -17.5q-72 0 -119.5 18t-76.5 50q-25 27 -43 78t-18 133q0 84 21.5 147t59.5 98q31 29 79 46.5t117 17.5q67 0 113 -16t72 -44q32 -32 49.5 -84t17.5 -139zM334 56q44 0 77.5 11.5t53.5 31.5
q24 24 39 68.5t15 114.5q0 40 -3.5 69.5t-10 50.5t-15.5 35.5t-19 25.5q-19 20 -50 31.5t-79 11.5q-47 0 -79.5 -12.5t-49.5 -29.5q-23 -21 -40.5 -69t-17.5 -120q0 -60 11 -103t31 -65q19 -22 51 -36.5t86 -14.5zM212 701h258v-54h-258v54z" />
    <glyph glyph-name="Obreve" unicode="&#x14e;" horiz-adv-x="838" 
d="M408 63q70 0 115.5 16t71.5 39q31 28 54.5 95.5t23.5 161.5q0 93 -16 157.5t-46 96.5q-27 29 -75 44t-108 15q-66 0 -111 -15.5t-74 -41.5q-30 -29 -53 -97t-23 -165q0 -96 17 -153.5t46 -89.5q27 -32 74.5 -47.5t103.5 -15.5zM429 762q49 0 87 -6t67.5 -16.5t51.5 -25
t39 -32.5t32 -44t26 -63t17.5 -84.5t6.5 -108.5q0 -116 -30 -196.5t-75 -122.5q-40 -37 -103 -55.5t-141 -18.5q-92 0 -149 23t-92 61q-16 17 -31 41.5t-26.5 59.5t-18.5 81.5t-7 106.5q0 118 31 201t76 123q38 35 98 55.5t141 20.5zM324 954q5 -47 27 -66.5t73 -19.5
q52 0 74.5 19.5t25.5 66.5h51q-7 -70 -42.5 -100.5t-108.5 -30.5t-108 30t-41 101h49z" />
    <glyph glyph-name="obreve" unicode="&#x14f;" horiz-adv-x="673" 
d="M601 293q0 -83 -19 -144.5t-53 -95.5q-30 -30 -77.5 -47.5t-122.5 -17.5q-72 0 -119.5 18t-76.5 50q-25 27 -43 78t-18 133q0 84 21.5 147t59.5 98q31 29 79 46.5t117 17.5q67 0 113 -16t72 -44q32 -32 49.5 -84t17.5 -139zM334 56q44 0 77.5 11.5t53.5 31.5
q24 24 39 68.5t15 114.5q0 40 -3.5 69.5t-10 50.5t-15.5 35.5t-19 25.5q-19 20 -50 31.5t-79 11.5q-47 0 -79.5 -12.5t-49.5 -29.5q-23 -21 -40.5 -69t-17.5 -120q0 -60 11 -103t31 -65q19 -22 51 -36.5t86 -14.5zM241 764q5 -47 27 -66.5t73 -19.5q52 0 74.5 19.5
t25.5 66.5h51q-7 -70 -42.5 -100.5t-108.5 -30.5t-108 30t-41 101h49z" />
    <glyph glyph-name="Ohungarumlaut" unicode="&#x150;" horiz-adv-x="838" 
d="M408 63q70 0 115.5 16t71.5 39q31 28 54.5 95.5t23.5 161.5q0 93 -16 157.5t-46 96.5q-27 29 -75 44t-108 15q-66 0 -111 -15.5t-74 -41.5q-30 -29 -53 -97t-23 -165q0 -96 17 -153.5t46 -89.5q27 -32 74.5 -47.5t103.5 -15.5zM429 762q49 0 87 -6t67.5 -16.5t51.5 -25
t39 -32.5t32 -44t26 -63t17.5 -84.5t6.5 -108.5q0 -116 -30 -196.5t-75 -122.5q-40 -37 -103 -55.5t-141 -18.5q-92 0 -149 23t-92 61q-16 17 -31 41.5t-26.5 59.5t-18.5 81.5t-7 106.5q0 118 31 201t76 123q38 35 98 55.5t141 20.5zM577 946h85l-151 -130h-64zM414 946h85
l-151 -130h-64z" />
    <glyph glyph-name="ohungarumlaut" unicode="&#x151;" horiz-adv-x="673" 
d="M601 293q0 -83 -19 -144.5t-53 -95.5q-30 -30 -77.5 -47.5t-122.5 -17.5q-72 0 -119.5 18t-76.5 50q-25 27 -43 78t-18 133q0 84 21.5 147t59.5 98q31 29 79 46.5t117 17.5q67 0 113 -16t72 -44q32 -32 49.5 -84t17.5 -139zM334 56q44 0 77.5 11.5t53.5 31.5
q24 24 39 68.5t15 114.5q0 40 -3.5 69.5t-10 50.5t-15.5 35.5t-19 25.5q-19 20 -50 31.5t-79 11.5q-47 0 -79.5 -12.5t-49.5 -29.5q-23 -21 -40.5 -69t-17.5 -120q0 -60 11 -103t31 -65q19 -22 51 -36.5t86 -14.5zM487 757h85l-151 -130h-64zM324 757h85l-151 -130h-64z" />
    <glyph glyph-name="OE" unicode="&#x152;" horiz-adv-x="1117" 
d="M403 -10q-88 0 -144.5 23t-92.5 61q-16 17 -31 42t-26.5 59.5t-18.5 80.5t-7 106q0 120 31 200t76 119q38 35 98 57t142 22q35 0 68.5 -4.5t59.5 -13.5l28 -38h5v46h470l-16 -73h-372v-258h327l-16 -71h-311v-274h405l-20 -74h-467v49h-5l-29 -39q-32 -11 -71 -15.5
t-83 -4.5zM411 64q63 0 104 6t76 19v573q-36 13 -75 19t-87 6q-66 0 -112 -17t-75 -43q-29 -28 -52 -94t-23 -164q0 -97 17 -154t46 -89q28 -31 77 -46.5t104 -15.5z" />
    <glyph glyph-name="oe" unicode="&#x153;" horiz-adv-x="1063" 
d="M776 -11q-92 0 -143.5 32t-74.5 91q-26 -62 -82 -93t-147 -31q-73 0 -120 17.5t-76 49.5q-25 28 -43 79t-18 133q0 85 22 148t60 97q30 29 78 46.5t114 17.5q88 0 140 -30.5t76 -87.5q55 116 217 116q63 0 105 -15.5t67.5 -45.5t36.5 -73t11 -97v-73h-398q0 -53 9 -92
t30.5 -65.5t57.5 -39.5t91 -13q60 0 108.5 7l80.5 12l-7 -63q-34 -9 -84.5 -18t-110.5 -9zM518 280q0 41 -3.5 71t-9.5 51t-15 35.5t-19 25.5q-19 20 -50.5 31t-78.5 11t-79.5 -12t-49.5 -29q-23 -21 -40.5 -68t-17.5 -121q0 -61 11.5 -104t30.5 -65q20 -23 52 -36.5
t85 -13.5q45 0 78.5 11t53.5 31q24 24 38 67t14 115zM772 508q-44 0 -75 -11t-51 -33t-30.5 -55.5t-13.5 -79.5h315v18q0 82 -32 121.5t-113 39.5z" />
    <glyph glyph-name="Racute" unicode="&#x154;" horiz-adv-x="681" 
d="M356 750q80 0 123 -8.5t66 -24.5q26 -19 43 -56.5t17 -98.5q0 -56 -16 -97t-38 -64q-6 -5 -16.5 -11.5t-24.5 -14t-30 -14t-31 -11.5v-4q17 -8 37.5 -19.5t29.5 -22.5q11 -13 27 -43t35 -70.5l40.5 -89.5l44.5 -101h-93q-58 136 -95 209t-65 92q-15 11 -51.5 14.5
t-87.5 3.5h-83v-319h-81v750h249zM188 390h142q47 0 76 4t46 12q28 12 48.5 48.5t20.5 92.5q0 43 -10.5 69.5t-26.5 39.5q-17 13 -47.5 20t-91.5 7h-157v-293zM417 950h95l-169 -134h-72z" />
    <glyph glyph-name="racute" unicode="&#x155;" horiz-adv-x="438" 
d="M162 561l18 -67h6q2 3 8 10l12.5 14.5l11.5 13t7 6.5q18 12 52.5 22t82.5 10q20 0 35 -1t26 -3v-78q-14 3 -36 6.5t-51 3.5q-47 0 -87.5 -12t-66.5 -29v-457h-81v561h63zM313 761h95l-169 -134h-72z" />
    <glyph glyph-name="Rcommaaccent" unicode="&#x156;" horiz-adv-x="681" 
d="M356 750q80 0 123 -8.5t66 -24.5q26 -19 43 -56.5t17 -98.5q0 -56 -16 -97t-38 -64q-6 -5 -16.5 -11.5t-24.5 -14t-30 -14t-31 -11.5v-4q17 -8 37.5 -19.5t29.5 -22.5q11 -13 27 -43t35 -70.5l40.5 -89.5l44.5 -101h-93q-58 136 -95 209t-65 92q-15 11 -51.5 14.5
t-87.5 3.5h-83v-319h-81v750h249zM188 390h142q47 0 76 4t46 12q28 12 48.5 48.5t20.5 92.5q0 43 -10.5 69.5t-26.5 39.5q-17 13 -47.5 20t-91.5 7h-157v-293zM345 -87h77l-91 -135h-61z" />
    <glyph glyph-name="rcommaaccent" unicode="&#x157;" horiz-adv-x="438" 
d="M162 561l18 -67h6q2 3 8 10l12.5 14.5l11.5 13t7 6.5q18 12 52.5 22t82.5 10q20 0 35 -1t26 -3v-78q-14 3 -36 6.5t-51 3.5q-47 0 -87.5 -12t-66.5 -29v-457h-81v561h63zM140 -87h77l-91 -135h-61z" />
    <glyph glyph-name="Rcaron" unicode="&#x158;" horiz-adv-x="681" 
d="M356 750q80 0 123 -8.5t66 -24.5q26 -19 43 -56.5t17 -98.5q0 -56 -16 -97t-38 -64q-6 -5 -16.5 -11.5t-24.5 -14t-30 -14t-31 -11.5v-4q17 -8 37.5 -19.5t29.5 -22.5q11 -13 27 -43t35 -70.5l40.5 -89.5l44.5 -101h-93q-58 136 -95 209t-65 92q-15 11 -51.5 14.5
t-87.5 3.5h-83v-319h-81v750h249zM188 390h142q47 0 76 4t46 12q28 12 48.5 48.5t20.5 92.5q0 43 -10.5 69.5t-26.5 39.5q-17 13 -47.5 20t-91.5 7h-157v-293zM186 946h65l92 -82l92 82h65l-129 -125h-56z" />
    <glyph glyph-name="rcaron" unicode="&#x159;" horiz-adv-x="438" 
d="M162 561l18 -67h6q2 3 8 10l12.5 14.5l11.5 13t7 6.5q18 12 52.5 22t82.5 10q20 0 35 -1t26 -3v-78q-14 3 -36 6.5t-51 3.5q-47 0 -87.5 -12t-66.5 -29v-457h-81v561h63zM95 757h65l92 -82l92 82h65l-129 -125h-56z" />
    <glyph glyph-name="Sacute" unicode="&#x15a;" horiz-adv-x="632" 
d="M571 191q0 -49 -16 -88.5t-40 -61.5q-31 -26 -88 -39.5t-137 -13.5q-67 0 -124.5 8t-95.5 19v69q42 -8 97.5 -15.5t125.5 -7.5q66 0 106.5 9.5t55.5 23.5q13 12 22 34.5t9 55.5q0 62 -23 85q-15 14 -43.5 26.5t-63.5 24.5l-73 24t-73 25.5t-63 28.5t-43 34
q-19 23 -26 57.5t-7 66.5q0 46 14 84.5t40 63.5q25 24 76.5 41t144.5 17q61 0 112.5 -5.5t88.5 -13.5v-69q-45 6 -93.5 11t-113.5 5q-63 0 -102.5 -10t-54.5 -27q-12 -13 -20.5 -36t-8.5 -52q0 -27 5 -47.5t16 -34.5q11 -13 38.5 -26t63.5 -26t76 -26t76.5 -27t65.5 -29.5
t42 -31.5q18 -23 26 -56.5t8 -69.5zM391 950h95l-169 -134h-72z" />
    <glyph glyph-name="sacute" unicode="&#x15b;" horiz-adv-x="515" 
d="M454 158q0 -40 -10.5 -71t-35.5 -52.5t-67.5 -32.5t-106.5 -11q-45 0 -92.5 5.5t-78.5 13.5v64q32 -6 77 -12t89 -6t72.5 6t45 18t23 30t6.5 41q0 32 -15 51q-13 14 -41 24t-77 23q-60 14 -96 29.5t-56 41.5q-14 17 -19 39.5t-5 48.5q0 39 11.5 69.5t37 52.5t66 33.5
t98.5 11.5q49 0 90.5 -5t67.5 -10v-64q-32 5 -70.5 9t-81.5 4q-42 0 -69 -6.5t-43 -18.5t-22 -30t-6 -41q0 -14 3 -27t11 -23q12 -14 38.5 -25t80.5 -23q59 -14 93.5 -27.5t52.5 -33.5q29 -33 29 -96zM320 761h95l-169 -134h-72z" />
    <glyph glyph-name="Scircumflex" unicode="&#x15c;" horiz-adv-x="632" 
d="M571 191q0 -49 -16 -88.5t-40 -61.5q-31 -26 -88 -39.5t-137 -13.5q-67 0 -124.5 8t-95.5 19v69q42 -8 97.5 -15.5t125.5 -7.5q66 0 106.5 9.5t55.5 23.5q13 12 22 34.5t9 55.5q0 62 -23 85q-15 14 -43.5 26.5t-63.5 24.5l-73 24t-73 25.5t-63 28.5t-43 34
q-19 23 -26 57.5t-7 66.5q0 46 14 84.5t40 63.5q25 24 76.5 41t144.5 17q61 0 112.5 -5.5t88.5 -13.5v-69q-45 6 -93.5 11t-113.5 5q-63 0 -102.5 -10t-54.5 -27q-12 -13 -20.5 -36t-8.5 -52q0 -27 5 -47.5t16 -34.5q11 -13 38.5 -26t63.5 -26t76 -26t76.5 -27t65.5 -29.5
t42 -31.5q18 -23 26 -56.5t8 -69.5zM490 821h-65l-92 83l-92 -83h-65l129 125h56z" />
    <glyph glyph-name="scircumflex" unicode="&#x15d;" horiz-adv-x="515" 
d="M454 158q0 -40 -10.5 -71t-35.5 -52.5t-67.5 -32.5t-106.5 -11q-45 0 -92.5 5.5t-78.5 13.5v64q32 -6 77 -12t89 -6t72.5 6t45 18t23 30t6.5 41q0 32 -15 51q-13 14 -41 24t-77 23q-60 14 -96 29.5t-56 41.5q-14 17 -19 39.5t-5 48.5q0 39 11.5 69.5t37 52.5t66 33.5
t98.5 11.5q49 0 90.5 -5t67.5 -10v-64q-32 5 -70.5 9t-81.5 4q-42 0 -69 -6.5t-43 -18.5t-22 -30t-6 -41q0 -14 3 -27t11 -23q12 -14 38.5 -25t80.5 -23q59 -14 93.5 -27.5t52.5 -33.5q29 -33 29 -96zM421 632h-65l-92 83l-92 -83h-65l129 125h56z" />
    <glyph glyph-name="Scedilla" unicode="&#x15e;" horiz-adv-x="632" 
d="M289 -12q-67 0 -124 8t-95 19v69q42 -8 97.5 -15.5t125.5 -7.5q66 0 106.5 9.5t55.5 23.5q13 12 22 34.5t9 55.5q0 62 -23 85q-15 14 -43.5 26.5t-63.5 24.5l-73 24t-73 25.5t-63 28.5t-43 34q-19 23 -26 57.5t-7 66.5q0 46 14 84.5t40 63.5q25 24 76.5 41t144.5 17
q61 0 112.5 -5.5t88.5 -13.5v-69q-45 6 -93.5 11t-113.5 5q-63 0 -102.5 -10t-54.5 -27q-12 -13 -20.5 -36t-8.5 -52q0 -27 5 -47.5t16 -34.5q11 -13 38.5 -26t63.5 -26t76 -26t76.5 -27t65.5 -29.5t42 -31.5q18 -23 26 -56.5t8 -69.5q0 -49 -16 -88.5t-40 -61.5
q-27 -23 -74 -36t-113 -16l-8 -40q30 -1 51 -5t33 -15q12 -9 18 -26.5t6 -39.5q0 -23 -7.5 -41t-18.5 -28q-14 -11 -38.5 -17t-62.5 -6q-29 0 -54 4t-42 9v42q17 -4 41 -7.5t50 -3.5q31 0 45.5 4t20.5 10q5 4 9.5 13.5t4.5 21.5t-4 21t-9 14q-7 6 -22 9.5t-45 3.5h-24z" />
    <glyph glyph-name="scedilla" unicode="&#x15f;" horiz-adv-x="515" 
d="M225 -9q-43 1 -88 6t-74 13v64q32 -6 77 -12t89 -6t72.5 6t45 18t23 30t6.5 41q0 32 -15 51q-13 14 -41 24t-77 23q-60 14 -96 29.5t-56 41.5q-14 17 -19 39.5t-5 48.5q0 39 11.5 69.5t37 52.5t66 33.5t98.5 11.5q49 0 90.5 -5t67.5 -10v-64q-32 5 -70.5 9t-81.5 4
q-42 0 -69 -6.5t-43 -18.5t-22 -30t-6 -41q0 -14 3 -27t11 -23q12 -14 38.5 -25t80.5 -23q59 -14 93.5 -27.5t52.5 -33.5q29 -33 29 -96q0 -38 -9 -67.5t-31 -50.5t-58.5 -33t-91.5 -15l-9 -43q30 -1 51 -5t33 -15q12 -9 18 -26.5t6 -39.5q0 -23 -7.5 -41t-18.5 -28
q-14 -11 -38.5 -17t-62.5 -6q-29 0 -54 4t-42 9v42q17 -4 41 -7.5t50 -3.5q31 0 45.5 4t20.5 10q5 4 9.5 13.5t4.5 21.5t-4 21t-9 14q-7 6 -22 9.5t-45 3.5h-24z" />
    <glyph glyph-name="Scaron" unicode="&#x160;" horiz-adv-x="632" 
d="M571 191q0 -49 -16 -88.5t-40 -61.5q-31 -26 -88 -39.5t-137 -13.5q-67 0 -124.5 8t-95.5 19v69q42 -8 97.5 -15.5t125.5 -7.5q66 0 106.5 9.5t55.5 23.5q13 12 22 34.5t9 55.5q0 62 -23 85q-15 14 -43.5 26.5t-63.5 24.5l-73 24t-73 25.5t-63 28.5t-43 34
q-19 23 -26 57.5t-7 66.5q0 46 14 84.5t40 63.5q25 24 76.5 41t144.5 17q61 0 112.5 -5.5t88.5 -13.5v-69q-45 6 -93.5 11t-113.5 5q-63 0 -102.5 -10t-54.5 -27q-12 -13 -20.5 -36t-8.5 -52q0 -27 5 -47.5t16 -34.5q11 -13 38.5 -26t63.5 -26t76 -26t76.5 -27t65.5 -29.5
t42 -31.5q18 -23 26 -56.5t8 -69.5zM175 946h65l92 -82l92 82h65l-129 -125h-56z" />
    <glyph glyph-name="scaron" unicode="&#x161;" horiz-adv-x="515" 
d="M454 158q0 -40 -10.5 -71t-35.5 -52.5t-67.5 -32.5t-106.5 -11q-45 0 -92.5 5.5t-78.5 13.5v64q32 -6 77 -12t89 -6t72.5 6t45 18t23 30t6.5 41q0 32 -15 51q-13 14 -41 24t-77 23q-60 14 -96 29.5t-56 41.5q-14 17 -19 39.5t-5 48.5q0 39 11.5 69.5t37 52.5t66 33.5
t98.5 11.5q49 0 90.5 -5t67.5 -10v-64q-32 5 -70.5 9t-81.5 4q-42 0 -69 -6.5t-43 -18.5t-22 -30t-6 -41q0 -14 3 -27t11 -23q12 -14 38.5 -25t80.5 -23q59 -14 93.5 -27.5t52.5 -33.5q29 -33 29 -96zM108 757h65l92 -82l92 82h65l-129 -125h-56z" />
    <glyph glyph-name="uni0162" unicode="&#x162;" horiz-adv-x="638" 
d="M607 677h-251v-677h-81v677h-260l17 73h590zM305 -87h77l-91 -135h-61z" />
    <glyph glyph-name="uni0163" unicode="&#x163;" horiz-adv-x="462" 
d="M409 496h-190v-342q0 -29 5.5 -46.5t17.5 -27.5t29.5 -13.5t41.5 -3.5q31 0 61 3.5l47 5.5l-7 -64q-24 -6 -57.5 -11t-70.5 -5q-81 0 -114.5 34.5t-33.5 112.5v357h-105l5 65h100v111l81 18v-129h205zM246 -87h77l-91 -135h-61z" />
    <glyph glyph-name="uni021A" unicode="&#x21a;" horiz-adv-x="638" 
d="M607 677h-251v-677h-81v677h-260l17 73h590zM305 -87h77l-91 -135h-61z" />
    <glyph glyph-name="uni021B" unicode="&#x21b;" horiz-adv-x="462" 
d="M409 496h-190v-342q0 -29 5.5 -46.5t17.5 -27.5t29.5 -13.5t41.5 -3.5q31 0 61 3.5l47 5.5l-7 -64q-24 -6 -57.5 -11t-70.5 -5q-81 0 -114.5 34.5t-33.5 112.5v357h-105l5 65h100v111l81 18v-129h205zM246 -87h77l-91 -135h-61z" />
    <glyph glyph-name="Tcaron" unicode="&#x164;" horiz-adv-x="638" 
d="M607 677h-251v-677h-81v677h-260l17 73h590zM161 946h65l92 -82l92 82h65l-129 -125h-56z" />
    <glyph glyph-name="tcaron" unicode="&#x165;" horiz-adv-x="462" 
d="M409 496h-190v-342q0 -29 5.5 -46.5t17.5 -27.5t29.5 -13.5t41.5 -3.5q31 0 61 3.5l47 5.5l-7 -64q-24 -6 -57.5 -11t-70.5 -5q-81 0 -114.5 34.5t-33.5 112.5v357h-105l5 65h100v111l81 18v-129h205zM370 858h70l-82 -234h-56z" />
    <glyph glyph-name="Tbar" unicode="&#x166;" horiz-adv-x="638" 
d="M112 380h175v296h-259l16 74h590l-15 -74h-251v-296h183v-59h-183v-321h-81v321h-175v59z" />
    <glyph glyph-name="tbar" unicode="&#x167;" horiz-adv-x="462" 
d="M34 326h104v170h-105l5 65h100v111l81 18v-129h205l-15 -65h-190v-170h198v-58h-198v-114q0 -56 22.5 -73.5t69.5 -17.5q32 0 63 3.5t47 5.5l-7 -64q-24 -6 -57.5 -11t-70.5 -5q-81 0 -114.5 34.5t-33.5 112.5v129h-104v58z" />
    <glyph glyph-name="Utilde" unicode="&#x168;" horiz-adv-x="784" 
d="M682 750v-457q0 -97 -17.5 -152t-48.5 -88q-14 -14 -33.5 -26t-48 -21t-67 -14t-89.5 -5q-49 0 -86 6.5t-64.5 17t-46 24.5t-29.5 28t-20 32t-15 43.5t-9.5 60.5t-3.5 84v467h81v-449q0 -40 2 -69t6 -51t10.5 -37t15.5 -26q19 -23 58 -39.5t110 -16.5q69 0 109 12.5
t61 34.5q21 21 32 63t11 124v454h82zM237 831q5 43 27.5 70.5t65.5 27.5q22 0 40.5 -9t34.5 -20.5t31 -20.5t32 -9q18 0 30 12t17 40h44q-5 -46 -28 -72.5t-64 -26.5q-23 0 -41.5 9t-34.5 20.5t-31.5 20.5t-31.5 9q-37 0 -46 -51h-45z" />
    <glyph glyph-name="utilde" unicode="&#x169;" horiz-adv-x="669" 
d="M507 0l-19 67h-6q-3 -3 -9 -10.5l-12 -15.5t-11.5 -14.5t-6.5 -6.5q-20 -11 -61.5 -19.5t-92.5 -8.5q-57 0 -90 11.5t-55 34.5q-24 24 -35 62.5t-11 92.5v368h81v-338q0 -51 8 -81.5t25 -47.5q32 -32 115 -32q45 0 88 9.5t72 22.5v467h82v-561h-62zM175 642
q5 43 27.5 70.5t65.5 27.5q22 0 40.5 -9t34.5 -20.5t31 -20.5t32 -9q18 0 30 12t17 40h44q-5 -46 -28 -72.5t-64 -26.5q-23 0 -41.5 9t-34.5 20.5t-31.5 20.5t-31.5 9q-37 0 -46 -51h-45z" />
    <glyph glyph-name="Umacron" unicode="&#x16a;" horiz-adv-x="784" 
d="M682 750v-457q0 -97 -17.5 -152t-48.5 -88q-14 -14 -33.5 -26t-48 -21t-67 -14t-89.5 -5q-49 0 -86 6.5t-64.5 17t-46 24.5t-29.5 28t-20 32t-15 43.5t-9.5 60.5t-3.5 84v467h81v-449q0 -40 2 -69t6 -51t10.5 -37t15.5 -26q19 -23 58 -39.5t110 -16.5q69 0 109 12.5
t61 34.5q21 21 32 63t11 124v454h82zM264 890h258v-54h-258v54z" />
    <glyph glyph-name="umacron" unicode="&#x16b;" horiz-adv-x="669" 
d="M507 0l-19 67h-6q-3 -3 -9 -10.5l-12 -15.5t-11.5 -14.5t-6.5 -6.5q-20 -11 -61.5 -19.5t-92.5 -8.5q-57 0 -90 11.5t-55 34.5q-24 24 -35 62.5t-11 92.5v368h81v-338q0 -51 8 -81.5t25 -47.5q32 -32 115 -32q45 0 88 9.5t72 22.5v467h82v-561h-62zM207 701h258v-54h-258
v54z" />
    <glyph glyph-name="Ubreve" unicode="&#x16c;" horiz-adv-x="784" 
d="M682 750v-457q0 -97 -17.5 -152t-48.5 -88q-14 -14 -33.5 -26t-48 -21t-67 -14t-89.5 -5q-49 0 -86 6.5t-64.5 17t-46 24.5t-29.5 28t-20 32t-15 43.5t-9.5 60.5t-3.5 84v467h81v-449q0 -40 2 -69t6 -51t10.5 -37t15.5 -26q19 -23 58 -39.5t110 -16.5q69 0 109 12.5
t61 34.5q21 21 32 63t11 124v454h82zM295 954q5 -47 27 -66.5t73 -19.5q52 0 74.5 19.5t25.5 66.5h51q-7 -70 -42.5 -100.5t-108.5 -30.5t-108 30t-41 101h49z" />
    <glyph glyph-name="ubreve" unicode="&#x16d;" horiz-adv-x="669" 
d="M507 0l-19 67h-6q-3 -3 -9 -10.5l-12 -15.5t-11.5 -14.5t-6.5 -6.5q-20 -11 -61.5 -19.5t-92.5 -8.5q-57 0 -90 11.5t-55 34.5q-24 24 -35 62.5t-11 92.5v368h81v-338q0 -51 8 -81.5t25 -47.5q32 -32 115 -32q45 0 88 9.5t72 22.5v467h82v-561h-62zM235 764
q5 -47 27 -66.5t73 -19.5q52 0 74.5 19.5t25.5 66.5h51q-7 -70 -42.5 -100.5t-108.5 -30.5t-108 30t-41 101h49z" />
    <glyph glyph-name="Uring" unicode="&#x16e;" horiz-adv-x="784" 
d="M682 750v-457q0 -97 -17.5 -152t-48.5 -88q-14 -14 -33.5 -26t-48 -21t-67 -14t-89.5 -5q-49 0 -86 6.5t-64.5 17t-46 24.5t-29.5 28t-20 32t-15 43.5t-9.5 60.5t-3.5 84v467h81v-449q0 -40 2 -69t6 -51t10.5 -37t15.5 -26q19 -23 58 -39.5t110 -16.5q69 0 109 12.5
t61 34.5q21 21 32 63t11 124v454h82zM449 895q0 20 -4 29t-10 14q-9 9 -34 9t-35 -10q-7 -5 -12 -16.5t-5 -27.5q0 -13 3.5 -22.5t8.5 -14.5q11 -13 38 -13q26 0 36 11q6 5 10 14.5t4 26.5zM491 899q0 -23 -7.5 -41.5t-18.5 -29.5q-11 -9 -26.5 -15t-41.5 -6q-23 0 -39.5 6
t-26.5 16q-9 8 -16 23.5t-7 37.5q0 25 8 43t21 29q11 9 27.5 15t40.5 6q22 0 37.5 -6t24.5 -14q11 -10 17.5 -25t6.5 -39z" />
    <glyph glyph-name="uring" unicode="&#x16f;" horiz-adv-x="669" 
d="M507 0l-19 67h-6q-3 -3 -9 -10.5l-12 -15.5t-11.5 -14.5t-6.5 -6.5q-20 -11 -61.5 -19.5t-92.5 -8.5q-57 0 -90 11.5t-55 34.5q-24 24 -35 62.5t-11 92.5v368h81v-338q0 -51 8 -81.5t25 -47.5q32 -32 115 -32q45 0 88 9.5t72 22.5v467h82v-561h-62zM385 705q0 20 -4 29
t-10 14q-9 9 -34 9t-35 -10q-7 -5 -12 -16.5t-5 -27.5q0 -13 3.5 -22.5t8.5 -14.5q11 -13 38 -13q26 0 36 11q6 5 10 14.5t4 26.5zM427 709q0 -23 -7.5 -41.5t-18.5 -29.5q-11 -9 -26.5 -15t-41.5 -6q-23 0 -39.5 6t-26.5 16q-9 8 -16 23.5t-7 37.5q0 25 8 43t21 29
q11 9 27.5 15t40.5 6q22 0 37.5 -6t24.5 -14q11 -10 17.5 -25t6.5 -39z" />
    <glyph glyph-name="Uhungarumlaut" unicode="&#x170;" horiz-adv-x="784" 
d="M682 750v-457q0 -97 -17.5 -152t-48.5 -88q-14 -14 -33.5 -26t-48 -21t-67 -14t-89.5 -5q-49 0 -86 6.5t-64.5 17t-46 24.5t-29.5 28t-20 32t-15 43.5t-9.5 60.5t-3.5 84v467h81v-449q0 -40 2 -69t6 -51t10.5 -37t15.5 -26q19 -23 58 -39.5t110 -16.5q69 0 109 12.5
t61 34.5q21 21 32 63t11 124v454h82zM549 946h85l-151 -130h-64zM386 946h85l-151 -130h-64z" />
    <glyph glyph-name="uhungarumlaut" unicode="&#x171;" horiz-adv-x="669" 
d="M507 0l-19 67h-6q-3 -3 -9 -10.5l-12 -15.5t-11.5 -14.5t-6.5 -6.5q-20 -11 -61.5 -19.5t-92.5 -8.5q-57 0 -90 11.5t-55 34.5q-24 24 -35 62.5t-11 92.5v368h81v-338q0 -51 8 -81.5t25 -47.5q32 -32 115 -32q45 0 88 9.5t72 22.5v467h82v-561h-62zM493 757h85l-151 -130
h-64zM330 757h85l-151 -130h-64z" />
    <glyph glyph-name="Uogonek" unicode="&#x172;" horiz-adv-x="784" 
d="M494 -224q-36 0 -58 5t-35 17q-23 20 -23 64q0 20 6 37.5t17 28.5t36.5 29l57.5 40q-24 -5 -53 -7.5t-64 -2.5q-49 0 -86 6.5t-64.5 17t-46 24.5t-29.5 28t-20 32t-15 43.5t-9.5 60.5t-3.5 84v467h81v-449q0 -40 2 -69t6 -51t10.5 -37t15.5 -26q19 -23 58 -39.5
t110 -16.5q69 0 109 12.5t61 34.5q21 21 32 63t11 124v454h82v-457q0 -48 -4.5 -85.5t-13 -66t-20.5 -50t-28 -38.5q-21 -23 -48 -42.5l-59 -43.5q-56 -43 -68 -58t-12 -40q0 -26 13 -36q6 -5 20.5 -9t40.5 -4q29 0 50 3.5t37 5.5v-41q-14 -4 -40.5 -8t-55.5 -4z" />
    <glyph glyph-name="uogonek" unicode="&#x173;" horiz-adv-x="669" 
d="M587 -212q-14 -4 -40.5 -8t-55.5 -4q-36 0 -58 5t-35 17q-23 20 -23 64q0 20 6 37.5t17 28.5q6 6 17 14.5t25.5 18.5l31.5 21.5l34 22.5l-18 62h-6q-3 -3 -9 -10.5l-12 -15.5t-11.5 -14.5t-6.5 -6.5q-20 -11 -61.5 -19.5t-92.5 -8.5q-57 0 -90 11.5t-55 34.5
q-24 24 -35 62.5t-11 92.5v368h81v-338q0 -51 8 -81.5t25 -47.5q32 -32 115 -32q45 0 88 9.5t72 22.5v467h82v-561h-16l-50 -37q-26 -19 -43.5 -33t-22.5 -22q-11 -13 -11 -39t13 -36q6 -5 20.5 -9t41.5 -4q28 0 49 3.5t37 5.5v-41v0z" />
    <glyph glyph-name="Wcircumflex" unicode="&#x174;" horiz-adv-x="1131" 
d="M885 0h-138l-175 670h-15l-204 -670h-134l-173 750h85l152 -670h21l201 670h127l176 -670h22l169 670h86zM723 821h-65l-92 83l-92 -83h-65l129 125h56z" />
    <glyph glyph-name="wcircumflex" unicode="&#x175;" horiz-adv-x="959" 
d="M741 0h-124l-136 486h-16l-156 -486h-127l-137 561h82l113 -486h20l157 486h122l134 -486h20l133 486h82zM636 632h-65l-92 83l-92 -83h-65l129 125h56z" />
    <glyph glyph-name="Ycircumflex" unicode="&#x176;" horiz-adv-x="685" 
d="M375 0h-82v271l-269 479h92l216 -391h10l226 391h92l-285 -480v-270zM499 821h-65l-92 83l-92 -83h-65l129 125h56z" />
    <glyph glyph-name="ycircumflex" unicode="&#x177;" horiz-adv-x="604" 
d="M258 -274h-82l106 274h-53l-203 561h88l170 -488h25l181 488h87zM460 632h-65l-92 83l-92 -83h-65l129 125h56z" />
    <glyph glyph-name="Ydieresis" unicode="&#x178;" horiz-adv-x="685" 
d="M375 0h-82v271l-269 479h92l216 -391h10l226 391h92l-285 -480v-270zM291 871q0 -22 -10 -31q-11 -9 -32 -9q-22 0 -33 10q-9 9 -9 30q0 22 12 32q10 7 31 7q10 0 18 -1.5t13 -5.5q10 -9 10 -32zM477 871q0 -21 -10 -31q-5 -5 -14 -7t-19 -2q-22 0 -32 10q-10 8 -10 30
t13 32q9 7 31 7q10 0 18 -1.5t13 -5.5q10 -10 10 -32z" />
    <glyph glyph-name="Zacute" unicode="&#x179;" horiz-adv-x="697" 
d="M632 659l-483 -573v-15h507l-18 -71h-585v89l483 577v13h-450l16 71h530v-91zM436 950h95l-169 -134h-72z" />
    <glyph glyph-name="zacute" unicode="&#x17a;" horiz-adv-x="561" 
d="M499 472l-353 -390v-14h374l-19 -68h-451v82l358 398v13h-343l17 68h417v-89zM359 761h95l-169 -134h-72z" />
    <glyph glyph-name="Zdotaccent" unicode="&#x17b;" horiz-adv-x="697" 
d="M632 659l-483 -573v-15h507l-18 -71h-585v89l483 577v13h-450l16 71h530v-91zM415 872q0 -12 -3 -22t-9 -15q-5 -5 -14.5 -7t-20.5 -2q-26 0 -36 10q-4 5 -7.5 13.5t-3.5 21.5q0 14 4.5 23t10.5 14q5 3 13.5 5.5t20.5 2.5q23 0 33 -8q12 -10 12 -36z" />
    <glyph glyph-name="zdotaccent" unicode="&#x17c;" horiz-adv-x="561" 
d="M499 472l-353 -390v-14h374l-19 -68h-451v82l358 398v13h-343l17 68h417v-89zM340 683q0 -12 -3 -22t-9 -15q-5 -5 -14.5 -7t-20.5 -2q-26 0 -36 10q-4 5 -7.5 13.5t-3.5 21.5q0 14 4.5 23t10.5 14q5 3 13.5 5.5t20.5 2.5q23 0 33 -8q12 -10 12 -36z" />
    <glyph glyph-name="Zcaron" unicode="&#x17d;" horiz-adv-x="697" 
d="M632 659l-483 -573v-15h507l-18 -71h-585v89l483 577v13h-450l16 71h530v-91zM206 946h65l92 -82l92 82h65l-129 -125h-56z" />
    <glyph glyph-name="zcaron" unicode="&#x17e;" horiz-adv-x="561" 
d="M499 472l-353 -390v-14h374l-19 -68h-451v82l358 398v13h-343l17 68h417v-89zM134 757h65l92 -82l92 82h65l-129 -125h-56z" />
    <glyph glyph-name="florin" unicode="&#x192;" horiz-adv-x="679" 
d="M297 375h-167l13 65h159l14 130q4 49 16 84.5t34.5 59t56.5 35t84 11.5q32 0 61 -3t48 -8v-60q-15 2 -40.5 5t-58.5 3q-36 0 -58.5 -8t-36 -24.5t-19.5 -42t-10 -59.5l-11 -123h180l-14 -65h-173l-27 -295q-5 -50 -17 -86t-34.5 -59t-57 -34t-83.5 -11q-32 0 -64 4t-49 9
v61q14 -3 42.5 -7t60.5 -4q37 0 60 8.5t36 25.5t19 42.5t9 58.5z" />
    <glyph glyph-name="Scommaaccent" unicode="&#x218;" horiz-adv-x="632" 
d="M571 191q0 -49 -16 -88.5t-40 -61.5q-31 -26 -88 -39.5t-137 -13.5q-67 0 -124.5 8t-95.5 19v69q42 -8 97.5 -15.5t125.5 -7.5q66 0 106.5 9.5t55.5 23.5q13 12 22 34.5t9 55.5q0 62 -23 85q-15 14 -43.5 26.5t-63.5 24.5l-73 24t-73 25.5t-63 28.5t-43 34
q-19 23 -26 57.5t-7 66.5q0 46 14 84.5t40 63.5q25 24 76.5 41t144.5 17q61 0 112.5 -5.5t88.5 -13.5v-69q-45 6 -93.5 11t-113.5 5q-63 0 -102.5 -10t-54.5 -27q-12 -13 -20.5 -36t-8.5 -52q0 -27 5 -47.5t16 -34.5q11 -13 38.5 -26t63.5 -26t76 -26t76.5 -27t65.5 -29.5
t42 -31.5q18 -23 26 -56.5t8 -69.5zM303 -87h77l-91 -135h-61z" />
    <glyph glyph-name="scommaaccent" unicode="&#x219;" horiz-adv-x="515" 
d="M454 158q0 -40 -10.5 -71t-35.5 -52.5t-67.5 -32.5t-106.5 -11q-45 0 -92.5 5.5t-78.5 13.5v64q32 -6 77 -12t89 -6t72.5 6t45 18t23 30t6.5 41q0 32 -15 51q-13 14 -41 24t-77 23q-60 14 -96 29.5t-56 41.5q-14 17 -19 39.5t-5 48.5q0 39 11.5 69.5t37 52.5t66 33.5
t98.5 11.5q49 0 90.5 -5t67.5 -10v-64q-32 5 -70.5 9t-81.5 4q-42 0 -69 -6.5t-43 -18.5t-22 -30t-6 -41q0 -14 3 -27t11 -23q12 -14 38.5 -25t80.5 -23q59 -14 93.5 -27.5t52.5 -33.5q29 -33 29 -96zM239 -87h77l-91 -135h-61z" />
    <glyph glyph-name="dotlessj" unicode="&#x237;" horiz-adv-x="280" 
d="M180 -75q0 -48 -8.5 -85t-28.5 -62.5t-54.5 -39t-85.5 -13.5q-32 0 -58 3.5l-40 5.5v59q14 -1 36.5 -3t50.5 -2q33 0 53.5 7.5t32.5 23.5t16.5 42t4.5 63v637h81v-636z" />
    <glyph glyph-name="circumflex" unicode="&#x2c6;" horiz-adv-x="370" 
d="M342 632h-65l-92 83l-92 -83h-65l129 125h56z" />
    <glyph glyph-name="caron" unicode="&#x2c7;" horiz-adv-x="370" 
d="M28 757h65l92 -82l92 82h65l-129 -125h-56z" />
    <glyph glyph-name="uni02C9" unicode="&#x2c9;" horiz-adv-x="370" 
d="M57 701h258v-54h-258v54z" />
    <glyph glyph-name="breve" unicode="&#x2d8;" horiz-adv-x="399" 
d="M99 764q5 -47 27 -66.5t73 -19.5q52 0 74.5 19.5t25.5 66.5h51q-7 -70 -42.5 -100.5t-108.5 -30.5t-108 30t-41 101h49z" />
    <glyph glyph-name="dotaccent" unicode="&#x2d9;" horiz-adv-x="370" 
d="M231 683q0 -12 -3 -22t-9 -15q-5 -5 -14.5 -7t-20.5 -2q-26 0 -36 10q-4 5 -7.5 13.5t-3.5 21.5q0 14 4.5 23t10.5 14q5 3 13.5 5.5t20.5 2.5q23 0 33 -8q12 -10 12 -36z" />
    <glyph glyph-name="ring" unicode="&#x2da;" horiz-adv-x="370" 
d="M235 705q0 20 -4 29t-10 14q-9 9 -34 9t-35 -10q-7 -5 -12 -16.5t-5 -27.5q0 -13 3.5 -22.5t8.5 -14.5q11 -13 38 -13q26 0 36 11q6 5 10 14.5t4 26.5zM277 709q0 -23 -7.5 -41.5t-18.5 -29.5q-11 -9 -26.5 -15t-41.5 -6q-23 0 -39.5 6t-26.5 16q-9 8 -16 23.5t-7 37.5
q0 25 8 43t21 29q11 9 27.5 15t40.5 6q22 0 37.5 -6t24.5 -14q11 -10 17.5 -25t6.5 -39z" />
    <glyph glyph-name="ogonek" unicode="&#x2db;" horiz-adv-x="322" 
d="M182 -39q-29 -21 -44.5 -33.5t-20.5 -19.5q-12 -14 -12 -39q0 -26 13 -36q6 -5 20.5 -9t41.5 -4q28 0 49 3.5t37 5.5v-41q-14 -4 -40 -8t-55 -4q-37 0 -59 5t-35 17q-23 20 -23 64q0 20 6 37.5t17 28.5q12 12 38 30.5l61 41.5h60z" />
    <glyph glyph-name="tilde" unicode="&#x2dc;" horiz-adv-x="370" 
d="M24 642q5 43 27.5 70.5t65.5 27.5q22 0 40.5 -9t34.5 -20.5t31 -20.5t32 -9q18 0 30 12t17 40h44q-5 -46 -28 -72.5t-64 -26.5q-23 0 -41.5 9t-34.5 20.5t-31.5 20.5t-31.5 9q-37 0 -46 -51h-45z" />
    <glyph glyph-name="hungarumlaut" unicode="&#x2dd;" horiz-adv-x="477" 
d="M356 757h85l-151 -130h-64zM193 757h85l-151 -130h-64z" />
    <glyph glyph-name="commaaccent" horiz-adv-x="248" 
d="M121 -87h77l-91 -135h-61z" />
    <glyph glyph-name="uni0394" unicode="&#x394;" horiz-adv-x="744" 
d="M313 750h138l244 -687v-63h-647v63zM145 77h453l-206 593h-26z" />
    <glyph glyph-name="uni03A9" unicode="&#x3a9;" horiz-adv-x="824" 
d="M739 0h-296v141q45 7 86.5 21t67.5 37q29 27 49.5 83.5t20.5 139.5q0 152 -59 211q-27 26 -75.5 40t-110.5 14q-68 0 -113 -15t-73 -38q-32 -27 -53 -83.5t-21 -137.5q0 -82 15.5 -131t43.5 -78q26 -26 66.5 -42t86.5 -21v-141h-308l17 75h226v15q-43 8 -81.5 24.5
t-67.5 44.5q-16 14 -31 35t-26 51t-18 71t-7 95q0 103 28.5 172.5t76.5 108.5q38 31 97 50t144 19q50 0 88 -5.5t67.5 -15t51.5 -23.5t39 -30t31.5 -38.5t25.5 -53.5t17.5 -71.5t6.5 -92.5q0 -108 -28.5 -176t-72.5 -105q-25 -21 -64 -36.5t-78 -23.5v-15h249z" />
    <glyph glyph-name="uni03BC" unicode="&#x3bc;" horiz-adv-x="669" 
d="M507 0l-19 73h-6l-7 -11t-11 -16t-10.5 -15t-5.5 -7q-17 -10 -50.5 -20.5t-78.5 -10.5q-53 0 -87.5 15.5t-51.5 41.5v-323h-81v834h81v-348q0 -44 11.5 -72.5t32 -45.5t47.5 -24t57 -7q45 0 87.5 11.5t71.5 28.5v457h81v-561h-61z" />
    <glyph glyph-name="pi" unicode="&#x3c0;" horiz-adv-x="666" 
d="M113 0l51 496h-144l12 65h611l-14 -65h-140v-348q0 -49 19 -67.5t55 -18.5q21 0 38.5 2.5t29.5 4.5l-7 -64q-18 -5 -40.5 -8.5t-48.5 -3.5q-65 0 -96 31t-31 108v364h-167l-48 -496h-80z" />
    <glyph glyph-name="Wgrave" unicode="&#x1e80;" horiz-adv-x="1131" 
d="M885 0h-138l-175 670h-15l-204 -670h-134l-173 750h85l152 -670h21l201 670h127l176 -670h22l169 670h86zM627 816h-71l-167 134h95z" />
    <glyph glyph-name="wgrave" unicode="&#x1e81;" horiz-adv-x="959" 
d="M741 0h-124l-136 486h-16l-156 -486h-127l-137 561h82l113 -486h20l157 486h122l134 -486h20l133 486h82zM531 627h-71l-167 134h95z" />
    <glyph glyph-name="Wacute" unicode="&#x1e82;" horiz-adv-x="1131" 
d="M885 0h-138l-175 670h-15l-204 -670h-134l-173 750h85l152 -670h21l201 670h127l176 -670h22l169 670h86zM654 950h95l-169 -134h-72z" />
    <glyph glyph-name="wacute" unicode="&#x1e83;" horiz-adv-x="959" 
d="M741 0h-124l-136 486h-16l-156 -486h-127l-137 561h82l113 -486h20l157 486h122l134 -486h20l133 486h82zM569 761h95l-169 -134h-72z" />
    <glyph glyph-name="Wdieresis" unicode="&#x1e84;" horiz-adv-x="1131" 
d="M885 0h-138l-175 670h-15l-204 -670h-134l-173 750h85l152 -670h21l201 670h127l176 -670h22l169 670h86zM514 871q0 -22 -10 -31q-11 -9 -32 -9q-22 0 -33 10q-9 9 -9 30q0 22 12 32q10 7 31 7q10 0 18 -1.5t13 -5.5q10 -9 10 -32zM700 871q0 -21 -10 -31q-5 -5 -14 -7
t-19 -2q-22 0 -32 10q-10 8 -10 30t13 32q9 7 31 7q10 0 18 -1.5t13 -5.5q10 -10 10 -32z" />
    <glyph glyph-name="wdieresis" unicode="&#x1e85;" horiz-adv-x="959" 
d="M741 0h-124l-136 486h-16l-156 -486h-127l-137 561h82l113 -486h20l157 486h122l134 -486h20l133 486h82zM427 682q0 -22 -10 -31q-11 -9 -32 -9q-22 0 -33 10q-9 9 -9 30q0 22 12 32q10 7 31 7q10 0 18 -1.5t13 -5.5q10 -9 10 -32zM613 682q0 -21 -10 -31q-5 -5 -14 -7
t-19 -2q-22 0 -32 10q-10 8 -10 30t13 32q9 7 31 7q10 0 18 -1.5t13 -5.5q10 -10 10 -32z" />
    <glyph glyph-name="Ygrave" unicode="&#x1ef2;" horiz-adv-x="685" 
d="M375 0h-82v271l-269 479h92l216 -391h10l226 391h92l-285 -480v-270zM404 816h-71l-167 134h95z" />
    <glyph glyph-name="ygrave" unicode="&#x1ef3;" horiz-adv-x="604" 
d="M258 -274h-82l106 274h-53l-203 561h88l170 -488h25l181 488h87zM360 627h-71l-167 134h95z" />
    <glyph glyph-name="endash" unicode="&#x2013;" horiz-adv-x="614" 
d="M540 275h-466v76h466v-76z" />
    <glyph glyph-name="emdash" unicode="&#x2014;" horiz-adv-x="812" 
d="M738 275h-664v76h664v-76z" />
    <glyph glyph-name="quoteleft" unicode="&#x2018;" horiz-adv-x="281" 
d="M134 494h-92l136 256h75z" />
    <glyph glyph-name="quoteright" unicode="&#x2019;" horiz-adv-x="281" 
d="M157 750h93l-136 -256h-75z" />
    <glyph glyph-name="quotesinglbase" unicode="&#x201a;" horiz-adv-x="281" 
d="M139 138h93l-137 -256h-75z" />
    <glyph glyph-name="quotedblleft" unicode="&#x201c;" horiz-adv-x="477" 
d="M134 494h-93l136 256h75zM330 494h-92l136 256h75z" />
    <glyph glyph-name="quotedblright" unicode="&#x201d;" horiz-adv-x="477" 
d="M157 750h93l-137 -256h-74zM354 750h93l-137 -256h-74z" />
    <glyph glyph-name="quotedblbase" unicode="&#x201e;" horiz-adv-x="478" 
d="M139 138h93l-137 -256h-75zM335 138h94l-138 -256h-75z" />
    <glyph glyph-name="dagger" unicode="&#x2020;" horiz-adv-x="581" 
d="M529 461h-201v-554l-80 -17v571h-212l18 69h194v220h80v-220h216z" />
    <glyph glyph-name="daggerdbl" unicode="&#x2021;" horiz-adv-x="581" 
d="M529 482h-201v-286h216l-15 -69h-201v-220l-80 -17v237h-212l18 69h194v286h-212l18 69h194v199h80v-199h216z" />
    <glyph glyph-name="bullet" unicode="&#x2022;" horiz-adv-x="473" 
d="M125 311q0 23 9 43.5t24 35.5t35.5 24t43.5 9t43.5 -9t35.5 -24t24 -35.5t9 -43.5t-9 -43.5t-24 -35.5t-35.5 -23.5t-43.5 -8.5t-43.5 8.5t-35.5 23.5t-24 35.5t-9 43.5z" />
    <glyph glyph-name="ellipsis" unicode="&#x2026;" horiz-adv-x="784" 
d="M446 45q0 -13 -3 -24t-10 -17q-6 -5 -17 -7.5t-23 -2.5q-29 0 -42 11q-11 13 -11 40q0 15 5 26t11 16q5 3 14.5 6t23.5 3q27 0 39 -10q13 -10 13 -41zM704 45q0 -13 -3 -24t-10 -17q-6 -5 -17 -7.5t-23 -2.5q-29 0 -42 11q-11 13 -11 40q0 15 5 26t11 16q5 3 14.5 6
t23.5 3q27 0 39 -10q13 -10 13 -41zM191 45q0 -13 -3 -24t-10 -17q-6 -5 -17 -7.5t-23 -2.5q-29 0 -42 11q-11 13 -11 40q0 15 5 26t11 16q5 3 14.5 6t23.5 3q27 0 39 -10q13 -10 13 -41z" />
    <glyph glyph-name="perthousand" unicode="&#x2030;" horiz-adv-x="1394" 
d="M923 212q0 -65 -15.5 -110.5t-40.5 -70.5q-20 -23 -55 -33t-73 -10q-49 0 -77.5 13.5t-48.5 34.5q-17 20 -30.5 59t-13.5 105q0 69 17 114t40 68q21 20 52.5 32.5t74.5 12.5q48 0 78.5 -13t49.5 -34q17 -20 29.5 -60t12.5 -108zM741 44q30 0 50 7.5t34 21.5
q16 17 25.5 51.5t9.5 83.5q0 92 -26 129q-13 17 -34.5 25.5t-48.5 8.5q-57 0 -85 -32q-13 -14 -24 -48.5t-11 -85.5q0 -45 7.5 -76.5t20.5 -49.5q26 -35 82 -35zM226 375q31 0 51 7.5t34 21.5q15 16 25 51t10 84q0 91 -27 129q-25 34 -83 34t-84 -32q-13 -14 -24 -49
t-11 -85q0 -45 7.5 -76.5t20.5 -49.5q24 -35 81 -35zM649 750h64l-377 -750h-65zM239 758q48 0 78.5 -13t48.5 -34q17 -20 29.5 -60.5t12.5 -108.5q0 -64 -15.5 -109.5t-39.5 -71.5q-21 -22 -56 -32t-73 -10q-49 0 -77.5 13t-48.5 35q-17 20 -30 59t-13 105q0 69 16.5 114
t39.5 68q21 20 53 32.5t75 12.5zM1339 212q0 -65 -15.5 -110.5t-39.5 -70.5q-21 -23 -55.5 -33t-72.5 -10q-50 0 -78.5 13.5t-47.5 34.5q-17 20 -30.5 59t-13.5 105q0 69 16.5 114t39.5 68q21 20 53 32.5t75 12.5q48 0 78.5 -13t48.5 -34q17 -20 29.5 -60t12.5 -108z
M1157 44q31 0 51 7.5t34 21.5q15 17 25 51.5t10 83.5q0 91 -27 129q-12 17 -33.5 25.5t-48.5 8.5q-59 0 -85 -32q-13 -14 -24 -48.5t-11 -85.5q0 -45 7.5 -76.5t20.5 -49.5q24 -35 81 -35z" />
    <glyph glyph-name="guilsinglleft" unicode="&#x2039;" horiz-adv-x="312" 
d="M258 43l-207 213v55l207 211v-80l-143 -148v-19l143 -151v-81z" />
    <glyph glyph-name="guilsinglright" unicode="&#x203a;" horiz-adv-x="312" 
d="M53 522l207 -211v-56l-207 -212v80l144 149v20l-144 149v81z" />
    <glyph glyph-name="fraction" unicode="&#x2044;" horiz-adv-x="181" 
d="M307 750h60l-495 -750h-61z" />
    <glyph glyph-name="Euro" unicode="&#x20ac;" horiz-adv-x="679" 
d="M59 481h97q10 72 33.5 123.5t57.5 83.5q35 32 88 52t127 20q55 0 93 -6t74 -13v-66l-31.5 4t-34.5 4t-42 3.5t-54 1.5q-112 0 -164 -51q-53 -51 -66 -156h313l-15 -55h-303q-1 -12 -2 -25.5t-1 -25.5q0 -13 0.5 -25.5t1.5 -24.5h279l-15 -54h-260q5 -51 18 -88.5
t33 -60.5q23 -28 62 -44t100 -16q57 0 101.5 7l79.5 13v-63q-39 -12 -85 -20.5t-107 -8.5q-80 0 -129.5 21t-81.5 57q-26 29 -46 77.5t-27 125.5h-109l15 54h91q-1 11 -1 23v23q0 14 0.5 27.5t1.5 27.5h-107z" />
    <glyph glyph-name="uni20BA" unicode="&#x20ba;" horiz-adv-x="679" 
d="M45 240l96 58v122l-96 -58v69l96 58v261h79v-215l191 116v-68l-191 -117v-123l191 117v-69l-191 -116v-204q25 -5 62 -5q123 0 192 68.5t81 199.5l78 -22q-8 -72 -34 -131.5t-71.5 -101.5t-111 -65t-152.5 -23q-31 0 -65 3.5t-58 8.5v225l-96 -57v69z" />
    <glyph glyph-name="uni20B9" unicode="&#x20b9;" horiz-adv-x="679" 
d="M73 551h316q-3 38 -16.5 63t-31.5 39t-46 21.5t-81 7.5h-149l7 68h543l-5 -68h-215v-5q31 -14 52 -46t26 -80h143l-6 -68h-139q-5 -42 -23.5 -74.5t-38.5 -50.5q-14 -11 -41.5 -23.5t-55.5 -21.5v-4q17 -8 34 -18t28 -21q10 -10 27.5 -35.5t40 -62t47 -81l48.5 -91.5h-97
q-31 62 -56.5 107.5t-46.5 77t-37.5 50.5t-29.5 28q-14 11 -42.5 16t-70.5 5h-95l8 68h135q44 0 69 4t42 12q26 12 46.5 41t25.5 74h-322z" />
    <glyph glyph-name="afii61289" unicode="&#x2113;" horiz-adv-x="438" 
d="M137 242l-57 -63l-33 38l90 100v260q0 39 11 67.5t29.5 47t43.5 27.5t52 9q57 0 84.5 -33t27.5 -87q0 -67 -36 -127.5t-93 -122.5l-45 -50v-177q0 -43 17.5 -59t45.5 -16q25 0 47.5 12t39.5 26l33 -51q-20 -17 -52.5 -35.5t-82.5 -18.5q-57 0 -89.5 33t-32.5 91v129z
M211 397l22 27q14 17 28 36.5t25.5 40t18.5 42.5t7 44q0 31 -8.5 52t-36.5 21q-11 0 -21.5 -4t-18 -14.5t-12 -30.5t-4.5 -51v-163z" />
    <glyph glyph-name="trademark" unicode="&#x2122;" horiz-adv-x="910" 
d="M771 400v288h-13l-104 -253h-74l-102 253h-14v-288h-56v350h104l99 -249h14l102 249h100v-350h-56zM346 699h-131v-299h-57v299h-139l15 51h324z" />
    <glyph glyph-name="Omega" unicode="&#x2126;" horiz-adv-x="824" 
d="M739 0h-296v141q45 7 86.5 21t67.5 37q29 27 49.5 83.5t20.5 139.5q0 152 -59 211q-27 26 -75.5 40t-110.5 14q-68 0 -113 -15t-73 -38q-32 -27 -53 -83.5t-21 -137.5q0 -82 15.5 -131t43.5 -78q26 -26 66.5 -42t86.5 -21v-141h-308l17 75h226v15q-43 8 -81.5 24.5
t-67.5 44.5q-16 14 -31 35t-26 51t-18 71t-7 95q0 103 28.5 172.5t76.5 108.5q38 31 97 50t144 19q50 0 88 -5.5t67.5 -15t51.5 -23.5t39 -30t31.5 -38.5t25.5 -53.5t17.5 -71.5t6.5 -92.5q0 -108 -28.5 -176t-72.5 -105q-25 -21 -64 -36.5t-78 -23.5v-15h249z" />
    <glyph glyph-name="estimated" unicode="&#x212e;" horiz-adv-x="648" 
d="M167 284v-196q65 -63 155 -63q72 0 122.5 34t86.5 95q10 -5 18.5 -11t17.5 -11q-22 -33 -46.5 -59.5t-54 -45.5t-65 -29t-79.5 -10q-64 0 -115 23t-87 63.5t-55.5 94t-19.5 115.5q0 61 19 115t55 94.5t87 63.5t116 23q66 0 118 -23t87.5 -63t55 -94t21.5 -116h-437z
M479 478q-65 65 -157 65q-94 0 -155 -64v-158h312v157z" />
    <glyph glyph-name="partialdiff" unicode="&#x2202;" horiz-adv-x="557" 
d="M506 487q0 -42 -6 -91.5t-19 -101.5q-37 -152 -105 -228t-161 -76q-81 0 -123.5 46.5t-42.5 140.5q0 70 19.5 129.5t53.5 103t80.5 68t100.5 24.5q45 0 76 -18.5t48 -44.5q3 24 3 53q0 85 -34 126t-90 41q-51 0 -96 -28l-24 61q21 14 56 25t73 11q90 0 140.5 -61
t50.5 -180zM415 356q-10 33 -40 57t-73 24q-44 0 -77.5 -25t-55.5 -63.5t-33 -85t-11 -89.5q0 -63 26.5 -92t64.5 -29q65 0 118 75.5t81 227.5z" />
    <glyph glyph-name="Delta" unicode="&#x2206;" horiz-adv-x="744" 
d="M313 750h138l244 -687v-63h-647v63zM145 77h453l-206 593h-26z" />
    <glyph glyph-name="product" unicode="&#x220f;" horiz-adv-x="728" 
d="M562 -230v860h-396v-860h-79v930h553v-930h-78z" />
    <glyph glyph-name="summation" unicode="&#x2211;" horiz-adv-x="622" 
d="M35 -230v63l366 406l-344 392v69h512v-70h-418l345 -390l-364 -401h459v-69h-556z" />
    <glyph glyph-name="minus" unicode="&#x2212;" horiz-adv-x="675" 
d="M71 374h532v-68h-532v68z" />
    <glyph glyph-name="uni2215" unicode="&#x2215;" horiz-adv-x="181" 
d="M307 750h60l-495 -750h-61z" />
    <glyph glyph-name="uni2219" unicode="&#x2219;" horiz-adv-x="268" 
d="M187 340q0 -13 -3 -24t-10 -17q-6 -5 -17 -7.5t-23 -2.5q-29 0 -42 11q-11 13 -11 40q0 15 5 26t11 16q5 3 14.5 6t23.5 3q27 0 39 -10q13 -10 13 -41z" />
    <glyph glyph-name="radical" unicode="&#x221a;" horiz-adv-x="535" 
d="M23 301l143 60l85 -258l194 637l64 -16l-226 -724h-65l-92 280l-81 -35z" />
    <glyph glyph-name="infinity" unicode="&#x221e;" horiz-adv-x="734" 
d="M365 236q-30 -44 -72 -73.5t-94 -29.5q-35 0 -64 11.5t-50 32t-33 49.5t-12 64q0 36 11.5 65t32.5 50t49.5 32.5t62.5 11.5q31 0 56.5 -9t46.5 -23.5t37.5 -33t29.5 -37.5h2q12 18 28 36t37 33t46.5 24.5t55.5 9.5q34 0 63 -11t50 -31.5t33 -49t12 -63.5
q0 -34 -11.5 -63.5t-31.5 -51t-48.5 -34t-62.5 -12.5q-57 0 -100.5 29.5t-71.5 73.5h-2zM401 292q26 -47 61 -72.5t72 -25.5q47 0 69.5 29.5t22.5 68.5q0 40 -22.5 68t-69.5 28q-42 0 -74.5 -26t-58.5 -70zM332 292q-24 42 -60.5 69t-73.5 27q-47 0 -69.5 -29t-22.5 -69
q0 -43 26 -69.5t66 -26.5q42 0 76.5 29.5t57.5 68.5z" />
    <glyph glyph-name="integral" unicode="&#x222b;" horiz-adv-x="453" 
d="M375 682q-6 3 -18 5.5t-24 2.5q-78 0 -78 -97v-653q0 -75 -32 -120t-104 -45q-17 0 -37 3t-31 8q5 15 8.5 27.5l7.5 27.5q9 -3 19 -5.5t24 -2.5q40 0 59.5 24.5t19.5 71.5v655q0 74 31.5 119.5t105.5 45.5q20 0 39 -4t28 -9l-9 -27.5t-9 -26.5z" />
    <glyph glyph-name="approxequal" unicode="&#x2248;" horiz-adv-x="679" 
d="M454 370q-38 0 -68.5 14t-57 31.5t-52 31.5t-54.5 14q-17 0 -36 -7.5t-38.5 -20t-40 -28.5t-39.5 -34v75q15 15 34 29.5t40 26t43.5 18t43.5 6.5q37 0 66.5 -14t56 -31t51.5 -31t53 -14q21 0 41.5 8t40 20.5t38 28.5l35.5 31v-75q-36 -35 -77 -57t-80 -22zM454 145
q-38 0 -68.5 14t-57 31.5t-52 31.5t-54.5 14q-17 0 -36 -7.5t-38.5 -20t-40 -28.5t-39.5 -34v75q15 15 34 29.5t40 26t43.5 18t43.5 6.5q37 0 66.5 -14t56 -31t51.5 -31t53 -14q21 0 41.5 8t40 20.5t38 28.5l35.5 31v-75q-36 -35 -77 -57t-80 -22z" />
    <glyph glyph-name="notequal" unicode="&#x2260;" horiz-adv-x="679" 
d="M70 488h318l67 116h73l-67 -116h148v-68h-188l-94 -162h282v-68h-321l-69 -118h-74l69 118h-144v68h184l94 162h-278v68z" />
    <glyph glyph-name="lessequal" unicode="&#x2264;" horiz-adv-x="679" 
d="M609 715v-76l-459 -220l459 -218v-75l-539 262v65zM70 68h539v-68h-539v68z" />
    <glyph glyph-name="greaterequal" unicode="&#x2265;" horiz-adv-x="679" 
d="M609 453v-65l-539 -262v75l459 218l-459 220v76zM609 0h-539v68h539v-68z" />
    <glyph glyph-name="lozenge" unicode="&#x25ca;" horiz-adv-x="538" 
d="M249 728h42l180 -365l-180 -363h-43l-180 363zM130 364l136 -290h4l139 289l-139 288h-4z" />
    <glyph glyph-name="uniF8FF" unicode="&#xf8ff;" horiz-adv-x="512" 
d="M222 117v67h56v-67h-56zM225 234l-2 17q0 56 13 81q7 13 18 27.5t28 31.5q16 15 26 26.5t15 21t7 18t2 17.5q0 36 -22.5 60.5t-53.5 24.5t-53.5 -22t-28.5 -73l-50 8q7 72 44 104.5t91 32.5t89 -35.5t35 -95.5q0 -32 -12.5 -58.5t-50.5 -61.5q-37 -33 -43 -52
q-6 -20 -6 -72h-46zM462 50v617h-412v-617h412zM512 718v-718h-512v718h512z" />
    <glyph glyph-name="fi" unicode="&#xfb01;" horiz-adv-x="675" 
d="M494 0v561h81v-561h-81zM586 748q0 -12 -3 -23t-9 -16t-16.5 -7t-21.5 -2q-28 0 -38 10q-10 12 -10 38q0 30 15 40q4 3 13 5.5t22 2.5q25 0 36 -9q12 -11 12 -39zM383 496h-180v-496h-81v496h-108l4 65h104v65q0 99 44 143t141 44q32 0 63.5 -3.5t46.5 -5.5v-60
q-15 1 -40 3.5t-58 2.5q-37 0 -60 -8.5t-35.5 -25t-16.5 -42t-4 -58.5v-55h194z" />
    <glyph glyph-name="fl" unicode="&#xfb02;" horiz-adv-x="734" 
d="M573 810v-666q0 -50 19 -67t54 -17q23 0 41.5 2t33.5 5v-61q-20 -5 -46 -9.5t-55 -4.5q-68 0 -98 34t-30 111v673h81zM383 496h-180v-496h-81v496h-108l4 65h104v65q0 99 44 143t141 44q32 0 63.5 -3.5t46.5 -5.5v-60q-15 1 -40 3.5t-58 2.5q-37 0 -60 -8.5t-35.5 -25
t-16.5 -42t-4 -58.5v-55h194z" />
    <glyph glyph-name="zero.superior" unicode="&#x2070;" 
d="M240 443q37 0 61 8t41 25q19 18 30.5 60t11.5 97t-9 93t-25 58q-14 19 -39.5 27.5t-58.5 8.5q-34 0 -61 -8.5t-44 -26.5q-14 -16 -28 -56.5t-14 -99.5q0 -53 10 -91t26 -58q28 -37 99 -37zM252 876q57 0 92 -14t55 -37t35 -69t15 -119q0 -71 -18.5 -123.5t-46.5 -79.5
q-46 -46 -146 -46q-55 0 -88.5 14t-56.5 38q-20 22 -36 67t-16 117q0 75 18.5 126t46.5 77q24 22 59.5 35.5t86.5 13.5z" />
    <glyph glyph-name="four.superior" unicode="&#x2074;" 
d="M351 395h-59v127h-252v53l213 294h98v-294h110l-15 -53h-95v-127zM292 575v242h-12l-18.5 -25l-31 -42.5l-37.5 -52l-37.5 -52l-31 -43t-18.5 -24.5v-3h186z" />
    <glyph glyph-name="five.superior" unicode="&#x2075;" 
d="M415 542q0 -38 -10.5 -66t-34.5 -47.5t-63 -29t-97 -9.5q-38 0 -75 4.5t-62 9.5v50q32 -5 66 -8.5t69 -3.5q79 0 110.5 21t31.5 72q0 26 -5.5 43.5t-19 28t-37 15t-59.5 4.5q-38 0 -76.5 -4t-64.5 -7v254h313l-5 -54h-248v-146q16 3 44 6t62 3q46 0 77 -7.5t50 -24
t26.5 -42.5t7.5 -62z" />
    <glyph glyph-name="six.superior" unicode="&#x2076;" 
d="M173 767q-22 -24 -35 -58t-16 -79h4q1 2 5.5 6t9 8.5l8.5 8.5l6 6q21 8 52 14.5t70 6.5q89 0 124 -34.5t35 -102.5q0 -36 -10.5 -64.5t-33.5 -48.5t-60 -30.5t-90 -10.5q-50 0 -85 14.5t-57 42.5t-32 70t-10 96q0 65 18.5 114t49.5 80q35 33 95 52.5t162 21.5l21 -53
q-98 -1 -151.5 -17t-79.5 -43zM371 539q0 24 -5 41t-18 28t-35 16.5t-55 5.5q-38 0 -73.5 -7.5t-61.5 -17.5q2 -86 31 -125t92 -39q67 0 96 23.5t29 74.5z" />
    <glyph glyph-name="seven.superior" unicode="&#x2077;" 
d="M346 807v6h-291l13 56h346v-60l-233 -414h-73z" />
    <glyph glyph-name="eight.superior" unicode="&#x2078;" 
d="M57 517q0 30 12 55.5t33 43.5l47 21l-42 20q-13 12 -24 32t-11 52q0 59 42.5 97t134.5 38q91 0 129.5 -34t38.5 -87q0 -33 -12 -54.5t-25 -35.5l-43 -22l46 -16q20 -14 34 -39.5t14 -60.5q0 -64 -46.5 -101.5t-143.5 -37.5q-98 0 -141 34t-43 95zM367 524q0 27 -12.5 44
t-36.5 27t-59.5 15t-80.5 9q-29 -17 -43.5 -38.5t-14.5 -55.5q0 -41 27.5 -63.5t96.5 -22.5q67 0 95 25t28 60zM244 826q-60 0 -84.5 -23.5t-24.5 -58.5q0 -24 8.5 -38.5t28 -23.5t51 -14t77.5 -10q26 17 40.5 38t14.5 51q0 39 -26.5 59t-84.5 20z" />
    <glyph glyph-name="nine.superior" unicode="&#x2079;" 
d="M318 498q21 22 35 56.5t16 79.5l-33 -28q-20 -8 -50 -14.5t-71 -6.5q-90 0 -125.5 34t-35.5 102q0 70 46 112t145 42q52 0 88 -14t58 -42t31.5 -70t9.5 -97q0 -65 -19 -114t-50 -79q-35 -34 -95.5 -53.5t-162.5 -20.5l-21 53q98 1 153.5 17t80.5 43zM120 725
q0 -47 24 -68t90 -21q38 0 72.5 7t61.5 17q-2 85 -30.5 124.5t-94.5 39.5q-65 0 -94 -25.5t-29 -73.5z" />
    <glyph glyph-name="zero.denominator" 
d="M240 49q37 0 61 8t41 25q19 18 30.5 60t11.5 97t-9 93t-25 58q-14 19 -39.5 27.5t-58.5 8.5q-34 0 -61 -8.5t-44 -26.5q-14 -16 -28 -56.5t-14 -99.5q0 -53 10 -91t26 -58q28 -37 99 -37zM252 482q57 0 92 -14t55 -37t35 -69t15 -119q0 -71 -18.5 -123.5t-46.5 -79.5
q-46 -46 -146 -46q-55 0 -88.5 14t-56.5 38q-20 22 -36 67t-16 117q0 75 18.5 126t46.5 77q24 22 59.5 35.5t86.5 13.5z" />
    <glyph glyph-name="one.denominator" 
d="M81 1v53h142l-1 371l-141 -23v53l205 34v-435h129v-53h-334z" />
    <glyph glyph-name="two.denominator" horiz-adv-x="491" 
d="M413 1h-356v38q1 30 10.5 53.5t29 44.5t49.5 41t74 41q53 25 79 40.5t37 29.5q10 12 13 27t3 31q0 21 -5 36.5t-18.5 25t-36.5 14t-60 4.5q-43 0 -85.5 -6.5t-67.5 -11.5v51q31 8 76.5 14.5t90.5 6.5q50 0 83.5 -7.5t53.5 -23.5t28.5 -39.5t8.5 -56.5q0 -32 -6.5 -54.5
t-19.5 -39.5q-19 -22 -52.5 -41t-92.5 -46q-38 -17 -62 -32.5t-38 -29.5t-20 -27.5t-7 -27.5h305z" />
    <glyph glyph-name="three.denominator" 
d="M399 361q0 -33 -12.5 -57.5t-22.5 -34.5l-49 -22l52 -17q17 -14 28.5 -41t11.5 -59q0 -34 -10 -59.5t-33 -42.5t-60.5 -25.5t-92.5 -8.5q-45 0 -80.5 5.5t-60.5 11.5v50q26 -5 63 -9.5t72 -4.5q42 0 68.5 5.5t41.5 16t20.5 25.5t5.5 35q0 27 -8.5 44t-25.5 26t-42 12.5
t-59 3.5h-84v52h82q28 0 52 3.5t40.5 13t26 25.5t9.5 41q0 20 -4.5 34.5t-17 24.5t-34.5 14.5t-56 4.5q-39 0 -76 -5t-63 -10v49q28 6 68.5 12.5t84.5 6.5q47 0 78.5 -7.5t51 -22.5t27.5 -37.5t8 -52.5z" />
    <glyph glyph-name="four.denominator" 
d="M351 1h-59v127h-252v53l213 294h98v-294h110l-15 -53h-95v-127zM292 181v242h-12l-18.5 -25l-31 -42.5l-37.5 -52l-37.5 -52l-31 -43t-18.5 -24.5v-3h186z" />
    <glyph glyph-name="five.denominator" 
d="M415 148q0 -38 -10.5 -66t-34.5 -47.5t-63 -29t-97 -9.5q-38 0 -75 4.5t-62 9.5v50q32 -5 66 -8.5t69 -3.5q79 0 110.5 21t31.5 72q0 26 -5.5 43.5t-19 28t-37 15t-59.5 4.5q-38 0 -76.5 -4t-64.5 -7v254h313l-5 -54h-248v-146q16 3 44 6t62 3q46 0 77 -7.5t50 -24
t26.5 -42.5t7.5 -62z" />
    <glyph glyph-name="six.denominator" 
d="M173 373q-22 -24 -35 -58t-16 -79h4q1 2 5.5 6t9 8.5l8.5 8.5l6 6q21 8 52 14.5t70 6.5q89 0 124 -34.5t35 -102.5q0 -36 -10.5 -64.5t-33.5 -48.5t-60 -30.5t-90 -10.5q-50 0 -85 14.5t-57 42.5t-32 70t-10 96q0 65 18.5 114t49.5 80q35 33 95 52.5t162 21.5l21 -53
q-98 -1 -151.5 -17t-79.5 -43zM371 145q0 24 -5 41t-18 28t-35 16.5t-55 5.5q-38 0 -73.5 -7.5t-61.5 -17.5q2 -86 31 -125t92 -39q67 0 96 23.5t29 74.5z" />
    <glyph glyph-name="seven.denominator" 
d="M346 413v6h-291l13 56h346v-60l-233 -414h-73z" />
    <glyph glyph-name="eight.denominator" 
d="M57 123q0 30 12 55.5t33 43.5l47 21l-42 20q-13 12 -24 32t-11 52q0 59 42.5 97t134.5 38q91 0 129.5 -34t38.5 -87q0 -33 -12 -54.5t-25 -35.5l-43 -22l46 -16q20 -14 34 -39.5t14 -60.5q0 -64 -46.5 -101.5t-143.5 -37.5q-98 0 -141 34t-43 95zM367 130q0 27 -12.5 44
t-36.5 27t-59.5 15t-80.5 9q-29 -17 -43.5 -38.5t-14.5 -55.5q0 -41 27.5 -63.5t96.5 -22.5q67 0 95 25t28 60zM244 432q-60 0 -84.5 -23.5t-24.5 -58.5q0 -24 8.5 -38.5t28 -23.5t51 -14t77.5 -10q26 17 40.5 38t14.5 51q0 39 -26.5 59t-84.5 20z" />
    <glyph glyph-name="nine.denominator" 
d="M318 104q21 22 35 56.5t16 79.5l-33 -28q-20 -8 -50 -14.5t-71 -6.5q-90 0 -125.5 34t-35.5 102q0 70 46 112t145 42q52 0 88 -14t58 -42t31.5 -70t9.5 -97q0 -65 -19 -114t-50 -79q-35 -34 -95.5 -53.5t-162.5 -20.5l-21 53q98 1 153.5 17t80.5 43zM120 331
q0 -47 24 -68t90 -21q38 0 72.5 7t61.5 17q-2 85 -30.5 124.5t-94.5 39.5q-65 0 -94 -25.5t-29 -73.5z" />
    <glyph glyph-name="zero.numerator" 
d="M240 323q37 0 61 8t41 25q19 18 30.5 60t11.5 97t-9 93t-25 58q-14 19 -39.5 27.5t-58.5 8.5q-34 0 -61 -8.5t-44 -26.5q-14 -16 -28 -56.5t-14 -99.5q0 -53 10 -91t26 -58q28 -37 99 -37zM252 756q57 0 92 -14t55 -37t35 -69t15 -119q0 -71 -18.5 -123.5t-46.5 -79.5
q-46 -46 -146 -46q-55 0 -88.5 14t-56.5 38q-20 22 -36 67t-16 117q0 75 18.5 126t46.5 77q24 22 59.5 35.5t86.5 13.5z" />
    <glyph glyph-name="one.numerator" 
d="M81 276v53h142l-1 371l-141 -23v53l205 34v-435h129v-53h-334z" />
    <glyph glyph-name="two.numerator" horiz-adv-x="491" 
d="M413 276h-356v38q1 30 10.5 53.5t29 44.5t49.5 41t74 41q53 25 79 40.5t37 29.5q10 12 13 27t3 31q0 21 -5 36.5t-18.5 25t-36.5 14t-60 4.5q-43 0 -85.5 -6.5t-67.5 -11.5v51q31 8 76.5 14.5t90.5 6.5q50 0 83.5 -7.5t53.5 -23.5t28.5 -39.5t8.5 -56.5q0 -32 -6.5 -54.5
t-19.5 -39.5q-19 -22 -52.5 -41t-92.5 -46q-38 -17 -62 -32.5t-38 -29.5t-20 -27.5t-7 -27.5h305z" />
    <glyph glyph-name="three.numerator" 
d="M401 636q0 -33 -12.5 -57.5t-22.5 -34.5l-49 -22l52 -17q17 -14 28.5 -41t11.5 -59q0 -34 -10 -59.5t-33 -42.5t-60.5 -25.5t-92.5 -8.5q-45 0 -80.5 5.5t-60.5 11.5v50q26 -5 63 -9.5t72 -4.5q42 0 68.5 5.5t41.5 16t20.5 25.5t5.5 35q0 27 -8.5 44t-25.5 26t-42 12.5
t-59 3.5h-84v52h82q28 0 52 3.5t40.5 13t26 25.5t9.5 41q0 20 -4.5 34.5t-17 24.5t-34.5 14.5t-56 4.5q-39 0 -76 -5t-63 -10v49q28 6 68.5 12.5t84.5 6.5q47 0 78.5 -7.5t51 -22.5t27.5 -37.5t8 -52.5z" />
    <glyph glyph-name="four.numerator" 
d="M351 276h-59v127h-252v53l213 294h98v-294h110l-15 -53h-95v-127zM292 456v242h-12l-18.5 -25l-31 -42.5l-37.5 -52l-37.5 -52l-31 -43t-18.5 -24.5v-3h186z" />
    <glyph glyph-name="five.numerator" 
d="M416 422q0 -38 -10.5 -66t-34.5 -47.5t-63 -29t-97 -9.5q-38 0 -75 4.5t-62 9.5v50q32 -5 66 -8.5t69 -3.5q79 0 110.5 21t31.5 72q0 26 -5.5 43.5t-19 28t-37 15t-59.5 4.5q-38 0 -76.5 -4t-64.5 -7v254h313l-5 -54h-248v-146q16 3 44 6t62 3q46 0 77 -7.5t50 -24
t26.5 -42.5t7.5 -62z" />
    <glyph glyph-name="six.numerator" 
d="M173 648q-22 -24 -35 -58t-16 -79h4q1 2 5.5 6t9 8.5l8.5 8.5l6 6q21 8 52 14.5t70 6.5q89 0 124 -34.5t35 -102.5q0 -36 -10.5 -64.5t-33.5 -48.5t-60 -30.5t-90 -10.5q-50 0 -85 14.5t-57 42.5t-32 70t-10 96q0 65 18.5 114t49.5 80q35 33 95 52.5t162 21.5l21 -53
q-98 -1 -151.5 -17t-79.5 -43zM371 420q0 24 -5 41t-18 28t-35 16.5t-55 5.5q-38 0 -73.5 -7.5t-61.5 -17.5q2 -86 31 -125t92 -39q67 0 96 23.5t29 74.5z" />
    <glyph glyph-name="seven.numerator" 
d="M346 688v6h-291l13 56h346v-60l-233 -414h-73z" />
    <glyph glyph-name="eight.numerator" 
d="M57 398q0 30 12 55.5t33 43.5l47 21l-42 20q-13 12 -24 32t-11 52q0 59 42.5 97t134.5 38q91 0 129.5 -34t38.5 -87q0 -33 -12 -54.5t-25 -35.5l-43 -22l46 -16q20 -14 34 -39.5t14 -60.5q0 -64 -46.5 -101.5t-143.5 -37.5q-98 0 -141 34t-43 95zM367 405q0 27 -12.5 44
t-36.5 27t-59.5 15t-80.5 9q-29 -17 -43.5 -38.5t-14.5 -55.5q0 -41 27.5 -63.5t96.5 -22.5q67 0 95 25t28 60zM244 707q-60 0 -84.5 -23.5t-24.5 -58.5q0 -24 8.5 -38.5t28 -23.5t51 -14t77.5 -10q26 17 40.5 38t14.5 51q0 39 -26.5 59t-84.5 20z" />
    <glyph glyph-name="nine.numerator" 
d="M318 379q21 22 35 56.5t16 79.5l-33 -28q-20 -8 -50 -14.5t-71 -6.5q-90 0 -125.5 34t-35.5 102q0 70 46 112t145 42q52 0 88 -14t58 -42t31.5 -70t9.5 -97q0 -65 -19 -114t-50 -79q-35 -34 -95.5 -53.5t-162.5 -20.5l-21 53q98 1 153.5 17t80.5 43zM120 606
q0 -47 24 -68t90 -21q38 0 72.5 7t61.5 17q-2 85 -30.5 124.5t-94.5 39.5q-65 0 -94 -25.5t-29 -73.5z" />
    <glyph glyph-name="zero.inferior" unicode="&#x2080;" 
d="M240 -71q37 0 61 8t41 25q19 18 30.5 60t11.5 97t-9 93t-25 58q-14 19 -39.5 27.5t-58.5 8.5q-34 0 -61 -8.5t-44 -26.5q-14 -16 -28 -56.5t-14 -99.5q0 -53 10 -91t26 -58q28 -37 99 -37zM252 362q57 0 92 -14t55 -37t35 -69t15 -119q0 -71 -18.5 -123.5t-46.5 -79.5
q-46 -46 -146 -46q-55 0 -88.5 14t-56.5 38q-20 22 -36 67t-16 117q0 75 18.5 126t46.5 77q24 22 59.5 35.5t86.5 13.5z" />
    <glyph glyph-name="one.inferior" unicode="&#x2081;" 
d="M81 -119v53h142l-1 371l-141 -23v53l205 34v-435h129v-53h-334z" />
    <glyph glyph-name="two.inferior" unicode="&#x2082;" horiz-adv-x="491" 
d="M413 -119h-356v38q1 30 10.5 53.5t29 44.5t49.5 41t74 41q53 25 79 40.5t37 29.5q10 12 13 27t3 31q0 21 -5 36.5t-18.5 25t-36.5 14t-60 4.5q-43 0 -85.5 -6.5t-67.5 -11.5v51q31 8 76.5 14.5t90.5 6.5q50 0 83.5 -7.5t53.5 -23.5t28.5 -39.5t8.5 -56.5
q0 -32 -6.5 -54.5t-19.5 -39.5q-19 -22 -52.5 -41t-92.5 -46q-38 -17 -62 -32.5t-38 -29.5t-20 -27.5t-7 -27.5h305z" />
    <glyph glyph-name="three.inferior" unicode="&#x2083;" 
d="M399 241q0 -33 -12.5 -57.5t-22.5 -34.5l-49 -22l52 -17q17 -14 28.5 -41t11.5 -59q0 -34 -10 -59.5t-33 -42.5t-60.5 -25.5t-92.5 -8.5q-45 0 -80.5 5.5t-60.5 11.5v50q26 -5 63 -9.5t72 -4.5q42 0 68.5 5.5t41.5 16t20.5 25.5t5.5 35q0 27 -8.5 44t-25.5 26t-42 12.5
t-59 3.5h-84v52h82q28 0 52 3.5t40.5 13t26 25.5t9.5 41q0 20 -4.5 34.5t-17 24.5t-34.5 14.5t-56 4.5q-39 0 -76 -5t-63 -10v49q28 6 68.5 12.5t84.5 6.5q47 0 78.5 -7.5t51 -22.5t27.5 -37.5t8 -52.5z" />
    <glyph glyph-name="four.inferior" unicode="&#x2084;" 
d="M351 -119h-59v127h-252v53l213 294h98v-294h110l-15 -53h-95v-127zM292 61v242h-12l-18.5 -25l-31 -42.5l-37.5 -52l-37.5 -52l-31 -43t-18.5 -24.5v-3h186z" />
    <glyph glyph-name="five.inferior" unicode="&#x2085;" 
d="M415 28q0 -38 -10.5 -66t-34.5 -47.5t-63 -29t-97 -9.5q-38 0 -75 4.5t-62 9.5v50q32 -5 66 -8.5t69 -3.5q79 0 110.5 21t31.5 72q0 26 -5.5 43.5t-19 28t-37 15t-59.5 4.5q-38 0 -76.5 -4t-64.5 -7v254h313l-5 -54h-248v-146q16 3 44 6t62 3q46 0 77 -7.5t50 -24
t26.5 -42.5t7.5 -62z" />
    <glyph glyph-name="six.inferior" unicode="&#x2086;" 
d="M173 253q-22 -24 -35 -58t-16 -79h4q1 2 5.5 6t9 8.5l8.5 8.5l6 6q21 8 52 14.5t70 6.5q89 0 124 -34.5t35 -102.5q0 -36 -10.5 -64.5t-33.5 -48.5t-60 -30.5t-90 -10.5q-50 0 -85 14.5t-57 42.5t-32 70t-10 96q0 65 18.5 114t49.5 80q35 33 95 52.5t162 21.5l21 -53
q-98 -1 -151.5 -17t-79.5 -43zM371 25q0 24 -5 41t-18 28t-35 16.5t-55 5.5q-38 0 -73.5 -7.5t-61.5 -17.5q2 -86 31 -125t92 -39q67 0 96 23.5t29 74.5z" />
    <glyph glyph-name="seven.inferior" unicode="&#x2087;" 
d="M346 293v6h-291l13 56h346v-60l-233 -414h-73z" />
    <glyph glyph-name="eight.inferior" unicode="&#x2088;" 
d="M57 3q0 30 12 55.5t33 43.5l47 21l-42 20q-13 12 -24 32t-11 52q0 59 42.5 97t134.5 38q91 0 129.5 -34t38.5 -87q0 -33 -12 -54.5t-25 -35.5l-43 -22l46 -16q20 -14 34 -39.5t14 -60.5q0 -64 -46.5 -101.5t-143.5 -37.5q-98 0 -141 34t-43 95zM367 10q0 27 -12.5 44
t-36.5 27t-59.5 15t-80.5 9q-29 -17 -43.5 -38.5t-14.5 -55.5q0 -41 27.5 -63.5t96.5 -22.5q67 0 95 25t28 60zM244 312q-60 0 -84.5 -23.5t-24.5 -58.5q0 -24 8.5 -38.5t28 -23.5t51 -14t77.5 -10q26 17 40.5 38t14.5 51q0 39 -26.5 59t-84.5 20z" />
    <glyph glyph-name="nine.inferior" unicode="&#x2089;" 
d="M318 -16q21 22 35 56.5t16 79.5l-33 -28q-20 -8 -50 -14.5t-71 -6.5q-90 0 -125.5 34t-35.5 102q0 70 46 112t145 42q52 0 88 -14t58 -42t31.5 -70t9.5 -97q0 -65 -19 -114t-50 -79q-35 -34 -95.5 -53.5t-162.5 -20.5l-21 53q98 1 153.5 17t80.5 43zM120 211
q0 -47 24 -68t90 -21q38 0 72.5 7t61.5 17q-2 85 -30.5 124.5t-94.5 39.5q-65 0 -94 -25.5t-29 -73.5z" />
    <glyph glyph-name="acute.cap" horiz-adv-x="370" 
d="M243 949h95l-169 -134h-72z" />
    <glyph glyph-name="breve.cap" horiz-adv-x="399" 
d="M99 954q5 -47 27 -66.5t73 -19.5q52 0 74.5 19.5t25.5 66.5h51q-7 -70 -42.5 -100.5t-108.5 -30.5t-108 30t-41 101h49z" />
    <glyph glyph-name="caron.alt" horiz-adv-x="200" 
d="M96 750h70l-82 -234h-56z" />
    <glyph glyph-name="caron.cap" horiz-adv-x="370" 
d="M28 944h65l92 -82l92 82h65l-129 -125h-56z" />
    <glyph glyph-name="circumflex.cap" horiz-adv-x="370" 
d="M342 819h-65l-92 83l-92 -83h-65l129 125h56z" />
    <glyph glyph-name="commaaccent.alt" horiz-adv-x="248" 
d="M126 633h-77l91 136h61z" />
    <glyph glyph-name="dieresis.cap" horiz-adv-x="370" 
d="M133 866q0 -22 -10 -31q-11 -9 -32 -9q-22 0 -33 10q-9 9 -9 30q0 22 12 32q10 7 31 7q10 0 18 -1.5t13 -5.5q10 -9 10 -32zM319 866q0 -21 -10 -31q-5 -5 -14 -7t-19 -2q-22 0 -32 10q-10 8 -10 30t13 32q9 7 31 7q10 0 18 -1.5t13 -5.5q10 -10 10 -32z" />
    <glyph glyph-name="dotaccent.cap" horiz-adv-x="370" 
d="M231 865q0 -12 -3 -22t-9 -15q-5 -5 -14.5 -7t-20.5 -2q-26 0 -36 10q-4 5 -7.5 13.5t-3.5 21.5q0 14 4.5 23t10.5 14q5 3 13.5 5.5t20.5 2.5q23 0 33 -8q12 -10 12 -36z" />
    <glyph glyph-name="grave.cap" horiz-adv-x="370" 
d="M264 814h-71l-167 134h95z" />
    <glyph glyph-name="hungarumlaut.cap" horiz-adv-x="477" 
d="M356 945h85l-151 -130h-64zM193 945h85l-151 -130h-64z" />
    <glyph glyph-name="macron.cap" horiz-adv-x="370" 
d="M57 885h258v-54h-258v54z" />
    <glyph glyph-name="ring.cap" horiz-adv-x="370" 
d="M235 897q0 20 -4 29t-10 14q-9 9 -34 9t-35 -10q-7 -5 -12 -16.5t-5 -27.5q0 -13 3.5 -22.5t8.5 -14.5q11 -13 38 -13q26 0 36 11q6 5 10 14.5t4 26.5zM277 901q0 -23 -7.5 -41.5t-18.5 -29.5q-11 -9 -26.5 -15t-41.5 -6q-23 0 -39.5 6t-26.5 16q-9 8 -16 23.5t-7 37.5
q0 25 8 43t21 29q11 9 27.5 15t40.5 6q22 0 37.5 -6t24.5 -14q11 -10 17.5 -25t6.5 -39z" />
    <glyph glyph-name="tilde.cap" horiz-adv-x="370" 
d="M24 827q5 43 27.5 70.5t65.5 27.5q22 0 40.5 -9t34.5 -20.5t31 -20.5t32 -9q18 0 30 12t17 40h44q-5 -46 -28 -72.5t-64 -26.5q-23 0 -41.5 9t-34.5 20.5t-31.5 20.5t-31.5 9q-37 0 -46 -51h-45z" />
    <glyph glyph-name="cent.alt" horiz-adv-x="679" 
d="M386 599q-51 0 -88.5 -11.5t-59.5 -34.5q-24 -26 -37 -70.5t-13 -110.5q0 -65 13 -106t38 -65q21 -20 56 -29.5t79 -9.5q51 0 94.5 6.5t73.5 11.5v-62q-27 -8 -63.5 -15.5t-83.5 -10.5v-92h-48v91q-113 3 -171 57q-71 68 -71 219q0 76 18.5 136.5t56.5 98.5
q32 30 72.5 45.5t94.5 19.5v83h48v-83q46 -1 83.5 -7t63.5 -11v-65q-27 5 -67.5 10t-88.5 5z" />
    <glyph glyph-name="oslash.alt" horiz-adv-x="673" 
d="M61 -3l61 71q-20 29 -35 78t-15 121q0 84 21.5 147.5t59.5 97.5q29 29 78 46.5t118 17.5q57 0 99.5 -12.5t70.5 -34.5l29 35h62l-58 -69q24 -32 36.5 -80t12.5 -122q0 -83 -19 -144t-53 -95q-31 -32 -78 -49t-122 -17q-59 0 -102 12.5t-72 35.5l-33 -39h-61zM519 280
q0 41 -3.5 70.5t-10 50.5t-15.5 36t-19 26q-18 20 -48.5 31.5t-80.5 11.5q-48 0 -79.5 -12.5t-48.5 -29.5q-25 -21 -42 -69t-17 -120q0 -60 11 -103t31 -66q20 -22 51.5 -36t85.5 -14q45 0 77 11t53 31q25 25 40 69t15 113z" />
    </font>
</defs>
</svg>
