<?xml version="1.0" standalone="no"?>
<!DOCTYPE svg PUBLIC "-//W3C//DTD SVG 1.1//EN" "http://www.w3.org/Graphics/SVG/1.1/DTD/svg11.dtd" >
<svg>
<metadata>
Created by FontForge 20090622 at Mon Apr 16 08:10:09 2018
 By deploy user
Copyright &#194;&#172;&#194;&#169; 2014 Commercial Type.
</metadata>
<defs>
<font id="DuplicateIonic-Regular" horiz-adv-x="400" >
  <font-face 
    font-family="Duplicate Ionic Regular"
    font-weight="400"
    font-stretch="normal"
    units-per-em="1000"
    panose-1="0 0 0 0 0 0 0 0 0 0"
    ascent="854"
    descent="-146"
    x-height="479"
    cap-height="639"
    bbox="-180 -197 1140 1013"
    underline-thickness="50"
    underline-position="-79"
    unicode-range="U+0020-U+FB04"
  />
<missing-glyph horiz-adv-x="500" 
 />
    <glyph glyph-name="f_b" unicode="fb" horiz-adv-x="884" 
d="M28 479h72v29q0 89 52.5 130.5t132.5 41.5q84 0 114 -42l18 35h49v-316q17 61 65 97.5t118 36.5q91 0 143 -66.5t52 -176.5v-1q0 -123 -57 -190.5t-145 -67.5q-68 0 -113.5 33t-63.5 92q-2 -40 -9 -68.5t-12 -37.5l-6 -8h-56v553h-9q-48 0 -48 48v32q-17 5 -42 5
q-99 0 -99 -122v-37h136v-48h-136v-347q0 -29 10.5 -37t51.5 -8h24v-39h-239v39h27q26 0 34 8.5t8 34.5v349h-72v48zM623 41q131 0 131 193v36q0 164 -131 164q-64 0 -110.5 -48t-46.5 -124v-20q0 -96 45.5 -148.5t111.5 -52.5z" />
    <glyph glyph-name="f_f_b" unicode="ffb" horiz-adv-x="1166" 
d="M28 479h72v26q0 47 16 81t44 51t57.5 24.5t63.5 7.5q52 0 85.5 -17t38.5 -49q45 77 162 77q84 0 114 -42l18 35h49v-316q17 61 65 97.5t118 36.5q91 0 143 -66.5t52 -176.5v-1q0 -123 -57 -190.5t-145 -67.5q-68 0 -113.5 33t-63.5 92q-2 -40 -9 -68.5t-12 -37.5l-6 -8
h-56v553h-9q-48 0 -48 48v32q-17 5 -42 5q-99 0 -99 -122v-37h136v-48h-136v-347q0 -29 10.5 -37t51.5 -8h24v-39h-239v39h27q26 0 34 8.5t8 34.5v349h-198v-347q0 -29 10.5 -37t51.5 -8h24v-39h-239v39h27q26 0 34 8.5t8 34.5v349h-72v48zM905 41q131 0 131 193v36
q0 164 -131 164q-64 0 -110.5 -48t-46.5 -124v-20q0 -96 45.5 -148.5t111.5 -52.5zM184 479h198v29q0 26 4 45q-12 -7 -25 -7q-45 0 -45 48v30q-12 3 -31 3q-52 0 -76.5 -26.5t-24.5 -87.5v-34z" />
    <glyph glyph-name="f_f_h" unicode="ffh" horiz-adv-x="1157" 
d="M567 680q84 0 114 -42l18 35h49v-325q12 67 60 105t112 38q72 0 113.5 -42t41.5 -122v-248q0 -23 10 -31.5t45 -8.5h10v-39h-225v39h24q32 0 42 6.5t10 29.5v268q0 86 -94 86q-64 0 -106.5 -44.5t-42.5 -119.5v-190q0 -23 9.5 -29.5t42.5 -6.5h24v-39h-226v39h24
q26 0 34 8.5t8 34.5v471h-9q-48 0 -48 48v32q-17 5 -42 5q-99 0 -99 -122v-37h136v-48h-136v-347q0 -29 10.5 -37t51.5 -8h24v-39h-239v39h27q26 0 34 8.5t8 34.5v349h-198v-347q0 -29 10.5 -37t51.5 -8h24v-39h-239v39h27q26 0 34 8.5t8 34.5v349h-72v48h72v26q0 47 16 81
t44 51t57.5 24.5t63.5 7.5q52 0 85.5 -17t38.5 -49q45 77 162 77zM184 479h198v29q0 26 4 45q-12 -7 -25 -7q-45 0 -45 48v30q-12 3 -31 3q-52 0 -76.5 -26.5t-24.5 -87.5v-34z" />
    <glyph glyph-name="f_f_j" unicode="ffj" horiz-adv-x="828" 
d="M281 669q51 0 84 -16t39 -47q44 74 158 74q67 0 105.5 -25t38.5 -65q0 -24 -13 -37.5t-35 -13.5q-48 0 -48 48v43q-22 8 -49 8q-49 0 -72 -28t-23 -92v-39h282v-512q0 -60 -34 -90t-91 -30q-50 0 -80 22.5t-30 56.5q0 19 13 30.5t33 11.5q40 0 40 -44v-33q7 -3 21 -3
q24 0 34 17.5t10 55.5v413q0 36 -11.5 46.5t-47.5 10.5h-139v-347q0 -29 10.5 -37t51.5 -8h22v-39h-237v39h27q26 0 34 8.5t8 34.5v349h-198v-347q0 -29 10.5 -37t51.5 -8h24v-39h-239v39h27q26 0 34 8.5t8 34.5v349h-72v48h72v26q0 47 16 81t44 51t57.5 24.5t63.5 7.5z
M184 479h198v31q0 26 4 43q-10 -7 -25 -7q-45 0 -45 48v30q-12 3 -31 3q-52 0 -76.5 -26.5t-24.5 -87.5v-34z" />
    <glyph glyph-name="f_f_k" unicode="ffk" horiz-adv-x="1109" 
d="M28 479h72v26q0 47 16 81t44 51t57.5 24.5t63.5 7.5q52 0 85.5 -17t38.5 -49q45 77 162 77q84 0 114 -42l18 35h49v-424l153 144q17 17 13.5 27.5t-24.5 10.5h-34v48h211v-48h-19q-25 0 -41.5 -8t-46.5 -35l-132 -121l188 -182q32 -32 43.5 -39t30.5 -7h2v-39h-209v39h19
q16 0 23 5.5t3 15.5t-18 24l-162 161v-170q0 -23 9.5 -29.5t42.5 -6.5h24v-39h-226v39h24q26 0 34 8.5t8 34.5v471h-9q-48 0 -48 48v32q-17 5 -42 5q-99 0 -99 -122v-37h136v-48h-136v-347q0 -29 10.5 -37t51.5 -8h24v-39h-239v39h27q26 0 34 8.5t8 34.5v349h-198v-347
q0 -29 10.5 -37t51.5 -8h24v-39h-239v39h27q26 0 34 8.5t8 34.5v349h-72v48zM184 479h198v29q0 26 4 45q-12 -7 -25 -7q-45 0 -45 48v30q-12 3 -31 3q-52 0 -76.5 -26.5t-24.5 -87.5v-34z" />
    <glyph glyph-name="f_h" unicode="fh" horiz-adv-x="875" 
d="M285 680q84 0 114 -42l18 35h49v-325q12 67 60 105t112 38q72 0 113.5 -42t41.5 -122v-248q0 -23 10 -31.5t45 -8.5h10v-39h-225v39h24q32 0 42 6.5t10 29.5v268q0 86 -94 86q-64 0 -106.5 -44.5t-42.5 -119.5v-190q0 -23 9.5 -29.5t42.5 -6.5h24v-39h-226v39h24
q26 0 34 8.5t8 34.5v471h-9q-48 0 -48 48v32q-17 5 -42 5q-99 0 -99 -122v-37h136v-48h-136v-347q0 -29 10.5 -37t51.5 -8h24v-39h-239v39h27q26 0 34 8.5t8 34.5v349h-72v48h72v29q0 89 52.5 130.5t132.5 41.5z" />
    <glyph glyph-name="f_j" unicode="fj" horiz-adv-x="546" 
d="M28 479h72v31q0 49 16 83.5t43 52.5t57 26t64 8q67 0 105.5 -25t38.5 -65q0 -24 -13 -37.5t-35 -13.5q-48 0 -48 48v43q-22 8 -49 8q-49 0 -72 -28t-23 -92v-39h282v-512q0 -60 -34 -90t-91 -30q-50 0 -80 22.5t-30 56.5q0 19 13 30.5t33 11.5q40 0 40 -44v-33
q7 -3 21 -3q24 0 34 17.5t10 55.5v413q0 33 -10 44t-39 13h-149v-347q0 -29 10.5 -37t51.5 -8h22v-39h-237v39h27q26 0 34 8.5t8 34.5v349h-72v48z" />
    <glyph glyph-name="f_k" unicode="fk" horiz-adv-x="827" 
d="M28 479h72v29q0 89 52.5 130.5t132.5 41.5q84 0 114 -42l18 35h49v-424l153 144q17 17 13.5 27.5t-24.5 10.5h-34v48h211v-48h-19q-25 0 -41.5 -8t-46.5 -35l-132 -121l188 -182q32 -32 43.5 -39t30.5 -7h2v-39h-209v39h19q16 0 23 5.5t3 15.5t-18 24l-162 161v-170
q0 -23 9.5 -29.5t42.5 -6.5h24v-39h-226v39h24q26 0 34 8.5t8 34.5v471h-9q-48 0 -48 48v32q-17 5 -42 5q-99 0 -99 -122v-37h136v-48h-136v-347q0 -29 10.5 -37t51.5 -8h24v-39h-239v39h27q26 0 34 8.5t8 34.5v349h-72v48z" />
    <glyph glyph-name="f_f" unicode="ff" horiz-adv-x="637" 
d="M28 479h72v26q0 47 16 81t44 51t57.5 24.5t63.5 7.5q100 0 121 -53q37 64 131 64q49 0 78.5 -19.5t29.5 -57.5q0 -20 -12.5 -33t-32.5 -13q-45 0 -45 48v28q-10 5 -20 5q-65 0 -65 -97v-62h136v-48h-136v-347q0 -29 10.5 -37t51.5 -8h24v-39h-239v39h27q26 0 34 8.5
t8 34.5v349h-198v-347q0 -29 10.5 -37t51.5 -8h24v-39h-239v39h27q26 0 34 8.5t8 34.5v349h-72v48zM184 479h198v54v18q-7 -5 -21 -5q-45 0 -45 48v30q-12 3 -31 3q-52 0 -76.5 -26.5t-24.5 -87.5v-34z" />
    <glyph glyph-name="f_i" unicode="fi" horiz-adv-x="556" 
d="M466 479v-397q0 -28 9 -35.5t43 -7.5h20v-39h-224v39h26q26 0 34 8.5t8 34.5v292q0 36 -11.5 46.5t-47.5 10.5h-139v-347q0 -29 10.5 -37t51.5 -8h22v-39h-237v39h27q26 0 34 8.5t8 34.5v349h-72v48h72v31q0 49 16 83.5t43 52.5t57 26t64 8q67 0 105.5 -25t38.5 -65
q0 -24 -13 -37.5t-35 -13.5q-48 0 -48 48v43q-22 8 -49 8q-49 0 -72 -28t-23 -92v-39h282z" />
    <glyph glyph-name="f_l" unicode="fl" horiz-adv-x="556" 
d="M28 479h72v29q0 89 52.5 130.5t132.5 41.5q84 0 114 -42l18 35h49v-587q0 -31 9 -39t43 -8h20v-39h-222v39h24q26 0 34 8.5t8 34.5v471h-9q-48 0 -48 48v32q-17 5 -42 5q-99 0 -99 -122v-37h136v-48h-136v-347q0 -29 10.5 -37t51.5 -8h24v-39h-239v39h27q26 0 34 8.5
t8 34.5v349h-72v48z" />
    <glyph glyph-name="f_f_i" unicode="ffi" horiz-adv-x="838" 
d="M28 479h72v26q0 47 16 81t44 51t57.5 24.5t63.5 7.5q51 0 84 -16t39 -47q44 74 158 74q67 0 105.5 -25t38.5 -65q0 -24 -13 -37.5t-35 -13.5q-48 0 -48 48v43q-22 8 -49 8q-49 0 -72 -28t-23 -92v-39h282v-397q0 -28 9 -35.5t43 -7.5h20v-39h-224v39h26q26 0 34 8.5
t8 34.5v292q0 36 -11.5 46.5t-47.5 10.5h-139v-347q0 -29 10.5 -37t51.5 -8h22v-39h-237v39h27q26 0 34 8.5t8 34.5v349h-198v-347q0 -29 10.5 -37t51.5 -8h24v-39h-239v39h27q26 0 34 8.5t8 34.5v349h-72v48zM184 479h198v31q0 26 4 43q-10 -7 -25 -7q-45 0 -45 48v30
q-12 3 -31 3q-52 0 -76.5 -26.5t-24.5 -87.5v-34z" />
    <glyph glyph-name="f_f_l" unicode="ffl" horiz-adv-x="838" 
d="M28 479h72v26q0 47 16 81t44 51t57.5 24.5t63.5 7.5q52 0 85.5 -17t38.5 -49q45 77 162 77q84 0 114 -42l18 35h49v-587q0 -31 9 -39t43 -8h20v-39h-222v39h24q26 0 34 8.5t8 34.5v471h-9q-48 0 -48 48v32q-17 5 -42 5q-99 0 -99 -122v-37h136v-48h-136v-347
q0 -29 10.5 -37t51.5 -8h24v-39h-239v39h27q26 0 34 8.5t8 34.5v349h-198v-347q0 -29 10.5 -37t51.5 -8h24v-39h-239v39h27q26 0 34 8.5t8 34.5v349h-72v48zM184 479h198v29q0 26 4 45q-12 -7 -25 -7q-45 0 -45 48v30q-12 3 -31 3q-52 0 -76.5 -26.5t-24.5 -87.5v-34z" />
    <glyph glyph-name=".notdef" horiz-adv-x="500" 
 />
    <glyph glyph-name=".null" horiz-adv-x="0" 
 />
    <glyph glyph-name="nonmarkingreturn" horiz-adv-x="333" 
 />
    <glyph glyph-name="space" unicode=" " horiz-adv-x="200" 
 />
    <glyph glyph-name="exclam" unicode="!" horiz-adv-x="218" 
d="M109 -7q-24 0 -41.5 17t-17.5 41t18 41.5t41 17.5q25 0 42 -17.5t17 -41.5t-17 -41t-42 -17zM57 588q-6 78 51 78t51 -78l-31 -417h-40z" />
    <glyph glyph-name="quotedbl" unicode="&#x22;" horiz-adv-x="317" 
d="M245 441h-40l-26 132q-5 28 7.5 47t38.5 19t38.5 -19t7.5 -47zM112 441h-40l-26 132q-5 28 7.5 47t38.5 19t38.5 -19t7.5 -47z" />
    <glyph glyph-name="numbersign" unicode="#" horiz-adv-x="486" 
d="M398 639l-28 -173h82v-70h-93l-22 -136h87v-70h-99l-30 -190h-52l30 190h-106l-30 -190h-52l30 190h-82v70h94l22 136h-88v70h99l28 173h52l-28 -173h106l28 173h52zM201 396l-22 -136h106l22 136h-106z" />
    <glyph glyph-name="dollar" unicode="$" horiz-adv-x="517" 
d="M246 -107h-49l8 94q-76 7 -120.5 40t-44.5 81q0 25 13 39t34 14q49 0 49 -58v-36q28 -20 75 -23l23 248q-56 12 -85 28q-83 45 -83 148q0 87 57 134t144 50l6 66h49l-6 -67q65 -8 106 -38t41 -75q0 -25 -13 -39t-34 -14q-49 0 -49 58v35q-23 13 -57 16l-21 -237
q92 -18 125 -42q63 -46 63 -135q0 -95 -61.5 -143.5t-161.5 -51.5zM366 250q-21 16 -84 31l-22 -238q65 5 99.5 36.5t34.5 97.5q0 51 -28 73zM188 389q19 -12 53 -21l20 226q-113 -11 -113 -122q0 -60 40 -83z" />
    <glyph glyph-name="percent" unicode="%" horiz-adv-x="663" 
d="M108 512v-34q0 -109 64 -109t64 109v34q0 96 -64 96t-64 -96zM172 328q-59 0 -99.5 41t-40.5 120v8q0 73 39 114.5t101 41.5q63 0 101.5 -41.5t38.5 -114.5v-8q0 -80 -39.5 -120.5t-100.5 -40.5zM427 137q0 -109 64 -109t64 109v34q0 96 -64 96t-64 -96v-34zM631 148
q0 -80 -39.5 -120.5t-100.5 -40.5q-59 0 -99.5 41t-40.5 120v8q0 73 39 114.5t101 41.5q63 0 101.5 -41.5t38.5 -114.5v-8zM582 639l-440 -639h-58l440 639h58z" />
    <glyph glyph-name="ampersand" unicode="&#x26;" horiz-adv-x="632" 
d="M235 -11q-99 0 -152 44.5t-53 120.5q0 66 38.5 105.5t114.5 76.5q-67 83 -67 158q0 69 41.5 113.5t115.5 44.5q70 0 111 -39.5t41 -103.5q0 -59 -35.5 -97t-105.5 -73l146 -175q24 50 34 117q3 25 -4.5 32t-37.5 7h-25v50h195v-50h-24q-25 0 -34.5 -5.5t-13.5 -23.5
q-14 -108 -51 -173l35 -42q17 -20 31.5 -25.5t46.5 -5.5h10v-45h-126l-46 55q-70 -66 -185 -66zM250 46q80 0 134 51l-173 206q-94 -56 -94 -145q0 -50 34.5 -81t98.5 -31zM197 505q0 -38 15 -68t46 -68q84 52 84 137q0 42 -18 66.5t-53 24.5q-34 0 -54 -24.5t-20 -67.5z
" />
    <glyph glyph-name="quotesingle" unicode="'" horiz-adv-x="184" 
d="M112 441h-40l-26 132q-5 28 7.5 47t38.5 19t38.5 -19t7.5 -47z" />
    <glyph glyph-name="parenleft" unicode="(" horiz-adv-x="298" 
d="M129 299v-31q0 -189 134 -325v-39q-31 16 -65.5 45.5t-70.5 74t-59 109t-23 134.5v33q0 73 23 139.5t59 111.5t70.5 74.5t65.5 45.5v-39q-134 -118 -134 -333z" />
    <glyph glyph-name="parenright" unicode=")" horiz-adv-x="298" 
d="M169 268v31q0 215 -134 333v39q31 -16 65.5 -45.5t70.5 -74.5t59 -111.5t23 -139.5v-33q0 -70 -23 -134.5t-59 -109t-70.5 -74t-65.5 -45.5v39q134 136 134 325z" />
    <glyph glyph-name="asterisk" unicode="*" horiz-adv-x="325" 
d="M193 401q4 -20 -5 -32.5t-26 -12.5t-26 12.5t-5 32.5l18 75l-55 -53q-15 -13 -30.5 -12t-24.5 15q-8 16 -1.5 30t25.5 20l73 21l-73 22q-19 7 -25.5 20.5t1.5 28.5q9 15 24.5 16.5t30.5 -11.5l55 -54l-18 75q-4 20 5 32.5t26 12.5t26 -12.5t5 -32.5l-19 -76l56 54
q15 13 30.5 12t24.5 -15q8 -16 1.5 -30t-25.5 -20l-74 -22l74 -21q19 -7 25.5 -20.5t-1.5 -28.5q-9 -15 -24.5 -16.5t-30.5 11.5l-56 54z" />
    <glyph glyph-name="plus" unicode="+" horiz-adv-x="478" 
d="M267 513v-172h161v-52h-161v-173h-56v173h-161v52h161v172h56z" />
    <glyph glyph-name="comma" unicode="," horiz-adv-x="234" 
d="M58 53q0 24 17 40.5t42 16.5q27 0 45 -20.5t18 -62.5q0 -62 -34.5 -101t-96.5 -48v35q32 8 50.5 30.5t18.5 52.5q-29 -1 -44.5 15t-15.5 42z" />
    <glyph glyph-name="hyphen" unicode="-" horiz-adv-x="312" 
d="M55 232v74h202v-74h-202z" />
    <glyph glyph-name="period" unicode="." horiz-adv-x="234" 
d="M117 -7q-24 0 -41.5 17t-17.5 41t18 41.5t41 17.5q25 0 42 -17.5t17 -41.5t-17 -41t-42 -17z" />
    <glyph glyph-name="slash" unicode="/" horiz-adv-x="306" 
d="M281 673l-220 -771h-56l220 771h56z" />
    <glyph glyph-name="zero" unicode="0" horiz-adv-x="588" 
d="M294 -15q-109 0 -181.5 80t-72.5 240v43q0 147 69.5 226t184.5 79t184.5 -79t69.5 -226v-43q0 -161 -72 -240.5t-182 -79.5zM294 36q167 0 167 260v71q0 115 -44 173t-123 58t-123 -58t-44 -173v-71q0 -260 167 -260z" />
    <glyph glyph-name="one" unicode="1" horiz-adv-x="398" 
d="M371 0h-309v45h62q28 0 40 10.5t12 42.5v467l-119 -141v74l119 141h87v-541q0 -32 12 -42.5t40 -10.5h56v-45z" />
    <glyph glyph-name="two" unicode="2" horiz-adv-x="491" 
d="M451 0h-413v73q163 108 238.5 197t75.5 185q0 143 -145 143q-46 0 -76 -17v-38q0 -58 -49 -58q-21 0 -34 14t-13 38q0 51 55 83.5t140 32.5q96 0 154 -48t58 -144q0 -110 -79 -198t-244 -192h229q27 0 37.5 10.5t10.5 38.5v26h55v-146z" />
    <glyph glyph-name="three" unicode="3" horiz-adv-x="485" 
d="M220 -10q-89 0 -147 34t-58 84q0 23 13 36t34 13q47 0 47 -58v-36q37 -20 93 -20q78 0 119.5 33.5t41.5 99.5q0 124 -148 124h-85v59h85q63 0 94.5 31.5t31.5 87.5q0 120 -141 120q-50 0 -78 -17v-38q0 -58 -49 -58q-21 0 -34 14t-13 38q0 51 53.5 83.5t133.5 32.5
q96 0 154.5 -47t58.5 -123q0 -63 -36.5 -102t-103.5 -48v-3q76 -8 120 -51t44 -114q0 -81 -61 -128t-169 -47z" />
    <glyph glyph-name="four" unicode="4" horiz-adv-x="536" 
d="M35 179v53l286 407h87v-407h89v-53h-89v-81q0 -32 12 -42.5t40 -10.5h46v-45h-289v45h52q28 0 40 10.5t12 42.5v81h-286zM321 548l-222 -316h222v316z" />
    <glyph glyph-name="five" unicode="5" horiz-adv-x="490" 
d="M225 -10q-89 0 -147 34t-58 84q0 23 13 36t34 13q47 0 47 -58v-36q37 -20 91 -20q78 0 120.5 41t42.5 115q0 139 -148 139q-80 0 -134 -47h-26v348h368v-146h-55v30q0 27 -10.5 36t-37.5 9h-205v-204q58 29 124 29q89 0 150 -48.5t61 -144.5q0 -95 -62 -152.5t-168 -57.5
z" />
    <glyph glyph-name="six" unicode="6" horiz-adv-x="563" 
d="M528 207q0 -100 -67.5 -161t-174.5 -61q-113 0 -179.5 71.5t-66.5 212.5v53q0 171 77 251t204 80q85 0 138.5 -32.5t53.5 -83.5q0 -24 -13 -38t-34 -14q-49 0 -49 58v37q-30 18 -84 18q-206 0 -206 -262v-20q43 103 181 103q104 0 162 -60.5t58 -146.5v-5zM289 42
q71 0 111.5 43t40.5 120v8q0 68 -36 108.5t-110 40.5q-72 0 -120 -37.5t-48 -96.5v-5q0 -91 45.5 -136t116.5 -45z" />
    <glyph glyph-name="seven" unicode="7" horiz-adv-x="473" 
d="M210 0q-18 0 -29.5 11.5t-11.5 31.5q0 13 8 34l206 488h-241q-23 0 -32.5 -8.5t-9.5 -33.5v-34h-55v150h398v-81l-183 -510q-16 -48 -50 -48z" />
    <glyph glyph-name="eight" unicode="8" horiz-adv-x="527" 
d="M264 -14q-97 0 -163 51t-66 136v8q0 60 38 101.5t105 58.5q-56 16 -89 52.5t-33 90.5v5q0 71 58 117t150 46q91 0 149 -45.5t58 -116.5v-6q0 -54 -33.5 -90.5t-88.5 -52.5q66 -17 104.5 -58.5t38.5 -100.5v-8q0 -86 -66 -137t-162 -51zM264 45q141 0 141 130v16
q0 55 -38 87.5t-103 32.5q-66 0 -104 -32.5t-38 -87.5v-16q0 -130 142 -130zM264 367q58 0 92 26.5t34 78.5v15q0 49 -33.5 78t-92.5 29t-93 -29t-34 -78v-15q0 -52 34 -78.5t93 -26.5z" />
    <glyph glyph-name="nine" unicode="9" horiz-adv-x="563" 
d="M268 276q72 0 120 37.5t48 96.5v5q0 91 -46 137t-116 46q-71 0 -111.5 -44t-40.5 -121v-8q0 -68 36 -108.5t110 -40.5zM242 -15q-85 0 -138.5 32.5t-53.5 83.5q0 24 13 38t34 14q49 0 49 -58v-37q30 -18 84 -18q206 0 206 262v20q-43 -103 -181 -103q-104 0 -162 60.5
t-58 146.5v5q0 100 67.5 161t174.5 61q113 0 179.5 -71.5t66.5 -212.5v-53q0 -171 -77 -251t-204 -80z" />
    <glyph glyph-name="colon" unicode=":" horiz-adv-x="234" 
d="M117 -7q-24 0 -41.5 17t-17.5 41t18 41.5t41 17.5q25 0 42 -17.5t17 -41.5t-17 -41t-42 -17zM117 303q-24 0 -41.5 17t-17.5 41t18 41.5t41 17.5q25 0 42 -17.5t17 -41.5t-17 -41t-42 -17z" />
    <glyph glyph-name="semicolon" unicode=";" horiz-adv-x="234" 
d="M58 53q0 -26 15.5 -42t44.5 -15q0 -30 -18.5 -52.5t-50.5 -30.5v-35q62 9 96.5 48t34.5 101q0 42 -18 62.5t-45 20.5q-25 0 -42 -16.5t-17 -40.5zM117 303q-24 0 -41.5 17t-17.5 41t18 41.5t41 17.5q25 0 42 -17.5t17 -41.5t-17 -41t-42 -17z" />
    <glyph glyph-name="less" unicode="&#x3c;" horiz-adv-x="472" 
d="M50 344l372 180v-57l-313 -152l313 -151v-58l-372 180v58z" />
    <glyph glyph-name="equal" unicode="=" horiz-adv-x="512" 
d="M55 261h402v-52h-402v52zM55 421h402v-52h-402v52z" />
    <glyph glyph-name="greater" unicode="&#x3e;" horiz-adv-x="472" 
d="M422 344v-58l-372 -180v58l313 151l-313 152v57z" />
    <glyph glyph-name="question" unicode="?" horiz-adv-x="394" 
d="M191 171h-44v24q0 49 15.5 87.5t38 63.5t44.5 47t37.5 50t15.5 62q0 48 -29 79t-86 31q-39 0 -68 -13v-44q0 -58 -47 -58q-21 0 -34 13t-13 36q0 45 50.5 81.5t129.5 36.5q80 0 130.5 -41.5t50.5 -122.5q0 -40 -14 -72t-35.5 -51.5l-46 -40.5l-46 -39t-35.5 -45.5
t-14 -61.5v-22zM229 51q0 -24 -17 -41t-42 -17q-24 0 -41.5 17t-17.5 41t18 41.5t41 17.5q25 0 42 -17.5t17 -41.5z" />
    <glyph glyph-name="at" unicode="@" horiz-adv-x="869" 
d="M396 82q45 0 82.5 40t47.5 109l2 14q12 81 -18.5 119.5t-80.5 38.5t-84.5 -50.5t-34.5 -159.5q0 -111 86 -111zM459 652q161 0 265.5 -91.5t104.5 -246.5q0 -129 -52 -205t-137 -76q-55 0 -85.5 27.5t-33.5 71.5q-16 -49 -53.5 -76.5t-85.5 -27.5q-74 0 -114.5 49
t-40.5 130q0 105 55 180.5t148 75.5q52 0 82 -32t36 -81q3 23 11 48.5t15 39.5l7 14h65l-44 -271q-17 -101 45 -101q51 0 84 63t33 173q0 143 -86 215t-220 72q-153 0 -252 -108.5t-99 -276.5q0 -153 88 -240.5t237 -87.5q78 0 151 23t114 57v-49q-38 -34 -110 -57t-159 -23
q-173 0 -280.5 100.5t-107.5 275.5q0 197 122.5 316t296.5 119z" />
    <glyph glyph-name="A" unicode="A" horiz-adv-x="691" 
d="M498 102l-34 97h-266l-28 -84q-13 -36 -0.5 -53t53.5 -17h44v-45h-243v45h17q29 0 39.5 11t25.5 52l183 531h112l185 -535q14 -39 24 -49t39 -10h21v-45h-273v45h44q45 0 57 10.5t0 46.5zM331 588l-115 -336h230z" />
    <glyph glyph-name="B" unicode="B" horiz-adv-x="618" 
d="M25 0v45h37q28 0 40 10.5t12 42.5v438q0 32 -12 42.5t-40 10.5h-37v50h312q92 0 144 -39.5t52 -120.5q0 -136 -145 -153v-3q77 -5 122.5 -45t45.5 -106q0 -86 -49.5 -129t-173.5 -43h-308zM201 347h119q66 0 97 28.5t31 92.5q0 63 -30 90t-91 27h-126v-238zM201 49h121
q85 0 116 28t31 93q0 67 -35 95.5t-114 28.5h-119v-245z" />
    <glyph glyph-name="C" unicode="C" horiz-adv-x="638" 
d="M336 -15q-127 0 -206.5 88.5t-79.5 248.5v2q0 151 79 240t213 89q113 0 167 -75q3 18 8 33t8 21l3 7h42v-185h-58q-7 76 -47.5 110t-119.5 34q-103 0 -154 -69t-51 -180v-40q0 -266 206 -266q80 0 126 37t53 104h53v-184h-42q-10 22 -17 68q-58 -83 -183 -83z" />
    <glyph glyph-name="D" unicode="D" horiz-adv-x="668" 
d="M201 49h120q211 0 211 268v36q0 112 -42 172t-149 60h-140v-536zM25 639h326q136 0 204 -81t68 -227v-2q0 -159 -73 -244t-218 -85h-307v45h37q28 0 40 10.5t12 42.5v438q0 32 -12 42.5t-40 10.5h-37v50z" />
    <glyph glyph-name="E" unicode="E" horiz-adv-x="589" 
d="M539 0h-514v45h37q28 0 40 10.5t12 42.5v438q0 32 -12 42.5t-40 10.5h-37v50h500v-174h-55v16q0 68 -18 85.5t-77 17.5h-174v-234h111q41 0 52.5 16.5t11.5 84.5v10h49v-281h-49v13q0 68 -11.5 86t-52.5 18h-111v-246h177q66 0 86 21t20 95v23h55v-190z" />
    <glyph glyph-name="F" unicode="F" horiz-adv-x="567" 
d="M201 283v-182q0 -36 13 -46t49 -10h50v-45h-288v45h37q28 0 40 10.5t12 42.5v438q0 32 -12 42.5t-40 10.5h-37v50h512v-184h-55v26q0 67 -20 85t-80 18h-181v-248h115q40 0 52 18t12 83v10h51v-281h-51v13q0 62 -12.5 83t-51.5 21h-115z" />
    <glyph glyph-name="G" unicode="G" horiz-adv-x="650" 
d="M333 653q110 0 161 -74q4 18 8.5 33t7.5 21l3 6h42v-185h-58q-7 76 -46 110t-115 34q-100 0 -148 -68.5t-48 -180.5v-40q0 -266 197 -266q93 0 147 44v127q0 30 -9 38t-43 8h-30v50h228v-50h-7q-31 0 -41.5 -10t-10.5 -43v-207h-42q-11 12 -19 62q-58 -77 -179 -77
q-128 0 -204.5 88t-76.5 249v2q0 151 76.5 240t206.5 89z" />
    <glyph glyph-name="H" unicode="H" horiz-adv-x="715" 
d="M514 299h-313v-208q0 -29 13 -37.5t49 -8.5h44v-45h-282v45h37q28 0 40 10.5t12 42.5v438q0 32 -12 42.5t-40 10.5h-37v50h282v-50h-44q-36 0 -49 -8.5t-13 -37.5v-191h313v191q0 29 -13 37.5t-49 8.5h-44v50h282v-50h-37q-28 0 -40 -10.5t-12 -42.5v-438q0 -32 12 -42.5
t40 -10.5h37v-45h-282v45h44q36 0 49 8.5t13 37.5v208z" />
    <glyph glyph-name="I" unicode="I" horiz-adv-x="325" 
d="M300 0h-275v45h42q28 0 40 10.5t12 42.5v438q0 32 -12 42.5t-40 10.5h-42v50h275v-50h-42q-28 0 -40 -10.5t-12 -42.5v-438q0 -32 12 -42.5t40 -10.5h42v-45z" />
    <glyph glyph-name="J" unicode="J" horiz-adv-x="451" 
d="M126 70v-34q12 -2 23 -2q51 0 78 31.5t27 109.5v368q0 29 -13 37.5t-49 8.5h-30v50h264v-50h-33q-28 0 -40 -10.5t-12 -42.5v-369q0 -87 -46.5 -133.5t-135.5 -46.5q-63 0 -100 26t-37 70q0 21 15 36t36 15q53 0 53 -64z" />
    <glyph glyph-name="K" unicode="K" horiz-adv-x="662" 
d="M428 93l-227 227v-229q0 -29 13 -37.5t49 -8.5h44v-45h-282v45h37q28 0 40 10.5t12 42.5v438q0 32 -12 42.5t-40 10.5h-37v50h282v-50h-44q-36 0 -49 -8.5t-13 -37.5v-218l239 212q24 21 21.5 36.5t-34.5 15.5h-36v50h242v-50h-21q-27 0 -45 -10t-53 -41l-223 -196
l248 -248q19 -18 28.5 -26t27 -15.5t37.5 -7.5h10v-45h-257v45h33q14 0 20.5 7t4 18t-14.5 23z" />
    <glyph glyph-name="L" unicode="L" horiz-adv-x="563" 
d="M25 0v45h37q28 0 40 10.5t12 42.5v438q0 32 -12 42.5t-40 10.5h-37v50h282v-50h-44q-36 0 -49 -8.5t-13 -37.5v-492h151q72 0 94 26t22 110v17h55v-204h-498z" />
    <glyph glyph-name="M" unicode="M" horiz-adv-x="838" 
d="M25 639h225l169 -553l172 553h222v-50h-37q-28 0 -40 -10.5t-12 -42.5v-438q0 -32 12 -42.5t40 -10.5h37v-45h-268v45h30q36 0 49 8.5t13 37.5v507l-189 -598h-85l-188 597v-506q0 -29 13.5 -37.5t48.5 -8.5h30v-45h-242v45h37q28 0 40 10.5t12 42.5v438q0 32 -12 42.5
t-40 10.5h-37v50z" />
    <glyph glyph-name="N" unicode="N" horiz-adv-x="701" 
d="M598 536v-536h-109l-314 595v-504q0 -29 13 -37.5t49 -8.5h44v-45h-256v45h37q28 0 40 10.5t12 42.5v438q0 32 -12 42.5t-40 10.5h-37v50h225l287 -558v462q0 29 -13 37.5t-49 8.5h-44v50h250v-50h-31q-28 0 -40 -10.5t-12 -42.5z" />
    <glyph glyph-name="O" unicode="O" horiz-adv-x="682" 
d="M341 -15q-131 0 -211 86.5t-80 249.5v2q0 153 76 241.5t215 88.5t215 -88.5t76 -241.5v-2q0 -163 -79 -249.5t-212 -86.5zM341 42q201 0 201 270v32q0 119 -49 186.5t-152 67.5t-152 -67.5t-49 -186.5v-32q0 -270 201 -270z" />
    <glyph glyph-name="P" unicode="P" horiz-adv-x="587" 
d="M201 314h113q81 0 114 33.5t33 104.5q0 68 -29.5 100.5t-100.5 32.5h-130v-271zM25 639h316q209 0 209 -188q0 -187 -226 -187h-123v-163q0 -36 13 -46t49 -10h50v-45h-288v45h37q28 0 40 10.5t12 42.5v438q0 32 -12 42.5t-40 10.5h-37v50z" />
    <glyph glyph-name="Q" unicode="Q" horiz-adv-x="682" 
d="M341 -15q-131 0 -211 86.5t-80 249.5v2q0 153 76 241.5t215 88.5t215 -88.5t76 -241.5v-2q0 -192 -110 -278q26 -37 49.5 -55.5t53.5 -18.5q31 0 71 29v-30q-31 -51 -100 -51q-88 0 -149 85q-49 -17 -106 -17zM140 312q0 -160 68 -226q15 44 52 70.5t87 26.5
q48 0 81.5 -24t63.5 -69q50 59 50 222v32q0 119 -49 186.5t-152 67.5t-152 -67.5t-49 -186.5v-32zM341 39q49 0 78 8q-27 44 -46.5 61t-53.5 17q-33 0 -51.5 -15t-32.5 -45q42 -26 106 -26z" />
    <glyph glyph-name="R" unicode="R" horiz-adv-x="626" 
d="M378 306v-3q57 -8 82 -33t37 -76l25 -104q12 -47 51 -47q24 0 43 8v-31q-22 -31 -76 -31q-97 0 -110 110l-11 93q-5 46 -30 66t-84 20h-104v-187q0 -29 13 -37.5t49 -8.5h44v-45h-282v45h37q28 0 40 10.5t12 42.5v438q0 32 -12 42.5t-40 10.5h-37v50h305q102 0 154 -45
t52 -125q0 -69 -44.5 -111t-113.5 -52zM201 331h115q72 0 101 34t29 102q0 62 -27.5 90t-98.5 28h-119v-254z" />
    <glyph glyph-name="S" unicode="S" horiz-adv-x="553" 
d="M276 47q66 0 110 29.5t44 90.5q0 57 -42 84q-23 15 -116 36t-123 37q-44 22 -64.5 56t-20.5 90q0 87 58 133t138 46q103 0 148 -70q3 17 8 32t8 21l3 7h42v-166h-60q-19 121 -144 121q-51 0 -89 -28t-38 -85q0 -31 10.5 -49t36.5 -32q33 -18 126 -37.5t128 -42.5
q69 -45 69 -142q0 -93 -62 -141t-161 -48q-120 0 -174 85q-4 -22 -10 -40.5t-9 -25.5l-4 -8h-43v189h63q21 -142 168 -142z" />
    <glyph glyph-name="T" unicode="T" horiz-adv-x="591" 
d="M400 584h-61v-486q0 -32 12 -42.5t40 -10.5h38v-45h-267v45h38q28 0 40 10.5t12 42.5v486h-61q-63 0 -84.5 -22t-21.5 -96v-31h-55v204h531v-204h-55v31q0 74 -21.5 96t-84.5 22z" />
    <glyph glyph-name="U" unicode="U" horiz-adv-x="678" 
d="M582 516v-272q0 -142 -63 -200.5t-177 -58.5q-246 0 -246 260v291q0 32 -12 42.5t-40 10.5h-24v50h269v-50h-44q-36 0 -49 -8.5t-13 -37.5v-317q0 -99 40.5 -140t130.5 -41q83 0 122 41t39 139v298q0 41 -15 53.5t-60 12.5h-31v50h249v-50h-24q-28 0 -40 -15.5t-12 -57.5
z" />
    <glyph glyph-name="V" unicode="V" horiz-adv-x="691" 
d="M196 537l163 -482l157 457q27 77 -51 77h-44v50h250v-50h-17q-30 0 -40.5 -9t-24.5 -49l-188 -531h-107l-190 535q-13 38 -23 46t-40 8h-21v50h271v-50h-40q-46 0 -55.5 -8t0.5 -44z" />
    <glyph glyph-name="W" unicode="W" horiz-adv-x="967" 
d="M869 531l-121 -531h-119l-139 535l-139 -535h-125l-122 535q-13 38 -23 46t-40 8h-21v50h267v-50h-40q-45 0 -54 -8t-1 -44l105 -485l154 587h93l152 -587l101 460q9 41 -3 59t-52 18h-44v50h249v-50h-17q-31 0 -41.5 -9t-19.5 -49z" />
    <glyph glyph-name="X" unicode="X" horiz-adv-x="652" 
d="M522 546l-139 -211l174 -256q14 -21 27 -27.5t36 -6.5h7v-45h-245v45h29q41 0 47.5 12.5t-11.5 34.5l-133 200l-113 -168q-32 -47 -27 -63t55 -16h32v-45h-236v45h12q26 0 37.5 7.5t32.5 38.5l163 238l-141 200q-26 37 -39 48.5t-37 11.5h-21v50h242v-50h-20
q-41 0 -47.5 -12.5t12.5 -35.5l119 -173l100 155q26 37 20.5 51.5t-48.5 14.5h-22v50h224v-50h-24q-26 0 -36.5 -7t-29.5 -36z" />
    <glyph glyph-name="Y" unicode="Y" horiz-adv-x="599" 
d="M500 531l-157 -277v-156q0 -32 12 -42.5t40 -10.5h38v-45h-267v45h38q28 0 40 10.5t12 42.5v158l-157 279q-20 35 -31.5 44.5t-36.5 9.5h-13v50h240v-50h-30q-34 0 -41 -15t11 -48l116 -210l109 196q24 41 16 59t-52 18h-24v50h218v-50h-12q-24 0 -35.5 -9.5t-33.5 -48.5
z" />
    <glyph glyph-name="Z" unicode="Z" horiz-adv-x="553" 
d="M512 639v-68l-391 -520h232q66 0 86 21t20 95v23h55v-190h-479v68l387 516h-211q-59 0 -77 -17.5t-18 -85.5v-16h-55v174h451z" />
    <glyph glyph-name="bracketleft" unicode="[" horiz-adv-x="361" 
d="M321 -98h-246v771h246v-38h-167v-699h167v-34z" />
    <glyph glyph-name="backslash" unicode="\" horiz-adv-x="316" 
d="M30 673h56l220 -771h-56z" />
    <glyph glyph-name="bracketright" unicode="]" horiz-adv-x="361" 
d="M286 -98h-246v34h167v699h-167v38h246v-771z" />
    <glyph glyph-name="asciicircum" unicode="^" horiz-adv-x="412" 
d="M367 435h-49l-112 119l-112 -119h-49l129 204h64z" />
    <glyph glyph-name="underscore" unicode="_" horiz-adv-x="367" 
d="M-8 -129v50h383v-50h-383z" />
    <glyph glyph-name="grave" unicode="`" 
d="M248 547l-17 -19l-117 63q-45 23 -45 60q0 20 12 32.5t33 12.5q33 0 64 -46z" />
    <glyph glyph-name="a" unicode="a" horiz-adv-x="512" 
d="M433 -11q-100 0 -100 101v4q-28 -107 -149 -107q-65 0 -104.5 34t-39.5 96v1q0 80 97 120q13 5 72 21.5t91.5 36t32.5 48.5q0 97 -113 97q-38 0 -62 -12v-36q0 -57 -47 -57q-20 0 -33.5 13.5t-13.5 34.5q0 49 51.5 78t121.5 29q180 0 180 -178v-211q0 -34 10.5 -49
t36.5 -15q23 0 43 9v-31q-27 -27 -74 -27zM207 39q50 0 87 36t39 101v111q-14 -14 -31.5 -25t-29 -16.5t-33.5 -14t-30 -12.5q-45 -20 -64 -38t-19 -55v-5q0 -82 81 -82z" />
    <glyph glyph-name="b" unicode="b" horiz-adv-x="578" 
d="M160 673v-316q17 61 65 97.5t118 36.5q91 0 143 -66.5t52 -176.5v-1q0 -123 -57 -190.5t-145 -67.5q-68 0 -113.5 33t-63.5 92q-2 -40 -9 -68.5t-12 -37.5l-6 -8h-56v568q0 36 -11.5 46.5t-47.5 10.5h-10v48h153zM317 41q131 0 131 193v36q0 164 -131 164
q-64 0 -110.5 -48t-46.5 -124v-20q0 -96 45.5 -148.5t111.5 -52.5z" />
    <glyph glyph-name="c" unicode="c" horiz-adv-x="490" 
d="M432 49q-48 -60 -161 -60q-107 0 -169 69.5t-62 183.5v1q0 121 68.5 184.5t161.5 63.5q70 0 117.5 -29.5t47.5 -79.5q0 -21 -12.5 -34.5t-34.5 -13.5q-51 0 -51 58v32q-19 17 -64 17q-62 0 -103 -42.5t-41 -130.5v-36q0 -96 40 -141t125 -45q70 0 138 44v-41z" />
    <glyph glyph-name="d" unicode="d" horiz-adv-x="589" 
d="M261 433q-64 0 -97.5 -39.5t-33.5 -127.5v-36q0 -91 33.5 -140.5t97.5 -49.5t110.5 52.5t46.5 135.5v18q0 90 -45.5 138.5t-111.5 48.5zM418 364v204q0 36 -11.5 46.5t-47.5 10.5h-19v48h162v-594q0 -23 10 -31.5t45 -8.5h15v-39h-139q-15 57 -15 120q-17 -62 -62.5 -97
t-112.5 -35q-93 0 -148 72t-55 192v1q0 112 58.5 174.5t144.5 62.5q136 0 175 -126z" />
    <glyph glyph-name="e" unicode="e" horiz-adv-x="511" 
d="M454 225h-325q2 -97 43.5 -138t128.5 -41q43 0 83.5 11.5t63.5 26.5v-40q-19 -21 -63 -38t-105 -17q-112 0 -176 66t-64 186v1q0 110 62.5 179.5t161.5 69.5q101 0 149 -56t48 -142q0 -36 -7 -68zM264 439q-62 0 -98 -42t-37 -124h253v14q0 152 -118 152z" />
    <glyph glyph-name="f" unicode="f" horiz-adv-x="355" 
d="M28 479h72v54q0 79 44.5 113t106.5 34q49 0 78.5 -19.5t29.5 -57.5q0 -20 -12.5 -33t-32.5 -13q-45 0 -45 48v28q-6 5 -20 5q-65 0 -65 -97v-62h136v-48h-136v-347q0 -29 10.5 -37t51.5 -8h24v-39h-239v39h27q26 0 34 8.5t8 34.5v349h-72v48z" />
    <glyph glyph-name="g" unicode="g" horiz-adv-x="473" 
d="M217 491q42 0 80 -13q34 1 77 8t52 7q35 0 35 -36t-35 -36q-11 0 -35.5 10t-42.5 12q59 -40 59 -115v-1q0 -43 -16 -74t-44 -47t-58.5 -23t-66.5 -7h-62q-45 0 -45 -32q0 -29 42 -30l134 -6q81 -4 115.5 -35t34.5 -93v-1q0 -39 -16.5 -66t-47.5 -41t-67 -20t-83 -6
q-217 0 -217 117v1q0 34 29.5 58.5t71.5 30.5q-57 16 -57 68q0 62 82 76q-43 9 -70 45t-27 97v1q0 75 52.5 113t125.5 38zM222 224q103 0 103 105v18q0 51 -30 72.5t-73 21.5q-42 0 -71.5 -21.5t-29.5 -72.5v-18q0 -105 101 -105zM224 -106q77 0 110 20t33 60v1
q0 31 -18 45.5t-65 16.5l-96 4q-53 2 -77 -15t-24 -54v-1q0 -40 30.5 -58.5t106.5 -18.5z" />
    <glyph glyph-name="h" unicode="h" horiz-adv-x="578" 
d="M496 327v-248q0 -23 10 -31.5t45 -8.5h10v-39h-225v39h24q32 0 42 6.5t10 29.5v268q0 86 -94 86q-64 0 -106.5 -44.5t-42.5 -119.5v-190q0 -23 9.5 -29.5t42.5 -6.5h24v-39h-226v39h24q26 0 34 8.5t8 34.5v486q0 36 -11.5 46.5t-47.5 10.5h-7v48h150v-325q12 67 60 105
t112 38q72 0 113.5 -42t41.5 -122z" />
    <glyph glyph-name="i" unicode="i" horiz-adv-x="264" 
d="M122 554q-23 0 -39 16t-16 38t16.5 38.5t38.5 16.5t38.5 -16.5t16.5 -38.5t-16 -38t-39 -16zM174 479v-397q0 -28 9 -35.5t43 -7.5h20v-39h-226v39h28q26 0 34 8.5t8 34.5v292q0 36 -11.5 46.5t-47.5 10.5h-11v48h154z" />
    <glyph glyph-name="j" unicode="j" horiz-adv-x="253" 
d="M24 -76v-33q8 -3 21 -3q24 0 34 17.5t10 55.5v413q0 36 -11.5 46.5t-47.5 10.5h-11v48h154v-512q0 -60 -34 -90t-91 -30q-50 0 -80 22.5t-30 56.5q0 19 13 30.5t33 11.5q40 0 40 -44zM121 554q-23 0 -39 16t-16 38t16 38.5t39 16.5t39 -16.5t16 -38.5t-16 -38t-39 -16z
" />
    <glyph glyph-name="k" unicode="k" horiz-adv-x="530" 
d="M513 0h-209v39h19q16 0 23 5.5t3 15.5t-18 24l-162 161v-170q0 -23 9.5 -29.5t42.5 -6.5h24v-39h-226v39h24q26 0 34 8.5t8 34.5v486q0 36 -11.5 46.5t-47.5 10.5h-7v48h150v-424l153 144q17 17 13.5 27.5t-24.5 10.5h-34v48h211v-48h-19q-25 0 -41.5 -8t-46.5 -35
l-132 -121l188 -182q32 -32 43.5 -39t30.5 -7h2v-39z" />
    <glyph glyph-name="l" unicode="l" horiz-adv-x="264" 
d="M246 0h-222v39h24q26 0 34 8.5t8 34.5v486q0 36 -11.5 46.5t-47.5 10.5h-7v48h150v-587q0 -31 9 -39t43 -8h20v-39z" />
    <glyph glyph-name="m" unicode="m" horiz-adv-x="861" 
d="M330 491q64 0 99 -37.5t36 -110.5q12 70 60 109t110 39q68 0 106 -42t38 -122v-248q0 -23 10 -31.5t45 -8.5h10v-39h-219v39h18q32 0 42 6.5t10 29.5v273q0 42 -19 62.5t-62 20.5q-64 0 -102 -44.5t-38 -121.5v-190q0 -23 9.5 -29.5t42.5 -6.5h18v-39h-225v39h19
q32 0 42 6.5t10 29.5v273q0 42 -19 62.5t-62 20.5q-62 0 -101 -45t-39 -121v-190q0 -23 9.5 -29.5t42.5 -6.5h18v-39h-220v39h24q26 0 34 8.5t8 34.5v292q0 36 -11.5 46.5t-47.5 10.5h-7v48h136q14 -57 14 -117v-9q12 65 57 101.5t104 36.5z" />
    <glyph glyph-name="n" unicode="n" horiz-adv-x="578" 
d="M496 327v-248q0 -23 10 -31.5t45 -8.5h10v-39h-225v39h24q32 0 42 6.5t10 29.5v268q0 86 -94 86q-64 0 -106.5 -44.5t-42.5 -119.5v-190q0 -23 9.5 -29.5t42.5 -6.5h24v-39h-226v39h24q26 0 34 8.5t8 34.5v292q0 36 -11.5 46.5t-47.5 10.5h-7v48h136q14 -57 14 -117v-14
q12 67 60 105t112 38q72 0 113.5 -42t41.5 -122z" />
    <glyph glyph-name="o" unicode="o" horiz-adv-x="538" 
d="M269 -11q-99 0 -164 66t-65 190v1q0 111 63 178t166 67t166 -66.5t63 -177.5v-1q0 -125 -65 -191t-164 -66zM269 42q139 0 139 190v38q0 82 -36.5 124.5t-102.5 42.5t-102.5 -42.5t-36.5 -124.5v-38q0 -190 139 -190z" />
    <glyph glyph-name="p" unicode="p" horiz-adv-x="587" 
d="M326 41q131 0 131 193v36q0 164 -131 164q-64 0 -110.5 -48t-46.5 -124v-20q0 -96 45.5 -148.5t111.5 -52.5zM19 479h136q14 -57 14 -117v-5q17 61 65 97.5t118 36.5q91 0 143 -66.5t52 -176.5v-1q0 -123 -57 -190.5t-145 -67.5q-68 0 -113 33t-63 92v-185
q0 -23 9.5 -29.5t42.5 -6.5h27v-39h-229v39h24q26 0 34 8.5t8 34.5v438q0 36 -11.5 46.5t-47.5 10.5h-7v48z" />
    <glyph glyph-name="q" unicode="q" horiz-adv-x="571" 
d="M502 479v-543q0 -26 8 -34.5t34 -8.5h24v-39h-229v39h27q33 0 42.5 6.5t9.5 29.5v191q-17 -62 -62.5 -97t-112.5 -35q-93 0 -148 72t-55 192v1q0 112 58.5 174.5t144.5 62.5q136 0 175 -127q0 27 9 56t17 45l9 15h49zM261 433q-64 0 -97.5 -39.5t-33.5 -127.5v-36
q0 -91 33.5 -140.5t97.5 -49.5t110.5 52.5t46.5 135.5v18q0 90 -45.5 138.5t-111.5 48.5z" />
    <glyph glyph-name="r" unicode="r" horiz-adv-x="406" 
d="M262 0h-243v39h24q26 0 34 8.5t8 34.5v292q0 36 -11.5 46.5t-47.5 10.5h-7v48h136q14 -57 14 -117v-24q13 75 55.5 111.5t88.5 36.5q29 0 46 -15t17 -43q0 -24 -14 -37.5t-36 -13.5q-40 0 -47 50q-45 -4 -77.5 -71.5t-32.5 -150.5v-119q0 -30 10.5 -38.5t45.5 -8.5h37
v-39z" />
    <glyph glyph-name="s" unicode="s" horiz-adv-x="452" 
d="M243 -11q-111 0 -144 73q-3 -20 -8 -35.5t-9 -20.5l-3 -6h-43v152h55q7 -53 43.5 -81.5t96.5 -28.5q53 0 81.5 23.5t28.5 64.5q0 36 -27 52q-19 11 -93 24t-99 25q-74 35 -74 124q0 65 46 100.5t112 35.5q97 0 117 -67q3 17 7 31t7 19l3 5h44v-136h-51q-10 44 -42 69
t-81 25q-91 0 -91 -78q0 -41 35 -57q25 -11 99.5 -22.5t102.5 -29.5q58 -37 58 -115q0 -69 -49.5 -107.5t-121.5 -38.5z" />
    <glyph glyph-name="t" unicode="t" horiz-adv-x="376" 
d="M241 -13q-68 0 -104.5 32t-36.5 114v298h-72v34q60 2 76.5 30.5t29.5 123.5h50v-140h154v-48h-154v-302q0 -49 19 -68t58 -19q43 0 85 16v-30q-11 -17 -38.5 -29t-66.5 -12z" />
    <glyph glyph-name="u" unicode="u" horiz-adv-x="575" 
d="M404 212v162q0 36 -11.5 46.5t-47.5 10.5h-7v48h150v-400q0 -23 10 -31.5t45 -8.5h15v-39h-142q-12 57 -12 117v6q-12 -63 -57.5 -99t-104.5 -36q-77 0 -119.5 45.5t-42.5 139.5v201q0 36 -11.5 46.5t-47.5 10.5h-2v48h145v-319q0 -111 96 -111q63 0 103.5 46t40.5 117z
" />
    <glyph glyph-name="v" unicode="v" horiz-adv-x="532" 
d="M462 384l-149 -384h-87l-155 386q-12 30 -21.5 37.5t-33.5 7.5h-2v48h205v-48h-27q-50 0 -28 -57l120 -309l105 287q15 47 5.5 63t-45.5 16h-15v48h181v-48h-2q-20 0 -30 -9t-21 -38z" />
    <glyph glyph-name="w" unicode="w" horiz-adv-x="739" 
d="M273 0h-100l-102 376q-9 35 -20.5 45t-34.5 10h-2v48h197v-48h-27q-25 0 -30.5 -13t2.5 -44l78 -314l104 419h83l110 -419l70 292q11 50 4 64.5t-41 14.5h-18v48h176v-48h-2q-21 0 -32 -11t-20 -47l-98 -373h-102l-99 379z" />
    <glyph glyph-name="x" unicode="x" horiz-adv-x="528" 
d="M342 84l-91 132l-93 -132q-17 -26 -12 -35.5t33 -9.5h22v-39h-182v39h7q26 0 37.5 7.5t33.5 38.5l112 157l-100 145q-20 29 -31.5 36.5t-38.5 7.5h-14v48h220v-48h-30q-40 0 -13 -40l77 -114l76 110q31 44 -17 44h-23v48h189v-48h-10q-27 0 -43 -8t-35 -36l-95 -140
l116 -162q21 -29 33 -37.5t37 -8.5h4v-39h-209v39h22q49 0 18 45z" />
    <glyph glyph-name="y" unicode="y" horiz-adv-x="527" 
d="M147 -156q-47 0 -74 20t-27 57q0 22 13.5 33.5t36.5 11.5q41 0 41 -46v-28q4 -2 16 -2q60 0 95 93l6 17h-38l-144 386q-11 30 -20.5 37.5t-34.5 7.5h-2v48h201v-48h-25q-48 0 -28 -57l115 -315l106 293q16 49 9 64t-42 15h-20v48h179v-48h-2q-20 0 -30.5 -9t-20.5 -38
l-148 -390q-30 -79 -66.5 -114.5t-95.5 -35.5z" />
    <glyph glyph-name="z" unicode="z" horiz-adv-x="461" 
d="M426 417l-313 -369h164q62 0 80.5 19.5t18.5 88.5v11h52v-167h-402v60l310 368h-152q-56 0 -73.5 -17t-17.5 -82v-6h-52v156h385v-62z" />
    <glyph glyph-name="braceleft" unicode="{" horiz-adv-x="304" 
d="M74 291v-3q68 -3 97.5 -35t29.5 -78q0 -27 -13.5 -80.5t-13.5 -82.5q0 -42 20 -58.5t65 -13.5v-34q-167 -6 -167 105q0 33 21 83.5t21 81.5q0 81 -104 87v53q104 6 104 84q0 27 -21 78.5t-21 84.5q0 112 167 106v-38q-45 3 -65 -13t-20 -56q0 -27 13.5 -79t13.5 -79
q0 -105 -127 -113z" />
    <glyph glyph-name="bar" unicode="|" horiz-adv-x="236" 
d="M146 673v-771h-56v771h56z" />
    <glyph glyph-name="braceright" unicode="}" horiz-adv-x="304" 
d="M230 288v3q-127 8 -127 113q0 27 13.5 79t13.5 79q0 40 -20 56t-65 13v38q167 6 167 -106q0 -33 -21 -84.5t-21 -78.5q0 -78 104 -84v-53q-104 -6 -104 -87q0 -31 21 -81.5t21 -83.5q0 -111 -167 -105v34q45 -3 65 13.5t20 58.5q0 29 -13.5 82.5t-13.5 80.5q0 46 29.5 78
t97.5 35z" />
    <glyph glyph-name="asciitilde" unicode="~" horiz-adv-x="362" 
d="M52 224q-8 48 11 78.5t66 30.5q28 0 62 -18.5t51 -18.5q16 0 22 9.5t8 32.5h37q8 -48 -8.5 -78.5t-58.5 -30.5q-25 0 -61.5 18.5t-56.5 18.5q-18 0 -25.5 -9.5t-9.5 -32.5h-37z" />
    <glyph glyph-name="uni00A0" unicode="&#xa0;" horiz-adv-x="200" 
 />
    <glyph glyph-name="exclamdown" unicode="&#xa1;" horiz-adv-x="218" 
d="M109 479q24 0 41.5 -17t17.5 -41t-18 -41.5t-41 -17.5q-25 0 -42 17.5t-17 41.5t17 41t42 17zM161 -116q6 -78 -51 -78t-51 78l31 417h40z" />
    <glyph glyph-name="cent" unicode="&#xa2;" horiz-adv-x="480" 
d="M248 -107h-49l8 104q-78 19 -122.5 84t-44.5 161v1q0 113 60.5 176t147.5 71l7 84h49l-7 -84q63 -5 103 -34t40 -74q0 -21 -12.5 -34.5t-34.5 -13.5q-51 0 -51 58v32q-15 14 -49 16l-32 -392q10 -2 33 -2q75 0 143 44v-41q-48 -60 -166 -60q-10 0 -15 1zM129 232
q0 -134 84 -172l31 378q-51 -9 -83 -51t-32 -119v-36z" />
    <glyph glyph-name="sterling" unicode="&#xa3;" horiz-adv-x="502" 
d="M55 283v56h54l-3 98q-4 104 53.5 160t148.5 56q71 0 112 -33.5t41 -82.5q0 -24 -13 -37.5t-34 -13.5q-22 0 -35 14.5t-13 41.5v48q-26 7 -53 7q-59 0 -91 -38.5t-33 -130.5l-2 -89h167v-56h-168l-1 -63q-1 -68 -19 -100t-58 -49h256q27 0 37.5 10.5t10.5 38.5v26h55v-146
h-432v71q41 8 61 36t18 95l-3 81h-56z" />
    <glyph glyph-name="yen" unicode="&#xa5;" horiz-adv-x="541" 
d="M59 196h168v63h-168v53h160l-123 223q-20 35 -32 44.5t-36 9.5h-13v50h240v-50h-30q-34 0 -41.5 -15t11.5 -48l90 -169l91 155q24 41 16 59t-52 18h-14v50h208v-50h-12q-24 0 -36 -10t-33 -48l-128 -219h157v-53h-168v-63h168v-53h-168v-45q0 -32 12 -42.5t40 -10.5h38
v-45h-267v45h38q28 0 40 10.5t12 42.5v45h-168v53z" />
    <glyph glyph-name="brokenbar" unicode="&#xa6;" horiz-adv-x="236" 
d="M146 673v-347h-56v347h56zM90 266h56v-364h-56v364z" />
    <glyph glyph-name="section" unicode="&#xa7;" horiz-adv-x="501" 
d="M423 538q0 -25 -13 -39t-34 -14q-49 0 -49 58v46q-26 9 -60 9q-53 0 -82 -20.5t-29 -58.5q0 -53 77 -77q20 -6 64.5 -15.5t63.5 -14.5q50 -15 77.5 -40t27.5 -73q0 -46 -32.5 -75.5t-81.5 -41.5q71 -27 71 -113q0 -72 -51.5 -109.5t-141.5 -37.5q-82 0 -128 30.5
t-46 82.5q0 25 13 39t34 14q49 0 49 -58v-42q29 -13 73 -13q125 0 125 79q0 55 -73 78q-23 7 -73.5 17t-73.5 17q-95 27 -95 108q0 52 34 84.5t81 36.5q-66 30 -66 109q0 73 49 110t128 37q74 0 118 -31t44 -82zM312 206q31 0 54 18.5t23 53.5q0 47 -66 67q-87 28 -131 28
q-34 0 -59.5 -19t-25.5 -53q0 -40 42 -60q30 -14 79 -24.5t84 -10.5z" />
    <glyph glyph-name="dieresis" unicode="&#xa8;" 
d="M114 551q-22 0 -37.5 15t-15.5 37q0 21 15.5 36.5t37.5 15.5q21 0 36.5 -15.5t15.5 -36.5q0 -22 -15.5 -37t-36.5 -15zM286 551q-21 0 -36.5 15t-15.5 37q0 21 15.5 36.5t36.5 15.5q22 0 37.5 -15.5t15.5 -36.5q0 -22 -15.5 -37t-37.5 -15z" />
    <glyph glyph-name="copyright" unicode="&#xa9;" horiz-adv-x="740" 
d="M370 -14q-142 0 -238.5 97t-96.5 234q0 138 97 236t238 98q143 0 239 -97.5t96 -236.5q0 -138 -96 -234.5t-239 -96.5zM370 27q122 0 205 85.5t83 204.5q0 120 -83 206.5t-205 86.5q-120 0 -204 -86.5t-84 -206.5q0 -119 84 -204.5t204 -85.5zM361 130q61 0 96 37
q3 -9 7.5 -16t7.5 -9l3 -3h25v118h-47q-7 -81 -84 -81q-95 0 -95 138v21q0 57 23.5 93t71.5 36q37 0 55 -18.5t22 -62.5h49v117h-24q-11 -9 -18 -26q-34 34 -92 34q-73 0 -118.5 -50.5t-45.5 -135.5v-1q0 -90 46.5 -140.5t117.5 -50.5z" />
    <glyph glyph-name="ordfeminine" unicode="&#xaa;" horiz-adv-x="371" 
d="M304 299q-71 0 -71 69v2q-19 -72 -102 -72q-45 0 -72.5 24t-27.5 66v1q0 57 71 84q9 3 37.5 11.5t45.5 14.5t32.5 18.5t15.5 27.5q0 64 -73 64q-25 0 -40 -8v-24q0 -43 -37 -43q-15 0 -25 10t-10 26q0 35 37 55.5t87 20.5q130 0 130 -126v-138q0 -23 7 -33t24 -10
q12 0 27 5v-24q-21 -21 -56 -21zM153 338q32 0 55 23.5t24 64.5v76q-8 -9 -19.5 -16.5t-17.5 -10.5t-21.5 -9.5t-18.5 -7.5q-28 -13 -40.5 -25.5t-12.5 -36.5v-4q0 -54 51 -54z" />
    <glyph glyph-name="guillemotleft" unicode="&#xab;" horiz-adv-x="361" 
d="M336 85h-54l-119 160l119 161h54l-90 -160zM198 85h-54l-119 160l119 161h54l-90 -160z" />
    <glyph glyph-name="registered" unicode="&#xae;" horiz-adv-x="373" 
d="M243 417q-29 0 -32 32l-3 21q-3 19 -22 19h-18v-44q0 -6 2 -7.5t9 -1.5h16v-16h-80v16h15q7 0 7 7v110q0 8 -7 8h-15v17h79q55 0 55 -43q0 -30 -35 -39q20 -6 24 -23l6 -26q1 -8 9 -8q4 0 16 4v-15q-11 -11 -26 -11zM190 561h-22v-57h19q28 0 28 29q0 28 -25 28zM187 375
q53 0 86.5 34.5t33.5 87.5t-33.5 88t-86.5 35t-87 -35.5t-34 -87.5t34 -87t87 -35zM187 348q-64 0 -108 43.5t-44 105.5q0 61 44 105.5t108 44.5t107.5 -44t43.5 -106t-43 -105.5t-108 -43.5z" />
    <glyph glyph-name="macron" unicode="&#xaf;" 
d="M82 572v46h236v-46h-236z" />
    <glyph glyph-name="degree" unicode="&#xb0;" horiz-adv-x="358" 
d="M35 506q0 60 41 101.5t102 41.5t103 -41.5t42 -101.5t-42 -101.5t-103 -41.5t-102 41.5t-41 101.5zM86 506q0 -45 26.5 -73.5t65.5 -28.5q40 0 67 28.5t27 73.5q0 43 -27 73t-67 30q-38 0 -65 -30t-27 -73z" />
    <glyph glyph-name="plusminus" unicode="&#xb1;" horiz-adv-x="478" 
d="M267 513v-157h161v-52h-161v-158h-56v158h-161v52h161v157h56zM50 0v52h378v-52h-378z" />
    <glyph glyph-name="acute" unicode="&#xb4;" 
d="M177 529l-18 18l65 103q16 25 28 35.5t32 10.5q21 0 32.5 -12.5t11.5 -31.5q0 -30 -38 -54z" />
    <glyph glyph-name="paragraph" unicode="&#xb6;" horiz-adv-x="523" 
d="M295 -98h-57v389h-24q-88 0 -134.5 45.5t-46.5 130.5q0 81 45.5 126.5t128.5 45.5h281v-60h-4q-36 0 -49 -8.5t-13 -37.5v-631h-57v677h-70v-677z" />
    <glyph glyph-name="periodcentered" unicode="&#xb7;" horiz-adv-x="234" 
d="M117 243q-24 0 -41.5 17t-17.5 41t18 41.5t41 17.5q25 0 42 -17.5t17 -41.5t-17 -41t-42 -17z" />
    <glyph glyph-name="cedilla" unicode="&#xb8;" 
d="M148 0h54v-39q83 -8 83 -76q0 -34 -25 -53t-69 -19q-49 0 -69 20v30q25 -10 47 -10q46 0 46 38q0 42 -67 43v66z" />
    <glyph glyph-name="ordmasculine" unicode="&#xba;" horiz-adv-x="388" 
d="M194 299q-70 0 -116 45.5t-46 131.5v1q0 77 44.5 123t117.5 46t117.5 -45.5t44.5 -122.5v-1q0 -87 -46 -132.5t-116 -45.5zM194 339q89 0 89 128v26q0 56 -23.5 84.5t-65.5 28.5t-65.5 -28.5t-23.5 -84.5v-26q0 -128 89 -128z" />
    <glyph glyph-name="guillemotright" unicode="&#xbb;" horiz-adv-x="361" 
d="M163 85l90 160l-90 161h54l119 -160l-119 -161h-54zM25 85l90 160l-90 161h54l119 -160l-119 -161h-54z" />
    <glyph glyph-name="onequarter" unicode="&#xbc;" horiz-adv-x="709" 
d="M394 105v38l167 233h67v-233h49v-38h-49v-40q0 -19 7 -25t23 -6h24v-34h-180v34h26q17 0 24 6t7 25v40h-165zM237 263h-192v34h33q17 0 24 6t7 25v259l-70 -78v52l70 78h69v-311q0 -19 7 -25t23 -6h29v-34zM638 639l-483 -639h-45l483 639h45zM559 312l-121 -169h121v169
z" />
    <glyph glyph-name="onehalf" unicode="&#xbd;" horiz-adv-x="751" 
d="M237 263h-192v34h33q17 0 24 6t7 25v259l-70 -78v52l70 78h69v-311q0 -19 7 -25t23 -6h29v-34zM624 639l-483 -639h-45l483 639h45zM717 0h-251v55q91 57 133.5 107.5t42.5 105.5q0 39 -19.5 58t-52.5 19q-23 0 -38 -9v-19q0 -38 -34 -38q-15 0 -24 9.5t-9 25.5
q0 31 33 50.5t85 19.5q59 0 95 -28.5t36 -86.5q0 -64 -48 -113t-146 -105h126q18 0 24.5 6.5t6.5 22.5v13h40v-93z" />
    <glyph glyph-name="threequarters" unicode="&#xbe;" horiz-adv-x="745" 
d="M430 105v38l167 233h67v-233h49v-38h-49v-40q0 -19 7 -25t23 -6h24v-34h-180v34h26q17 0 24 6t7 25v40h-165zM143 257q-56 0 -90 20t-34 52q0 15 9 23.5t24 8.5q34 0 34 -37v-20q15 -9 45 -9q40 0 62 18.5t22 53.5q0 69 -81 69h-45v40h44q72 0 72 67q0 65 -72 65
q-25 0 -38 -9v-19q0 -38 -34 -38q-15 0 -24.5 9.5t-9.5 25.5q0 31 32 50.5t83 19.5q58 0 94 -27t36 -73q0 -77 -87 -89v-1q48 -5 74.5 -29t26.5 -66q0 -50 -37.5 -77.5t-105.5 -27.5zM659 639l-483 -639h-45l483 639h45zM595 312l-121 -169h121v169z" />
    <glyph glyph-name="questiondown" unicode="&#xbf;" horiz-adv-x="394" 
d="M230 301h44v-24q0 -49 -15.5 -87.5t-37.5 -63.5t-44.5 -47t-38 -50t-15.5 -62q0 -48 29 -79t86 -31q39 0 68 13v44q0 58 47 58q21 0 34 -13t13 -36q0 -45 -50.5 -81.5t-129.5 -36.5q-80 0 -130.5 41.5t-50.5 122.5q0 40 14 72t35.5 51.5l46 40.5l46 39t35.5 45.5t14 61.5
v22zM192 421q0 24 17 41t42 17q24 0 41.5 -17t17.5 -41t-18 -41.5t-41 -17.5q-25 0 -42 17.5t-17 41.5z" />
    <glyph glyph-name="Agrave" unicode="&#xc0;" horiz-adv-x="691" 
d="M498 102l-34 97h-266l-28 -84q-13 -36 -0.5 -53t53.5 -17h44v-45h-243v45h17q29 0 39.5 11t25.5 52l183 531h112l185 -535q14 -39 24 -49t39 -10h21v-45h-273v45h44q45 0 57 10.5t0 46.5zM331 588l-115 -336h230zM341 782l55 -90l-14 -17l-100 49q-40 20 -40 53
q0 20 12 32.5t31 12.5q31 0 56 -40z" />
    <glyph glyph-name="Aacute" unicode="&#xc1;" horiz-adv-x="691" 
d="M498 102l-34 97h-266l-28 -84q-13 -36 -0.5 -53t53.5 -17h44v-45h-243v45h17q29 0 39.5 11t25.5 52l183 531h112l185 -535q14 -39 24 -49t39 -10h21v-45h-273v45h44q45 0 57 10.5t0 46.5zM331 588l-115 -336h230zM313 675l-16 15l49 92q21 40 54 40q19 0 31 -12.5
t12 -32.5q0 -32 -40 -53z" />
    <glyph glyph-name="Acircumflex" unicode="&#xc2;" horiz-adv-x="691" 
d="M498 102l-34 97h-266l-28 -84q-13 -36 -0.5 -53t53.5 -17h44v-45h-243v45h17q29 0 39.5 11t25.5 52l183 531h112l185 -535q14 -39 24 -49t39 -10h21v-45h-273v45h44q45 0 57 10.5t0 46.5zM331 588l-115 -336h230zM458 680l-109 41l-109 -41l-22 22l109 99h44l109 -99z
" />
    <glyph glyph-name="Atilde" unicode="&#xc3;" horiz-adv-x="691" 
d="M498 102l-34 97h-266l-28 -84q-13 -36 -0.5 -53t53.5 -17h44v-45h-243v45h17q29 0 39.5 11t25.5 52l183 531h112l185 -535q14 -39 24 -49t39 -10h21v-45h-273v45h44q45 0 57 10.5t0 46.5zM331 588l-115 -336h230zM225 686q-8 46 8.5 78t59.5 32q29 0 66 -19.5t54 -19.5
q16 0 22 10.5t8 32.5h30q8 -45 -6.5 -77.5t-53.5 -32.5q-24 0 -64.5 19.5t-60.5 19.5q-12 0 -19 -5.5t-9.5 -13.5t-4.5 -24h-30z" />
    <glyph glyph-name="Adieresis" unicode="&#xc4;" horiz-adv-x="691" 
d="M498 102l-34 97h-266l-28 -84q-13 -36 -0.5 -53t53.5 -17h44v-45h-243v45h17q29 0 39.5 11t25.5 52l183 531h112l185 -535q14 -39 24 -49t39 -10h21v-45h-273v45h44q45 0 57 10.5t0 46.5zM331 588l-115 -336h230zM254 681q-22 0 -37.5 15t-15.5 37q0 21 15.5 36.5
t37.5 15.5q21 0 36.5 -15.5t15.5 -36.5q0 -22 -15.5 -37t-36.5 -15zM437 681q-21 0 -36.5 15t-15.5 37q0 21 15.5 36.5t36.5 15.5q22 0 37.5 -15.5t15.5 -36.5q0 -22 -15.5 -37t-37.5 -15z" />
    <glyph glyph-name="Aring" unicode="&#xc5;" horiz-adv-x="691" 
d="M498 102l-34 97h-266l-28 -84q-13 -36 -0.5 -53t53.5 -17h44v-45h-243v45h17q29 0 39.5 11t25.5 52l183 531h112l185 -535q14 -39 24 -49t39 -10h21v-45h-273v45h44q45 0 57 10.5t0 46.5zM331 588l-115 -336h230zM252 748q0 38 26 64.5t65 26.5t65.5 -26.5t26.5 -64.5
t-26.5 -64t-65.5 -26t-65 26t-26 64zM296 748q0 -60 47 -60q48 0 48 60t-48 60q-47 0 -47 -60z" />
    <glyph glyph-name="AE" unicode="&#xc6;" horiz-adv-x="906" 
d="M248 0h-238v45h17q19 0 30.5 12t36.5 51l246 432q28 49 -20 49h-38v50h560v-174h-55v16q0 68 -18 85.5t-77 17.5h-174v-234h111q41 0 52.5 16.5t11.5 84.5v10h49v-281h-49v13q0 68 -11.5 86t-52.5 18h-111v-246h177q66 0 86 21t20 95v23h55v-190h-514v45h37q28 0 40 10.5
t12 42.5v101h-220l-47 -84q-21 -32 -11 -51t51 -19h44v-45zM241 252h190v335z" />
    <glyph glyph-name="Ccedilla" unicode="&#xc7;" horiz-adv-x="638" 
d="M336 -15h-1v-24q83 -8 83 -76q0 -34 -25 -53t-69 -19q-49 0 -69 20v30q25 -10 47 -10q46 0 46 38q0 42 -67 43v56q-105 18 -168 104t-63 228v2q0 151 79 240t213 89q113 0 167 -75q3 18 8 33t8 21l3 7h42v-185h-58q-7 76 -47.5 110t-119.5 34q-103 0 -154 -69t-51 -180
v-40q0 -266 206 -266q80 0 126 37t53 104h53v-184h-42q-10 22 -17 68q-58 -83 -183 -83z" />
    <glyph glyph-name="Egrave" unicode="&#xc8;" horiz-adv-x="589" 
d="M539 0h-514v45h37q28 0 40 10.5t12 42.5v438q0 32 -12 42.5t-40 10.5h-37v50h500v-174h-55v16q0 68 -18 85.5t-77 17.5h-174v-234h111q41 0 52.5 16.5t11.5 84.5v10h49v-281h-49v13q0 68 -11.5 86t-52.5 18h-111v-246h177q66 0 86 21t20 95v23h55v-190zM297 782l55 -90
l-14 -17l-100 49q-40 20 -40 53q0 20 12 32.5t31 12.5q31 0 56 -40z" />
    <glyph glyph-name="Eacute" unicode="&#xc9;" horiz-adv-x="589" 
d="M539 0h-514v45h37q28 0 40 10.5t12 42.5v438q0 32 -12 42.5t-40 10.5h-37v50h500v-174h-55v16q0 68 -18 85.5t-77 17.5h-174v-234h111q41 0 52.5 16.5t11.5 84.5v10h49v-281h-49v13q0 68 -11.5 86t-52.5 18h-111v-246h177q66 0 86 21t20 95v23h55v-190zM269 675l-16 15
l49 92q21 40 54 40q19 0 31 -12.5t12 -32.5q0 -32 -40 -53z" />
    <glyph glyph-name="Ecircumflex" unicode="&#xca;" horiz-adv-x="589" 
d="M539 0h-514v45h37q28 0 40 10.5t12 42.5v438q0 32 -12 42.5t-40 10.5h-37v50h500v-174h-55v16q0 68 -18 85.5t-77 17.5h-174v-234h111q41 0 52.5 16.5t11.5 84.5v10h49v-281h-49v13q0 68 -11.5 86t-52.5 18h-111v-246h177q66 0 86 21t20 95v23h55v-190zM407 680l-109 41
l-109 -41l-22 22l109 99h44l109 -99z" />
    <glyph glyph-name="Edieresis" unicode="&#xcb;" horiz-adv-x="589" 
d="M539 0h-514v45h37q28 0 40 10.5t12 42.5v438q0 32 -12 42.5t-40 10.5h-37v50h500v-174h-55v16q0 68 -18 85.5t-77 17.5h-174v-234h111q41 0 52.5 16.5t11.5 84.5v10h49v-281h-49v13q0 68 -11.5 86t-52.5 18h-111v-246h177q66 0 86 21t20 95v23h55v-190zM206 681
q-22 0 -37.5 15t-15.5 37q0 21 15.5 36.5t37.5 15.5q21 0 36.5 -15.5t15.5 -36.5q0 -22 -15.5 -37t-36.5 -15zM389 681q-21 0 -36.5 15t-15.5 37q0 21 15.5 36.5t36.5 15.5q22 0 37.5 -15.5t15.5 -36.5q0 -22 -15.5 -37t-37.5 -15z" />
    <glyph glyph-name="Igrave" unicode="&#xcc;" horiz-adv-x="325" 
d="M300 0h-275v45h42q28 0 40 10.5t12 42.5v438q0 32 -12 42.5t-40 10.5h-42v50h275v-50h-42q-28 0 -40 -10.5t-12 -42.5v-438q0 -32 12 -42.5t40 -10.5h42v-45zM155 782l55 -90l-14 -17l-100 49q-40 20 -40 53q0 20 12 32.5t31 12.5q31 0 56 -40z" />
    <glyph glyph-name="Iacute" unicode="&#xcd;" horiz-adv-x="325" 
d="M300 0h-275v45h42q28 0 40 10.5t12 42.5v438q0 32 -12 42.5t-40 10.5h-42v50h275v-50h-42q-28 0 -40 -10.5t-12 -42.5v-438q0 -32 12 -42.5t40 -10.5h42v-45zM127 675l-16 15l49 92q21 40 54 40q19 0 31 -12.5t12 -32.5q0 -32 -40 -53z" />
    <glyph glyph-name="Icircumflex" unicode="&#xce;" horiz-adv-x="325" 
d="M300 0h-275v45h42q28 0 40 10.5t12 42.5v438q0 32 -12 42.5t-40 10.5h-42v50h275v-50h-42q-28 0 -40 -10.5t-12 -42.5v-438q0 -32 12 -42.5t40 -10.5h42v-45zM272 680l-109 41l-109 -41l-22 22l109 99h44l109 -99z" />
    <glyph glyph-name="Idieresis" unicode="&#xcf;" horiz-adv-x="325" 
d="M300 0h-275v45h42q28 0 40 10.5t12 42.5v438q0 32 -12 42.5t-40 10.5h-42v50h275v-50h-42q-28 0 -40 -10.5t-12 -42.5v-438q0 -32 12 -42.5t40 -10.5h42v-45zM71 681q-22 0 -37.5 15t-15.5 37q0 21 15.5 36.5t37.5 15.5q21 0 36.5 -15.5t15.5 -36.5q0 -22 -15.5 -37
t-36.5 -15zM254 681q-21 0 -36.5 15t-15.5 37q0 21 15.5 36.5t36.5 15.5q22 0 37.5 -15.5t15.5 -36.5q0 -22 -15.5 -37t-37.5 -15z" />
    <glyph glyph-name="Eth" unicode="&#xd0;" horiz-adv-x="673" 
d="M43 291v53h71v192q0 32 -12 42.5t-40 10.5h-37v50h326q136 0 204 -81t68 -227v-2q0 -159 -73 -244t-218 -85h-307v45h37q28 0 40 10.5t12 42.5v193h-71zM201 49h120q211 0 211 268v36q0 112 -42 172t-149 60h-140v-241h171v-53h-171v-242z" />
    <glyph glyph-name="Ntilde" unicode="&#xd1;" horiz-adv-x="701" 
d="M598 536v-536h-109l-314 595v-504q0 -29 13 -37.5t49 -8.5h44v-45h-256v45h37q28 0 40 10.5t12 42.5v438q0 32 -12 42.5t-40 10.5h-37v50h225l287 -558v462q0 29 -13 37.5t-49 8.5h-44v50h250v-50h-31q-28 0 -40 -10.5t-12 -42.5zM229 686q-8 46 8.5 78t59.5 32
q29 0 66 -19.5t54 -19.5q16 0 22 10.5t8 32.5h30q8 -45 -6.5 -77.5t-53.5 -32.5q-24 0 -64.5 19.5t-60.5 19.5q-12 0 -19 -5.5t-9.5 -13.5t-4.5 -24h-30z" />
    <glyph glyph-name="Ograve" unicode="&#xd2;" horiz-adv-x="682" 
d="M341 -15q-131 0 -211 86.5t-80 249.5v2q0 153 76 241.5t215 88.5t215 -88.5t76 -241.5v-2q0 -163 -79 -249.5t-212 -86.5zM341 42q201 0 201 270v32q0 119 -49 186.5t-152 67.5t-152 -67.5t-49 -186.5v-32q0 -270 201 -270zM343 782l55 -90l-14 -17l-100 49
q-40 20 -40 53q0 20 12 32.5t31 12.5q31 0 56 -40z" />
    <glyph glyph-name="Oacute" unicode="&#xd3;" horiz-adv-x="682" 
d="M341 -15q-131 0 -211 86.5t-80 249.5v2q0 153 76 241.5t215 88.5t215 -88.5t76 -241.5v-2q0 -163 -79 -249.5t-212 -86.5zM341 42q201 0 201 270v32q0 119 -49 186.5t-152 67.5t-152 -67.5t-49 -186.5v-32q0 -270 201 -270zM309 675l-16 15l49 92q21 40 54 40
q19 0 31 -12.5t12 -32.5q0 -32 -40 -53z" />
    <glyph glyph-name="Ocircumflex" unicode="&#xd4;" horiz-adv-x="682" 
d="M341 -15q-131 0 -211 86.5t-80 249.5v2q0 153 76 241.5t215 88.5t215 -88.5t76 -241.5v-2q0 -163 -79 -249.5t-212 -86.5zM341 42q201 0 201 270v32q0 119 -49 186.5t-152 67.5t-152 -67.5t-49 -186.5v-32q0 -270 201 -270zM450 680l-109 41l-109 -41l-22 22l109 99h44
l109 -99z" />
    <glyph glyph-name="Otilde" unicode="&#xd5;" horiz-adv-x="682" 
d="M341 -15q-131 0 -211 86.5t-80 249.5v2q0 153 76 241.5t215 88.5t215 -88.5t76 -241.5v-2q0 -163 -79 -249.5t-212 -86.5zM341 42q201 0 201 270v32q0 119 -49 186.5t-152 67.5t-152 -67.5t-49 -186.5v-32q0 -270 201 -270zM226 686q-8 46 8 78t60 32q28 0 66 -19.5
t54 -19.5t22 10.5t8 32.5h30q8 -45 -6.5 -77.5t-53.5 -32.5q-24 0 -64.5 19.5t-60.5 19.5q-12 0 -19 -5.5t-9.5 -13.5t-4.5 -24h-30z" />
    <glyph glyph-name="Odieresis" unicode="&#xd6;" horiz-adv-x="682" 
d="M341 -15q-131 0 -211 86.5t-80 249.5v2q0 153 76 241.5t215 88.5t215 -88.5t76 -241.5v-2q0 -163 -79 -249.5t-212 -86.5zM341 42q201 0 201 270v32q0 119 -49 186.5t-152 67.5t-152 -67.5t-49 -186.5v-32q0 -270 201 -270zM238 681q-22 0 -37.5 15t-15.5 37
q0 21 15.5 36.5t37.5 15.5q21 0 36.5 -15.5t15.5 -36.5q0 -22 -15.5 -37t-36.5 -15zM421 681q-21 0 -36.5 15t-15.5 37q0 21 15.5 36.5t36.5 15.5q22 0 37.5 -15.5t15.5 -36.5q0 -22 -15.5 -37t-37.5 -15z" />
    <glyph glyph-name="multiply" unicode="&#xd7;" horiz-adv-x="450" 
d="M395 442l-134 -134l134 -134l-36 -36l-134 134l-134 -134l-36 36l134 134l-134 134l36 36l134 -134l134 134z" />
    <glyph glyph-name="Oslash" unicode="&#xd8;" horiz-adv-x="682" 
d="M341 -15q-114 0 -190 65l-54 -69h-60l81 104q-68 89 -68 236v2q0 153 76 241.5t215 88.5q106 0 177 -54l44 57h60l-69 -88q79 -88 79 -245v-2q0 -163 -79 -249.5t-212 -86.5zM341 42q201 0 201 270v32q0 101 -35 164l-314 -403q48 -63 148 -63zM140 312q0 -101 27 -164
l311 399q-49 51 -137 51q-103 0 -152 -67.5t-49 -186.5v-32z" />
    <glyph glyph-name="Ugrave" unicode="&#xd9;" horiz-adv-x="678" 
d="M582 516v-272q0 -142 -63 -200.5t-177 -58.5q-246 0 -246 260v291q0 32 -12 42.5t-40 10.5h-24v50h269v-50h-44q-36 0 -49 -8.5t-13 -37.5v-317q0 -99 40.5 -140t130.5 -41q83 0 122 41t39 139v298q0 41 -15 53.5t-60 12.5h-31v50h249v-50h-24q-28 0 -40 -15.5t-12 -57.5
zM339 782l55 -90l-14 -17l-100 49q-40 20 -40 53q0 20 12 32.5t31 12.5q31 0 56 -40z" />
    <glyph glyph-name="Uacute" unicode="&#xda;" horiz-adv-x="678" 
d="M582 516v-272q0 -142 -63 -200.5t-177 -58.5q-246 0 -246 260v291q0 32 -12 42.5t-40 10.5h-24v50h269v-50h-44q-36 0 -49 -8.5t-13 -37.5v-317q0 -99 40.5 -140t130.5 -41q83 0 122 41t39 139v298q0 41 -15 53.5t-60 12.5h-31v50h249v-50h-24q-28 0 -40 -15.5t-12 -57.5
zM341 675l-16 15l49 92q21 40 54 40q19 0 31 -12.5t12 -32.5q0 -32 -40 -53z" />
    <glyph glyph-name="Ucircumflex" unicode="&#xdb;" horiz-adv-x="678" 
d="M582 516v-272q0 -142 -63 -200.5t-177 -58.5q-246 0 -246 260v291q0 32 -12 42.5t-40 10.5h-24v50h269v-50h-44q-36 0 -49 -8.5t-13 -37.5v-317q0 -99 40.5 -140t130.5 -41q83 0 122 41t39 139v298q0 41 -15 53.5t-60 12.5h-31v50h249v-50h-24q-28 0 -40 -15.5t-12 -57.5
zM456 680l-109 41l-109 -41l-22 22l109 99h44l109 -99z" />
    <glyph glyph-name="Udieresis" unicode="&#xdc;" horiz-adv-x="678" 
d="M582 516v-272q0 -142 -63 -200.5t-177 -58.5q-246 0 -246 260v291q0 32 -12 42.5t-40 10.5h-24v50h269v-50h-44q-36 0 -49 -8.5t-13 -37.5v-317q0 -99 40.5 -140t130.5 -41q83 0 122 41t39 139v298q0 41 -15 53.5t-60 12.5h-31v50h249v-50h-24q-28 0 -40 -15.5t-12 -57.5
zM255 681q-22 0 -37.5 15t-15.5 37q0 21 15.5 36.5t37.5 15.5q21 0 36.5 -15.5t15.5 -36.5q0 -22 -15.5 -37t-36.5 -15zM438 681q-21 0 -36.5 15t-15.5 37q0 21 15.5 36.5t36.5 15.5q22 0 37.5 -15.5t15.5 -36.5q0 -22 -15.5 -37t-37.5 -15z" />
    <glyph glyph-name="Yacute" unicode="&#xdd;" horiz-adv-x="599" 
d="M500 531l-157 -277v-156q0 -32 12 -42.5t40 -10.5h38v-45h-267v45h38q28 0 40 10.5t12 42.5v158l-157 279q-20 35 -31.5 44.5t-36.5 9.5h-13v50h240v-50h-30q-34 0 -41 -15t11 -48l116 -210l109 196q24 41 16 59t-52 18h-24v50h218v-50h-12q-24 0 -35.5 -9.5t-33.5 -48.5
zM272 675l-16 15l49 92q21 40 54 40q19 0 31 -12.5t12 -32.5q0 -32 -40 -53z" />
    <glyph glyph-name="Thorn" unicode="&#xde;" horiz-adv-x="592" 
d="M300 0h-275v45h42q28 0 40 10.5t12 42.5v438q0 32 -12 42.5t-40 10.5h-42v50h275v-50h-42q-28 0 -40 -10.5t-12 -42.5v-42h157q89 0 139 -45t50 -123q0 -83 -55.5 -128.5t-150.5 -45.5h-140v-54q0 -32 12 -42.5t40 -10.5h42v-45zM353 440h-147v-238h130q68 0 99 30t31 91
q0 60 -27.5 88.5t-85.5 28.5z" />
    <glyph glyph-name="germandbls" unicode="&#xdf;" horiz-adv-x="571" 
d="M28 428v51h72v2q0 99 57 149t149 50q32 0 60.5 -6.5t56 -21t44 -43.5t16.5 -69q0 -39 -15 -66.5t-37 -42.5t-44 -27t-37 -27t-15 -35q0 -14 7 -23t26 -17q13 -6 54 -21t53 -22q76 -41 76 -125q0 -70 -45.5 -107.5t-118.5 -37.5q-69 0 -114 31.5t-45 75.5q0 43 41 43
t41 -50v-36q28 -11 61 -11q101 0 101 83q0 46 -35 66q-12 7 -28 13.5l-40 16l-41 16.5q-70 30 -70 88q0 23 10.5 40.5t26.5 27.5l34.5 22.5t34.5 25.5t26.5 37t10.5 57q0 103 -96 103q-60 0 -90.5 -42t-30.5 -116v-480h-153v39h27q26 0 34 8.5t8 34.5v346h-72z" />
    <glyph glyph-name="agrave" unicode="&#xe0;" horiz-adv-x="512" 
d="M433 -11q-100 0 -100 101v4q-28 -107 -149 -107q-65 0 -104.5 34t-39.5 96v1q0 80 97 120q13 5 72 21.5t91.5 36t32.5 48.5q0 97 -113 97q-38 0 -62 -12v-36q0 -57 -47 -57q-20 0 -33.5 13.5t-13.5 34.5q0 49 51.5 78t121.5 29q180 0 180 -178v-211q0 -34 10.5 -49
t36.5 -15q23 0 43 9v-31q-27 -27 -74 -27zM207 39q50 0 87 36t39 101v111q-14 -14 -31.5 -25t-29 -16.5t-33.5 -14t-30 -12.5q-45 -20 -64 -38t-19 -55v-5q0 -82 81 -82zM306 547l-17 -19l-117 63q-45 23 -45 60q0 20 12 32.5t33 12.5q33 0 64 -46z" />
    <glyph glyph-name="aacute" unicode="&#xe1;" horiz-adv-x="512" 
d="M433 -11q-100 0 -100 101v4q-28 -107 -149 -107q-65 0 -104.5 34t-39.5 96v1q0 80 97 120q13 5 72 21.5t91.5 36t32.5 48.5q0 97 -113 97q-38 0 -62 -12v-36q0 -57 -47 -57q-20 0 -33.5 13.5t-13.5 34.5q0 49 51.5 78t121.5 29q180 0 180 -178v-211q0 -34 10.5 -49
t36.5 -15q23 0 43 9v-31q-27 -27 -74 -27zM207 39q50 0 87 36t39 101v111q-14 -14 -31.5 -25t-29 -16.5t-33.5 -14t-30 -12.5q-45 -20 -64 -38t-19 -55v-5q0 -82 81 -82zM193 529l-18 18l65 103q16 25 28 35.5t32 10.5q21 0 32.5 -12.5t11.5 -31.5q0 -30 -38 -54z" />
    <glyph glyph-name="acircumflex" unicode="&#xe2;" horiz-adv-x="512" 
d="M433 -11q-100 0 -100 101v4q-28 -107 -149 -107q-65 0 -104.5 34t-39.5 96v1q0 80 97 120q13 5 72 21.5t91.5 36t32.5 48.5q0 97 -113 97q-38 0 -62 -12v-36q0 -57 -47 -57q-20 0 -33.5 13.5t-13.5 34.5q0 49 51.5 78t121.5 29q180 0 180 -178v-211q0 -34 10.5 -49
t36.5 -15q23 0 43 9v-31q-27 -27 -74 -27zM207 39q50 0 87 36t39 101v111q-14 -14 -31.5 -25t-29 -16.5t-33.5 -14t-30 -12.5q-45 -20 -64 -38t-19 -55v-5q0 -82 81 -82zM347 530l-109 64l-109 -64l-19 22l106 127h44l106 -127z" />
    <glyph glyph-name="atilde" unicode="&#xe3;" horiz-adv-x="512" 
d="M433 -11q-100 0 -100 101v4q-28 -107 -149 -107q-65 0 -104.5 34t-39.5 96v1q0 80 97 120q13 5 72 21.5t91.5 36t32.5 48.5q0 97 -113 97q-38 0 -62 -12v-36q0 -57 -47 -57q-20 0 -33.5 13.5t-13.5 34.5q0 49 51.5 78t121.5 29q180 0 180 -178v-211q0 -34 10.5 -49
t36.5 -15q23 0 43 9v-31q-27 -27 -74 -27zM207 39q50 0 87 36t39 101v111q-14 -14 -31.5 -25t-29 -16.5t-33.5 -14t-30 -12.5q-45 -20 -64 -38t-19 -55v-5q0 -82 81 -82zM114 559q-8 46 8.5 78t59.5 32q28 0 66 -19.5t54 -19.5t22 10.5t8 32.5h30q8 -45 -6.5 -77.5
t-53.5 -32.5q-24 0 -64.5 19.5t-60.5 19.5q-12 0 -19 -5.5t-9.5 -13.5t-4.5 -24h-30z" />
    <glyph glyph-name="adieresis" unicode="&#xe4;" horiz-adv-x="512" 
d="M433 -11q-100 0 -100 101v4q-28 -107 -149 -107q-65 0 -104.5 34t-39.5 96v1q0 80 97 120q13 5 72 21.5t91.5 36t32.5 48.5q0 97 -113 97q-38 0 -62 -12v-36q0 -57 -47 -57q-20 0 -33.5 13.5t-13.5 34.5q0 49 51.5 78t121.5 29q180 0 180 -178v-211q0 -34 10.5 -49
t36.5 -15q23 0 43 9v-31q-27 -27 -74 -27zM207 39q50 0 87 36t39 101v111q-14 -14 -31.5 -25t-29 -16.5t-33.5 -14t-30 -12.5q-45 -20 -64 -38t-19 -55v-5q0 -82 81 -82zM153 551q-22 0 -37.5 15t-15.5 37q0 21 15.5 36.5t37.5 15.5q21 0 36.5 -15.5t15.5 -36.5
q0 -22 -15.5 -37t-36.5 -15zM325 551q-21 0 -36.5 15t-15.5 37q0 21 15.5 36.5t36.5 15.5q22 0 37.5 -15.5t15.5 -36.5q0 -22 -15.5 -37t-37.5 -15z" />
    <glyph glyph-name="aring" unicode="&#xe5;" horiz-adv-x="512" 
d="M433 -11q-100 0 -100 101v4q-28 -107 -149 -107q-65 0 -104.5 34t-39.5 96v1q0 80 97 120q13 5 72 21.5t91.5 36t32.5 48.5q0 97 -113 97q-38 0 -62 -12v-36q0 -57 -47 -57q-20 0 -33.5 13.5t-13.5 34.5q0 49 51.5 78t121.5 29q180 0 180 -178v-211q0 -34 10.5 -49
t36.5 -15q23 0 43 9v-31q-27 -27 -74 -27zM207 39q50 0 87 36t39 101v111q-14 -14 -31.5 -25t-29 -16.5t-33.5 -14t-30 -12.5q-45 -20 -64 -38t-19 -55v-5q0 -82 81 -82zM149 627q0 38 26 64.5t65 26.5t65.5 -26.5t26.5 -64.5t-26.5 -64t-65.5 -26t-65 26t-26 64zM193 627
q0 -60 47 -60q48 0 48 60t-48 60q-47 0 -47 -60z" />
    <glyph glyph-name="ae" unicode="&#xe6;" horiz-adv-x="804" 
d="M557 439q-63 0 -101 -43t-38 -123h257v14q0 152 -118 152zM207 39q52 0 88 36t38 101v111q-14 -14 -31.5 -25t-29 -16.5t-33.5 -14t-30 -12.5q-45 -20 -64 -38t-19 -55v-5q0 -82 81 -82zM741 44q-19 -21 -63 -38t-105 -17q-80 0 -137 34.5t-83 99.5q-12 -71 -56.5 -103.5
t-109.5 -32.5q-67 0 -107 34t-40 96v1q0 80 97 120q13 5 72 21.5t91.5 36t32.5 48.5q0 97 -111 97q-42 0 -64 -17v-31q0 -57 -47 -57q-20 0 -33.5 13.5t-13.5 34.5q0 49 51.5 78t121.5 29q119 0 152 -87q55 87 168 87q101 0 149 -56t48 -142q0 -36 -7 -68h-329
q2 -97 45 -138t131 -41q43 0 83.5 11.5t63.5 26.5v-40z" />
    <glyph glyph-name="ccedilla" unicode="&#xe7;" horiz-adv-x="490" 
d="M432 49q-48 -60 -161 -60h-13v-28q83 -8 83 -76q0 -34 -25 -53t-69 -19q-49 0 -69 20v30q25 -10 47 -10q46 0 46 38q0 42 -67 43v64q-78 20 -121 85t-43 159v1q0 121 68.5 184.5t161.5 63.5q70 0 117.5 -29.5t47.5 -79.5q0 -21 -12.5 -34.5t-34.5 -13.5q-51 0 -51 58v32
q-19 17 -64 17q-62 0 -103 -42.5t-41 -130.5v-36q0 -96 40 -141t125 -45q70 0 138 44v-41z" />
    <glyph glyph-name="egrave" unicode="&#xe8;" horiz-adv-x="511" 
d="M454 225h-325q2 -97 43.5 -138t128.5 -41q43 0 83.5 11.5t63.5 26.5v-40q-19 -21 -63 -38t-105 -17q-112 0 -176 66t-64 186v1q0 110 62.5 179.5t161.5 69.5q101 0 149 -56t48 -142q0 -36 -7 -68zM264 439q-62 0 -98 -42t-37 -124h253v14q0 152 -118 152zM337 547
l-17 -19l-117 63q-45 23 -45 60q0 20 12 32.5t33 12.5q33 0 64 -46z" />
    <glyph glyph-name="eacute" unicode="&#xe9;" horiz-adv-x="511" 
d="M454 225h-325q2 -97 43.5 -138t128.5 -41q43 0 83.5 11.5t63.5 26.5v-40q-19 -21 -63 -38t-105 -17q-112 0 -176 66t-64 186v1q0 110 62.5 179.5t161.5 69.5q101 0 149 -56t48 -142q0 -36 -7 -68zM264 439q-62 0 -98 -42t-37 -124h253v14q0 152 -118 152zM216 528l-18 18
l65 103q16 25 28 35.5t32 10.5q21 0 32.5 -12.5t11.5 -31.5q0 -30 -38 -54z" />
    <glyph glyph-name="ecircumflex" unicode="&#xea;" horiz-adv-x="511" 
d="M454 225h-325q2 -97 43.5 -138t128.5 -41q43 0 83.5 11.5t63.5 26.5v-40q-19 -21 -63 -38t-105 -17q-112 0 -176 66t-64 186v1q0 110 62.5 179.5t161.5 69.5q101 0 149 -56t48 -142q0 -36 -7 -68zM264 439q-62 0 -98 -42t-37 -124h253v14q0 152 -118 152zM369 530
l-109 64l-109 -64l-19 22l106 127h44l106 -127z" />
    <glyph glyph-name="edieresis" unicode="&#xeb;" horiz-adv-x="511" 
d="M454 225h-325q2 -97 43.5 -138t128.5 -41q43 0 83.5 11.5t63.5 26.5v-40q-19 -21 -63 -38t-105 -17q-112 0 -176 66t-64 186v1q0 110 62.5 179.5t161.5 69.5q101 0 149 -56t48 -142q0 -36 -7 -68zM264 439q-62 0 -98 -42t-37 -124h253v14q0 152 -118 152zM179 551
q-22 0 -37.5 15t-15.5 37q0 21 15.5 36.5t37.5 15.5q21 0 36.5 -15.5t15.5 -36.5q0 -22 -15.5 -37t-36.5 -15zM351 551q-21 0 -36.5 15t-15.5 37q0 21 15.5 36.5t36.5 15.5q22 0 37.5 -15.5t15.5 -36.5q0 -22 -15.5 -37t-37.5 -15z" />
    <glyph glyph-name="igrave" unicode="&#xec;" horiz-adv-x="264" 
d="M246 0h-226v39h28q26 0 34 8.5t8 34.5v292q0 36 -11.5 46.5t-47.5 10.5h-11v48h154v-397q0 -28 9 -35.5t43 -7.5h20v-39zM175 547l-17 -19l-117 63q-45 23 -45 60q0 20 12 32.5t33 12.5q33 0 64 -46z" />
    <glyph glyph-name="iacute" unicode="&#xed;" horiz-adv-x="264" 
d="M246 0h-226v39h28q26 0 34 8.5t8 34.5v292q0 36 -11.5 46.5t-47.5 10.5h-11v48h154v-397q0 -28 9 -35.5t43 -7.5h20v-39zM75 529l-18 18l65 103q16 25 28 35.5t32 10.5q21 0 32.5 -12.5t11.5 -31.5q0 -30 -38 -54z" />
    <glyph glyph-name="icircumflex" unicode="&#xee;" horiz-adv-x="264" 
d="M246 0h-226v39h28q26 0 34 8.5t8 34.5v292q0 36 -11.5 46.5t-47.5 10.5h-11v48h154v-397q0 -28 9 -35.5t43 -7.5h20v-39zM222 530l-109 64l-109 -64l-19 22l106 127h44l106 -127z" />
    <glyph glyph-name="idieresis" unicode="&#xef;" horiz-adv-x="264" 
d="M37 551q-22 0 -37.5 15t-15.5 37q0 21 15.5 36.5t37.5 15.5q21 0 36.5 -15.5t15.5 -36.5q0 -22 -15.5 -37t-36.5 -15zM189 551q-21 0 -36.5 15t-15.5 37q0 21 15.5 36.5t36.5 15.5q22 0 37.5 -15.5t15.5 -36.5q0 -22 -15.5 -37t-37.5 -15zM246 0h-226v39h28q26 0 34 8.5
t8 34.5v292q0 36 -11.5 46.5t-47.5 10.5h-11v48h154v-397q0 -28 9 -35.5t43 -7.5h20v-39z" />
    <glyph glyph-name="eth" unicode="&#xf0;" horiz-adv-x="555" 
d="M388 663l16 -36l-81 -31q187 -133 187 -337v-13q0 -124 -67 -190.5t-168 -66.5t-168 66t-67 190v1q0 108 60.5 174t146.5 66q83 0 140 -64l1 1q-45 81 -132 147l-143 -55l-16 36l122 47q-63 42 -126 70v5h80q57 -20 110 -51zM276 42q67 0 108 45.5t41 142.5v39
q0 73 -44.5 118t-104.5 45q-67 0 -108 -44t-41 -119v-39q0 -97 41 -142.5t108 -45.5z" />
    <glyph glyph-name="ntilde" unicode="&#xf1;" horiz-adv-x="578" 
d="M496 327v-248q0 -23 10 -31.5t45 -8.5h10v-39h-225v39h24q32 0 42 6.5t10 29.5v268q0 86 -94 86q-64 0 -106.5 -44.5t-42.5 -119.5v-190q0 -23 9.5 -29.5t42.5 -6.5h24v-39h-226v39h24q26 0 34 8.5t8 34.5v292q0 36 -11.5 46.5t-47.5 10.5h-7v48h136q14 -57 14 -117v-14
q12 67 60 105t112 38q72 0 113.5 -42t41.5 -122zM160 559q-8 46 8 78t60 32q28 0 66 -19.5t54 -19.5t22 10.5t8 32.5h30q8 -45 -6.5 -77.5t-53.5 -32.5q-24 0 -64.5 19.5t-60.5 19.5q-12 0 -19 -5.5t-9.5 -13.5t-4.5 -24h-30z" />
    <glyph glyph-name="ograve" unicode="&#xf2;" horiz-adv-x="538" 
d="M269 -11q-99 0 -164 66t-65 190v1q0 111 63 178t166 67t166 -66.5t63 -177.5v-1q0 -125 -65 -191t-164 -66zM269 42q139 0 139 190v38q0 82 -36.5 124.5t-102.5 42.5t-102.5 -42.5t-36.5 -124.5v-38q0 -190 139 -190zM348 547l-17 -19l-117 63q-45 23 -45 60
q0 20 12 32.5t33 12.5q33 0 64 -46z" />
    <glyph glyph-name="oacute" unicode="&#xf3;" horiz-adv-x="538" 
d="M269 -11q-99 0 -164 66t-65 190v1q0 111 63 178t166 67t166 -66.5t63 -177.5v-1q0 -125 -65 -191t-164 -66zM269 42q139 0 139 190v38q0 82 -36.5 124.5t-102.5 42.5t-102.5 -42.5t-36.5 -124.5v-38q0 -190 139 -190zM223 529l-18 18l65 103q16 25 28 35.5t32 10.5
q21 0 32.5 -12.5t11.5 -31.5q0 -30 -38 -54z" />
    <glyph glyph-name="ocircumflex" unicode="&#xf4;" horiz-adv-x="538" 
d="M269 -11q-99 0 -164 66t-65 190v1q0 111 63 178t166 67t166 -66.5t63 -177.5v-1q0 -125 -65 -191t-164 -66zM269 42q139 0 139 190v38q0 82 -36.5 124.5t-102.5 42.5t-102.5 -42.5t-36.5 -124.5v-38q0 -190 139 -190zM379 530l-109 64l-109 -64l-19 22l106 127h44
l106 -127z" />
    <glyph glyph-name="otilde" unicode="&#xf5;" horiz-adv-x="538" 
d="M269 -11q-99 0 -164 66t-65 190v1q0 111 63 178t166 67t166 -66.5t63 -177.5v-1q0 -125 -65 -191t-164 -66zM269 42q139 0 139 190v38q0 82 -36.5 124.5t-102.5 42.5t-102.5 -42.5t-36.5 -124.5v-38q0 -190 139 -190zM151 559q-8 46 8.5 78t59.5 32q29 0 66 -19.5
t54 -19.5q16 0 22 10.5t8 32.5h30q8 -45 -6.5 -77.5t-53.5 -32.5q-24 0 -64.5 19.5t-60.5 19.5q-12 0 -19 -5.5t-9.5 -13.5t-4.5 -24h-30z" />
    <glyph glyph-name="odieresis" unicode="&#xf6;" horiz-adv-x="538" 
d="M269 -11q-99 0 -164 66t-65 190v1q0 111 63 178t166 67t166 -66.5t63 -177.5v-1q0 -125 -65 -191t-164 -66zM269 42q139 0 139 190v38q0 82 -36.5 124.5t-102.5 42.5t-102.5 -42.5t-36.5 -124.5v-38q0 -190 139 -190zM183 551q-22 0 -37.5 15t-15.5 37q0 21 15.5 36.5
t37.5 15.5q21 0 36.5 -15.5t15.5 -36.5q0 -22 -15.5 -37t-36.5 -15zM355 551q-21 0 -36.5 15t-15.5 37q0 21 15.5 36.5t36.5 15.5q22 0 37.5 -15.5t15.5 -36.5q0 -22 -15.5 -37t-37.5 -15z" />
    <glyph glyph-name="divide" unicode="&#xf7;" horiz-adv-x="478" 
d="M50 341h378v-52h-378v52zM239 102q-24 0 -41.5 17t-17.5 41t18 41.5t41 17.5q25 0 42 -17.5t17 -41.5t-17 -41t-42 -17zM239 410q-24 0 -41.5 17t-17.5 41t18 41.5t41 17.5q25 0 42 -17.5t17 -41.5t-17 -41t-42 -17z" />
    <glyph glyph-name="oslash" unicode="&#xf8;" horiz-adv-x="538" 
d="M269 -11q-79 0 -136 42l-39 -50h-56l62 79q-60 70 -60 185v1q0 111 63 178t166 67q78 0 136 -41l39 50h56l-62 -79q60 -68 60 -174v-1q0 -125 -65 -191t-164 -66zM269 42q139 0 139 190v38q0 54 -17 91l-220 -281q35 -38 98 -38zM130 232q0 -68 17 -111l219 279
q-36 37 -97 37q-66 0 -102.5 -42.5t-36.5 -124.5v-38z" />
    <glyph glyph-name="ugrave" unicode="&#xf9;" horiz-adv-x="575" 
d="M404 212v162q0 36 -11.5 46.5t-47.5 10.5h-7v48h150v-400q0 -23 10 -31.5t45 -8.5h15v-39h-142q-12 57 -12 117v6q-12 -63 -57.5 -99t-104.5 -36q-77 0 -119.5 45.5t-42.5 139.5v201q0 36 -11.5 46.5t-47.5 10.5h-2v48h145v-319q0 -111 96 -111q63 0 103.5 46t40.5 117z
M329 547l-17 -19l-117 63q-45 23 -45 60q0 20 12 32.5t33 12.5q33 0 64 -46z" />
    <glyph glyph-name="uacute" unicode="&#xfa;" horiz-adv-x="575" 
d="M404 212v162q0 36 -11.5 46.5t-47.5 10.5h-7v48h150v-400q0 -23 10 -31.5t45 -8.5h15v-39h-142q-12 57 -12 117v6q-12 -63 -57.5 -99t-104.5 -36q-77 0 -119.5 45.5t-42.5 139.5v201q0 36 -11.5 46.5t-47.5 10.5h-2v48h145v-319q0 -111 96 -111q63 0 103.5 46t40.5 117z
M236 529l-18 18l65 103q16 25 28 35.5t32 10.5q21 0 32.5 -12.5t11.5 -31.5q0 -30 -38 -54z" />
    <glyph glyph-name="ucircumflex" unicode="&#xfb;" horiz-adv-x="575" 
d="M404 212v162q0 36 -11.5 46.5t-47.5 10.5h-7v48h150v-400q0 -23 10 -31.5t45 -8.5h15v-39h-142q-12 57 -12 117v6q-12 -63 -57.5 -99t-104.5 -36q-77 0 -119.5 45.5t-42.5 139.5v201q0 36 -11.5 46.5t-47.5 10.5h-2v48h145v-319q0 -111 96 -111q63 0 103.5 46t40.5 117z
M376 530l-109 64l-109 -64l-19 22l106 127h44l106 -127z" />
    <glyph glyph-name="udieresis" unicode="&#xfc;" horiz-adv-x="575" 
d="M404 212v162q0 36 -11.5 46.5t-47.5 10.5h-7v48h150v-400q0 -23 10 -31.5t45 -8.5h15v-39h-142q-12 57 -12 117v6q-12 -63 -57.5 -99t-104.5 -36q-77 0 -119.5 45.5t-42.5 139.5v201q0 36 -11.5 46.5t-47.5 10.5h-2v48h145v-319q0 -111 96 -111q63 0 103.5 46t40.5 117z
M181 551q-22 0 -37.5 15t-15.5 37q0 21 15.5 36.5t37.5 15.5q21 0 36.5 -15.5t15.5 -36.5q0 -22 -15.5 -37t-36.5 -15zM353 551q-21 0 -36.5 15t-15.5 37q0 21 15.5 36.5t36.5 15.5q22 0 37.5 -15.5t15.5 -36.5q0 -22 -15.5 -37t-37.5 -15z" />
    <glyph glyph-name="yacute" unicode="&#xfd;" horiz-adv-x="527" 
d="M147 -156q-47 0 -74 20t-27 57q0 22 13.5 33.5t36.5 11.5q41 0 41 -46v-28q4 -2 16 -2q60 0 95 93l6 17h-38l-144 386q-11 30 -20.5 37.5t-34.5 7.5h-2v48h201v-48h-25q-48 0 -28 -57l115 -315l106 293q16 49 9 64t-42 15h-20v48h179v-48h-2q-20 0 -30.5 -9t-20.5 -38
l-148 -390q-30 -79 -66.5 -114.5t-95.5 -35.5zM228 529l-18 18l65 103q16 25 28 35.5t32 10.5q21 0 32.5 -12.5t11.5 -31.5q0 -30 -38 -54z" />
    <glyph glyph-name="thorn" unicode="&#xfe;" horiz-adv-x="587" 
d="M326 41q131 0 131 193v36q0 164 -131 164q-64 0 -110.5 -48t-46.5 -124v-20q0 -96 45.5 -148.5t111.5 -52.5zM248 -107v-39h-229v39h24q26 0 34 8.5t8 34.5v632q0 36 -11.5 46.5t-47.5 10.5h-7v48h150v-316q17 61 65 97.5t118 36.5q91 0 143 -66.5t52 -176.5v-1
q0 -123 -57 -190.5t-145 -67.5q-68 0 -113 33t-63 92v-185q0 -23 9.5 -29.5t42.5 -6.5h27z" />
    <glyph glyph-name="ydieresis" unicode="&#xff;" horiz-adv-x="527" 
d="M147 -156q-47 0 -74 20t-27 57q0 22 13.5 33.5t36.5 11.5q41 0 41 -46v-28q4 -2 16 -2q60 0 95 93l6 17h-38l-144 386q-11 30 -20.5 37.5t-34.5 7.5h-2v48h201v-48h-25q-48 0 -28 -57l115 -315l106 293q16 49 9 64t-42 15h-20v48h179v-48h-2q-20 0 -30.5 -9t-20.5 -38
l-148 -390q-30 -79 -66.5 -114.5t-95.5 -35.5zM193 551q-22 0 -37.5 15t-15.5 37q0 21 15.5 36.5t37.5 15.5q21 0 36.5 -15.5t15.5 -36.5q0 -22 -15.5 -37t-36.5 -15zM365 551q-21 0 -36.5 15t-15.5 37q0 21 15.5 36.5t36.5 15.5q22 0 37.5 -15.5t15.5 -36.5
q0 -22 -15.5 -37t-37.5 -15z" />
    <glyph glyph-name="Amacron" unicode="&#x100;" horiz-adv-x="691" 
d="M498 102l-34 97h-266l-28 -84q-13 -36 -0.5 -53t53.5 -17h44v-45h-243v45h17q29 0 39.5 11t25.5 52l183 531h112l185 -535q14 -39 24 -49t39 -10h21v-45h-273v45h44q45 0 57 10.5t0 46.5zM331 588l-115 -336h230zM231 709v46h236v-46h-236z" />
    <glyph glyph-name="amacron" unicode="&#x101;" horiz-adv-x="512" 
d="M433 -11q-100 0 -100 101v4q-28 -107 -149 -107q-65 0 -104.5 34t-39.5 96v1q0 80 97 120q13 5 72 21.5t91.5 36t32.5 48.5q0 97 -113 97q-38 0 -62 -12v-36q0 -57 -47 -57q-20 0 -33.5 13.5t-13.5 34.5q0 49 51.5 78t121.5 29q180 0 180 -178v-211q0 -34 10.5 -49
t36.5 -15q23 0 43 9v-31q-27 -27 -74 -27zM207 39q50 0 87 36t39 101v111q-14 -14 -31.5 -25t-29 -16.5t-33.5 -14t-30 -12.5q-45 -20 -64 -38t-19 -55v-5q0 -82 81 -82zM121 572v46h236v-46h-236z" />
    <glyph glyph-name="Abreve" unicode="&#x102;" horiz-adv-x="691" 
d="M498 102l-34 97h-266l-28 -84q-13 -36 -0.5 -53t53.5 -17h44v-45h-243v45h17q29 0 39.5 11t25.5 52l183 531h112l185 -535q14 -39 24 -49t39 -10h21v-45h-273v45h44q45 0 57 10.5t0 46.5zM331 588l-115 -336h230zM419 790h39q4 -47 -24.5 -81.5t-84.5 -34.5t-84.5 34.5
t-24.5 81.5h39q4 -51 70 -51t70 51z" />
    <glyph glyph-name="abreve" unicode="&#x103;" horiz-adv-x="512" 
d="M433 -11q-100 0 -100 101v4q-28 -107 -149 -107q-65 0 -104.5 34t-39.5 96v1q0 80 97 120q13 5 72 21.5t91.5 36t32.5 48.5q0 97 -113 97q-38 0 -62 -12v-36q0 -57 -47 -57q-20 0 -33.5 13.5t-13.5 34.5q0 49 51.5 78t121.5 29q180 0 180 -178v-211q0 -34 10.5 -49
t36.5 -15q23 0 43 9v-31q-27 -27 -74 -27zM207 39q50 0 87 36t39 101v111q-14 -14 -31.5 -25t-29 -16.5t-33.5 -14t-30 -12.5q-45 -20 -64 -38t-19 -55v-5q0 -82 81 -82zM320 673h36q7 -53 -22.5 -94.5t-90.5 -41.5q-60 0 -89 41t-22 95h36q-2 -31 16 -51t59 -20t59.5 20
t17.5 51z" />
    <glyph glyph-name="Aogonek" unicode="&#x104;" horiz-adv-x="691" 
d="M485 -155q-33 0 -52.5 18t-19.5 53q0 33 28.5 64t82.5 48l-59 171h-267l-28 -84q-13 -36 -0.5 -53t53.5 -17h44v-45h-243v45h17q29 0 39.5 11t25.5 52l183 531h112l185 -535q14 -39 24 -49t39 -10h21v-45h-73q-65 0 -90.5 -22t-25.5 -49q0 -29 34 -29q16 0 34 8v-25
q-5 -15 -21.5 -26.5t-42.5 -11.5zM331 588l-115 -336h231z" />
    <glyph glyph-name="aogonek" unicode="&#x105;" horiz-adv-x="512" 
d="M422 -155q-31 0 -50.5 19.5t-19.5 45.5q0 51 66 80q-85 6 -85 100v4q-28 -107 -149 -107q-65 0 -104.5 34t-39.5 96v1q0 80 97 120q13 5 72 21.5t91.5 36t32.5 48.5q0 97 -113 97q-38 0 -62 -12v-36q0 -57 -47 -57q-20 0 -33.5 13.5t-13.5 34.5q0 49 51.5 78t121.5 29
q180 0 180 -178v-211q0 -34 10.5 -49t36.5 -15q23 0 43 9v-34q-51 -24 -70 -43.5t-19 -40.5q0 -29 34 -29q16 0 34 8v-25q-5 -15 -21.5 -26.5t-42.5 -11.5zM207 39q50 0 87 36t39 101v111q-14 -14 -31.5 -25t-29 -16.5t-33.5 -14t-30 -12.5q-45 -20 -64 -38t-19 -55v-5
q0 -82 81 -82z" />
    <glyph glyph-name="Cacute" unicode="&#x106;" horiz-adv-x="638" 
d="M336 -15q-127 0 -206.5 88.5t-79.5 248.5v2q0 151 79 240t213 89q113 0 167 -75q3 18 8 33t8 21l3 7h42v-185h-58q-7 76 -47.5 110t-119.5 34q-103 0 -154 -69t-51 -180v-40q0 -266 206 -266q80 0 126 37t53 104h53v-184h-42q-10 22 -17 68q-58 -83 -183 -83zM301 675
l-16 15l49 92q21 40 54 40q19 0 31 -12.5t12 -32.5q0 -32 -40 -53z" />
    <glyph glyph-name="cacute" unicode="&#x107;" horiz-adv-x="490" 
d="M432 49q-48 -60 -161 -60q-107 0 -169 69.5t-62 183.5v1q0 121 68.5 184.5t161.5 63.5q70 0 117.5 -29.5t47.5 -79.5q0 -21 -12.5 -34.5t-34.5 -13.5q-51 0 -51 58v32q-19 17 -64 17q-62 0 -103 -42.5t-41 -130.5v-36q0 -96 40 -141t125 -45q70 0 138 44v-41zM221 529
l-18 18l65 103q16 25 28 35.5t32 10.5q21 0 32.5 -12.5t11.5 -31.5q0 -30 -38 -54z" />
    <glyph glyph-name="Ccircumflex" unicode="&#x108;" horiz-adv-x="638" 
d="M336 -15q-127 0 -206.5 88.5t-79.5 248.5v2q0 151 79 240t213 89q113 0 167 -75q3 18 8 33t8 21l3 7h42v-185h-58q-7 76 -47.5 110t-119.5 34q-103 0 -154 -69t-51 -180v-40q0 -266 206 -266q80 0 126 37t53 104h53v-184h-42q-10 22 -17 68q-58 -83 -183 -83zM446 680
l-109 41l-109 -41l-22 22l109 99h44l109 -99z" />
    <glyph glyph-name="ccircumflex" unicode="&#x109;" horiz-adv-x="490" 
d="M432 49q-48 -60 -161 -60q-107 0 -169 69.5t-62 183.5v1q0 121 68.5 184.5t161.5 63.5q70 0 117.5 -29.5t47.5 -79.5q0 -21 -12.5 -34.5t-34.5 -13.5q-51 0 -51 58v32q-19 17 -64 17q-62 0 -103 -42.5t-41 -130.5v-36q0 -96 40 -141t125 -45q70 0 138 44v-41zM377 530
l-109 64l-109 -64l-19 22l106 127h44l106 -127z" />
    <glyph glyph-name="Cdotaccent" unicode="&#x10a;" horiz-adv-x="638" 
d="M336 -15q-127 0 -206.5 88.5t-79.5 248.5v2q0 151 79 240t213 89q113 0 167 -75q3 18 8 33t8 21l3 7h42v-185h-58q-7 76 -47.5 110t-119.5 34q-103 0 -154 -69t-51 -180v-40q0 -266 206 -266q80 0 126 37t53 104h53v-184h-42q-10 22 -17 68q-58 -83 -183 -83zM330 692
q-23 0 -39 16t-16 38t16.5 38.5t38.5 16.5t38.5 -16.5t16.5 -38.5t-16 -38t-39 -16z" />
    <glyph glyph-name="cdotaccent" unicode="&#x10b;" horiz-adv-x="490" 
d="M432 49q-48 -60 -161 -60q-107 0 -169 69.5t-62 183.5v1q0 121 68.5 184.5t161.5 63.5q70 0 117.5 -29.5t47.5 -79.5q0 -21 -12.5 -34.5t-34.5 -13.5q-51 0 -51 58v32q-19 17 -64 17q-62 0 -103 -42.5t-41 -130.5v-36q0 -96 40 -141t125 -45q70 0 138 44v-41zM268 551
q-23 0 -39 16t-16 38q0 23 16.5 39t38.5 16t38.5 -16t16.5 -39q0 -22 -16 -38t-39 -16z" />
    <glyph glyph-name="Ccaron" unicode="&#x10c;" horiz-adv-x="638" 
d="M336 -15q-127 0 -206.5 88.5t-79.5 248.5v2q0 151 79 240t213 89q113 0 167 -75q3 18 8 33t8 21l3 7h42v-185h-58q-7 76 -47.5 110t-119.5 34q-103 0 -154 -69t-51 -180v-40q0 -266 206 -266q80 0 126 37t53 104h53v-184h-42q-10 22 -17 68q-58 -83 -183 -83zM206 779
l22 22l109 -41l109 41l22 -22l-109 -99h-44z" />
    <glyph glyph-name="ccaron" unicode="&#x10d;" horiz-adv-x="490" 
d="M432 49q-48 -60 -161 -60q-107 0 -169 69.5t-62 183.5v1q0 121 68.5 184.5t161.5 63.5q70 0 117.5 -29.5t47.5 -79.5q0 -21 -12.5 -34.5t-34.5 -13.5q-51 0 -51 58v32q-19 17 -64 17q-62 0 -103 -42.5t-41 -130.5v-36q0 -96 40 -141t125 -45q70 0 138 44v-41zM140 666
l19 22l109 -65l109 65l19 -22l-106 -127h-44z" />
    <glyph glyph-name="Dcaron" unicode="&#x10e;" horiz-adv-x="668" 
d="M25 639h326q136 0 204 -81t68 -227v-2q0 -159 -73 -244t-218 -85h-307v45h37q28 0 40 10.5t12 42.5v438q0 32 -12 42.5t-40 10.5h-37v50zM201 49h120q211 0 211 268v36q0 112 -42 172t-149 60h-140v-536zM179 779l22 22l109 -41l109 41l22 -22l-109 -99h-44z" />
    <glyph glyph-name="dcaron" unicode="&#x10f;" horiz-adv-x="589" 
d="M261 433q-64 0 -97.5 -39.5t-33.5 -127.5v-36q0 -91 33.5 -140.5t97.5 -49.5t110.5 52.5t46.5 135.5v18q0 90 -45.5 138.5t-111.5 48.5zM418 364v204q0 36 -11.5 46.5t-47.5 10.5h-19v48h162v-594q0 -23 10 -31.5t45 -8.5h15v-39h-139q-15 57 -15 120q-17 -62 -62.5 -97
t-112.5 -35q-93 0 -148 72t-55 192v1q0 112 58.5 174.5t144.5 62.5q136 0 175 -126zM572 541h-36v95q0 25 11 39.5t32 14.5q23 0 33 -19t-3 -50z" />
    <glyph glyph-name="Dcroat" unicode="&#x110;" horiz-adv-x="668" 
d="M43 291v53h71v192q0 32 -12 42.5t-40 10.5h-37v50h326q136 0 204 -81t68 -227v-2q0 -159 -73 -244t-218 -85h-307v45h37q28 0 40 10.5t12 42.5v193h-71zM201 49h120q211 0 211 268v36q0 112 -42 172t-149 60h-140v-241h171v-53h-171v-242z" />
    <glyph glyph-name="dcroat" unicode="&#x111;" horiz-adv-x="589" 
d="M418 364v181h-161v50h161v78h84v-78h69v-50h-69v-466q0 -23 10 -31.5t45 -8.5h15v-39h-139q-15 57 -15 120q-17 -62 -62.5 -97t-112.5 -35q-93 0 -148 72t-55 192v1q0 112 58.5 174.5t144.5 62.5q136 0 175 -126zM261 433q-64 0 -97.5 -39.5t-33.5 -127.5v-36
q0 -91 33.5 -140.5t97.5 -49.5t110.5 52.5t46.5 135.5v18q0 90 -45.5 138.5t-111.5 48.5z" />
    <glyph glyph-name="Emacron" unicode="&#x112;" horiz-adv-x="589" 
d="M539 0h-514v45h37q28 0 40 10.5t12 42.5v438q0 32 -12 42.5t-40 10.5h-37v50h500v-174h-55v16q0 68 -18 85.5t-77 17.5h-174v-234h111q41 0 52.5 16.5t11.5 84.5v10h49v-281h-49v13q0 68 -11.5 86t-52.5 18h-111v-246h177q66 0 86 21t20 95v23h55v-190zM180 709v46h236
v-46h-236z" />
    <glyph glyph-name="emacron" unicode="&#x113;" horiz-adv-x="511" 
d="M454 225h-325q2 -97 43.5 -138t128.5 -41q43 0 83.5 11.5t63.5 26.5v-40q-19 -21 -63 -38t-105 -17q-112 0 -176 66t-64 186v1q0 110 62.5 179.5t161.5 69.5q101 0 149 -56t48 -142q0 -36 -7 -68zM264 439q-62 0 -98 -42t-37 -124h253v14q0 152 -118 152zM137 572v46h236
v-46h-236z" />
    <glyph glyph-name="Ebreve" unicode="&#x114;" horiz-adv-x="589" 
d="M539 0h-514v45h37q28 0 40 10.5t12 42.5v438q0 32 -12 42.5t-40 10.5h-37v50h500v-174h-55v16q0 68 -18 85.5t-77 17.5h-174v-234h111q41 0 52.5 16.5t11.5 84.5v10h49v-281h-49v13q0 68 -11.5 86t-52.5 18h-111v-246h177q66 0 86 21t20 95v23h55v-190zM368 790h39
q4 -47 -24.5 -81.5t-84.5 -34.5t-84.5 34.5t-24.5 81.5h39q4 -51 70 -51t70 51z" />
    <glyph glyph-name="ebreve" unicode="&#x115;" horiz-adv-x="511" 
d="M454 225h-325q2 -97 43.5 -138t128.5 -41q43 0 83.5 11.5t63.5 26.5v-40q-19 -21 -63 -38t-105 -17q-112 0 -176 66t-64 186v1q0 110 62.5 179.5t161.5 69.5q101 0 149 -56t48 -142q0 -36 -7 -68zM264 439q-62 0 -98 -42t-37 -124h253v14q0 152 -118 152zM331 673h36
q7 -53 -22.5 -94.5t-90.5 -41.5q-60 0 -89 41t-22 95h36q-2 -31 16 -51t59 -20t59.5 20t17.5 51z" />
    <glyph glyph-name="Edotaccent" unicode="&#x116;" horiz-adv-x="589" 
d="M539 0h-514v45h37q28 0 40 10.5t12 42.5v438q0 32 -12 42.5t-40 10.5h-37v50h500v-174h-55v16q0 68 -18 85.5t-77 17.5h-174v-234h111q41 0 52.5 16.5t11.5 84.5v10h49v-281h-49v13q0 68 -11.5 86t-52.5 18h-111v-246h177q66 0 86 21t20 95v23h55v-190zM298 692
q-23 0 -39 16t-16 38t16.5 38.5t38.5 16.5t38.5 -16.5t16.5 -38.5t-16 -38t-39 -16z" />
    <glyph glyph-name="edotaccent" unicode="&#x117;" horiz-adv-x="511" 
d="M454 225h-325q2 -97 43.5 -138t128.5 -41q43 0 83.5 11.5t63.5 26.5v-40q-19 -21 -63 -38t-105 -17q-112 0 -176 66t-64 186v1q0 110 62.5 179.5t161.5 69.5q101 0 149 -56t48 -142q0 -36 -7 -68zM264 439q-62 0 -98 -42t-37 -124h253v14q0 152 -118 152zM250 551
q-23 0 -39 16t-16 38q0 23 16.5 39t38.5 16t38.5 -16t16.5 -39q0 -22 -16 -38t-39 -16z" />
    <glyph glyph-name="Eogonek" unicode="&#x118;" horiz-adv-x="589" 
d="M539 0h-32q-43 -1 -70 -23t-27 -48q0 -29 34 -29q16 0 34 8v-25q-5 -15 -21.5 -26.5t-42.5 -11.5q-31 0 -50.5 19.5t-19.5 45.5q0 33 23.5 57.5t49.5 32.5h-392v45h37q28 0 40 10.5t12 42.5v438q0 32 -12 42.5t-40 10.5h-37v50h500v-174h-55v16q0 68 -18 85.5t-77 17.5
h-174v-234h111q41 0 52.5 16.5t11.5 84.5v10h49v-281h-49v13q0 68 -11.5 86t-52.5 18h-111v-246h177q66 0 86 21t20 95v23h55v-190z" />
    <glyph glyph-name="eogonek" unicode="&#x119;" horiz-adv-x="511" 
d="M394 -117q-5 -15 -21.5 -26.5t-42.5 -11.5q-31 0 -50.5 19.5t-19.5 45.5t18 47.5t43 34.5q-19 -3 -41 -3q-112 0 -176 66t-64 186v1q0 110 62.5 179.5t161.5 69.5q101 0 149 -56t48 -142q0 -36 -7 -68h-325q3 -97 44 -138t128 -41q43 0 83.5 11.5t63.5 26.5v-40
q-11 -13 -44 -30.5t-55.5 -38t-22.5 -46.5q0 -29 34 -29q16 0 34 8v-25zM129 273h253v14q0 152 -118 152q-63 0 -99 -43t-36 -123z" />
    <glyph glyph-name="Ecaron" unicode="&#x11a;" horiz-adv-x="589" 
d="M539 0h-514v45h37q28 0 40 10.5t12 42.5v438q0 32 -12 42.5t-40 10.5h-37v50h500v-174h-55v16q0 68 -18 85.5t-77 17.5h-174v-234h111q41 0 52.5 16.5t11.5 84.5v10h49v-281h-49v13q0 68 -11.5 86t-52.5 18h-111v-246h177q66 0 86 21t20 95v23h55v-190zM167 779l22 22
l109 -41l109 41l22 -22l-109 -99h-44z" />
    <glyph glyph-name="ecaron" unicode="&#x11b;" horiz-adv-x="511" 
d="M454 225h-325q2 -97 43.5 -138t128.5 -41q43 0 83.5 11.5t63.5 26.5v-40q-19 -21 -63 -38t-105 -17q-112 0 -176 66t-64 186v1q0 110 62.5 179.5t161.5 69.5q101 0 149 -56t48 -142q0 -36 -7 -68zM264 439q-62 0 -98 -42t-37 -124h253v14q0 152 -118 152zM133 666l19 22
l109 -65l109 65l19 -22l-106 -127h-44z" />
    <glyph glyph-name="Gcircumflex" unicode="&#x11c;" horiz-adv-x="650" 
d="M333 653q110 0 161 -74q4 18 8.5 33t7.5 21l3 6h42v-185h-58q-7 76 -46 110t-115 34q-100 0 -148 -68.5t-48 -180.5v-40q0 -266 197 -266q93 0 147 44v127q0 30 -9 38t-43 8h-30v50h228v-50h-7q-31 0 -41.5 -10t-10.5 -43v-207h-42q-11 12 -19 62q-58 -77 -179 -77
q-128 0 -204.5 88t-76.5 249v2q0 151 76.5 240t206.5 89zM430 680l-109 41l-109 -41l-22 22l109 99h44l109 -99z" />
    <glyph glyph-name="gcircumflex" unicode="&#x11d;" horiz-adv-x="473" 
d="M217 491q42 0 80 -13q34 1 77 8t52 7q35 0 35 -36t-35 -36q-11 0 -35.5 10t-42.5 12q59 -40 59 -115v-1q0 -43 -16 -74t-44 -47t-58.5 -23t-66.5 -7h-62q-45 0 -45 -32q0 -29 42 -30l134 -6q81 -4 115.5 -35t34.5 -93v-1q0 -39 -16.5 -66t-47.5 -41t-67 -20t-83 -6
q-217 0 -217 117v1q0 34 29.5 58.5t71.5 30.5q-57 16 -57 68q0 62 82 76q-43 9 -70 45t-27 97v1q0 75 52.5 113t125.5 38zM222 224q103 0 103 105v18q0 51 -30 72.5t-73 21.5q-42 0 -71.5 -21.5t-29.5 -72.5v-18q0 -105 101 -105zM224 -106q77 0 110 20t33 60v1
q0 31 -18 45.5t-65 16.5l-96 4q-53 2 -77 -15t-24 -54v-1q0 -40 30.5 -58.5t106.5 -18.5zM337 530l-109 64l-109 -64l-19 22l106 127h44l106 -127z" />
    <glyph glyph-name="Gbreve" unicode="&#x11e;" horiz-adv-x="650" 
d="M333 653q110 0 161 -74q4 18 8.5 33t7.5 21l3 6h42v-185h-58q-7 76 -46 110t-115 34q-100 0 -148 -68.5t-48 -180.5v-40q0 -266 197 -266q93 0 147 44v127q0 30 -9 38t-43 8h-30v50h228v-50h-7q-31 0 -41.5 -10t-10.5 -43v-207h-42q-11 12 -19 62q-58 -77 -179 -77
q-128 0 -204.5 88t-76.5 249v2q0 151 76.5 240t206.5 89zM391 790h39q4 -47 -24.5 -81.5t-84.5 -34.5t-84.5 34.5t-24.5 81.5h39q4 -51 70 -51t70 51z" />
    <glyph glyph-name="gbreve" unicode="&#x11f;" horiz-adv-x="473" 
d="M217 491q42 0 80 -13q34 1 77 8t52 7q35 0 35 -36t-35 -36q-11 0 -35.5 10t-42.5 12q59 -40 59 -115v-1q0 -43 -16 -74t-44 -47t-58.5 -23t-66.5 -7h-62q-45 0 -45 -32q0 -29 42 -30l134 -6q81 -4 115.5 -35t34.5 -93v-1q0 -39 -16.5 -66t-47.5 -41t-67 -20t-83 -6
q-217 0 -217 117v1q0 34 29.5 58.5t71.5 30.5q-57 16 -57 68q0 62 82 76q-43 9 -70 45t-27 97v1q0 75 52.5 113t125.5 38zM222 224q103 0 103 105v18q0 51 -30 72.5t-73 21.5q-42 0 -71.5 -21.5t-29.5 -72.5v-18q0 -105 101 -105zM224 -106q77 0 110 20t33 60v1
q0 31 -18 45.5t-65 16.5l-96 4q-53 2 -77 -15t-24 -54v-1q0 -40 30.5 -58.5t106.5 -18.5zM305 673h36q7 -53 -22.5 -94.5t-90.5 -41.5q-60 0 -89 41t-22 95h36q-2 -31 16 -51t59 -20t59.5 20t17.5 51z" />
    <glyph glyph-name="Gdotaccent" unicode="&#x120;" horiz-adv-x="650" 
d="M333 653q110 0 161 -74q4 18 8.5 33t7.5 21l3 6h42v-185h-58q-7 76 -46 110t-115 34q-100 0 -148 -68.5t-48 -180.5v-40q0 -266 197 -266q93 0 147 44v127q0 30 -9 38t-43 8h-30v50h228v-50h-7q-31 0 -41.5 -10t-10.5 -43v-207h-42q-11 12 -19 62q-58 -77 -179 -77
q-128 0 -204.5 88t-76.5 249v2q0 151 76.5 240t206.5 89zM321 692q-23 0 -39 16t-16 38t16 38.5t39 16.5t39 -16.5t16 -38.5t-16 -38t-39 -16z" />
    <glyph glyph-name="gdotaccent" unicode="&#x121;" horiz-adv-x="473" 
d="M217 491q42 0 80 -13q34 1 77 8t52 7q35 0 35 -36t-35 -36q-11 0 -35.5 10t-42.5 12q59 -40 59 -115v-1q0 -43 -16 -74t-44 -47t-58.5 -23t-66.5 -7h-62q-45 0 -45 -32q0 -29 42 -30l134 -6q81 -4 115.5 -35t34.5 -93v-1q0 -39 -16.5 -66t-47.5 -41t-67 -20t-83 -6
q-217 0 -217 117v1q0 34 29.5 58.5t71.5 30.5q-57 16 -57 68q0 62 82 76q-43 9 -70 45t-27 97v1q0 75 52.5 113t125.5 38zM222 224q103 0 103 105v18q0 51 -30 72.5t-73 21.5q-42 0 -71.5 -21.5t-29.5 -72.5v-18q0 -105 101 -105zM224 -106q77 0 110 20t33 60v1
q0 31 -18 45.5t-65 16.5l-96 4q-53 2 -77 -15t-24 -54v-1q0 -40 30.5 -58.5t106.5 -18.5zM228 551q-23 0 -39 16t-16 38q0 23 16.5 39t38.5 16t38.5 -16t16.5 -39q0 -22 -16 -38t-39 -16z" />
    <glyph glyph-name="Gcommaaccent" unicode="&#x122;" horiz-adv-x="650" 
d="M333 653q110 0 161 -74q4 18 8.5 33t7.5 21l3 6h42v-185h-58q-7 76 -46 110t-115 34q-100 0 -148 -68.5t-48 -180.5v-40q0 -266 197 -266q93 0 147 44v127q0 30 -9 38t-43 8h-30v50h228v-50h-7q-31 0 -41.5 -10t-10.5 -43v-207h-42q-11 12 -19 62q-58 -77 -179 -77
q-128 0 -204.5 88t-76.5 249v2q0 151 76.5 240t206.5 89zM284 -87q0 -46 43 -47q-10 -26 -50 -36v-27q107 16 107 95q0 29 -14.5 44t-37.5 15q-18 0 -33 -13t-15 -31z" />
    <glyph glyph-name="gcommaaccent" unicode="&#x123;" horiz-adv-x="473" 
d="M217 491q42 0 80 -13q34 1 77 8t52 7q35 0 35 -36t-35 -36q-11 0 -35.5 10t-42.5 12q59 -40 59 -115v-1q0 -43 -16 -74t-44 -47t-58.5 -23t-66.5 -7h-62q-45 0 -45 -32q0 -29 42 -30l134 -6q81 -4 115.5 -35t34.5 -93v-1q0 -39 -16.5 -66t-47.5 -41t-67 -20t-83 -6
q-217 0 -217 117v1q0 34 29.5 58.5t71.5 30.5q-57 16 -57 68q0 62 82 76q-43 9 -70 45t-27 97v1q0 75 52.5 113t125.5 38zM222 224q103 0 103 105v18q0 51 -30 72.5t-73 21.5q-42 0 -71.5 -21.5t-29.5 -72.5v-18q0 -105 101 -105zM224 -106q77 0 110 20t33 60v1
q0 31 -18 45.5t-65 16.5l-96 4q-53 2 -77 -15t-24 -54v-1q0 -40 30.5 -58.5t106.5 -18.5zM272 594q0 -18 -15 -31t-33 -13q-23 0 -37.5 15t-14.5 44q0 79 107 95v-27q-41 -10 -51 -36q44 -1 44 -47z" />
    <glyph glyph-name="Hcircumflex" unicode="&#x124;" horiz-adv-x="715" 
d="M514 299h-313v-208q0 -29 13 -37.5t49 -8.5h44v-45h-282v45h37q28 0 40 10.5t12 42.5v438q0 32 -12 42.5t-40 10.5h-37v50h282v-50h-44q-36 0 -49 -8.5t-13 -37.5v-191h313v191q0 29 -13 37.5t-49 8.5h-44v50h282v-50h-37q-28 0 -40 -10.5t-12 -42.5v-438q0 -32 12 -42.5
t40 -10.5h37v-45h-282v45h44q36 0 49 8.5t13 37.5v208zM467 690l-109 41l-109 -41l-22 22l109 99h44l109 -99z" />
    <glyph glyph-name="hcircumflex" unicode="&#x125;" horiz-adv-x="578" 
d="M496 327v-248q0 -23 10 -31.5t45 -8.5h10v-39h-225v39h24q32 0 42 6.5t10 29.5v268q0 86 -94 86q-64 0 -106.5 -44.5t-42.5 -119.5v-190q0 -23 9.5 -29.5t42.5 -6.5h24v-39h-226v39h24q26 0 34 8.5t8 34.5v486q0 36 -11.5 46.5t-47.5 10.5h-7v48h150v-325q12 67 60 105
t112 38q72 0 113.5 -42t41.5 -122zM415 710l-109 41l-109 -41l-22 22l109 99h44l109 -99z" />
    <glyph glyph-name="Hbar" unicode="&#x126;" horiz-adv-x="715" 
d="M15 448v53h99v35q0 32 -12 42.5t-40 10.5h-37v50h282v-50h-44q-36 0 -49 -8.5t-13 -37.5v-42h313v42q0 29 -13 37.5t-49 8.5h-44v50h282v-50h-37q-28 0 -40 -10.5t-12 -42.5v-35h99v-53h-99v-350q0 -32 12 -42.5t40 -10.5h37v-45h-282v45h44q36 0 49 8.5t13 37.5v208
h-313v-208q0 -29 13 -37.5t49 -8.5h44v-45h-282v45h37q28 0 40 10.5t12 42.5v350h-99zM201 352h313v96h-313v-96z" />
    <glyph glyph-name="hbar" unicode="&#x127;" horiz-adv-x="578" 
d="M17 545v50h68v78h84v-78h162v-50h-162v-197q12 67 60 105t112 38q72 0 113.5 -42t41.5 -122v-248q0 -23 10 -31.5t45 -8.5h10v-39h-225v39h24q32 0 42 6.5t10 29.5v268q0 86 -94 86q-64 0 -106.5 -44.5t-42.5 -119.5v-190q0 -23 9.5 -29.5t42.5 -6.5h24v-39h-226v39h24
q26 0 34 8.5t8 34.5v463h-68z" />
    <glyph glyph-name="Itilde" unicode="&#x128;" horiz-adv-x="325" 
d="M300 0h-275v45h42q28 0 40 10.5t12 42.5v438q0 32 -12 42.5t-40 10.5h-42v50h275v-50h-42q-28 0 -40 -10.5t-12 -42.5v-438q0 -32 12 -42.5t40 -10.5h42v-45zM39 686q-8 46 8.5 78t59.5 32q29 0 66 -19.5t54 -19.5q16 0 22 10.5t8 32.5h30q8 -45 -6.5 -77.5t-53.5 -32.5
q-24 0 -64.5 19.5t-60.5 19.5q-12 0 -19 -5.5t-9.5 -13.5t-4.5 -24h-30z" />
    <glyph glyph-name="itilde" unicode="&#x129;" horiz-adv-x="264" 
d="M246 0h-226v39h28q26 0 34 8.5t8 34.5v292q0 36 -11.5 46.5t-47.5 10.5h-11v48h154v-397q0 -28 9 -35.5t43 -7.5h20v-39zM-11 559q-8 46 8.5 78t59.5 32q29 0 66 -19.5t54 -19.5q16 0 22 10.5t8 32.5h30q8 -45 -6.5 -77.5t-53.5 -32.5q-24 0 -64.5 19.5t-60.5 19.5
q-12 0 -19 -5.5t-9.5 -13.5t-4.5 -24h-30z" />
    <glyph glyph-name="Imacron" unicode="&#x12a;" horiz-adv-x="325" 
d="M300 0h-275v45h42q28 0 40 10.5t12 42.5v438q0 32 -12 42.5t-40 10.5h-42v50h275v-50h-42q-28 0 -40 -10.5t-12 -42.5v-438q0 -32 12 -42.5t40 -10.5h42v-45zM45 709v46h236v-46h-236z" />
    <glyph glyph-name="imacron" unicode="&#x12b;" horiz-adv-x="264" 
d="M12 572v46h205v-46h-205zM246 0h-226v39h28q26 0 34 8.5t8 34.5v292q0 36 -11.5 46.5t-47.5 10.5h-11v48h154v-397q0 -28 9 -35.5t43 -7.5h20v-39z" />
    <glyph glyph-name="Ibreve" unicode="&#x12c;" horiz-adv-x="325" 
d="M300 0h-275v45h42q28 0 40 10.5t12 42.5v438q0 32 -12 42.5t-40 10.5h-42v50h275v-50h-42q-28 0 -40 -10.5t-12 -42.5v-438q0 -32 12 -42.5t40 -10.5h42v-45zM233 790h39q4 -47 -24.5 -81.5t-84.5 -34.5t-84.5 34.5t-24.5 81.5h39q4 -51 70 -51t70 51z" />
    <glyph glyph-name="ibreve" unicode="&#x12d;" horiz-adv-x="264" 
d="M246 0h-226v39h28q26 0 34 8.5t8 34.5v292q0 36 -11.5 46.5t-47.5 10.5h-11v48h154v-397q0 -28 9 -35.5t43 -7.5h20v-39zM189 673h36q7 -53 -22.5 -94.5t-90.5 -41.5q-60 0 -89 41t-22 95h36q-2 -31 16 -51t59 -20t59.5 20t17.5 51z" />
    <glyph glyph-name="Iogonek" unicode="&#x12e;" horiz-adv-x="325" 
d="M300 0h-19q-43 -1 -70 -23t-27 -48q0 -29 34 -29q16 0 34 8v-25q-5 -15 -21.5 -26.5t-42.5 -11.5q-31 0 -50.5 19.5t-19.5 45.5q0 33 23.5 57.5t49.5 32.5h-166v45h42q28 0 40 10.5t12 42.5v438q0 32 -12 42.5t-40 10.5h-42v50h275v-50h-42q-28 0 -40 -10.5t-12 -42.5
v-438q0 -32 12 -42.5t40 -10.5h42v-45z" />
    <glyph glyph-name="iogonek" unicode="&#x12f;" horiz-adv-x="264" 
d="M174 479v-397q0 -28 9 -35.5t43 -7.5h20v-39h-6q-34 -1 -59 -22.5t-25 -48.5q0 -29 34 -29q16 0 34 8v-25q-5 -15 -21.5 -26.5t-42.5 -11.5q-31 0 -50.5 19.5t-19.5 45.5q0 33 26 56.5t59 33.5h-155v39h28q26 0 34 8.5t8 34.5v292q0 36 -11.5 46.5t-47.5 10.5h-11v48h154
zM122 554q-23 0 -39 16t-16 38t16.5 38.5t38.5 16.5t38.5 -16.5t16.5 -38.5t-16 -38t-39 -16z" />
    <glyph glyph-name="Idotaccent" unicode="&#x130;" horiz-adv-x="325" 
d="M300 0h-275v45h42q28 0 40 10.5t12 42.5v438q0 32 -12 42.5t-40 10.5h-42v50h275v-50h-42q-28 0 -40 -10.5t-12 -42.5v-438q0 -32 12 -42.5t40 -10.5h42v-45zM163 692q-23 0 -39 16t-16 38t16 38.5t39 16.5t39 -16.5t16 -38.5t-16 -38t-39 -16z" />
    <glyph glyph-name="dotlessi" unicode="&#x131;" horiz-adv-x="264" 
d="M246 0h-226v39h28q26 0 34 8.5t8 34.5v292q0 36 -11.5 46.5t-47.5 10.5h-11v48h154v-397q0 -28 9 -35.5t43 -7.5h20v-39z" />
    <glyph glyph-name="IJ" unicode="&#x132;" horiz-adv-x="696" 
d="M416 70v-35q83 12 83 140v368q0 29 -13 37.5t-49 8.5h-30v50h264v-50h-33q-28 0 -40 -10.5t-12 -42.5v-369q0 -86 -43.5 -133t-118.5 -47q-55 0 -83.5 24t-28.5 61q0 29 14.5 45.5t36.5 16.5q53 0 53 -64zM300 0h-275v45h42q28 0 40 10.5t12 42.5v438q0 32 -12 42.5
t-40 10.5h-42v50h275v-50h-42q-28 0 -40 -10.5t-12 -42.5v-438q0 -32 12 -42.5t40 -10.5h42v-45z" />
    <glyph glyph-name="ij" unicode="&#x133;" horiz-adv-x="523" 
d="M284 -76v-33q8 -3 21 -3q24 0 34 17.5t10 55.5v413q0 36 -11.5 46.5t-47.5 10.5h-11v48h154v-512q0 -60 -34 -90t-91 -30q-50 0 -80 22.5t-30 56.5q0 19 13 30.5t33 11.5q40 0 40 -44zM174 479v-397q0 -28 9 -35.5t43 -7.5h20v-39h-226v39h28q26 0 34 8.5t8 34.5v292
q0 36 -11.5 46.5t-47.5 10.5h-11v48h154zM122 554q-23 0 -39 16t-16 38t16.5 38.5t38.5 16.5t38.5 -16.5t16.5 -38.5t-16 -38t-39 -16zM381 554q-23 0 -39 16t-16 38t16 38.5t39 16.5t39 -16.5t16 -38.5t-16 -38t-39 -16z" />
    <glyph glyph-name="Jcircumflex" unicode="&#x134;" horiz-adv-x="451" 
d="M126 70v-34q12 -2 23 -2q51 0 78 31.5t27 109.5v368q0 29 -13 37.5t-49 8.5h-30v50h264v-50h-33q-28 0 -40 -10.5t-12 -42.5v-369q0 -87 -46.5 -133.5t-135.5 -46.5q-63 0 -100 26t-37 70q0 21 15 36t36 15q53 0 53 -64zM406 680l-109 41l-109 -41l-22 22l109 99h44
l109 -99z" />
    <glyph glyph-name="jcircumflex" unicode="&#x135;" horiz-adv-x="253" 
d="M25 -76v-33q7 -3 21 -3q24 0 34 17.5t10 55.5v413q0 36 -11.5 46.5t-47.5 10.5h-11v48h154v-512q0 -60 -34 -90t-91 -30q-50 0 -80 22.5t-30 56.5q0 19 13 30.5t33 11.5q40 0 40 -44zM227 530l-109 64l-109 -64l-19 22l106 127h44l106 -127z" />
    <glyph glyph-name="Kcommaaccent" unicode="&#x136;" horiz-adv-x="662" 
d="M428 93l-227 227v-229q0 -29 13 -37.5t49 -8.5h44v-45h-282v45h37q28 0 40 10.5t12 42.5v438q0 32 -12 42.5t-40 10.5h-37v50h282v-50h-44q-36 0 -49 -8.5t-13 -37.5v-218l239 212q24 21 21.5 36.5t-34.5 15.5h-36v50h242v-50h-21q-27 0 -45 -10t-53 -41l-223 -196
l248 -248q19 -18 28.5 -26t27 -15.5t37.5 -7.5h10v-45h-257v45h33q14 0 20.5 7t4 18t-14.5 23zM303 -87q0 -46 43 -47q-10 -26 -50 -36v-27q107 16 107 95q0 29 -14.5 44t-37.5 15q-18 0 -33 -13t-15 -31z" />
    <glyph glyph-name="kcommaaccent" unicode="&#x137;" horiz-adv-x="530" 
d="M513 0h-209v39h19q16 0 23 5.5t3 15.5t-18 24l-162 161v-170q0 -23 9.5 -29.5t42.5 -6.5h24v-39h-226v39h24q26 0 34 8.5t8 34.5v486q0 36 -11.5 46.5t-47.5 10.5h-7v48h150v-424l153 144q17 17 13.5 27.5t-24.5 10.5h-34v48h211v-48h-19q-25 0 -41.5 -8t-46.5 -35
l-132 -121l188 -182q32 -32 43.5 -39t30.5 -7h2v-39zM227 -87q0 -46 43 -47q-10 -26 -50 -36v-27q107 16 107 95q0 29 -14.5 44t-37.5 15q-18 0 -33 -13t-15 -31z" />
    <glyph glyph-name="Lacute" unicode="&#x139;" horiz-adv-x="563" 
d="M25 0v45h37q28 0 40 10.5t12 42.5v438q0 32 -12 42.5t-40 10.5h-37v50h282v-50h-44q-36 0 -49 -8.5t-13 -37.5v-492h151q72 0 94 26t22 110v17h55v-204h-498zM147 675l-16 15l49 92q21 40 54 40q19 0 31 -12.5t12 -32.5q0 -32 -40 -53z" />
    <glyph glyph-name="lacute" unicode="&#x13a;" horiz-adv-x="264" 
d="M246 0h-222v39h24q26 0 34 8.5t8 34.5v486q0 36 -11.5 46.5t-47.5 10.5h-7v48h150v-587q0 -31 9 -39t43 -8h20v-39zM99 708l-16 15l49 92q21 40 54 40q19 0 31 -12.5t12 -32.5q0 -32 -40 -53z" />
    <glyph glyph-name="Lcommaaccent" unicode="&#x13b;" horiz-adv-x="563" 
d="M25 0v45h37q28 0 40 10.5t12 42.5v438q0 32 -12 42.5t-40 10.5h-37v50h282v-50h-44q-36 0 -49 -8.5t-13 -37.5v-492h151q72 0 94 26t22 110v17h55v-204h-498zM257 -87q0 -46 43 -47q-10 -26 -50 -36v-27q107 16 107 95q0 29 -14.5 44t-37.5 15q-18 0 -33 -13t-15 -31z
" />
    <glyph glyph-name="lcommaaccent" unicode="&#x13c;" horiz-adv-x="264" 
d="M246 0h-222v39h24q26 0 34 8.5t8 34.5v486q0 36 -11.5 46.5t-47.5 10.5h-7v48h150v-587q0 -31 9 -39t43 -8h20v-39zM88 -87q0 -46 43 -47q-10 -26 -50 -36v-27q107 16 107 95q0 29 -14.5 44t-37.5 15q-18 0 -33 -13t-15 -31z" />
    <glyph glyph-name="Lcaron" unicode="&#x13d;" horiz-adv-x="563" 
d="M25 0v45h37q28 0 40 10.5t12 42.5v438q0 32 -12 42.5t-40 10.5h-37v50h282v-50h-44q-36 0 -49 -8.5t-13 -37.5v-492h151q72 0 94 26t22 110v17h55v-204h-498zM395 511h-36v95q0 25 11 39.5t32 14.5q23 0 33 -19t-3 -50z" />
    <glyph glyph-name="lcaron" unicode="&#x13e;" horiz-adv-x="264" 
d="M246 0h-222v39h24q26 0 34 8.5t8 34.5v486q0 36 -11.5 46.5t-47.5 10.5h-7v48h150v-587q0 -31 9 -39t43 -8h20v-39zM244 541h-36v95q0 25 11 39.5t32 14.5q23 0 33 -19t-3 -50z" />
    <glyph glyph-name="Ldot" unicode="&#x13f;" horiz-adv-x="563" 
d="M451 284q-24 0 -41.5 17t-17.5 41t18 41.5t41 17.5q25 0 42 -17.5t17 -41.5t-17 -41t-42 -17zM25 0v45h37q28 0 40 10.5t12 42.5v438q0 32 -12 42.5t-40 10.5h-37v50h282v-50h-44q-36 0 -49 -8.5t-13 -37.5v-492h151q72 0 94 26t22 110v17h55v-204h-498z" />
    <glyph glyph-name="ldot" unicode="&#x140;" horiz-adv-x="336" 
d="M291 273q-24 0 -41.5 17t-17.5 41t18 41.5t41 17.5q25 0 42 -17.5t17 -41.5t-17 -41t-42 -17zM246 0h-222v39h24q26 0 34 8.5t8 34.5v486q0 36 -11.5 46.5t-47.5 10.5h-7v48h150v-587q0 -31 9 -39t43 -8h20v-39z" />
    <glyph glyph-name="Lslash" unicode="&#x141;" horiz-adv-x="563" 
d="M25 0v45h37q28 0 40 10.5t12 42.5v127l-92 -52v54l92 52v257q0 32 -12 42.5t-40 10.5h-37v50h282v-50h-44q-36 0 -49 -8.5t-13 -37.5v-214l186 106v-54l-186 -106v-224h151q72 0 94 26t22 110v17h55v-204h-498z" />
    <glyph glyph-name="lslash" unicode="&#x142;" horiz-adv-x="274" 
d="M251 0h-222v39h24q26 0 34 8.5t8 34.5v222l-65 -49v52l65 49v212q0 36 -11.5 46.5t-47.5 10.5h-7v48h150v-253l66 50v-52l-66 -50v-282q0 -31 9 -39t43 -8h20v-39z" />
    <glyph glyph-name="Nacute" unicode="&#x143;" horiz-adv-x="701" 
d="M598 536v-536h-109l-314 595v-504q0 -29 13 -37.5t49 -8.5h44v-45h-256v45h37q28 0 40 10.5t12 42.5v438q0 32 -12 42.5t-40 10.5h-37v50h225l287 -558v462q0 29 -13 37.5t-49 8.5h-44v50h250v-50h-31q-28 0 -40 -10.5t-12 -42.5zM317 675l-16 15l49 92q21 40 54 40
q19 0 31 -12.5t12 -32.5q0 -32 -40 -53z" />
    <glyph glyph-name="nacute" unicode="&#x144;" horiz-adv-x="578" 
d="M496 327v-248q0 -23 10 -31.5t45 -8.5h10v-39h-225v39h24q32 0 42 6.5t10 29.5v268q0 86 -94 86q-64 0 -106.5 -44.5t-42.5 -119.5v-190q0 -23 9.5 -29.5t42.5 -6.5h24v-39h-226v39h24q26 0 34 8.5t8 34.5v292q0 36 -11.5 46.5t-47.5 10.5h-7v48h136q14 -57 14 -117v-14
q12 67 60 105t112 38q72 0 113.5 -42t41.5 -122zM233 529l-18 18l65 103q16 25 28 35.5t32 10.5q21 0 32.5 -12.5t11.5 -31.5q0 -30 -38 -54z" />
    <glyph glyph-name="Ncommaaccent" unicode="&#x145;" horiz-adv-x="701" 
d="M598 536v-536h-109l-314 595v-504q0 -29 13 -37.5t49 -8.5h44v-45h-256v45h37q28 0 40 10.5t12 42.5v438q0 32 -12 42.5t-40 10.5h-37v50h225l287 -558v462q0 29 -13 37.5t-49 8.5h-44v50h250v-50h-31q-28 0 -40 -10.5t-12 -42.5zM315 -87q0 -46 43 -47q-10 -26 -50 -36
v-27q107 16 107 95q0 29 -14.5 44t-37.5 15q-18 0 -33 -13t-15 -31z" />
    <glyph glyph-name="ncommaaccent" unicode="&#x146;" horiz-adv-x="578" 
d="M496 327v-248q0 -23 10 -31.5t45 -8.5h10v-39h-225v39h24q32 0 42 6.5t10 29.5v268q0 86 -94 86q-64 0 -106.5 -44.5t-42.5 -119.5v-190q0 -23 9.5 -29.5t42.5 -6.5h24v-39h-226v39h24q26 0 34 8.5t8 34.5v292q0 36 -11.5 46.5t-47.5 10.5h-7v48h136q14 -57 14 -117v-14
q12 67 60 105t112 38q72 0 113.5 -42t41.5 -122zM243 -87q0 -46 43 -47q-10 -26 -50 -36v-27q107 16 107 95q0 29 -14.5 44t-37.5 15q-18 0 -33 -13t-15 -31z" />
    <glyph glyph-name="Ncaron" unicode="&#x147;" horiz-adv-x="701" 
d="M598 536v-536h-109l-314 595v-504q0 -29 13 -37.5t49 -8.5h44v-45h-256v45h37q28 0 40 10.5t12 42.5v438q0 32 -12 42.5t-40 10.5h-37v50h225l287 -558v462q0 29 -13 37.5t-49 8.5h-44v50h250v-50h-31q-28 0 -40 -10.5t-12 -42.5zM239 779l22 22l109 -41l109 41l22 -22
l-109 -99h-44z" />
    <glyph glyph-name="ncaron" unicode="&#x148;" horiz-adv-x="578" 
d="M496 327v-248q0 -23 10 -31.5t45 -8.5h10v-39h-225v39h24q32 0 42 6.5t10 29.5v268q0 86 -94 86q-64 0 -106.5 -44.5t-42.5 -119.5v-190q0 -23 9.5 -29.5t42.5 -6.5h24v-39h-226v39h24q26 0 34 8.5t8 34.5v292q0 36 -11.5 46.5t-47.5 10.5h-7v48h136q14 -57 14 -117v-14
q12 67 60 105t112 38q72 0 113.5 -42t41.5 -122zM152 666l19 22l109 -65l109 65l19 -22l-106 -127h-44z" />
    <glyph glyph-name="napostrophe" unicode="&#x149;" horiz-adv-x="646" 
d="M564 327v-248q0 -23 10 -31.5t45 -8.5h10v-39h-225v39h24q32 0 42 6.5t10 29.5v268q0 86 -94 86q-64 0 -106.5 -44.5t-42.5 -119.5v-190q0 -23 9.5 -29.5t42.5 -6.5h24v-39h-226v39h24q26 0 34 8.5t8 34.5v292q0 36 -11.5 46.5t-47.5 10.5h-7v48h136q14 -57 14 -117v-14
q12 67 60 105t112 38q72 0 113.5 -42t41.5 -122zM-53 591q0 24 16.5 39.5t40.5 15.5q26 0 43.5 -20t17.5 -56q0 -56 -30.5 -92.5t-88.5 -45.5v35q53 14 60 69q-29 -1 -44 14.5t-15 40.5z" />
    <glyph glyph-name="Eng" unicode="&#x14a;" horiz-adv-x="701" 
d="M395 -71v-35q5 0 16 -0.5t15 -0.5q43 0 72.5 26.5t36.5 80.5h-46l-314 595v-504q0 -29 13 -37.5t49 -8.5h44v-45h-256v45h37q28 0 40 10.5t12 42.5v438q0 32 -12 42.5t-40 10.5h-37v50h225l287 -558v462q0 29 -13 37.5t-49 8.5h-44v50h250v-50h-31q-28 0 -40 -10.5
t-12 -42.5v-501q0 -89 -45 -139t-130 -50q-62 0 -97 25t-35 66q0 26 14.5 41t36.5 15q53 0 53 -64z" />
    <glyph glyph-name="eng" unicode="&#x14b;" horiz-adv-x="566" 
d="M496 327v-340q0 -73 -34 -107t-92 -34q-50 0 -79.5 22.5t-29.5 57.5q0 19 13 30.5t33 11.5q40 0 40 -44v-35q6 -2 13 -2q52 0 52 69v387q0 86 -94 86q-64 0 -106.5 -44.5t-42.5 -119.5v-190q0 -23 9.5 -29.5t42.5 -6.5h24v-39h-226v39h24q26 0 34 8.5t8 34.5v292
q0 36 -11.5 46.5t-47.5 10.5h-7v48h136q14 -57 14 -117v-14q12 67 60 105t112 38q72 0 113.5 -42t41.5 -122z" />
    <glyph glyph-name="Omacron" unicode="&#x14c;" horiz-adv-x="682" 
d="M341 -15q-131 0 -211 86.5t-80 249.5v2q0 153 76 241.5t215 88.5t215 -88.5t76 -241.5v-2q0 -163 -79 -249.5t-212 -86.5zM341 42q201 0 201 270v32q0 119 -49 186.5t-152 67.5t-152 -67.5t-49 -186.5v-32q0 -270 201 -270zM222 709v46h236v-46h-236z" />
    <glyph glyph-name="omacron" unicode="&#x14d;" horiz-adv-x="538" 
d="M269 -11q-99 0 -164 66t-65 190v1q0 111 63 178t166 67t166 -66.5t63 -177.5v-1q0 -125 -65 -191t-164 -66zM269 42q139 0 139 190v38q0 82 -36.5 124.5t-102.5 42.5t-102.5 -42.5t-36.5 -124.5v-38q0 -190 139 -190zM152 572v46h236v-46h-236z" />
    <glyph glyph-name="Obreve" unicode="&#x14e;" horiz-adv-x="682" 
d="M341 -15q-131 0 -211 86.5t-80 249.5v2q0 153 76 241.5t215 88.5t215 -88.5t76 -241.5v-2q0 -163 -79 -249.5t-212 -86.5zM341 42q201 0 201 270v32q0 119 -49 186.5t-152 67.5t-152 -67.5t-49 -186.5v-32q0 -270 201 -270zM410 790h39q4 -47 -24.5 -81.5t-84.5 -34.5
t-84.5 34.5t-24.5 81.5h39q4 -51 70 -51t70 51z" />
    <glyph glyph-name="obreve" unicode="&#x14f;" horiz-adv-x="538" 
d="M269 -11q-99 0 -164 66t-65 190v1q0 111 63 178t166 67t166 -66.5t63 -177.5v-1q0 -125 -65 -191t-164 -66zM269 42q139 0 139 190v38q0 82 -36.5 124.5t-102.5 42.5t-102.5 -42.5t-36.5 -124.5v-38q0 -190 139 -190zM346 673h36q7 -53 -22.5 -94.5t-90.5 -41.5
q-60 0 -89 41t-22 95h36q-2 -31 16 -51t59 -20t59.5 20t17.5 51z" />
    <glyph glyph-name="Ohungarumlaut" unicode="&#x150;" horiz-adv-x="682" 
d="M341 -15q-131 0 -211 86.5t-80 249.5v2q0 153 76 241.5t215 88.5t215 -88.5t76 -241.5v-2q0 -163 -79 -249.5t-212 -86.5zM341 42q201 0 201 270v32q0 119 -49 186.5t-152 67.5t-152 -67.5t-49 -186.5v-32q0 -270 201 -270zM408 685h-30l27 89q15 48 49 48q19 0 29.5 -11
t10.5 -28q0 -28 -25 -48zM268 685h-30l27 89q15 48 49 48q19 0 29.5 -11t10.5 -28q0 -28 -25 -48z" />
    <glyph glyph-name="ohungarumlaut" unicode="&#x151;" horiz-adv-x="538" 
d="M269 -11q-99 0 -164 66t-65 190v1q0 111 63 178t166 67t166 -66.5t63 -177.5v-1q0 -125 -65 -191t-164 -66zM269 42q139 0 139 190v38q0 82 -36.5 124.5t-102.5 42.5t-102.5 -42.5t-36.5 -124.5v-38q0 -190 139 -190zM353 539h-34l25 100q8 28 19 42.5t33 14.5
q20 0 31.5 -12t11.5 -30q0 -25 -25 -52zM208 539h-34l25 100q8 28 19 42.5t33 14.5q20 0 31.5 -12t11.5 -30q0 -25 -25 -52z" />
    <glyph glyph-name="OE" unicode="&#x152;" horiz-adv-x="897" 
d="M847 190v-190h-506q-145 0 -218 85t-73 244v2q0 146 68 227t204 81h511v-174h-55v16q0 68 -18 85.5t-77 17.5h-174v-234h111q41 0 52.5 16.5t11.5 84.5v10h49v-281h-49v13q0 68 -11.5 86t-52.5 18h-111v-246h177q66 0 86 21t20 95v23h55zM141 317q0 -268 211 -268h70v536
h-90q-107 0 -149 -60t-42 -172v-36z" />
    <glyph glyph-name="oe" unicode="&#x153;" horiz-adv-x="883" 
d="M269 -11q-99 0 -164 66t-65 190v1q0 111 63 178t166 67q135 0 187 -114q52 114 180 114q101 0 149 -56t48 -142q0 -36 -7 -68h-325q2 -97 43.5 -138t128.5 -41q43 0 83.5 11.5t63.5 26.5v-40q-19 -21 -63 -38t-105 -17q-148 0 -198 114q-52 -114 -185 -114zM269 42
q139 0 139 190v38q0 82 -36.5 124.5t-102.5 42.5t-102.5 -42.5t-36.5 -124.5v-38q0 -190 139 -190zM636 439q-62 0 -98 -42t-37 -124h253v14q0 152 -118 152z" />
    <glyph glyph-name="Racute" unicode="&#x154;" horiz-adv-x="626" 
d="M378 306v-3q57 -8 82 -33t37 -76l25 -104q12 -47 51 -47q24 0 43 8v-31q-22 -31 -76 -31q-97 0 -110 110l-11 93q-5 46 -30 66t-84 20h-104v-187q0 -29 13 -37.5t49 -8.5h44v-45h-282v45h37q28 0 40 10.5t12 42.5v438q0 32 -12 42.5t-40 10.5h-37v50h305q102 0 154 -45
t52 -125q0 -69 -44.5 -111t-113.5 -52zM201 331h115q72 0 101 34t29 102q0 62 -27.5 90t-98.5 28h-119v-254zM254 675l-16 15l49 92q21 40 54 40q19 0 31 -12.5t12 -32.5q0 -32 -40 -53z" />
    <glyph glyph-name="racute" unicode="&#x155;" horiz-adv-x="406" 
d="M262 0h-243v39h24q26 0 34 8.5t8 34.5v292q0 36 -11.5 46.5t-47.5 10.5h-7v48h136q14 -57 14 -117v-24q13 75 55.5 111.5t88.5 36.5q29 0 46 -15t17 -43q0 -24 -14 -37.5t-36 -13.5q-40 0 -47 50q-45 -4 -77.5 -71.5t-32.5 -150.5v-119q0 -30 10.5 -38.5t45.5 -8.5h37
v-39zM155 529l-18 18l65 103q16 25 28 35.5t32 10.5q21 0 32.5 -12.5t11.5 -31.5q0 -30 -38 -54z" />
    <glyph glyph-name="Rcommaaccent" unicode="&#x156;" horiz-adv-x="626" 
d="M378 306v-3q57 -8 82 -33t37 -76l25 -104q12 -47 51 -47q24 0 43 8v-31q-22 -31 -76 -31q-97 0 -110 110l-11 93q-5 46 -30 66t-84 20h-104v-187q0 -29 13 -37.5t49 -8.5h44v-45h-282v45h37q28 0 40 10.5t12 42.5v438q0 32 -12 42.5t-40 10.5h-37v50h305q102 0 154 -45
t52 -125q0 -69 -44.5 -111t-113.5 -52zM201 331h115q72 0 101 34t29 102q0 62 -27.5 90t-98.5 28h-119v-254zM309 -87q0 -46 43 -47q-10 -26 -50 -36v-27q107 16 107 95q0 29 -14.5 44t-37.5 15q-18 0 -33 -13t-15 -31z" />
    <glyph glyph-name="rcommaaccent" unicode="&#x157;" horiz-adv-x="406" 
d="M262 0h-243v39h24q26 0 34 8.5t8 34.5v292q0 36 -11.5 46.5t-47.5 10.5h-7v48h136q14 -57 14 -117v-24q13 75 55.5 111.5t88.5 36.5q29 0 46 -15t17 -43q0 -24 -14 -37.5t-36 -13.5q-40 0 -47 50q-45 -4 -77.5 -71.5t-32.5 -150.5v-119q0 -30 10.5 -38.5t45.5 -8.5h37
v-39zM92 -87q0 -46 43 -47q-10 -26 -50 -36v-27q107 16 107 95q0 29 -14.5 44t-37.5 15q-18 0 -33 -13t-15 -31z" />
    <glyph glyph-name="Rcaron" unicode="&#x158;" horiz-adv-x="626" 
d="M378 306v-3q57 -8 82 -33t37 -76l25 -104q12 -47 51 -47q24 0 43 8v-31q-22 -31 -76 -31q-97 0 -110 110l-11 93q-5 46 -30 66t-84 20h-104v-187q0 -29 13 -37.5t49 -8.5h44v-45h-282v45h37q28 0 40 10.5t12 42.5v438q0 32 -12 42.5t-40 10.5h-37v50h305q102 0 154 -45
t52 -125q0 -69 -44.5 -111t-113.5 -52zM201 331h115q72 0 101 34t29 102q0 62 -27.5 90t-98.5 28h-119v-254zM159 779l22 22l109 -41l109 41l22 -22l-109 -99h-44z" />
    <glyph glyph-name="rcaron" unicode="&#x159;" horiz-adv-x="406" 
d="M262 0h-243v39h24q26 0 34 8.5t8 34.5v292q0 36 -11.5 46.5t-47.5 10.5h-7v48h136q14 -57 14 -117v-24q13 75 55.5 111.5t88.5 36.5q29 0 46 -15t17 -43q0 -24 -14 -37.5t-36 -13.5q-40 0 -47 50q-45 -4 -77.5 -71.5t-32.5 -150.5v-119q0 -30 10.5 -38.5t45.5 -8.5h37
v-39zM74 666l19 22l109 -65l109 65l19 -22l-106 -127h-44z" />
    <glyph glyph-name="Sacute" unicode="&#x15a;" horiz-adv-x="553" 
d="M276 47q66 0 110 29.5t44 90.5q0 57 -42 84q-23 15 -116 36t-123 37q-44 22 -64.5 56t-20.5 90q0 87 58 133t138 46q103 0 148 -70q3 17 8 32t8 21l3 7h42v-166h-60q-19 121 -144 121q-51 0 -89 -28t-38 -85q0 -31 10.5 -49t36.5 -32q33 -18 126 -37.5t128 -42.5
q69 -45 69 -142q0 -93 -62 -141t-161 -48q-120 0 -174 85q-4 -22 -10 -40.5t-9 -25.5l-4 -8h-43v189h63q21 -142 168 -142zM245 675l-16 15l49 92q21 40 54 40q19 0 31 -12.5t12 -32.5q0 -32 -40 -53z" />
    <glyph glyph-name="sacute" unicode="&#x15b;" horiz-adv-x="452" 
d="M243 -11q-111 0 -144 73q-3 -20 -8 -35.5t-9 -20.5l-3 -6h-43v152h55q7 -53 43.5 -81.5t96.5 -28.5q53 0 81.5 23.5t28.5 64.5q0 36 -27 52q-19 11 -93 24t-99 25q-74 35 -74 124q0 65 46 100.5t112 35.5q97 0 117 -67q3 17 7 31t7 19l3 5h44v-136h-51q-10 44 -42 69
t-81 25q-91 0 -91 -78q0 -41 35 -57q25 -11 99.5 -22.5t102.5 -29.5q58 -37 58 -115q0 -69 -49.5 -107.5t-121.5 -38.5zM174 529l-18 18l65 103q16 25 28 35.5t32 10.5q21 0 32.5 -12.5t11.5 -31.5q0 -30 -38 -54z" />
    <glyph glyph-name="Scircumflex" unicode="&#x15c;" horiz-adv-x="553" 
d="M276 47q66 0 110 29.5t44 90.5q0 57 -42 84q-23 15 -116 36t-123 37q-44 22 -64.5 56t-20.5 90q0 87 58 133t138 46q103 0 148 -70q3 17 8 32t8 21l3 7h42v-166h-60q-19 121 -144 121q-51 0 -89 -28t-38 -85q0 -31 10.5 -49t36.5 -32q33 -18 126 -37.5t128 -42.5
q69 -45 69 -142q0 -93 -62 -141t-161 -48q-120 0 -174 85q-4 -22 -10 -40.5t-9 -25.5l-4 -8h-43v189h63q21 -142 168 -142zM390 680l-109 41l-109 -41l-22 22l109 99h44l109 -99z" />
    <glyph glyph-name="scircumflex" unicode="&#x15d;" horiz-adv-x="452" 
d="M243 -11q-111 0 -144 73q-3 -20 -8 -35.5t-9 -20.5l-3 -6h-43v152h55q7 -53 43.5 -81.5t96.5 -28.5q53 0 81.5 23.5t28.5 64.5q0 36 -27 52q-19 11 -93 24t-99 25q-74 35 -74 124q0 65 46 100.5t112 35.5q97 0 117 -67q3 17 7 31t7 19l3 5h44v-136h-51q-10 44 -42 69
t-81 25q-91 0 -91 -78q0 -41 35 -57q25 -11 99.5 -22.5t102.5 -29.5q58 -37 58 -115q0 -69 -49.5 -107.5t-121.5 -38.5zM334 530l-109 64l-109 -64l-19 22l106 127h44l106 -127z" />
    <glyph glyph-name="Scedilla" unicode="&#x15e;" horiz-adv-x="553" 
d="M276 47q66 0 110 29.5t44 90.5q0 57 -42 84q-23 15 -116 36t-123 37q-44 22 -64.5 56t-20.5 90q0 87 58 133t138 46q103 0 148 -70q3 17 8 32t8 21l3 7h42v-166h-60q-19 121 -144 121q-51 0 -89 -28t-38 -85q0 -31 10.5 -49t36.5 -32q33 -18 126 -37.5t128 -42.5
q69 -45 69 -142q0 -93 -62 -141t-161 -48q-3 0 -8 0.5t-7 0.5v-29q83 -8 83 -76q0 -34 -25 -53t-69 -19q-49 0 -69 20v30q25 -10 47 -10q46 0 46 38q0 42 -67 43v64q-71 19 -105 76q-4 -22 -10 -40.5t-9 -25.5l-4 -8h-43v189h63q21 -142 168 -142z" />
    <glyph glyph-name="scedilla" unicode="&#x15f;" horiz-adv-x="452" 
d="M243 -11q-5 0 -13 0.5t-12 0.5v-29q83 -8 83 -76q0 -34 -25 -53t-69 -19q-49 0 -69 20v30q25 -10 47 -10q46 0 46 38q0 42 -67 43v67q-46 17 -65 61q-3 -20 -8 -35.5t-9 -20.5l-3 -6h-43v152h55q7 -53 43.5 -81.5t96.5 -28.5q53 0 81.5 23.5t28.5 64.5q0 36 -27 52
q-19 11 -93 24t-99 25q-74 35 -74 124q0 65 46 100.5t112 35.5q97 0 117 -67q3 17 7 31t7 19l3 5h44v-136h-51q-10 44 -42 69t-81 25q-91 0 -91 -78q0 -41 35 -57q25 -11 99.5 -22.5t102.5 -29.5q58 -37 58 -115q0 -69 -49.5 -107.5t-121.5 -38.5z" />
    <glyph glyph-name="Scaron" unicode="&#x160;" horiz-adv-x="553" 
d="M276 47q66 0 110 29.5t44 90.5q0 57 -42 84q-23 15 -116 36t-123 37q-44 22 -64.5 56t-20.5 90q0 87 58 133t138 46q103 0 148 -70q3 17 8 32t8 21l3 7h42v-166h-60q-19 121 -144 121q-51 0 -89 -28t-38 -85q0 -31 10.5 -49t36.5 -32q33 -18 126 -37.5t128 -42.5
q69 -45 69 -142q0 -93 -62 -141t-161 -48q-120 0 -174 85q-4 -22 -10 -40.5t-9 -25.5l-4 -8h-43v189h63q21 -142 168 -142zM149 779l22 22l109 -41l109 41l22 -22l-109 -99h-44z" />
    <glyph glyph-name="scaron" unicode="&#x161;" horiz-adv-x="452" 
d="M243 -11q-111 0 -144 73q-3 -20 -8 -35.5t-9 -20.5l-3 -6h-43v152h55q7 -53 43.5 -81.5t96.5 -28.5q53 0 81.5 23.5t28.5 64.5q0 36 -27 52q-19 11 -93 24t-99 25q-74 35 -74 124q0 65 46 100.5t112 35.5q97 0 117 -67q3 17 7 31t7 19l3 5h44v-136h-51q-10 44 -42 69
t-81 25q-91 0 -91 -78q0 -41 35 -57q25 -11 99.5 -22.5t102.5 -29.5q58 -37 58 -115q0 -69 -49.5 -107.5t-121.5 -38.5zM102 666l19 22l109 -65l109 65l19 -22l-106 -127h-44z" />
    <glyph glyph-name="Tcommaaccent" unicode="&#x162;" horiz-adv-x="591" 
d="M400 584h-61v-486q0 -32 12 -42.5t40 -10.5h38v-45h-267v45h38q28 0 40 10.5t12 42.5v486h-61q-63 0 -84.5 -22t-21.5 -96v-31h-55v204h531v-204h-55v31q0 74 -21.5 96t-84.5 22zM249 -87q0 -46 43 -47q-10 -26 -50 -36v-27q107 16 107 95q0 29 -14.5 44t-37.5 15
q-18 0 -33 -13t-15 -31z" />
    <glyph glyph-name="tcommaaccent" unicode="&#x163;" horiz-adv-x="382" 
d="M241 -13q-68 0 -104.5 32t-36.5 114v298h-72v34q60 2 76.5 30.5t29.5 123.5h50v-140h154v-48h-154v-302q0 -49 19 -68t58 -19q43 0 85 16v-30q-11 -17 -38.5 -29t-66.5 -12zM166 -87q0 -46 43 -47q-10 -26 -50 -36v-27q107 16 107 95q0 29 -14.5 44t-37.5 15
q-18 0 -33 -13t-15 -31z" />
    <glyph glyph-name="Tcaron" unicode="&#x164;" horiz-adv-x="591" 
d="M400 584h-61v-486q0 -32 12 -42.5t40 -10.5h38v-45h-267v45h38q28 0 40 10.5t12 42.5v486h-61q-63 0 -84.5 -22t-21.5 -96v-31h-55v204h531v-204h-55v31q0 74 -21.5 96t-84.5 22zM165 779l22 22l109 -41l109 41l22 -22l-109 -99h-44z" />
    <glyph glyph-name="tcaron" unicode="&#x165;" horiz-adv-x="376" 
d="M241 -13q-68 0 -104.5 32t-36.5 114v298h-72v34q60 2 76.5 30.5t29.5 123.5h50v-140h154v-48h-154v-302q0 -49 19 -68t58 -19q43 0 85 16v-30q-11 -17 -38.5 -29t-66.5 -12zM281 541h-36v95q0 25 11 39.5t32 14.5q23 0 33 -19t-3 -50z" />
    <glyph glyph-name="Tbar" unicode="&#x166;" horiz-adv-x="591" 
d="M400 584h-61v-222h149v-50h-149v-214q0 -32 12 -42.5t40 -10.5h38v-45h-267v45h38q28 0 40 10.5t12 42.5v214h-149v50h149v222h-61q-63 0 -84.5 -22t-21.5 -96v-31h-55v204h531v-204h-55v31q0 74 -21.5 96t-84.5 22z" />
    <glyph glyph-name="tbar" unicode="&#x167;" horiz-adv-x="376" 
d="M28 265v48h72v118h-72v34q60 2 76.5 30.5t29.5 123.5h50v-140h154v-48h-154v-118h154v-48h-154v-136q0 -49 19 -68t58 -19q43 0 85 16v-30q-11 -17 -38.5 -29t-66.5 -12q-68 0 -104.5 32t-36.5 114v132h-72z" />
    <glyph glyph-name="Utilde" unicode="&#x168;" horiz-adv-x="678" 
d="M582 516v-272q0 -142 -63 -200.5t-177 -58.5q-246 0 -246 260v291q0 32 -12 42.5t-40 10.5h-24v50h269v-50h-44q-36 0 -49 -8.5t-13 -37.5v-317q0 -99 40.5 -140t130.5 -41q83 0 122 41t39 139v298q0 41 -15 53.5t-60 12.5h-31v50h249v-50h-24q-28 0 -40 -15.5t-12 -57.5
zM223 686q-8 46 8.5 78t59.5 32q29 0 66 -19.5t54 -19.5q16 0 22 10.5t8 32.5h30q8 -45 -6.5 -77.5t-53.5 -32.5q-24 0 -64.5 19.5t-60.5 19.5q-12 0 -19 -5.5t-9.5 -13.5t-4.5 -24h-30z" />
    <glyph glyph-name="utilde" unicode="&#x169;" horiz-adv-x="575" 
d="M404 212v162q0 36 -11.5 46.5t-47.5 10.5h-7v48h150v-400q0 -23 10 -31.5t45 -8.5h15v-39h-142q-12 57 -12 117v6q-12 -63 -57.5 -99t-104.5 -36q-77 0 -119.5 45.5t-42.5 139.5v201q0 36 -11.5 46.5t-47.5 10.5h-2v48h145v-319q0 -111 96 -111q63 0 103.5 46t40.5 117z
M143 559q-8 46 8.5 78t59.5 32q29 0 66 -19.5t54 -19.5q16 0 22 10.5t8 32.5h30q8 -45 -6.5 -77.5t-53.5 -32.5q-24 0 -64.5 19.5t-60.5 19.5q-12 0 -19 -5.5t-9.5 -13.5t-4.5 -24h-30z" />
    <glyph glyph-name="Umacron" unicode="&#x16a;" horiz-adv-x="678" 
d="M582 516v-272q0 -142 -63 -200.5t-177 -58.5q-246 0 -246 260v291q0 32 -12 42.5t-40 10.5h-24v50h269v-50h-44q-36 0 -49 -8.5t-13 -37.5v-317q0 -99 40.5 -140t130.5 -41q83 0 122 41t39 139v298q0 41 -15 53.5t-60 12.5h-31v50h249v-50h-24q-28 0 -40 -15.5t-12 -57.5
zM229 709v46h236v-46h-236z" />
    <glyph glyph-name="umacron" unicode="&#x16b;" horiz-adv-x="575" 
d="M404 212v162q0 36 -11.5 46.5t-47.5 10.5h-7v48h150v-400q0 -23 10 -31.5t45 -8.5h15v-39h-142q-12 57 -12 117v6q-12 -63 -57.5 -99t-104.5 -36q-77 0 -119.5 45.5t-42.5 139.5v201q0 36 -11.5 46.5t-47.5 10.5h-2v48h145v-319q0 -111 96 -111q63 0 103.5 46t40.5 117z
M149 572v46h236v-46h-236z" />
    <glyph glyph-name="Ubreve" unicode="&#x16c;" horiz-adv-x="678" 
d="M582 516v-272q0 -142 -63 -200.5t-177 -58.5q-246 0 -246 260v291q0 32 -12 42.5t-40 10.5h-24v50h269v-50h-44q-36 0 -49 -8.5t-13 -37.5v-317q0 -99 40.5 -140t130.5 -41q83 0 122 41t39 139v298q0 41 -15 53.5t-60 12.5h-31v50h249v-50h-24q-28 0 -40 -15.5t-12 -57.5
zM417 790h39q4 -47 -24.5 -81.5t-84.5 -34.5t-84.5 34.5t-24.5 81.5h39q4 -51 70 -51t70 51z" />
    <glyph glyph-name="ubreve" unicode="&#x16d;" horiz-adv-x="575" 
d="M404 212v162q0 36 -11.5 46.5t-47.5 10.5h-7v48h150v-400q0 -23 10 -31.5t45 -8.5h15v-39h-142q-12 57 -12 117v6q-12 -63 -57.5 -99t-104.5 -36q-77 0 -119.5 45.5t-42.5 139.5v201q0 36 -11.5 46.5t-47.5 10.5h-2v48h145v-319q0 -111 96 -111q63 0 103.5 46t40.5 117z
M343 673h36q7 -53 -22.5 -94.5t-90.5 -41.5q-60 0 -89 41t-22 95h36q-2 -31 16 -51t59 -20t59.5 20t17.5 51z" />
    <glyph glyph-name="Uring" unicode="&#x16e;" horiz-adv-x="678" 
d="M582 516v-272q0 -142 -63 -200.5t-177 -58.5q-246 0 -246 260v291q0 32 -12 42.5t-40 10.5h-24v50h269v-50h-44q-36 0 -49 -8.5t-13 -37.5v-317q0 -99 40.5 -140t130.5 -41q83 0 122 41t39 139v298q0 41 -15 53.5t-60 12.5h-31v50h249v-50h-24q-28 0 -40 -15.5t-12 -57.5
zM300 748q0 -60 47 -60q48 0 48 60t-48 60q-47 0 -47 -60zM256 748q0 38 26 64.5t65 26.5t65.5 -26.5t26.5 -64.5t-26.5 -64t-65.5 -26t-65 26t-26 64z" />
    <glyph glyph-name="uring" unicode="&#x16f;" horiz-adv-x="575" 
d="M404 212v162q0 36 -11.5 46.5t-47.5 10.5h-7v48h150v-400q0 -23 10 -31.5t45 -8.5h15v-39h-142q-12 57 -12 117v6q-12 -63 -57.5 -99t-104.5 -36q-77 0 -119.5 45.5t-42.5 139.5v201q0 36 -11.5 46.5t-47.5 10.5h-2v48h145v-319q0 -111 96 -111q63 0 103.5 46t40.5 117z
M175 627q0 38 26 64.5t65 26.5t65.5 -26.5t26.5 -64.5t-26.5 -64t-65.5 -26t-65 26t-26 64zM219 627q0 -60 47 -60q48 0 48 60t-48 60q-47 0 -47 -60z" />
    <glyph glyph-name="Uhungarumlaut" unicode="&#x170;" horiz-adv-x="678" 
d="M582 516v-272q0 -142 -63 -200.5t-177 -58.5q-246 0 -246 260v291q0 32 -12 42.5t-40 10.5h-24v50h269v-50h-44q-36 0 -49 -8.5t-13 -37.5v-317q0 -99 40.5 -140t130.5 -41q83 0 122 41t39 139v298q0 41 -15 53.5t-60 12.5h-31v50h249v-50h-24q-28 0 -40 -15.5t-12 -57.5
zM423 685h-30l27 89q15 48 49 48q19 0 29.5 -11t10.5 -28q0 -28 -25 -48zM283 685h-30l27 89q15 48 49 48q19 0 29.5 -11t10.5 -28q0 -28 -25 -48z" />
    <glyph glyph-name="uhungarumlaut" unicode="&#x171;" horiz-adv-x="575" 
d="M404 212v162q0 36 -11.5 46.5t-47.5 10.5h-7v48h150v-400q0 -23 10 -31.5t45 -8.5h15v-39h-142q-12 57 -12 117v6q-12 -63 -57.5 -99t-104.5 -36q-77 0 -119.5 45.5t-42.5 139.5v201q0 36 -11.5 46.5t-47.5 10.5h-2v48h145v-319q0 -111 96 -111q63 0 103.5 46t40.5 117z
M347 539h-34l25 100q8 28 19 42.5t33 14.5q20 0 31.5 -12t11.5 -30q0 -25 -25 -52zM202 539h-34l25 100q8 28 19 42.5t33 14.5q20 0 31.5 -12t11.5 -30q0 -25 -25 -52z" />
    <glyph glyph-name="Uogonek" unicode="&#x172;" horiz-adv-x="678" 
d="M389 -155q-31 0 -50.5 19.5t-19.5 45.5q0 46 44 75h-21q-246 0 -246 260v291q0 32 -12 42.5t-40 10.5h-24v50h269v-50h-44q-36 0 -49 -8.5t-13 -37.5v-317q0 -99 40.5 -140t130.5 -41q83 0 122 41t39 139v298q0 41 -15 53.5t-60 12.5h-31v50h249v-50h-24q-28 0 -40 -15.5
t-12 -57.5v-272q0 -94 -27.5 -148t-85.5 -87q-32 -18 -46.5 -27t-26 -23t-11.5 -30q0 -29 34 -29q16 0 34 8v-25q-5 -15 -21.5 -26.5t-42.5 -11.5z" />
    <glyph glyph-name="uogonek" unicode="&#x173;" horiz-adv-x="575" 
d="M409 -155q-31 0 -50.5 19.5t-19.5 45.5q0 31 22.5 54t54.5 34q-12 64 -12 119v6q-12 -63 -57.5 -99t-104.5 -36q-77 0 -119.5 45.5t-42.5 139.5v201q0 36 -11.5 46.5t-47.5 10.5h-2v48h145v-319q0 -111 96 -111q63 0 103.5 46t40.5 117v162q0 36 -11.5 46.5t-47.5 10.5
h-7v48h150v-400q0 -23 10 -31.5t45 -8.5h15v-39h-28q-62 0 -93.5 -19.5t-31.5 -51.5q0 -29 34 -29q16 0 34 8v-25q-5 -15 -21.5 -26.5t-42.5 -11.5z" />
    <glyph glyph-name="Wcircumflex" unicode="&#x174;" horiz-adv-x="967" 
d="M869 531l-121 -531h-119l-139 535l-139 -535h-125l-122 535q-13 38 -23 46t-40 8h-21v50h267v-50h-40q-45 0 -54 -8t-1 -44l105 -485l154 587h93l152 -587l101 460q9 41 -3 59t-52 18h-44v50h249v-50h-17q-31 0 -41.5 -9t-19.5 -49zM605 680l-109 41l-109 -41l-22 22
l109 99h44l109 -99z" />
    <glyph glyph-name="wcircumflex" unicode="&#x175;" horiz-adv-x="739" 
d="M273 0h-100l-102 376q-9 35 -20.5 45t-34.5 10h-2v48h197v-48h-27q-25 0 -30.5 -13t2.5 -44l78 -314l104 419h83l110 -419l70 292q11 50 4 64.5t-41 14.5h-18v48h176v-48h-2q-21 0 -32 -11t-20 -47l-98 -373h-102l-99 379zM489 530l-109 64l-109 -64l-19 22l106 127h44
l106 -127z" />
    <glyph glyph-name="Ycircumflex" unicode="&#x176;" horiz-adv-x="599" 
d="M500 531q22 39 33.5 48.5t35.5 9.5h12v50h-218v-50h24q44 0 52 -18t-16 -59l-109 -196l-116 210q-18 33 -11 48t41 15h30v50h-240v-50h13q25 0 36.5 -9.5t31.5 -44.5l157 -279v-158q0 -32 -12 -42.5t-40 -10.5h-38v-45h267v45h-38q-28 0 -40 10.5t-12 42.5v156zM417 680
l-109 41l-109 -41l-22 22l109 99h44l109 -99z" />
    <glyph glyph-name="ycircumflex" unicode="&#x177;" horiz-adv-x="527" 
d="M147 -156q-47 0 -74 20t-27 57q0 22 13.5 33.5t36.5 11.5q41 0 41 -46v-28q4 -2 16 -2q60 0 95 93l6 17h-38l-144 386q-11 30 -20.5 37.5t-34.5 7.5h-2v48h201v-48h-25q-48 0 -28 -57l115 -315l106 293q16 49 9 64t-42 15h-20v48h179v-48h-2q-20 0 -30.5 -9t-20.5 -38
l-148 -390q-30 -79 -66.5 -114.5t-95.5 -35.5zM388 530l-109 64l-109 -64l-19 22l106 127h44l106 -127z" />
    <glyph glyph-name="Ydieresis" unicode="&#x178;" horiz-adv-x="599" 
d="M500 531q22 39 33.5 48.5t35.5 9.5h12v50h-218v-50h24q44 0 52 -18t-16 -59l-109 -196l-116 210q-18 33 -11 48t41 15h30v50h-240v-50h13q25 0 36.5 -9.5t31.5 -44.5l157 -279v-158q0 -32 -12 -42.5t-40 -10.5h-38v-45h267v45h-38q-28 0 -40 10.5t-12 42.5v156zM399 681
q-21 0 -36.5 15t-15.5 37q0 21 15.5 36.5t36.5 15.5q22 0 37.5 -15.5t15.5 -36.5q0 -22 -15.5 -37t-37.5 -15zM216 681q-22 0 -37.5 15t-15.5 37q0 21 15.5 36.5t37.5 15.5q21 0 36.5 -15.5t15.5 -36.5q0 -22 -15.5 -37t-36.5 -15z" />
    <glyph glyph-name="Zacute" unicode="&#x179;" horiz-adv-x="553" 
d="M514 0h-479v68l387 516h-211q-59 0 -77 -17.5t-18 -85.5v-16h-55v174h451v-68l-391 -520h232q66 0 86 21t20 95v23h55v-190zM259 675l-16 15l49 92q21 40 54 40q19 0 31 -12.5t12 -32.5q0 -32 -40 -53z" />
    <glyph glyph-name="zacute" unicode="&#x17a;" horiz-adv-x="461" 
d="M426 479v-62l-313 -369h164q62 0 80.5 19.5t18.5 88.5v11h52v-167h-402v60l310 368h-152q-56 0 -73.5 -17t-17.5 -82v-6h-52v156h385zM192 529l-18 18l65 103q16 25 28 35.5t32 10.5q21 0 32.5 -12.5t11.5 -31.5q0 -30 -38 -54z" />
    <glyph glyph-name="Zdotaccent" unicode="&#x17b;" horiz-adv-x="553" 
d="M514 0h-479v68l387 516h-211q-59 0 -77 -17.5t-18 -85.5v-16h-55v174h451v-68l-391 -520h232q66 0 86 21t20 95v23h55v-190zM295 692q-23 0 -39 16t-16 38t16 38.5t39 16.5t39 -16.5t16 -38.5t-16 -38t-39 -16z" />
    <glyph glyph-name="zdotaccent" unicode="&#x17c;" horiz-adv-x="461" 
d="M426 417l-313 -369h164q62 0 80.5 19.5t18.5 88.5v11h52v-167h-402v60l310 368h-152q-56 0 -73.5 -17t-17.5 -82v-6h-52v156h385v-62zM238 551q-23 0 -39 16t-16 38q0 23 16.5 39t38.5 16t38.5 -16t16.5 -39q0 -22 -16 -38t-39 -16z" />
    <glyph glyph-name="Zcaron" unicode="&#x17d;" horiz-adv-x="553" 
d="M514 0h-479v68l387 516h-211q-59 0 -77 -17.5t-18 -85.5v-16h-55v174h451v-68l-391 -520h232q66 0 86 21t20 95v23h55v-190zM164 779l22 22l109 -41l109 41l22 -22l-109 -99h-44z" />
    <glyph glyph-name="zcaron" unicode="&#x17e;" horiz-adv-x="461" 
d="M426 417l-313 -369h164q62 0 80.5 19.5t18.5 88.5v11h52v-167h-402v60l310 368h-152q-56 0 -73.5 -17t-17.5 -82v-6h-52v156h385v-62zM111 666l19 22l109 -65l109 65l19 -22l-106 -127h-44z" />
    <glyph glyph-name="florin" unicode="&#x192;" horiz-adv-x="424" 
d="M6 -155q-44 0 -70.5 20.5t-26.5 54.5q0 22 12.5 36.5t33.5 14.5q48 0 48 -47v-41h5q71 0 86 135l37 322h-84v56h91l16 137q5 42 22.5 72.5t42.5 46t50.5 22t53.5 6.5q49 0 80.5 -20.5t31.5 -59.5q0 -21 -14 -34.5t-36 -13.5q-51 0 -51 50v36h-12q-37 0 -57.5 -27.5
t-25.5 -69.5l-17 -145h130v-56h-137l-36 -314q-6 -52 -24.5 -89t-44.5 -56t-51.5 -27.5t-52.5 -8.5z" />
    <glyph glyph-name="Aringacute" unicode="&#x1fa;" horiz-adv-x="691" 
d="M498 102l-34 97h-266l-28 -84q-13 -36 -0.5 -53t53.5 -17h44v-45h-243v45h17q29 0 39.5 11t25.5 52l183 531h112l185 -535q14 -39 24 -49t39 -10h21v-45h-273v45h44q45 0 57 10.5t0 46.5zM331 588l-115 -336h230zM258 748q0 38 26 64.5t65 26.5t65.5 -26.5t26.5 -64.5
t-26.5 -64t-65.5 -26t-65 26t-26 64zM343 866l-16 15l49 92q21 40 54 40q19 0 31 -12.5t12 -32.5q0 -32 -40 -53zM302 748q0 -60 47 -60q48 0 48 60t-48 60q-47 0 -47 -60z" />
    <glyph glyph-name="aringacute" unicode="&#x1fb;" horiz-adv-x="512" 
d="M433 -11q-100 0 -100 101v4q-28 -107 -149 -107q-65 0 -104.5 34t-39.5 96v1q0 80 97 120q13 5 72 21.5t91.5 36t32.5 48.5q0 97 -113 97q-38 0 -62 -12v-36q0 -57 -47 -57q-20 0 -33.5 13.5t-13.5 34.5q0 49 51.5 78t121.5 29q180 0 180 -178v-211q0 -34 10.5 -49
t36.5 -15q23 0 43 9v-31q-27 -27 -74 -27zM207 39q50 0 87 36t39 101v111q-14 -14 -31.5 -25t-29 -16.5t-33.5 -14t-30 -12.5q-45 -20 -64 -38t-19 -55v-5q0 -82 81 -82zM152 627q0 38 26 64.5t65 26.5t65.5 -26.5t26.5 -64.5t-26.5 -64t-65.5 -26t-65 26t-26 64zM228 749
l-16 15l49 92q21 40 54 40q19 0 31 -12.5t12 -32.5q0 -32 -40 -53zM196 627q0 -60 47 -60q48 0 48 60t-48 60q-47 0 -47 -60z" />
    <glyph glyph-name="AEacute" unicode="&#x1fc;" horiz-adv-x="906" 
d="M248 0h-238v45h17q19 0 30.5 12t36.5 51l246 432q28 49 -20 49h-38v50h560v-174h-55v16q0 68 -18 85.5t-77 17.5h-174v-234h111q41 0 52.5 16.5t11.5 84.5v10h49v-281h-49v13q0 68 -11.5 86t-52.5 18h-111v-246h177q66 0 86 21t20 95v23h55v-190h-514v45h37q28 0 40 10.5
t12 42.5v101h-220l-47 -84q-21 -32 -11 -51t51 -19h44v-45zM241 252h190v335zM532 675l-16 15l49 92q21 40 54 40q19 0 31 -12.5t12 -32.5q0 -32 -40 -53z" />
    <glyph glyph-name="aeacute" unicode="&#x1fd;" horiz-adv-x="804" 
d="M557 439q-63 0 -101 -43t-38 -123h257v14q0 152 -118 152zM207 39q52 0 88 36t38 101v111q-14 -14 -31.5 -25t-29 -16.5t-33.5 -14t-30 -12.5q-45 -20 -64 -38t-19 -55v-5q0 -82 81 -82zM741 44q-19 -21 -63 -38t-105 -17q-80 0 -137 34.5t-83 99.5q-12 -71 -56.5 -103.5
t-109.5 -32.5q-67 0 -107 34t-40 96v1q0 80 97 120q13 5 72 21.5t91.5 36t32.5 48.5q0 97 -111 97q-42 0 -64 -17v-31q0 -57 -47 -57q-20 0 -33.5 13.5t-13.5 34.5q0 49 51.5 78t121.5 29q119 0 152 -87q55 87 168 87q101 0 149 -56t48 -142q0 -36 -7 -68h-329
q2 -97 45 -138t131 -41q43 0 83.5 11.5t63.5 26.5v-40zM385 529l-18 18l65 103q16 25 28 35.5t32 10.5q21 0 32.5 -12.5t11.5 -31.5q0 -30 -38 -54z" />
    <glyph glyph-name="Oslashacute" unicode="&#x1fe;" horiz-adv-x="682" 
d="M341 -15q-114 0 -190 65l-54 -69h-60l81 104q-68 89 -68 236v2q0 153 76 241.5t215 88.5q106 0 177 -54l44 57h60l-69 -88q79 -88 79 -245v-2q0 -163 -79 -249.5t-212 -86.5zM341 42q201 0 201 270v32q0 101 -35 164l-314 -403q48 -63 148 -63zM140 312q0 -101 27 -164
l311 399q-49 51 -137 51q-103 0 -152 -67.5t-49 -186.5v-32zM298 675l-16 15l49 92q21 40 54 40q19 0 31 -12.5t12 -32.5q0 -32 -40 -53z" />
    <glyph glyph-name="oslashacute" unicode="&#x1ff;" horiz-adv-x="538" 
d="M269 -11q-79 0 -136 42l-39 -50h-56l62 79q-60 70 -60 185v1q0 111 63 178t166 67q78 0 136 -41l39 50h56l-62 -79q60 -68 60 -174v-1q0 -125 -65 -191t-164 -66zM269 42q139 0 139 190v38q0 54 -17 91l-220 -281q35 -38 98 -38zM130 232q0 -68 17 -111l219 279
q-36 37 -97 37q-66 0 -102.5 -42.5t-36.5 -124.5v-38zM218 529l-18 18l65 103q16 25 28 35.5t32 10.5q21 0 32.5 -12.5t11.5 -31.5q0 -30 -38 -54z" />
    <glyph glyph-name="Scommaaccent" unicode="&#x218;" horiz-adv-x="553" 
d="M276 47q66 0 110 29.5t44 90.5q0 57 -42 84q-23 15 -116 36t-123 37q-44 22 -64.5 56t-20.5 90q0 87 58 133t138 46q103 0 148 -70q3 17 8 32t8 21l3 7h42v-166h-60q-19 121 -144 121q-51 0 -89 -28t-38 -85q0 -31 10.5 -49t36.5 -32q33 -18 126 -37.5t128 -42.5
q69 -45 69 -142q0 -93 -62 -141t-161 -48q-120 0 -174 85q-4 -22 -10 -40.5t-9 -25.5l-4 -8h-43v189h63q21 -142 168 -142zM235 -87q0 -46 43 -47q-10 -26 -50 -36v-27q107 16 107 95q0 29 -14.5 44t-37.5 15q-18 0 -33 -13t-15 -31z" />
    <glyph glyph-name="scommaaccent" unicode="&#x219;" horiz-adv-x="452" 
d="M243 -11q-111 0 -144 73q-3 -20 -8 -35.5t-9 -20.5l-3 -6h-43v152h55q7 -53 43.5 -81.5t96.5 -28.5q53 0 81.5 23.5t28.5 64.5q0 36 -27 52q-19 11 -93 24t-99 25q-74 35 -74 124q0 65 46 100.5t112 35.5q97 0 117 -67q3 17 7 31t7 19l3 5h44v-136h-51q-10 44 -42 69
t-81 25q-91 0 -91 -78q0 -41 35 -57q25 -11 99.5 -22.5t102.5 -29.5q58 -37 58 -115q0 -69 -49.5 -107.5t-121.5 -38.5zM178 -87q0 -46 43 -47q-10 -26 -50 -36v-27q107 16 107 95q0 29 -14.5 44t-37.5 15q-18 0 -33 -13t-15 -31z" />
    <glyph glyph-name="uni021A" unicode="&#x21a;" horiz-adv-x="591" 
d="M400 584h-61v-486q0 -32 12 -42.5t40 -10.5h38v-45h-267v45h38q28 0 40 10.5t12 42.5v486h-61q-63 0 -84.5 -22t-21.5 -96v-31h-55v204h531v-204h-55v31q0 74 -21.5 96t-84.5 22zM249 -87q0 -46 43 -47q-10 -26 -50 -36v-27q107 16 107 95q0 29 -14.5 44t-37.5 15
q-18 0 -33 -13t-15 -31z" />
    <glyph glyph-name="uni021B" unicode="&#x21b;" horiz-adv-x="382" 
d="M241 -13q-68 0 -104.5 32t-36.5 114v298h-72v34q60 2 76.5 30.5t29.5 123.5h50v-140h154v-48h-154v-302q0 -49 19 -68t58 -19q43 0 85 16v-30q-11 -17 -38.5 -29t-66.5 -12zM166 -87q0 -46 43 -47q-10 -26 -50 -36v-27q107 16 107 95q0 29 -14.5 44t-37.5 15
q-18 0 -33 -13t-15 -31z" />
    <glyph glyph-name="uni0237" unicode="&#x237;" horiz-adv-x="254" 
d="M25 -76v-33q7 -3 21 -3q24 0 34 17.5t10 55.5v413q0 36 -11.5 46.5t-47.5 10.5h-11v48h154v-512q0 -60 -34 -90t-91 -30q-50 0 -80 22.5t-30 56.5q0 19 13 30.5t33 11.5q40 0 40 -44z" />
    <glyph glyph-name="circumflex" unicode="&#x2c6;" 
d="M309 530l-109 64l-109 -64l-19 22l106 127h44l106 -127z" />
    <glyph glyph-name="caron" unicode="&#x2c7;" 
d="M72 666l19 22l109 -65l109 65l19 -22l-106 -127h-44z" />
    <glyph glyph-name="breve" unicode="&#x2d8;" 
d="M276 673h36q7 -53 -22.5 -94.5t-90.5 -41.5q-60 0 -89 41t-22 95h36q-2 -31 16 -51t59 -20t59.5 20t17.5 51z" />
    <glyph glyph-name="dotaccent" unicode="&#x2d9;" 
d="M200 551q-23 0 -39 16t-16 38q0 23 16.5 39t38.5 16t38.5 -16t16.5 -39q0 -22 -16 -38t-39 -16z" />
    <glyph glyph-name="ring" unicode="&#x2da;" 
d="M109 627q0 38 26 64.5t65 26.5t65.5 -26.5t26.5 -64.5t-26.5 -64t-65.5 -26t-65 26t-26 64zM153 627q0 -60 47 -60q48 0 48 60t-48 60q-47 0 -47 -60z" />
    <glyph glyph-name="ogonek" unicode="&#x2db;" 
d="M201 -155q-31 0 -50.5 19.5t-19.5 45.5q0 33 23.5 57.5t49.5 32.5h57q-64 -32 -64 -71q0 -29 34 -29q16 0 34 8v-25q-5 -15 -21.5 -26.5t-42.5 -11.5z" />
    <glyph glyph-name="tilde" unicode="&#x2dc;" 
d="M75 559q-8 46 8.5 78t59.5 32q28 0 65.5 -19.5t54.5 -19.5q16 0 22 10.5t8 32.5h30q8 -45 -6.5 -77.5t-53.5 -32.5q-24 0 -64.5 19.5t-60.5 19.5q-12 0 -19 -5.5t-9.5 -13.5t-4.5 -24h-30z" />
    <glyph glyph-name="hungarumlaut" unicode="&#x2dd;" 
d="M278 539h-34l25 100q8 28 19 42.5t33 14.5q20 0 31.5 -12t11.5 -30q0 -25 -25 -52zM133 539h-34l25 100q8 28 19 42.5t33 14.5q20 0 31.5 -12t11.5 -30q0 -25 -25 -52z" />
    <glyph glyph-name="Wgrave" unicode="&#x1e80;" horiz-adv-x="967" 
d="M869 531l-121 -531h-119l-139 535l-139 -535h-125l-122 535q-13 38 -23 46t-40 8h-21v50h267v-50h-40q-45 0 -54 -8t-1 -44l105 -485l154 587h93l152 -587l101 460q9 41 -3 59t-52 18h-44v50h249v-50h-17q-31 0 -41.5 -9t-19.5 -49zM488 782l55 -90l-14 -17l-100 49
q-40 20 -40 53q0 20 12 32.5t31 12.5q31 0 56 -40z" />
    <glyph glyph-name="wgrave" unicode="&#x1e81;" horiz-adv-x="739" 
d="M273 0h-100l-102 376q-9 35 -20.5 45t-34.5 10h-2v48h197v-48h-27q-25 0 -30.5 -13t2.5 -44l78 -314l104 419h83l110 -419l70 292q11 50 4 64.5t-41 14.5h-18v48h176v-48h-2q-21 0 -32 -11t-20 -47l-98 -373h-102l-99 379zM442 547l-17 -19l-117 63q-45 23 -45 60
q0 20 12 32.5t33 12.5q33 0 64 -46z" />
    <glyph glyph-name="Wacute" unicode="&#x1e82;" horiz-adv-x="967" 
d="M869 531l-121 -531h-119l-139 535l-139 -535h-125l-122 535q-13 38 -23 46t-40 8h-21v50h267v-50h-40q-45 0 -54 -8t-1 -44l105 -485l154 587h93l152 -587l101 460q9 41 -3 59t-52 18h-44v50h249v-50h-17q-31 0 -41.5 -9t-19.5 -49zM460 675l-16 15l49 92q21 40 54 40
q19 0 31 -12.5t12 -32.5q0 -32 -40 -53z" />
    <glyph glyph-name="wacute" unicode="&#x1e83;" horiz-adv-x="739" 
d="M273 0h-100l-102 376q-9 35 -20.5 45t-34.5 10h-2v48h197v-48h-27q-25 0 -30.5 -13t2.5 -44l78 -314l104 419h83l110 -419l70 292q11 50 4 64.5t-41 14.5h-18v48h176v-48h-2q-21 0 -32 -11t-20 -47l-98 -373h-102l-99 379zM329 529l-18 18l65 103q16 25 28 35.5t32 10.5
q21 0 32.5 -12.5t11.5 -31.5q0 -30 -38 -54z" />
    <glyph glyph-name="Wdieresis" unicode="&#x1e84;" horiz-adv-x="967" 
d="M869 531l-121 -531h-119l-139 535l-139 -535h-125l-122 535q-13 38 -23 46t-40 8h-21v50h267v-50h-40q-45 0 -54 -8t-1 -44l105 -485l154 587h93l152 -587l101 460q9 41 -3 59t-52 18h-44v50h249v-50h-17q-31 0 -41.5 -9t-19.5 -49zM404 681q-22 0 -37.5 15t-15.5 37
q0 21 15.5 36.5t37.5 15.5q21 0 36.5 -15.5t15.5 -36.5q0 -22 -15.5 -37t-36.5 -15zM587 681q-21 0 -36.5 15t-15.5 37q0 21 15.5 36.5t36.5 15.5q22 0 37.5 -15.5t15.5 -36.5q0 -22 -15.5 -37t-37.5 -15z" />
    <glyph glyph-name="wdieresis" unicode="&#x1e85;" horiz-adv-x="739" 
d="M273 0h-100l-102 376q-9 35 -20.5 45t-34.5 10h-2v48h197v-48h-27q-25 0 -30.5 -13t2.5 -44l78 -314l104 419h83l110 -419l70 292q11 50 4 64.5t-41 14.5h-18v48h176v-48h-2q-21 0 -32 -11t-20 -47l-98 -373h-102l-99 379zM466 551q-21 0 -36.5 15t-15.5 37
q0 21 15.5 36.5t36.5 15.5q22 0 37.5 -15.5t15.5 -36.5q0 -22 -15.5 -37t-37.5 -15zM294 551q-22 0 -37.5 15t-15.5 37q0 21 15.5 36.5t37.5 15.5q21 0 36.5 -15.5t15.5 -36.5q0 -22 -15.5 -37t-36.5 -15z" />
    <glyph glyph-name="Ygrave" unicode="&#x1ef2;" horiz-adv-x="599" 
d="M500 531l-157 -277v-156q0 -32 12 -42.5t40 -10.5h38v-45h-267v45h38q28 0 40 10.5t12 42.5v158l-157 279q-20 35 -31.5 44.5t-36.5 9.5h-13v50h240v-50h-30q-34 0 -41 -15t11 -48l116 -210l109 196q24 41 16 59t-52 18h-24v50h218v-50h-12q-24 0 -35.5 -9.5t-33.5 -48.5
zM300 782l55 -90l-14 -17l-100 49q-40 20 -40 53q0 20 12 32.5t31 12.5q31 0 56 -40z" />
    <glyph glyph-name="ygrave" unicode="&#x1ef3;" horiz-adv-x="527" 
d="M147 -156q-47 0 -74 20t-27 57q0 22 13.5 33.5t36.5 11.5q41 0 41 -46v-28q4 -2 16 -2q60 0 95 93l6 17h-38l-144 386q-11 30 -20.5 37.5t-34.5 7.5h-2v48h201v-48h-25q-48 0 -28 -57l115 -315l106 293q16 49 9 64t-42 15h-20v48h179v-48h-2q-20 0 -30.5 -9t-20.5 -38
l-148 -390q-30 -79 -66.5 -114.5t-95.5 -35.5zM341 547l-17 -19l-117 63q-45 23 -45 60q0 20 12 32.5t33 12.5q33 0 64 -46z" />
    <glyph glyph-name="uni2009" unicode="&#x2009;" horiz-adv-x="70" 
 />
    <glyph glyph-name="endash" unicode="&#x2013;" horiz-adv-x="573" 
d="M55 244v50h463v-50h-463z" />
    <glyph glyph-name="emdash" unicode="&#x2014;" horiz-adv-x="943" 
d="M55 244v50h833v-50h-833z" />
    <glyph glyph-name="quoteleft" unicode="&#x2018;" horiz-adv-x="229" 
d="M173 487q0 -24 -16.5 -39.5t-40.5 -15.5q-26 0 -43.5 20t-17.5 56q0 56 30.5 92.5t88.5 45.5v-35q-55 -16 -61 -70q29 1 44.5 -14.5t15.5 -39.5z" />
    <glyph glyph-name="quoteright" unicode="&#x2019;" horiz-adv-x="229" 
d="M56 591q0 24 16.5 39.5t40.5 15.5q26 0 43.5 -20t17.5 -56q0 -56 -30.5 -92.5t-88.5 -45.5v35q53 14 60 69q-29 -1 -44 14.5t-15 40.5z" />
    <glyph glyph-name="quotesinglbase" unicode="&#x201a;" horiz-adv-x="229" 
d="M56 58q0 24 16.5 39.5t40.5 15.5q26 0 43.5 -20t17.5 -56q0 -56 -30.5 -92.5t-88.5 -45.5v35q54 16 60 69q-29 -1 -44 14.5t-15 40.5z" />
    <glyph glyph-name="quotedblleft" unicode="&#x201c;" horiz-adv-x="389" 
d="M173 487q0 -24 -16.5 -39.5t-40.5 -15.5q-26 0 -43.5 20t-17.5 56q0 56 30.5 92.5t88.5 45.5v-35q-55 -16 -61 -70q29 1 44.5 -14.5t15.5 -39.5zM333 487q0 -24 -16.5 -39.5t-40.5 -15.5q-26 0 -43.5 20t-17.5 56q0 56 30.5 92.5t88.5 45.5v-35q-55 -16 -61 -70
q29 1 44.5 -14.5t15.5 -39.5z" />
    <glyph glyph-name="quotedblright" unicode="&#x201d;" horiz-adv-x="389" 
d="M56 591q0 24 16.5 39.5t40.5 15.5q26 0 43.5 -20t17.5 -56q0 -56 -30.5 -92.5t-88.5 -45.5v35q53 14 60 69q-29 -1 -44 14.5t-15 40.5zM216 591q0 24 16.5 39.5t40.5 15.5q26 0 43.5 -20t17.5 -56q0 -56 -30.5 -92.5t-88.5 -45.5v35q53 14 60 69q-29 -1 -44 14.5
t-15 40.5z" />
    <glyph glyph-name="quotedblbase" unicode="&#x201e;" horiz-adv-x="389" 
d="M216 58q0 24 16.5 39.5t40.5 15.5q26 0 43.5 -20t17.5 -56q0 -56 -30.5 -92.5t-88.5 -45.5v35q54 16 60 69q-29 -1 -44 14.5t-15 40.5zM56 58q0 24 16.5 39.5t40.5 15.5q26 0 43.5 -20t17.5 -56q0 -56 -30.5 -92.5t-88.5 -45.5v35q54 16 60 69q-29 -1 -44 14.5t-15 40.5z
" />
    <glyph glyph-name="dagger" unicode="&#x2020;" horiz-adv-x="384" 
d="M143 553q-11 40 4 63t45 23t45 -23t4 -63l-35 -133l80 26q49 13 68.5 1.5t19.5 -40.5t-20 -40.5t-69 1.5l-78 25l37 -123l-37 -369h-30l-37 369l37 123l-78 -25q-49 -13 -69 -1.5t-20 40.5t19.5 40.5t68.5 -1.5l79 -26z" />
    <glyph glyph-name="daggerdbl" unicode="&#x2021;" horiz-adv-x="384" 
d="M99 172l78 -25l-37 123h104l-37 -123l78 25q49 13 69 1.5t20 -40.5t-19.5 -40.5t-68.5 1.5l-80 25l35 -132q11 -40 -4 -63t-45 -23t-45 23t-4 63l34 132l-79 -25q-49 -13 -68.5 -1.5t-19.5 40.5q0 28 20.5 40t68.5 -1zM99 368q-48 -13 -68.5 -1t-20.5 40t20.5 39.5
t67.5 -0.5l79 -26l-34 133q-11 40 4 63t45 23t45 -23t4 -63l-35 -133l80 26q49 13 68.5 1.5t19.5 -40.5t-20 -40.5t-69 1.5l-78 25l37 -123h-104l37 123z" />
    <glyph glyph-name="bullet" unicode="&#x2022;" horiz-adv-x="324" 
d="M162 168q-47 0 -82.5 34.5t-35.5 81.5q0 48 35.5 83t82.5 35q49 0 83.5 -35t34.5 -83t-34.5 -82t-83.5 -34z" />
    <glyph glyph-name="ellipsis" unicode="&#x2026;" horiz-adv-x="634" 
d="M517 -7q-24 0 -41.5 17t-17.5 41t18 41.5t41 17.5q25 0 42 -17.5t17 -41.5t-17 -41t-42 -17zM317 -7q-24 0 -41.5 17t-17.5 41t18 41.5t41 17.5q25 0 42 -17.5t17 -41.5t-17 -41t-42 -17zM117 -7q-24 0 -41.5 17t-17.5 41t18 41.5t41 17.5q25 0 42 -17.5t17 -41.5
t-17 -41t-42 -17z" />
    <glyph glyph-name="perthousand" unicode="&#x2030;" horiz-adv-x="983" 
d="M108 512v-34q0 -109 64 -109t64 109v34q0 96 -64 96t-64 -96zM172 328q-59 0 -99.5 41t-40.5 120v8q0 73 39 114.5t101 41.5q63 0 101.5 -41.5t38.5 -114.5v-8q0 -80 -39.5 -120.5t-100.5 -40.5zM427 171v-34q0 -109 64 -109t64 109v34q0 96 -64 96t-64 -96zM491 -13
q-59 0 -99.5 41t-40.5 120v8q0 73 39 114.5t101 41.5q63 0 101.5 -41.5t38.5 -114.5v-8q0 -80 -39.5 -120.5t-100.5 -40.5zM747 171v-34q0 -109 64 -109t64 109v34q0 96 -64 96t-64 -96zM811 -13q-59 0 -99.5 41t-40.5 120v8q0 73 39 114.5t101 41.5q63 0 101.5 -41.5
t38.5 -114.5v-8q0 -80 -39.5 -120.5t-100.5 -40.5zM582 639l-440 -639h-58l440 639h58z" />
    <glyph glyph-name="uni2032" unicode="&#x2032;" horiz-adv-x="196" 
d="M85 441h-40l8 135q3 63 52 63q29 0 40.5 -22.5t-3.5 -56.5z" />
    <glyph glyph-name="uni2033" unicode="&#x2033;" horiz-adv-x="331" 
d="M220 441h-40l8 135q3 63 52 63q29 0 40.5 -22.5t-3.5 -56.5zM85 441h-40l8 135q3 63 52 63q29 0 40.5 -22.5t-3.5 -56.5z" />
    <glyph glyph-name="guilsinglleft" unicode="&#x2039;" horiz-adv-x="223" 
d="M198 85h-54l-119 160l119 161h54l-90 -160z" />
    <glyph glyph-name="guilsinglright" unicode="&#x203a;" horiz-adv-x="223" 
d="M25 85l90 160l-90 161h54l119 -160l-119 -161h-54z" />
    <glyph glyph-name="fraction" unicode="&#x2044;" horiz-adv-x="168" 
d="M348 639l-483 -639h-45l483 639h45z" />
    <glyph glyph-name="Euro" unicode="&#x20ac;" horiz-adv-x="566" 
d="M384 341h-217v-60v-3h217v-53h-214q12 -88 62 -134.5t131 -46.5q97 0 160 67v-57q-54 -69 -173 -69q-107 0 -178 62t-88 178h-69v53h65v16v47h-65v53h66q9 118 80.5 188.5t187.5 70.5q81 0 134 -32.5t53 -83.5q0 -24 -13 -38t-34 -14q-49 0 -49 58v36q-29 16 -76 16
q-100 0 -147.5 -55.5t-49.5 -145.5h217v-53z" />
    <glyph glyph-name="trademark" unicode="&#x2122;" horiz-adv-x="606" 
d="M265 639h97l55 -168l53 168h101v-27h-13q-10 0 -14 -4t-4 -15v-130q0 -12 4 -15.5t14 -3.5h13v-26h-113v26h11q12 0 16.5 3t4.5 14v145l-57 -188h-47l-59 181v-138q0 -11 4.5 -14t16.5 -3h10v-26h-93v26h12q10 0 14 3.5t4 15.5v130q0 12 -4 15.5t-14 3.5h-12v27zM171 610
h-9v-147q0 -12 4 -15.5t12 -3.5h15v-26h-112v26h13q9 0 13 3.5t4 15.5v147h-10q-23 0 -30 -7.5t-7 -33.5v-11h-29v81h204v-81h-29v11q0 26 -8 33.5t-31 7.5z" />
    <glyph glyph-name="onethird" unicode="&#x2153;" horiz-adv-x="762" 
d="M237 263h-192v34h33q17 0 24 6t7 25v259l-70 -78v52l70 78h69v-311q0 -19 7 -25t23 -6h29v-34zM630 639l-483 -639h-45l483 639h45zM587 -6q-56 0 -90 20t-34 52q0 15 9 23.5t24 8.5q34 0 34 -37v-20q15 -9 45 -9q40 0 62 18.5t22 53.5q0 69 -81 69h-45v40h44q72 0 72 67
q0 65 -72 65q-25 0 -38 -9v-19q0 -38 -34 -38q-15 0 -24.5 9.5t-9.5 25.5q0 31 32 50.5t83 19.5q58 0 94 -27t36 -73q0 -77 -87 -89v-1q48 -5 74.5 -29t26.5 -66q0 -50 -37.5 -77.5t-105.5 -27.5z" />
    <glyph glyph-name="twothirds" unicode="&#x2154;" horiz-adv-x="786" 
d="M281 263h-251v55q91 57 133.5 107.5t42.5 105.5q0 39 -19.5 58t-52.5 19q-23 0 -38 -9v-19q0 -38 -34 -38q-15 0 -24 9.5t-9 25.5q0 31 33 50.5t85 19.5q59 0 95 -28.5t36 -86.5q0 -64 -48 -113t-146 -105h126q18 0 24.5 6.5t6.5 22.5v13h40v-93zM666 639l-483 -639h-45
l483 639h45zM611 -6q-56 0 -90 20t-34 52q0 15 9 23.5t24 8.5q34 0 34 -37v-20q15 -9 45 -9q40 0 62 18.5t22 53.5q0 69 -81 69h-45v40h44q72 0 72 67q0 65 -72 65q-25 0 -38 -9v-19q0 -38 -34 -38q-15 0 -24.5 9.5t-9.5 25.5q0 31 32 50.5t83 19.5q58 0 94 -27t36 -73
q0 -77 -87 -89v-1q48 -5 74.5 -29t26.5 -66q0 -50 -37.5 -77.5t-105.5 -27.5z" />
    <glyph glyph-name="oneeighth" unicode="&#x215b;" horiz-adv-x="757" 
d="M586 -8q-61 0 -101.5 29.5t-40.5 79.5v5q0 35 23 59.5t63 34.5q-73 20 -73 83v4q0 42 35.5 69t93.5 27q57 0 92.5 -27t35.5 -69v-4q0 -62 -74 -83q41 -10 64 -34.5t23 -58.5v-5q0 -51 -40 -80.5t-101 -29.5zM237 263h-192v34h33q17 0 24 6t7 25v259l-70 -78v52l70 78h69
v-311q0 -19 7 -25t23 -6h29v-34zM622 639l-483 -639h-45l483 639h45zM586 32q72 0 72 71v11q0 31 -19 49t-53 18t-53 -18t-19 -49v-11q0 -71 72 -71zM586 216q64 0 64 58v9q0 28 -17 44t-47 16q-31 0 -47.5 -15.5t-16.5 -44.5v-9q0 -58 64 -58z" />
    <glyph glyph-name="threeeighths" unicode="&#x215c;" horiz-adv-x="772" 
d="M601 -8q-61 0 -101.5 29.5t-40.5 79.5v5q0 35 23 59.5t63 34.5q-73 20 -73 83v4q0 42 35.5 69t93.5 27q57 0 92.5 -27t35.5 -69v-4q0 -62 -74 -83q41 -10 64 -34.5t23 -58.5v-5q0 -51 -40 -80.5t-101 -29.5zM143 257q-56 0 -90 20t-34 52q0 15 9 23.5t24 8.5q34 0 34 -37
v-20q15 -9 45 -9q40 0 62 18.5t22 53.5q0 69 -81 69h-45v40h44q72 0 72 67q0 65 -72 65q-25 0 -38 -9v-19q0 -38 -34 -38q-15 0 -24.5 9.5t-9.5 25.5q0 31 32 50.5t83 19.5q58 0 94 -27t36 -73q0 -77 -87 -89v-1q48 -5 74.5 -29t26.5 -66q0 -50 -37.5 -77.5t-105.5 -27.5z
M642 639l-483 -639h-45l483 639h45zM601 32q72 0 72 71v11q0 31 -19 49t-53 18t-53 -18t-19 -49v-11q0 -71 72 -71zM601 216q64 0 64 58v9q0 28 -17 44t-47 16q-31 0 -47.5 -15.5t-16.5 -44.5v-9q0 -58 64 -58z" />
    <glyph glyph-name="fiveeighths" unicode="&#x215d;" horiz-adv-x="779" 
d="M608 -8q-61 0 -101.5 29.5t-40.5 79.5v5q0 35 23 59.5t63 34.5q-73 20 -73 83v4q0 42 35.5 69t93.5 27q57 0 92.5 -27t35.5 -69v-4q0 -62 -74 -83q41 -10 64 -34.5t23 -58.5v-5q0 -51 -40 -80.5t-101 -29.5zM144 257q-54 0 -88 20t-34 52q0 15 9 23.5t24 8.5q33 0 33 -37
v-21q16 -8 42 -8q40 0 62.5 22t22.5 62q0 78 -82 78q-46 0 -75 -27h-15v209h225v-94h-40v14q0 16 -7 21.5t-25 5.5h-110v-108q32 17 73 17q55 0 91 -29t36 -86q0 -56 -38 -89.5t-104 -33.5zM638 639l-483 -639h-45l483 639h45zM608 32q72 0 72 71v11q0 31 -19 49t-53 18
t-53 -18t-19 -49v-11q0 -71 72 -71zM608 216q64 0 64 58v9q0 28 -17 44t-47 16q-31 0 -47.5 -15.5t-16.5 -44.5v-9q0 -58 64 -58z" />
    <glyph glyph-name="seveneighths" unicode="&#x215e;" horiz-adv-x="732" 
d="M561 -8q-61 0 -101.5 29.5t-40.5 79.5v5q0 35 23 59.5t63 34.5q-73 20 -73 83v4q0 42 35.5 69t93.5 27q57 0 92.5 -27t35.5 -69v-4q0 -62 -74 -83q41 -10 64 -34.5t23 -58.5v-5q0 -51 -40 -80.5t-101 -29.5zM129 261q-33 0 -33 32q0 10 10 30l121 260h-128
q-17 0 -23.5 -6.5t-6.5 -23.5v-16h-40v102h244v-56l-104 -284q-14 -38 -40 -38zM587 639l-483 -639h-45l483 639h45zM561 32q72 0 72 71v11q0 31 -19 49t-53 18t-53 -18t-19 -49v-11q0 -71 72 -71zM561 216q64 0 64 58v9q0 28 -17 44t-47 16q-31 0 -47.5 -15.5t-16.5 -44.5
v-9q0 -58 64 -58z" />
    <glyph glyph-name="minus" unicode="&#x2212;" horiz-adv-x="478" 
d="M50 341h378v-52h-378v52z" />
    <glyph glyph-name="approxequal" unicode="&#x2248;" horiz-adv-x="512" 
d="M164 383q-26 0 -38.5 -10t-20.5 -35h-55q15 100 109 100q41 0 104.5 -16.5t88.5 -16.5t37.5 10t18.5 35h54q-11 -100 -100 -100q-39 0 -105.5 16.5t-92.5 16.5zM164 202q-26 0 -38.5 -10t-20.5 -35h-55q15 100 109 100q41 0 104.5 -16.5t88.5 -16.5t37.5 10t18.5 35h54
q-11 -100 -100 -100q-39 0 -105.5 16.5t-92.5 16.5z" />
    <glyph glyph-name="notequal" unicode="&#x2260;" horiz-adv-x="512" 
d="M394 543l-58 -122h121v-52h-146l-51 -108h197v-52h-222l-61 -129h-56l61 129h-124v52h149l51 108h-200v52h225l58 122h56z" />
    <glyph glyph-name="lessequal" unicode="&#x2264;" horiz-adv-x="472" 
d="M50 354l372 160v-57l-310 -133l310 -150v-58l-372 180v58zM50 0v52h372v-52h-372z" />
    <glyph glyph-name="greaterequal" unicode="&#x2265;" horiz-adv-x="472" 
d="M422 354v-58l-372 -180v58l309 150l-309 133v57zM422 0h-372v52h372v-52z" />
    <glyph glyph-name="uni24C5" unicode="&#x24c5;" horiz-adv-x="740" 
d="M370 -14q-142 0 -238.5 97t-96.5 234q0 138 97 236t238 98q143 0 239 -97.5t96 -236.5q0 -138 -96 -234.5t-239 -96.5zM370 27q122 0 205 85.5t83 204.5q0 120 -83 206.5t-205 86.5q-120 0 -204 -86.5t-84 -206.5q0 -119 84 -204.5t204 -85.5zM231 144v35h33q16 0 16 17
v244q0 11 -3.5 14.5t-12.5 3.5h-33v38h177q121 0 121 -100q0 -97 -127 -97h-52v-100q0 -14 5 -17t19 -3h36v-35h-179zM390 458h-40v-127h42q34 0 48.5 16.5t14.5 49.5q0 31 -14 46t-51 15z" />
    <glyph glyph-name="f_t" unicode="&#xe22f;" horiz-adv-x="664" 
d="M523 -13q-68 0 -104.5 32t-36.5 114v298h-198v-347q0 -29 10.5 -37t51.5 -8h24v-39h-239v39h27q26 0 34 8.5t8 34.5v349h-72v48h72v54q0 79 44.5 113t106.5 34q49 0 78.5 -19.5t29.5 -57.5q0 -20 -12.5 -33t-32.5 -13q-45 0 -45 48v28q-6 5 -20 5q-65 0 -65 -97v-62h185
q21 13 29 41.5t18 98.5h50v-140h154v-48h-154v-302q0 -49 19 -68t58 -19q43 0 85 16v-30q-11 -17 -38.5 -29t-66.5 -12z" />
    <glyph glyph-name="f_f_t" unicode="&#xe230;" horiz-adv-x="946" 
d="M28 479h72v26q0 47 16 81t44 51t57.5 24.5t63.5 7.5q100 0 121 -53q37 64 131 64q49 0 78.5 -19.5t29.5 -57.5q0 -20 -12.5 -33t-32.5 -13q-45 0 -45 48v30q-7 3 -20 3q-65 0 -65 -97v-62h185q21 13 29 41.5t18 98.5h50v-140h154v-48h-154v-302q0 -49 19 -68t58 -19
q43 0 85 16v-30q-11 -17 -38.5 -29t-66.5 -12q-68 0 -104.5 32t-36.5 114v298h-198v-347q0 -29 10.5 -37t51.5 -8h24v-39h-239v39h27q26 0 34 8.5t8 34.5v349h-198v-347q0 -29 10.5 -37t51.5 -8h24v-39h-239v39h27q26 0 34 8.5t8 34.5v349h-72v48zM184 479h198v54v18
q-7 -5 -21 -5q-45 0 -45 48v30q-12 3 -31 3q-52 0 -76.5 -26.5t-24.5 -87.5v-34z" />
    <glyph glyph-name="zero.tab" unicode="&#xe44f;" horiz-adv-x="600" 
d="M300 -15q-109 0 -181.5 80t-72.5 240v43q0 147 69.5 226t184.5 79t184.5 -79t69.5 -226v-43q0 -161 -72 -240.5t-182 -79.5zM300 36q167 0 167 260v71q0 115 -44 173t-123 58t-123 -58t-44 -173v-71q0 -260 167 -260z" />
    <glyph glyph-name="one.tab" unicode="&#xe450;" horiz-adv-x="600" 
d="M490 0h-360v45h95q28 0 40 10.5t12 42.5v467l-155 -184v74l155 184h87v-541q0 -32 12 -42.5t40 -10.5h74v-45z" />
    <glyph glyph-name="two.tab" unicode="&#xe451;" horiz-adv-x="600" 
d="M523 0h-448v73q95 58 152.5 97.5t106 85.5t69.5 92t21 99q0 78 -42.5 114.5t-116.5 36.5q-55 0 -89 -17v-38q0 -58 -49 -58q-21 0 -34 14t-13 38q0 51 59 83.5t147 32.5q106 0 167 -50.5t61 -149.5q0 -49 -17 -93t-44 -78.5t-75.5 -72.5t-95 -67t-120.5 -71h258
q27 0 37.5 10.5t10.5 38.5v26h55v-146z" />
    <glyph glyph-name="three.tab" unicode="&#xe452;" horiz-adv-x="600" 
d="M288 -10q-89 0 -147 34t-58 84q0 23 13 36t34 13q47 0 47 -58v-36q37 -20 93 -20q78 0 119.5 33.5t41.5 99.5q0 124 -148 124h-85v59h85q63 0 94.5 31.5t31.5 87.5q0 120 -141 120q-50 0 -78 -17v-38q0 -58 -49 -58q-21 0 -34 14t-13 38q0 51 53.5 83.5t133.5 32.5
q96 0 154.5 -47t58.5 -123q0 -63 -36.5 -102t-103.5 -48v-3q76 -8 120 -51t44 -114q0 -81 -61 -128t-169 -47z" />
    <glyph glyph-name="four.tab" unicode="&#xe453;" horiz-adv-x="600" 
d="M65 179v53l286 407h87v-407h89v-53h-89v-81q0 -32 12 -42.5t40 -10.5h46v-45h-289v45h52q28 0 40 10.5t12 42.5v81h-286zM351 548l-222 -316h222v316z" />
    <glyph glyph-name="five.tab" unicode="&#xe454;" horiz-adv-x="600" 
d="M288 -10q-89 0 -147 34t-58 84q0 23 13 36t34 13q47 0 47 -58v-36q37 -20 91 -20q78 0 120.5 41t42.5 115q0 139 -148 139q-80 0 -134 -47h-26v348h368v-146h-55v30q0 27 -10 36t-38 9h-205v-204q58 29 124 29q89 0 150 -48.5t61 -144.5q0 -95 -62 -152.5t-168 -57.5z
" />
    <glyph glyph-name="six.tab" unicode="&#xe455;" horiz-adv-x="600" 
d="M540 207q0 -100 -66 -161t-170 -61q-110 0 -175 71.5t-65 212.5v53q0 171 75 251t199 80q83 0 135 -32.5t52 -83.5q0 -24 -13 -38t-34 -14q-49 0 -49 58v39q-29 16 -79 16q-199 0 -199 -262v-20q41 103 174 103q102 0 158.5 -60t56.5 -147v-5zM307 42q69 0 107.5 43
t38.5 120v8q0 68 -34.5 108.5t-105.5 40.5q-70 0 -116 -37.5t-46 -96.5v-5q0 -91 43.5 -136t112.5 -45z" />
    <glyph glyph-name="seven.tab" unicode="&#xe456;" horiz-adv-x="600" 
d="M260 0q-18 0 -29.5 11.5t-11.5 31.5q0 13 8 34l229 488h-274q-23 0 -32.5 -8.5t-9.5 -33.5v-34h-55v150h431v-81l-206 -510q-16 -48 -50 -48z" />
    <glyph glyph-name="eight.tab" unicode="&#xe457;" horiz-adv-x="600" 
d="M301 -14q-97 0 -163 51t-66 136v8q0 60 38 101.5t105 58.5q-56 16 -89 52.5t-33 90.5v5q0 71 58 117t150 46q91 0 149 -45.5t58 -116.5v-6q0 -54 -33.5 -90.5t-88.5 -52.5q66 -17 104.5 -58.5t38.5 -100.5v-8q0 -86 -66 -137t-162 -51zM301 45q141 0 141 130v16
q0 55 -38 87.5t-103 32.5q-66 0 -104 -32.5t-38 -87.5v-16q0 -130 142 -130zM301 367q58 0 92 26.5t34 78.5v15q0 49 -33.5 78t-92.5 29t-93 -29t-34 -78v-15q0 -52 34 -78.5t93 -26.5z" />
    <glyph glyph-name="nine.tab" unicode="&#xe458;" horiz-adv-x="600" 
d="M262 -15q-83 0 -135 32.5t-52 83.5q0 24 13 38t34 14q49 0 49 -58v-39q28 -16 79 -16q199 0 199 262v20q-41 -103 -174 -103q-101 0 -158 60.5t-57 146.5v5q0 100 66 161t170 61q110 0 175 -71.5t65 -212.5v-53q0 -170 -75 -250.5t-199 -80.5zM287 276q70 0 116 37.5
t46 96.5v5q0 91 -44 137t-112 46t-107 -44t-39 -121v-8q0 -68 34.5 -108.5t105.5 -40.5z" />
    <glyph glyph-name="cent.tab" unicode="&#xe459;" horiz-adv-x="600" 
d="M308 -107h-49l8 104q-78 19 -122.5 84t-44.5 161v1q0 113 60.5 176t147.5 71l7 84h49l-7 -84q63 -5 103 -34t40 -74q0 -21 -12.5 -34.5t-34.5 -13.5q-51 0 -51 58v32q-15 14 -49 16l-32 -392q10 -2 33 -2q75 0 143 44v-41q-48 -60 -166 -60q-10 0 -15 1zM189 232
q0 -134 84 -172l31 378q-51 -9 -83 -51t-32 -119v-36z" />
    <glyph glyph-name="dollar.tab" unicode="&#xe45a;" horiz-adv-x="600" 
d="M288 -107h-49l8 94q-76 7 -120.5 40t-44.5 81q0 25 13 39t34 14q49 0 49 -58v-36q28 -20 75 -23l23 248q-56 12 -85 28q-83 45 -83 148q0 87 57 134t144 50l6 66h49l-6 -67q65 -8 106 -38t41 -75q0 -25 -13 -39t-34 -14q-49 0 -49 58v35q-23 13 -57 16l-21 -237
q92 -18 125 -42q63 -46 63 -135q0 -95 -61.5 -143.5t-161.5 -51.5zM408 250q-21 16 -84 31l-22 -238q65 5 99.5 36.5t34.5 97.5q0 51 -28 73zM230 389q19 -12 53 -21l20 226q-113 -11 -113 -122q0 -60 40 -83z" />
    <glyph glyph-name="Euro.tab" unicode="&#xe45b;" horiz-adv-x="600" 
d="M408 341h-216v-60v-3h216v-53h-213q12 -89 61.5 -135t130.5 -46q97 0 160 67l1 -57q-54 -69 -174 -69q-107 0 -177.5 62t-87.5 178h-69v53h65v16v47h-65v53h66q9 118 80 188.5t187 70.5q81 0 134 -32.5t53 -83.5q0 -24 -13 -38t-34 -14q-49 0 -49 58v36q-29 16 -76 16
q-99 0 -146.5 -55.5t-49.5 -145.5h216v-53z" />
    <glyph glyph-name="C.alt" unicode="&#xe482;" horiz-adv-x="614" 
d="M331 653q110 0 161 -74q4 18 8.5 33t7.5 21l3 6h42v-185h-58q-7 76 -46 110t-116 34q-99 0 -146 -68.5t-47 -178.5v-40q0 -270 214 -270q117 0 200 74v-46q-26 -34 -81 -59t-129 -25q-140 0 -217 88.5t-77 250.5v2q0 150 76 238.5t205 88.5z" />
    <glyph glyph-name="R.alt" unicode="&#xe491;" horiz-adv-x="601" 
d="M465 0l-264 294v-203q0 -29 13 -37.5t49 -8.5h44v-45h-282v45h37q28 0 40 10.5t12 42.5v438q0 32 -12 42.5t-40 10.5h-37v50h305q102 0 154 -47t52 -133q0 -85 -53.5 -129.5t-146.5 -44.5h-22l168 -186q33 -36 47.5 -45t42.5 -9h19v-45h-126zM201 326h115q72 0 101 32.5
t29 102.5q0 66 -27.5 95t-98.5 29h-119v-259z" />
    <glyph glyph-name="a.alt" unicode="&#xe4c0;" horiz-adv-x="577" 
d="M490 479v-400q0 -23 10 -31.5t45 -8.5h15v-39h-139q-15 57 -15 120q-17 -62 -61.5 -97t-109.5 -35q-90 0 -142.5 72t-52.5 192v1q0 111 60 174t143 63q124 0 163 -127q0 27 9 56t17 45l9 15h49zM261 433q-131 0 -131 -173v-30q0 -91 31 -140.5t92 -49.5q62 0 107.5 52.5
t45.5 135.5v18q0 91 -41 139t-104 48z" />
    <glyph glyph-name="g.alt" unicode="&#xe4c6;" horiz-adv-x="582" 
d="M260 433q-133 0 -133 -160v-32q0 -168 129 -168q64 0 111.5 46.5t47.5 121.5v16q0 81 -45 128.5t-110 47.5zM257 -155q-92 0 -143.5 28t-51.5 76q0 25 15.5 38.5t38.5 13.5q22 0 36.5 -14t14.5 -38v-36q25 -18 77 -18q171 0 171 199v47q-35 -119 -177 -119
q-95 0 -148 64.5t-53 174.5v1q0 103 58.5 165.5t145.5 62.5q140 0 174 -115l10 104h140v-48h-7q-36 0 -47.5 -10.5t-11.5 -46.5v-268q0 -130 -63.5 -195.5t-178.5 -65.5z" />
    <glyph glyph-name="idotaccent" horiz-adv-x="264" 
d="M122 554q-23 0 -39 16t-16 38t16.5 38.5t38.5 16.5t38.5 -16.5t16.5 -38.5t-16 -38t-39 -16zM174 479v-397q0 -28 9 -35.5t43 -7.5h20v-39h-226v39h28q26 0 34 8.5t8 34.5v292q0 36 -11.5 46.5t-47.5 10.5h-11v48h154z" />
    <glyph glyph-name="space_uni0326" 
d="M145 -87q0 18 15 31t33 13q23 0 37.5 -15t14.5 -44q0 -79 -107 -95v27q40 10 50 36q-43 1 -43 47z" />
    <glyph glyph-name="space.tab" horiz-adv-x="300" 
 />
    <glyph glyph-name="sterling.tab" horiz-adv-x="600" 
d="M104 283v56h54l-3 98q-4 104 53.5 160t148.5 56q71 0 112 -33.5t41 -82.5q0 -24 -13 -37.5t-34 -13.5q-22 0 -35 14.5t-13 41.5v48q-26 7 -53 7q-59 0 -91 -38.5t-33 -130.5l-2 -89h167v-56h-168l-1 -63q-1 -68 -19 -100t-58 -49h256q27 0 37.5 10.5t10.5 38.5v26h55
v-146h-432v71q41 8 61 36t18 95l-3 81h-56z" />
    <glyph glyph-name="yen.tab" horiz-adv-x="600" 
d="M84 196h169v63h-169v53h161l-123 223q-21 35 -33 44.5t-36 9.5h-13v50h241v-50h-30q-34 0 -41.5 -15t11.5 -48l90 -169l91 155q24 41 16 59t-52 18h-14v50h208v-50h-12q-24 0 -36 -10t-33 -48l-128 -219h156v-53h-167v-63h168v-53h-168v-45q0 -32 12 -42.5t40 -10.5h38
v-45h-267v45h38q28 0 40 10.5t12 42.5v45h-169v53z" />
    <glyph glyph-name="florin.tab" horiz-adv-x="600" 
d="M104 -155q-44 0 -70.5 20.5t-26.5 54.5q0 22 12.5 36.5t33.5 14.5q48 0 48 -47v-41h5q71 0 86 135l37 322h-84v56h91l16 137q5 42 22.5 72.5t42.5 46t50.5 22t53.5 6.5q49 0 80.5 -20.5t31.5 -59.5q0 -21 -14 -34.5t-36 -13.5q-51 0 -51 50v36h-12q-37 0 -57.5 -27.5
t-25.5 -69.5l-17 -145h130v-56h-137l-36 -314q-6 -52 -24.5 -89t-44.5 -56t-51.5 -27.5t-52.5 -8.5z" />
    <glyph glyph-name="percent.tab" horiz-adv-x="700" 
d="M127 512v-34q0 -109 64 -109t64 109v34q0 96 -64 96t-64 -96zM191 328q-59 0 -99.5 41t-40.5 120v8q0 73 39 114.5t101 41.5q63 0 101.5 -41.5t38.5 -114.5v-8q0 -80 -39.5 -120.5t-100.5 -40.5zM446 137q0 -109 64 -109t64 109v34q0 96 -64 96t-64 -96v-34zM650 148
q0 -80 -39.5 -120.5t-100.5 -40.5q-59 0 -99.5 41t-40.5 120v8q0 73 39 114.5t101 41.5q63 0 101.5 -41.5t38.5 -114.5v-8zM601 639l-440 -639h-58l440 639h58z" />
    <glyph glyph-name="perthousand.tab" horiz-adv-x="1000" 
d="M117 512v-34q0 -109 64 -109t64 109v34q0 96 -64 96t-64 -96zM181 328q-59 0 -99.5 41t-40.5 120v8q0 73 39 114.5t101 41.5q63 0 101.5 -41.5t38.5 -114.5v-8q0 -80 -39.5 -120.5t-100.5 -40.5zM436 171v-34q0 -109 64 -109t64 109v34q0 96 -64 96t-64 -96zM500 -13
q-59 0 -99.5 41t-40.5 120v8q0 73 39 114.5t101 41.5q63 0 101.5 -41.5t38.5 -114.5v-8q0 -80 -39.5 -120.5t-100.5 -40.5zM756 171v-34q0 -109 64 -109t64 109v34q0 96 -64 96t-64 -96zM820 -13q-59 0 -99.5 41t-40.5 120v8q0 73 39 114.5t101 41.5q63 0 101.5 -41.5
t38.5 -114.5v-8q0 -80 -39.5 -120.5t-100.5 -40.5zM591 639l-440 -639h-58l440 639h58z" />
    <glyph glyph-name="plus.tab" horiz-adv-x="600" 
d="M328 513v-172h161v-52h-161v-173h-56v173h-161v52h161v172h56z" />
    <glyph glyph-name="minus.tab" horiz-adv-x="600" 
d="M111 341h378v-52h-378v52z" />
    <glyph glyph-name="plusminus.tab" horiz-adv-x="600" 
d="M328 513v-157h161v-52h-161v-158h-56v158h-161v52h161v157h56zM111 0v52h378v-52h-378z" />
    <glyph glyph-name="multiply.tab" horiz-adv-x="600" 
d="M470 442l-134 -134l134 -134l-36 -36l-134 134l-134 -134l-36 36l134 134l-134 134l36 36l134 -134l134 134z" />
    <glyph glyph-name="divide.tab" horiz-adv-x="600" 
d="M111 341h378v-52h-378v52zM300 102q-24 0 -41.5 17t-17.5 41t18 41.5t41 17.5q25 0 42 -17.5t17 -41.5t-17 -41t-42 -17zM300 410q-24 0 -41.5 17t-17.5 41t18 41.5t41 17.5q25 0 42 -17.5t17 -41.5t-17 -41t-42 -17z" />
    <glyph glyph-name="equal.tab" horiz-adv-x="600" 
d="M99 261h402v-52h-402v52zM99 421h402v-52h-402v52z" />
    <glyph glyph-name="notequal.tab" horiz-adv-x="600" 
d="M438 543l-58 -122h121v-52h-146l-51 -108h197v-52h-222l-61 -129h-56l61 129h-124v52h149l51 108h-200v52h225l58 122h56z" />
    <glyph glyph-name="approxequal.tab" horiz-adv-x="600" 
d="M208 383q-26 0 -38.5 -10t-20.5 -35h-55q15 100 109 100q41 0 104.5 -16.5t88.5 -16.5t37.5 10t18.5 35h54q-11 -100 -100 -100q-39 0 -105.5 16.5t-92.5 16.5zM208 202q-26 0 -38.5 -10t-20.5 -35h-55q15 100 109 100q41 0 104.5 -16.5t88.5 -16.5t37.5 10t18.5 35h54
q-11 -100 -100 -100q-39 0 -105.5 16.5t-92.5 16.5z" />
    <glyph glyph-name="less.tab" horiz-adv-x="600" 
d="M114 344l372 180v-57l-313 -152l313 -151v-58l-372 180v58z" />
    <glyph glyph-name="greater.tab" horiz-adv-x="600" 
d="M486 344v-58l-372 -180v58l313 151l-313 152v57z" />
    <glyph glyph-name="lessequal.tab" horiz-adv-x="600" 
d="M114 354l372 160v-57l-310 -133l310 -150v-58l-372 180v58zM114 0v52h372v-52h-372z" />
    <glyph glyph-name="greaterequal.tab" horiz-adv-x="600" 
d="M486 354v-58l-372 -180v58l309 150l-309 133v57zM486 0h-372v52h372v-52z" />
    <glyph glyph-name="period.tab" horiz-adv-x="300" 
d="M150 -7q-24 0 -41.5 17t-17.5 41t18 41.5t41 17.5q25 0 42 -17.5t17 -41.5t-17 -41t-42 -17z" />
    <glyph glyph-name="comma.tab" horiz-adv-x="300" 
d="M94 53q0 24 17 40.5t42 16.5q27 0 45 -20.5t18 -62.5q0 -62 -34.5 -101t-96.5 -48v35q32 8 50.5 30.5t18.5 52.5q-29 -1 -44.5 15t-15.5 42z" />
    <glyph glyph-name="colon.tab" horiz-adv-x="300" 
d="M150 -7q-24 0 -41.5 17t-17.5 41t18 41.5t41 17.5q25 0 42 -17.5t17 -41.5t-17 -41t-42 -17zM150 303q-24 0 -41.5 17t-17.5 41t18 41.5t41 17.5q25 0 42 -17.5t17 -41.5t-17 -41t-42 -17z" />
    <glyph glyph-name="semicolon.tab" horiz-adv-x="300" 
d="M94 53q0 -26 15.5 -42t44.5 -15q0 -30 -18.5 -52.5t-50.5 -30.5v-35q62 9 96.5 48t34.5 101q0 42 -18 62.5t-45 20.5q-25 0 -42 -16.5t-17 -40.5zM150 303q-24 0 -41.5 17t-17.5 41t18 41.5t41 17.5q25 0 42 -17.5t17 -41.5t-17 -41t-42 -17z" />
    <glyph glyph-name="parenleft.tab" horiz-adv-x="300" 
d="M155 299v-31q0 -189 134 -325v-39q-31 16 -65.5 45.5t-70.5 74t-59 109t-23 134.5v33q0 73 23 139.5t59 111.5t70.5 74.5t65.5 45.5v-39q-134 -118 -134 -333z" />
    <glyph glyph-name="parenright.tab" horiz-adv-x="300" 
d="M145 268v31q0 215 -134 333v39q31 -16 65.5 -45.5t70.5 -74.5t59 -111.5t23 -139.5v-33q0 -70 -23 -134.5t-59 -109t-70.5 -74t-65.5 -45.5v39q134 136 134 325z" />
    <glyph glyph-name="bracketleft.tab" horiz-adv-x="300" 
d="M303 -98h-226v771h226v-38h-147v-699h147v-34z" />
    <glyph glyph-name="bracketright.tab" horiz-adv-x="300" 
d="M223 -98h-226v34h147v699h-147v38h226v-771z" />
    <glyph glyph-name="braceleft.tab" horiz-adv-x="300" 
d="M89 291v-3q68 -3 97.5 -35t29.5 -78q0 -27 -13.5 -80.5t-13.5 -82.5q0 -42 20 -58.5t65 -13.5v-34q-167 -6 -167 105q0 33 21 83.5t21 81.5q0 81 -104 87v53q104 6 104 84q0 27 -21 78.5t-21 84.5q0 112 167 106v-38q-45 3 -65 -13t-20 -56q0 -27 13.5 -79t13.5 -79
q0 -105 -127 -113z" />
    <glyph glyph-name="braceright.tab" horiz-adv-x="300" 
d="M211 288v3q-127 8 -127 113q0 27 13.5 79t13.5 79q0 40 -20 56t-65 13v38q167 6 167 -106q0 -33 -21 -84.5t-21 -78.5q0 -78 104 -84v-53q-104 -6 -104 -87q0 -31 21 -81.5t21 -83.5q0 -111 -167 -105v34q45 -3 65 13.5t20 58.5q0 29 -13.5 82.5t-13.5 80.5q0 46 29.5 78
t97.5 35z" />
    <glyph glyph-name="zero.num" horiz-adv-x="372" 
d="M186 292q87 0 87 143v44q0 128 -87 128t-87 -128v-44q0 -143 87 -143zM186 254q-68 0 -113 48.5t-45 142.5v19q0 88 43 135.5t115 47.5t115 -47.5t43 -135.5v-19q0 -95 -44.5 -143t-113.5 -48z" />
    <glyph glyph-name="one.num" horiz-adv-x="253" 
d="M232 263h-192v34h33q17 0 24 6t7 25v259l-70 -78v52l70 78h69v-311q0 -19 7 -25t23 -6h29v-34z" />
    <glyph glyph-name="two.num" horiz-adv-x="305" 
d="M276 263h-251v55q91 57 133.5 107.5t42.5 105.5q0 39 -19.5 58t-52.5 19q-23 0 -38 -9v-19q0 -38 -34 -38q-15 0 -24 9.5t-9 25.5q0 31 33 50.5t85 19.5q59 0 95 -28.5t36 -86.5q0 -64 -48 -113t-146 -105h126q18 0 24.5 6.5t6.5 22.5v13h40v-93z" />
    <glyph glyph-name="three.num" horiz-adv-x="308" 
d="M138 257q-56 0 -90 20t-34 52q0 15 9 23.5t24 8.5q34 0 34 -37v-20q15 -9 45 -9q40 0 62 18.5t22 53.5q0 69 -81 69h-45v40h44q72 0 72 67q0 65 -72 65q-24 0 -38 -9v-19q0 -38 -34 -38q-15 0 -24.5 9.5t-9.5 25.5q0 31 32 50.5t83 19.5q58 0 94 -27t36 -73
q0 -77 -87 -89v-1q48 -5 74.5 -29t26.5 -66q0 -50 -37.5 -77.5t-105.5 -27.5z" />
    <glyph glyph-name="four.num" horiz-adv-x="334" 
d="M24 368v38l167 233h67v-233h49v-38h-49v-40q0 -19 7 -25t23 -6h24v-34h-180v34h26q17 0 24 6t7 25v40h-165zM189 575l-121 -169h121v169z" />
    <glyph glyph-name="five.num" horiz-adv-x="309" 
d="M139 257q-54 0 -88 20t-34 52q0 15 9 23.5t24 8.5q33 0 33 -37v-21q16 -8 42 -8q40 0 62.5 22t22.5 62q0 78 -82 78q-46 0 -75 -27h-15v209h225v-94h-40v14q0 16 -7 21.5t-25 5.5h-110v-108q32 17 73 17q55 0 91 -29t36 -86q0 -56 -38 -89.5t-104 -33.5z" />
    <glyph glyph-name="six.num" horiz-adv-x="354" 
d="M328 384q0 -59 -40.5 -94.5t-107.5 -35.5q-72 0 -112 44t-40 127v28q0 98 47.5 146t126.5 48q52 0 84 -19.5t32 -50.5q0 -16 -9 -25.5t-24 -9.5q-34 0 -34 38v19q-15 9 -41 9q-111 0 -111 -146v-14q24 59 104 59q60 0 92.5 -34.5t32.5 -85.5v-3zM181 294q78 0 78 87v5
q0 82 -75 82q-38 0 -61.5 -20.5t-23.5 -54.5v-3q0 -49 22.5 -72.5t59.5 -23.5z" />
    <glyph glyph-name="seven.num" horiz-adv-x="297" 
d="M124 261q-33 0 -33 32q0 10 10 30l121 260h-128q-17 0 -23.5 -6.5t-6.5 -23.5v-16h-40v102h244v-56l-104 -284q-14 -38 -40 -38z" />
    <glyph glyph-name="eight.num" horiz-adv-x="333" 
d="M167 255q-61 0 -101.5 29.5t-40.5 79.5v5q0 35 23 59.5t63 34.5q-73 20 -73 83v4q0 42 35.5 69t93.5 27q57 0 92.5 -27t35.5 -69v-4q0 -62 -74 -83q41 -10 64 -34.5t23 -58.5v-5q0 -51 -40 -80.5t-101 -29.5zM167 295q72 0 72 71v11q0 31 -19 49t-53 18t-53 -18t-19 -49
v-11q0 -71 72 -71zM167 479q64 0 64 58v9q0 28 -17 44t-47 16q-31 0 -47.5 -15.5t-16.5 -44.5v-9q0 -58 64 -58z" />
    <glyph glyph-name="nine.num" horiz-adv-x="354" 
d="M170 432q37 0 60.5 20t23.5 54v4q0 49 -22.5 73t-59.5 24t-57 -23t-20 -66v-5q0 -81 75 -81zM151 254q-51 0 -83 19.5t-32 50.5q0 16 9 25.5t24 9.5q34 0 34 -38v-21q13 -8 41 -8q111 0 111 147v13q-26 -59 -104 -59q-60 0 -93 34.5t-33 85.5v3q0 59 40.5 95t107.5 36
q72 0 112 -44t40 -127v-28q0 -97 -47.5 -145.5t-126.5 -48.5z" />
    <glyph glyph-name="zero.den" horiz-adv-x="372" 
d="M186 29q87 0 87 143v44q0 128 -87 128t-87 -128v-44q0 -143 87 -143zM186 -9q-68 0 -113 48.5t-45 142.5v19q0 88 43 135.5t115 47.5t115 -47.5t43 -135.5v-19q0 -95 -44.5 -143t-113.5 -48z" />
    <glyph glyph-name="one.den" horiz-adv-x="253" 
d="M232 0h-192v34h33q17 0 24 6t7 25v259l-70 -78v52l70 78h69v-311q0 -19 7 -25t23 -6h29v-34z" />
    <glyph glyph-name="two.den" horiz-adv-x="305" 
d="M276 0h-251v55q91 57 133.5 107.5t42.5 105.5q0 39 -19.5 58t-52.5 19q-23 0 -38 -9v-19q0 -38 -34 -38q-15 0 -24 9.5t-9 25.5q0 31 33 50.5t85 19.5q59 0 95 -28.5t36 -86.5q0 -64 -48 -113t-146 -105h126q18 0 24.5 6.5t6.5 22.5v13h40v-93z" />
    <glyph glyph-name="three.den" horiz-adv-x="308" 
d="M138 -6q-56 0 -90 20t-34 52q0 15 9 23.5t24 8.5q34 0 34 -37v-20q15 -9 45 -9q40 0 62 18.5t22 53.5q0 69 -81 69h-45v40h44q72 0 72 67q0 65 -72 65q-24 0 -38 -9v-19q0 -38 -34 -38q-15 0 -24.5 9.5t-9.5 25.5q0 31 32 50.5t83 19.5q58 0 94 -27t36 -73q0 -77 -87 -89
v-1q48 -5 74.5 -29t26.5 -66q0 -50 -37.5 -77.5t-105.5 -27.5z" />
    <glyph glyph-name="four.den" horiz-adv-x="334" 
d="M24 105v38l167 233h67v-233h49v-38h-49v-40q0 -19 7 -25t23 -6h24v-34h-180v34h26q17 0 24 6t7 25v40h-165zM189 312l-121 -169h121v169z" />
    <glyph glyph-name="five.den" horiz-adv-x="309" 
d="M139 -6q-54 0 -88 20t-34 52q0 15 9 23.5t24 8.5q33 0 33 -37v-21q16 -8 42 -8q40 0 62.5 22t22.5 62q0 78 -82 78q-46 0 -75 -27h-15v209h225v-94h-40v14q0 16 -7 21.5t-25 5.5h-110v-108q32 17 73 17q55 0 91 -29t36 -86q0 -56 -38 -89.5t-104 -33.5z" />
    <glyph glyph-name="six.den" horiz-adv-x="354" 
d="M328 121q0 -59 -40.5 -94.5t-107.5 -35.5q-72 0 -112 44t-40 127v28q0 98 47.5 146t126.5 48q52 0 84 -19.5t32 -50.5q0 -16 -9 -25.5t-24 -9.5q-34 0 -34 38v19q-15 9 -41 9q-111 0 -111 -146v-14q24 59 104 59q60 0 92.5 -34.5t32.5 -85.5v-3zM181 31q78 0 78 87v5
q0 82 -75 82q-38 0 -61.5 -20.5t-23.5 -54.5v-3q0 -49 22.5 -72.5t59.5 -23.5z" />
    <glyph glyph-name="seven.den" horiz-adv-x="297" 
d="M124 -2q-33 0 -33 32q0 10 10 30l121 260h-128q-17 0 -23.5 -6.5t-6.5 -23.5v-16h-40v102h244v-56l-104 -284q-14 -38 -40 -38z" />
    <glyph glyph-name="eight.den" horiz-adv-x="333" 
d="M167 -8q-61 0 -101.5 29.5t-40.5 79.5v5q0 35 23 59.5t63 34.5q-73 20 -73 83v4q0 42 35.5 69t93.5 27q57 0 92.5 -27t35.5 -69v-4q0 -62 -74 -83q41 -10 64 -34.5t23 -58.5v-5q0 -51 -40 -80.5t-101 -29.5zM167 32q72 0 72 71v11q0 31 -19 49t-53 18t-53 -18t-19 -49
v-11q0 -71 72 -71zM167 216q64 0 64 58v9q0 28 -17 44t-47 16q-31 0 -47.5 -15.5t-16.5 -44.5v-9q0 -58 64 -58z" />
    <glyph glyph-name="nine.den" horiz-adv-x="354" 
d="M170 169q37 0 60.5 20t23.5 54v4q0 49 -22.5 73t-59.5 24t-57 -23t-20 -66v-5q0 -81 75 -81zM151 -9q-51 0 -83 19.5t-32 50.5q0 16 9 25.5t24 9.5q34 0 34 -38v-21q13 -8 41 -8q111 0 111 147v13q-26 -59 -104 -59q-60 0 -93 34.5t-33 85.5v3q0 59 40.5 95t107.5 36
q72 0 112 -44t40 -127v-28q0 -97 -47.5 -145.5t-126.5 -48.5z" />
    <glyph glyph-name="zero.sub" horiz-adv-x="372" 
d="M186 -61q87 0 87 143v44q0 128 -87 128t-87 -128v-44q0 -143 87 -143zM186 -99q-68 0 -113 48.5t-45 142.5v19q0 88 43 135.5t115 47.5t115 -47.5t43 -135.5v-19q0 -95 -44.5 -143t-113.5 -48z" />
    <glyph glyph-name="one.sub" horiz-adv-x="253" 
d="M232 -90h-192v34h33q17 0 24 6t7 25v259l-70 -78v52l70 78h69v-311q0 -19 7 -25t23 -6h29v-34z" />
    <glyph glyph-name="two.sub" horiz-adv-x="305" 
d="M276 -90h-251v55q91 57 133.5 107.5t42.5 105.5q0 39 -19.5 58t-52.5 19q-23 0 -38 -9v-19q0 -38 -34 -38q-15 0 -24 9.5t-9 25.5q0 31 33 50.5t85 19.5q59 0 95 -28.5t36 -86.5q0 -64 -48 -113t-146 -105h126q18 0 24.5 6.5t6.5 22.5v13h40v-93z" />
    <glyph glyph-name="three.sub" horiz-adv-x="308" 
d="M138 -96q-56 0 -90 20t-34 52q0 15 9 23.5t24 8.5q34 0 34 -37v-20q15 -9 45 -9q40 0 62 18.5t22 53.5q0 69 -81 69h-45v40h44q72 0 72 67q0 65 -72 65q-24 0 -38 -9v-19q0 -38 -34 -38q-15 0 -24.5 9.5t-9.5 25.5q0 31 32 50.5t83 19.5q58 0 94 -27t36 -73
q0 -77 -87 -89v-1q48 -5 74.5 -29t26.5 -66q0 -50 -37.5 -77.5t-105.5 -27.5z" />
    <glyph glyph-name="four.sub" horiz-adv-x="334" 
d="M24 15v38l167 233h67v-233h49v-38h-49v-40q0 -19 7 -25t23 -6h24v-34h-180v34h26q17 0 24 6t7 25v40h-165zM189 222l-121 -169h121v169z" />
    <glyph glyph-name="five.sub" horiz-adv-x="309" 
d="M139 -96q-54 0 -88 20t-34 52q0 15 9 23.5t24 8.5q33 0 33 -37v-21q16 -8 42 -8q40 0 62.5 22t22.5 62q0 78 -82 78q-46 0 -75 -27h-15v209h225v-94h-40v14q0 16 -7 21.5t-25 5.5h-110v-108q32 17 73 17q55 0 91 -29t36 -86q0 -56 -38 -89.5t-104 -33.5z" />
    <glyph glyph-name="six.sub" horiz-adv-x="354" 
d="M328 31q0 -59 -40.5 -94.5t-107.5 -35.5q-72 0 -112 44t-40 127v28q0 98 47.5 146t126.5 48q52 0 84 -19.5t32 -50.5q0 -16 -9 -25.5t-24 -9.5q-34 0 -34 38v19q-15 9 -41 9q-111 0 -111 -146v-14q24 59 104 59q60 0 92.5 -34.5t32.5 -85.5v-3zM181 -59q78 0 78 87v5
q0 82 -75 82q-38 0 -61.5 -20.5t-23.5 -54.5v-3q0 -49 22.5 -72.5t59.5 -23.5z" />
    <glyph glyph-name="seven.sub" horiz-adv-x="297" 
d="M124 -92q-33 0 -33 32q0 10 10 30l121 260h-128q-17 0 -23.5 -6.5t-6.5 -23.5v-16h-40v102h244v-56l-104 -284q-14 -38 -40 -38z" />
    <glyph glyph-name="eight.sub" horiz-adv-x="333" 
d="M167 -98q-61 0 -101.5 29.5t-40.5 79.5v5q0 35 23 59.5t63 34.5q-73 20 -73 83v4q0 42 35.5 69t93.5 27q57 0 92.5 -27t35.5 -69v-4q0 -62 -74 -83q41 -10 64 -34.5t23 -58.5v-5q0 -51 -40 -80.5t-101 -29.5zM167 -58q72 0 72 71v11q0 31 -19 49t-53 18t-53 -18t-19 -49
v-11q0 -71 72 -71zM167 126q64 0 64 58v9q0 28 -17 44t-47 16q-31 0 -47.5 -15.5t-16.5 -44.5v-9q0 -58 64 -58z" />
    <glyph glyph-name="nine.sub" horiz-adv-x="354" 
d="M170 79q37 0 60.5 20t23.5 54v4q0 49 -22.5 73t-59.5 24t-57 -23t-20 -66v-5q0 -81 75 -81zM151 -99q-51 0 -83 19.5t-32 50.5q0 16 9 25.5t24 9.5q34 0 34 -38v-21q13 -8 41 -8q111 0 111 147v13q-26 -59 -104 -59q-60 0 -93 34.5t-33 85.5v3q0 59 40.5 95t107.5 36
q72 0 112 -44t40 -127v-28q0 -97 -47.5 -145.5t-126.5 -48.5z" />
    <glyph glyph-name="plus.sub" horiz-adv-x="258" 
d="M30 91h78v84h41v-84h79v-38h-79v-84h-41v84h-78v38z" />
    <glyph glyph-name="minus.sub" horiz-adv-x="258" 
d="M30 91h198v-38h-198v38z" />
    <glyph glyph-name="zero.sup" horiz-adv-x="372" 
d="M186 344q87 0 87 143v44q0 128 -87 128t-87 -128v-44q0 -143 87 -143zM186 306q-68 0 -113 48.5t-45 142.5v19q0 88 43 135.5t115 47.5t115 -47.5t43 -135.5v-19q0 -95 -44.5 -143t-113.5 -48z" />
    <glyph glyph-name="one.sup" horiz-adv-x="253" 
d="M232 315h-192v34h33q17 0 24 6t7 25v259l-70 -78v52l70 78h69v-311q0 -19 7 -25t23 -6h29v-34z" />
    <glyph glyph-name="two.sup" horiz-adv-x="305" 
d="M276 315h-251v55q91 57 133.5 107.5t42.5 105.5q0 39 -19.5 58t-52.5 19q-23 0 -38 -9v-19q0 -38 -34 -38q-15 0 -24 9.5t-9 25.5q0 31 33 50.5t85 19.5q59 0 95 -28.5t36 -86.5q0 -64 -48 -113t-146 -105h126q18 0 24.5 6.5t6.5 22.5v13h40v-93z" />
    <glyph glyph-name="three.sup" horiz-adv-x="308" 
d="M138 309q-56 0 -90 20t-34 52q0 15 9 23.5t24 8.5q34 0 34 -37v-20q15 -9 45 -9q40 0 62 18.5t22 53.5q0 69 -81 69h-45v40h44q72 0 72 67q0 65 -72 65q-24 0 -38 -9v-19q0 -38 -34 -38q-15 0 -24.5 9.5t-9.5 25.5q0 31 32 50.5t83 19.5q58 0 94 -27t36 -73
q0 -77 -87 -89v-1q48 -5 74.5 -29t26.5 -66q0 -50 -37.5 -77.5t-105.5 -27.5z" />
    <glyph glyph-name="four.sup" horiz-adv-x="334" 
d="M24 420v38l167 233h67v-233h49v-38h-49v-40q0 -19 7 -25t23 -6h24v-34h-180v34h26q17 0 24 6t7 25v40h-165zM189 627l-121 -169h121v169z" />
    <glyph glyph-name="five.sup" horiz-adv-x="309" 
d="M139 309q-54 0 -88 20t-34 52q0 15 9 23.5t24 8.5q33 0 33 -37v-21q16 -8 42 -8q40 0 62.5 22t22.5 62q0 78 -82 78q-46 0 -75 -27h-15v209h225v-94h-40v14q0 16 -7 21.5t-25 5.5h-110v-108q32 17 73 17q55 0 91 -29t36 -86q0 -56 -38 -89.5t-104 -33.5z" />
    <glyph glyph-name="six.sup" horiz-adv-x="354" 
d="M328 436q0 -59 -40.5 -94.5t-107.5 -35.5q-72 0 -112 44t-40 127v28q0 98 47.5 146t126.5 48q52 0 84 -19.5t32 -50.5q0 -16 -9 -25.5t-24 -9.5q-34 0 -34 38v19q-15 9 -41 9q-111 0 -111 -146v-14q24 59 104 59q60 0 92.5 -34.5t32.5 -85.5v-3zM181 346q78 0 78 87v5
q0 82 -75 82q-38 0 -61.5 -20.5t-23.5 -54.5v-3q0 -49 22.5 -72.5t59.5 -23.5z" />
    <glyph glyph-name="seven.sup" horiz-adv-x="297" 
d="M124 313q-33 0 -33 32q0 10 10 30l121 260h-128q-17 0 -23.5 -6.5t-6.5 -23.5v-16h-40v102h244v-56l-104 -284q-14 -38 -40 -38z" />
    <glyph glyph-name="eight.sup" horiz-adv-x="333" 
d="M167 307q-61 0 -101.5 29.5t-40.5 79.5v5q0 35 23 59.5t63 34.5q-73 20 -73 83v4q0 42 35.5 69t93.5 27q57 0 92.5 -27t35.5 -69v-4q0 -62 -74 -83q41 -10 64 -34.5t23 -58.5v-5q0 -51 -40 -80.5t-101 -29.5zM167 347q72 0 72 71v11q0 31 -19 49t-53 18t-53 -18t-19 -49
v-11q0 -71 72 -71zM167 531q64 0 64 58v9q0 28 -17 44t-47 16q-31 0 -47.5 -15.5t-16.5 -44.5v-9q0 -58 64 -58z" />
    <glyph glyph-name="nine.sup" horiz-adv-x="354" 
d="M170 484q37 0 60.5 20t23.5 54v4q0 49 -22.5 73t-59.5 24t-57 -23t-20 -66v-5q0 -81 75 -81zM151 306q-51 0 -83 19.5t-32 50.5q0 16 9 25.5t24 9.5q34 0 34 -38v-21q13 -8 41 -8q111 0 111 147v13q-26 -59 -104 -59q-60 0 -93 34.5t-33 85.5v3q0 59 40.5 95t107.5 36
q72 0 112 -44t40 -127v-28q0 -97 -47.5 -145.5t-126.5 -48.5z" />
    <glyph glyph-name="plus.sup" horiz-adv-x="258" 
d="M149 645v-84h79v-38h-79v-84h-41v84h-78v38h78v84h41z" />
    <glyph glyph-name="minus.sup" horiz-adv-x="258" 
d="M30 561h198v-38h-198v38z" />
    <glyph glyph-name="Cacute.alt" horiz-adv-x="614" 
d="M331 653q110 0 161 -74q4 18 8.5 33t7.5 21l3 6h42v-185h-58q-7 76 -46 110t-116 34q-99 0 -146 -68.5t-47 -178.5v-40q0 -270 214 -270q117 0 200 74v-46q-26 -34 -81 -59t-129 -25q-140 0 -217 88.5t-77 250.5v2q0 150 76 238.5t205 88.5zM288 675l-16 15l49 92
q21 40 54 40q19 0 31 -12.5t12 -32.5q0 -32 -40 -53z" />
    <glyph glyph-name="Ccaron.alt" horiz-adv-x="614" 
d="M331 653q110 0 161 -74q4 18 8.5 33t7.5 21l3 6h42v-185h-58q-7 76 -46 110t-116 34q-99 0 -146 -68.5t-47 -178.5v-40q0 -270 214 -270q117 0 200 74v-46q-26 -34 -81 -59t-129 -25q-140 0 -217 88.5t-77 250.5v2q0 150 76 238.5t205 88.5zM203 779l22 22l109 -41
l109 41l22 -22l-109 -99h-44z" />
    <glyph glyph-name="Ccedilla.alt" horiz-adv-x="614" 
d="M331 653q110 0 161 -74q4 18 8.5 33t7.5 21l3 6h42v-185h-58q-7 76 -46 110t-116 34q-99 0 -146 -68.5t-47 -178.5v-40q0 -270 214 -270q117 0 200 74v-46q-26 -34 -81 -59t-129 -25h-11v-24q83 -8 83 -76q0 -34 -25 -53t-69 -19q-49 0 -69 20v30q25 -10 47 -10
q46 0 46 38q0 42 -67 43v57q-110 19 -169.5 104.5t-59.5 228.5v2q0 150 76 238.5t205 88.5z" />
    <glyph glyph-name="Ccircumflex.alt" horiz-adv-x="614" 
d="M331 653q110 0 161 -74q4 18 8.5 33t7.5 21l3 6h42v-185h-58q-7 76 -46 110t-116 34q-99 0 -146 -68.5t-47 -178.5v-40q0 -270 214 -270q117 0 200 74v-46q-26 -34 -81 -59t-129 -25q-140 0 -217 88.5t-77 250.5v2q0 150 76 238.5t205 88.5zM433 680l-109 41l-109 -41
l-22 22l109 99h44l109 -99z" />
    <glyph glyph-name="Cdotaccent.alt" horiz-adv-x="614" 
d="M331 653q110 0 161 -74q4 18 8.5 33t7.5 21l3 6h42v-185h-58q-7 76 -46 110t-116 34q-99 0 -146 -68.5t-47 -178.5v-40q0 -270 214 -270q117 0 200 74v-46q-26 -34 -81 -59t-129 -25q-140 0 -217 88.5t-77 250.5v2q0 150 76 238.5t205 88.5zM324 692q-23 0 -39 16t-16 38
t16.5 38.5t38.5 16.5t38.5 -16.5t16.5 -38.5t-16 -38t-39 -16z" />
    <glyph glyph-name="Racute.alt" horiz-adv-x="601" 
d="M465 0l-264 294v-203q0 -29 13 -37.5t49 -8.5h44v-45h-282v45h37q28 0 40 10.5t12 42.5v438q0 32 -12 42.5t-40 10.5h-37v50h305q102 0 154 -47t52 -133q0 -85 -53.5 -129.5t-146.5 -44.5h-22l168 -186q33 -36 47.5 -45t42.5 -9h19v-45h-126zM201 326h115q72 0 101 32.5
t29 102.5q0 66 -27.5 95t-98.5 29h-119v-259zM254 675l-16 15l49 92q21 40 54 40q19 0 31 -12.5t12 -32.5q0 -32 -40 -53z" />
    <glyph glyph-name="Rcaron.alt" horiz-adv-x="601" 
d="M465 0l-264 294v-203q0 -29 13 -37.5t49 -8.5h44v-45h-282v45h37q28 0 40 10.5t12 42.5v438q0 32 -12 42.5t-40 10.5h-37v50h305q102 0 154 -47t52 -133q0 -85 -53.5 -129.5t-146.5 -44.5h-22l168 -186q33 -36 47.5 -45t42.5 -9h19v-45h-126zM201 326h115q72 0 101 32.5
t29 102.5q0 66 -27.5 95t-98.5 29h-119v-259zM159 779l22 22l109 -41l109 41l22 -22l-109 -99h-44z" />
    <glyph glyph-name="Rcommaaccent.alt" horiz-adv-x="597" 
d="M461 0l-264 294v-203q0 -29 13 -37.5t49 -8.5h44v-45h-282v45h37q28 0 40 10.5t12 42.5v438q0 32 -12 42.5t-40 10.5h-37v50h305q102 0 154 -47t52 -133q0 -85 -53.5 -129.5t-146.5 -44.5h-22l168 -186q33 -36 47.5 -45t42.5 -9h19v-45h-126zM197 326h115q72 0 101 32.5
t29 102.5q0 66 -27.5 95t-98.5 29h-119v-259zM309 -87q0 -46 43 -47q-10 -26 -50 -36v-27q107 16 107 95q0 29 -14.5 44t-37.5 15q-18 0 -33 -13t-15 -31z" />
    <glyph glyph-name="aacute.alt" horiz-adv-x="577" 
d="M490 479v-400q0 -23 10 -31.5t45 -8.5h15v-39h-139q-15 57 -15 120q-17 -62 -61.5 -97t-109.5 -35q-90 0 -142.5 72t-52.5 192v1q0 111 60 174t143 63q124 0 163 -127q0 27 9 56t17 45l9 15h49zM261 433q-131 0 -131 -173v-30q0 -91 31 -140.5t92 -49.5q62 0 107.5 52.5
t45.5 135.5v18q0 91 -41 139t-104 48zM239 529l-18 18l65 103q16 25 28 35.5t32 10.5q21 0 32.5 -12.5t11.5 -31.5q0 -30 -38 -54z" />
    <glyph glyph-name="abreve.alt" horiz-adv-x="577" 
d="M490 479v-400q0 -23 10 -31.5t45 -8.5h15v-39h-139q-15 57 -15 120q-17 -62 -61.5 -97t-109.5 -35q-90 0 -142.5 72t-52.5 192v1q0 111 60 174t143 63q124 0 163 -127q0 27 9 56t17 45l9 15h49zM261 433q-131 0 -131 -173v-30q0 -91 31 -140.5t92 -49.5q62 0 107.5 52.5
t45.5 135.5v18q0 91 -41 139t-104 48zM349 673h36q7 -53 -22.5 -94.5t-90.5 -41.5q-60 0 -89 41t-22 95h36q-2 -31 16 -51t59 -20t59.5 20t17.5 51z" />
    <glyph glyph-name="acircumflex.alt" horiz-adv-x="577" 
d="M490 479v-400q0 -23 10 -31.5t45 -8.5h15v-39h-139q-15 57 -15 120q-17 -62 -61.5 -97t-109.5 -35q-90 0 -142.5 72t-52.5 192v1q0 111 60 174t143 63q124 0 163 -127q0 27 9 56t17 45l9 15h49zM261 433q-131 0 -131 -173v-30q0 -91 31 -140.5t92 -49.5q62 0 107.5 52.5
t45.5 135.5v18q0 91 -41 139t-104 48zM393 530l-109 64l-109 -64l-19 22l106 127h44l106 -127z" />
    <glyph glyph-name="adieresis.alt" horiz-adv-x="577" 
d="M490 479v-400q0 -23 10 -31.5t45 -8.5h15v-39h-139q-15 57 -15 120q-17 -62 -61.5 -97t-109.5 -35q-90 0 -142.5 72t-52.5 192v1q0 111 60 174t143 63q124 0 163 -127q0 27 9 56t17 45l9 15h49zM261 433q-131 0 -131 -173v-30q0 -91 31 -140.5t92 -49.5q62 0 107.5 52.5
t45.5 135.5v18q0 91 -41 139t-104 48zM190 551q-22 0 -37.5 15t-15.5 37q0 21 15.5 36.5t37.5 15.5q21 0 36.5 -15.5t15.5 -36.5q0 -22 -15.5 -37t-36.5 -15zM362 551q-21 0 -36.5 15t-15.5 37q0 21 15.5 36.5t36.5 15.5q22 0 37.5 -15.5t15.5 -36.5q0 -22 -15.5 -37
t-37.5 -15z" />
    <glyph glyph-name="agrave.alt" horiz-adv-x="577" 
d="M490 479v-400q0 -23 10 -31.5t45 -8.5h15v-39h-139q-15 57 -15 120q-17 -62 -61.5 -97t-109.5 -35q-90 0 -142.5 72t-52.5 192v1q0 111 60 174t143 63q124 0 163 -127q0 27 9 56t17 45l9 15h49zM261 433q-131 0 -131 -173v-30q0 -91 31 -140.5t92 -49.5q62 0 107.5 52.5
t45.5 135.5v18q0 91 -41 139t-104 48zM340 547l-17 -19l-117 63q-45 23 -45 60q0 20 12 32.5t33 12.5q33 0 64 -46z" />
    <glyph glyph-name="amacron.alt" horiz-adv-x="577" 
d="M490 479v-400q0 -23 10 -31.5t45 -8.5h15v-39h-139q-15 57 -15 120q-17 -62 -61.5 -97t-109.5 -35q-90 0 -142.5 72t-52.5 192v1q0 111 60 174t143 63q124 0 163 -127q0 27 9 56t17 45l9 15h49zM261 433q-131 0 -131 -173v-30q0 -91 31 -140.5t92 -49.5q62 0 107.5 52.5
t45.5 135.5v18q0 91 -41 139t-104 48zM155 572v46h236v-46h-236z" />
    <glyph glyph-name="aogonek.alt" horiz-adv-x="577" 
d="M560 0h-28q-62 0 -93.5 -19.5t-31.5 -51.5q0 -29 34 -29q16 0 34 8v-25q-5 -15 -21.5 -26.5t-42.5 -11.5q-31 0 -50.5 19.5t-19.5 45.5q0 32 24 55t56 34q-15 64 -15 121q-17 -62 -60.5 -97t-108.5 -35q-90 0 -143.5 72t-53.5 192v1q0 112 57.5 174.5t139.5 62.5
q130 0 169 -127q0 27 9 56t17 45l9 15h49v-400q0 -23 10 -31.5t45 -8.5h15v-39zM255 433q-125 0 -125 -167v-36q0 -91 32 -140.5t93 -49.5q62 0 106.5 52.5t44.5 135.5v18q0 90 -43.5 138.5t-107.5 48.5z" />
    <glyph glyph-name="aring.alt" horiz-adv-x="577" 
d="M490 479v-400q0 -23 10 -31.5t45 -8.5h15v-39h-139q-15 57 -15 120q-17 -62 -61.5 -97t-109.5 -35q-90 0 -142.5 72t-52.5 192v1q0 111 60 174t143 63q124 0 163 -127q0 27 9 56t17 45l9 15h49zM261 433q-131 0 -131 -173v-30q0 -91 31 -140.5t92 -49.5q62 0 107.5 52.5
t45.5 135.5v18q0 91 -41 139t-104 48zM183 627q0 38 26 64.5t65 26.5t65.5 -26.5t26.5 -64.5t-26.5 -64t-65.5 -26t-65 26t-26 64zM227 627q0 -60 47 -60q48 0 48 60t-48 60q-47 0 -47 -60z" />
    <glyph glyph-name="aringacute.alt" horiz-adv-x="577" 
d="M197 627q0 38 26 64.5t65 26.5t65.5 -26.5t26.5 -64.5t-26.5 -64t-65.5 -26t-65 26t-26 64zM241 627q0 -60 47 -60q48 0 48 60t-48 60q-47 0 -47 -60zM273 749l-16 15l49 92q21 40 54 40q19 0 31 -12.5t12 -32.5q0 -32 -40 -53zM490 479v-400q0 -23 10 -31.5t45 -8.5h15
v-39h-139q-15 57 -15 120q-17 -62 -61.5 -97t-109.5 -35q-90 0 -142.5 72t-52.5 192v1q0 111 60 174t143 63q124 0 163 -127q0 27 9 56t17 45l9 15h49zM261 433q-131 0 -131 -173v-30q0 -91 31 -140.5t92 -49.5q62 0 107.5 52.5t45.5 135.5v18q0 91 -41 139t-104 48z" />
    <glyph glyph-name="atilde.alt" horiz-adv-x="577" 
d="M490 479v-400q0 -23 10 -31.5t45 -8.5h15v-39h-139q-15 57 -15 120q-17 -62 -61.5 -97t-109.5 -35q-90 0 -142.5 72t-52.5 192v1q0 111 60 174t143 63q124 0 163 -127q0 27 9 56t17 45l9 15h49zM261 433q-131 0 -131 -173v-30q0 -91 31 -140.5t92 -49.5q62 0 107.5 52.5
t45.5 135.5v18q0 91 -41 139t-104 48zM156 559q-8 46 8 78t60 32q28 0 66 -19.5t54 -19.5t22 10.5t8 32.5h30q8 -45 -6.5 -77.5t-53.5 -32.5q-24 0 -64.5 19.5t-60.5 19.5q-12 0 -19 -5.5t-9.5 -13.5t-4.5 -24h-30z" />
    <glyph glyph-name="gbreve.alt" horiz-adv-x="582" 
d="M260 433q-133 0 -133 -160v-32q0 -168 129 -168q64 0 111.5 46.5t47.5 121.5v16q0 81 -45 128.5t-110 47.5zM257 -155q-92 0 -143.5 28t-51.5 76q0 25 15.5 38.5t38.5 13.5q22 0 36.5 -14t14.5 -38v-36q25 -18 77 -18q171 0 171 199v47q-35 -119 -177 -119
q-95 0 -148 64.5t-53 174.5v1q0 103 58.5 165.5t145.5 62.5q140 0 174 -115l10 104h140v-48h-7q-36 0 -47.5 -10.5t-11.5 -46.5v-268q0 -130 -63.5 -195.5t-178.5 -65.5zM370 673h36q7 -53 -22.5 -94.5t-90.5 -41.5q-60 0 -89 41t-22 95h36q-2 -31 16 -51t59 -20t59.5 20
t17.5 51z" />
    <glyph glyph-name="gcircumflex.alt" horiz-adv-x="582" 
d="M257 -155q-92 0 -143.5 28t-51.5 76q0 25 15.5 38.5t38.5 13.5q22 0 36.5 -14t14.5 -38v-36q25 -18 77 -18q171 0 171 199v47q-35 -119 -177 -119q-95 0 -148 64.5t-53 174.5v1q0 103 58.5 165.5t145.5 62.5q140 0 174 -115l10 104h140v-48h-7q-36 0 -47.5 -10.5
t-11.5 -46.5v-268q0 -130 -63.5 -195.5t-178.5 -65.5zM260 433q-133 0 -133 -160v-32q0 -168 129 -168q64 0 111.5 46.5t47.5 121.5v16q0 81 -45 128.5t-110 47.5zM403 530l-109 64l-109 -64l-19 22l106 127h44l106 -127z" />
    <glyph glyph-name="gcommaaccent.alt" horiz-adv-x="582" 
d="M257 -155q-92 0 -143.5 28t-51.5 76q0 25 15.5 38.5t38.5 13.5q22 0 36.5 -14t14.5 -38v-36q25 -18 77 -18q171 0 171 199v47q-35 -119 -177 -119q-95 0 -148 64.5t-53 174.5v1q0 103 58.5 165.5t145.5 62.5q140 0 174 -115l10 104h140v-48h-7q-36 0 -47.5 -10.5
t-11.5 -46.5v-268q0 -130 -63.5 -195.5t-178.5 -65.5zM260 433q-133 0 -133 -160v-32q0 -168 129 -168q64 0 111.5 46.5t47.5 121.5v16q0 81 -45 128.5t-110 47.5zM340 594q0 -18 -15 -31t-33 -13q-23 0 -37.5 15t-14.5 44q0 79 107 95v-27q-41 -10 -51 -36q44 -1 44 -47z
" />
    <glyph glyph-name="gdotaccent.alt" horiz-adv-x="582" 
d="M260 433q-133 0 -133 -160v-32q0 -168 129 -168q64 0 111.5 46.5t47.5 121.5v16q0 81 -45 128.5t-110 47.5zM257 -155q-92 0 -143.5 28t-51.5 76q0 25 15.5 38.5t38.5 13.5q22 0 36.5 -14t14.5 -38v-36q25 -18 77 -18q171 0 171 199v47q-35 -119 -177 -119
q-95 0 -148 64.5t-53 174.5v1q0 103 58.5 165.5t145.5 62.5q140 0 174 -115l10 104h140v-48h-7q-36 0 -47.5 -10.5t-11.5 -46.5v-268q0 -130 -63.5 -195.5t-178.5 -65.5zM294 551q-23 0 -39 16t-16 38q0 23 16.5 39t38.5 16t38.5 -16t16.5 -39q0 -22 -16 -38t-39 -16z" />
    <glyph glyph-name="space_uni0326.alt" 
d="M246 594q0 -18 -15 -31t-33 -13q-23 0 -37.5 15t-14.5 44q0 79 107 95v-27q-41 -10 -51 -36q44 -1 44 -47z" />
    <glyph glyph-name="ordfeminine.alt" horiz-adv-x="428" 
d="M359 638v-271q0 -16 7 -22t30 -6h10v-32h-104q-11 37 -12 80q-25 -88 -119 -88q-64 0 -101.5 49t-37.5 131v1q0 79 40 122.5t100 43.5q91 0 120 -85q0 18 6 37t12 30l6 10h43zM190 601q-85 0 -85 -111v-24q0 -125 85 -125q41 0 70.5 34.5t29.5 89.5v12q0 60 -28.5 92
t-71.5 32z" />
    <glyph glyph-name="ampersand.alt" horiz-adv-x="632" 
d="M518 276q-11 -99 -58 -171q18 -23 28.5 -33.5t27.5 -19.5t37 -9t39 8v-31q-22 -31 -71 -31q-60 0 -112 56q-67 -56 -174 -56q-99 0 -152 44.5t-53 120.5q0 65 37.5 104.5t111.5 76.5q-63 82 -63 159q0 69 41.5 113.5t115.5 44.5q70 0 111 -39.5t41 -103.5
q0 -60 -36.5 -98.5t-109.5 -74.5l146 -186q29 53 39 131q3 25 -4.5 32t-37.5 7h-25v50h195v-50h-24q-28 0 -37.5 -8t-12.5 -36zM250 46q74 0 124 42l-167 212q-90 -56 -90 -142q0 -50 34.5 -81t98.5 -31zM197 505q0 -38 14 -68t44 -70q87 52 87 139q0 42 -18 66.5t-53 24.5
q-34 0 -54 -24.5t-20 -67.5z" />
    <glyph glyph-name="registered.alt" horiz-adv-x="740" 
d="M370 -14q-142 0 -238.5 97t-96.5 234q0 138 97 236t238 98q143 0 239 -97.5t96 -236.5q0 -138 -96 -234.5t-239 -96.5zM370 27q122 0 205 85.5t83 204.5q0 120 -83 206.5t-205 86.5q-120 0 -204 -86.5t-84 -206.5q0 -119 84 -204.5t204 -85.5zM495 137q-64 0 -72 71
l-6 48q-6 43 -49 43h-40v-100q0 -14 5 -17t19 -3h36v-35h-179v35h33q16 0 16 17v244q0 11 -3.5 14.5t-12.5 3.5h-33v38h177q59 0 90 -25t31 -70q0 -67 -69 -88q37 -11 46 -51l13 -57q4 -19 23 -19q15 0 33 9v-33q-21 -25 -58 -25zM377 458h-49v-127h42q34 0 48.5 16.5
t14.5 49.5q0 31 -12.5 46t-43.5 15z" />
    <glyph glyph-name="caron.alt" 
d="M209 541h-36v95q0 25 11 39.5t32 14.5q23 0 33 -19t-3 -50z" />
    <glyph glyph-name="questiondown.uc" horiz-adv-x="396" 
d="M211 479h44v-24q0 -49 -15.5 -87.5t-37.5 -63.5t-44.5 -47t-38 -50t-15.5 -62q0 -48 29 -79t86 -31q39 0 68 13v44q0 58 47 58q21 0 34 -13t13 -36q0 -45 -50.5 -81.5t-129.5 -36.5q-80 0 -130.5 41.5t-50.5 122.5q0 40 14 72t35.5 51.5l46 40.5l46 39t35.5 45.5t14 61.5
v22zM173 599q0 24 17 41t42 17q24 0 41.5 -17t17.5 -41t-18 -41.5t-41 -17.5q-25 0 -42 17.5t-17 41.5z" />
    <glyph glyph-name="exclamdown.uc" horiz-adv-x="218" 
d="M109 657q24 0 41.5 -17t17.5 -41t-18 -41.5t-41 -17.5q-25 0 -42 17.5t-17 41.5t17 41t42 17zM161 62q6 -78 -51 -78t-51 78l31 417h40z" />
    <glyph glyph-name="hyphen.uc" horiz-adv-x="293" 
d="M55 282v74h183v-74h-183z" />
    <glyph glyph-name="endash.uc" horiz-adv-x="573" 
d="M55 284v50h463v-50h-463z" />
    <glyph glyph-name="emdash.uc" horiz-adv-x="943" 
d="M55 284v50h833v-50h-833z" />
    <glyph glyph-name="guilsinglleft.uc" horiz-adv-x="223" 
d="M198 135h-54l-119 160l119 161h54l-90 -160z" />
    <glyph glyph-name="guilsinglright.uc" horiz-adv-x="223" 
d="M25 135l90 160l-90 161h54l119 -160l-119 -161h-54z" />
    <glyph glyph-name="guillemotleft.uc" horiz-adv-x="361" 
d="M198 135h-54l-119 160l119 161h54l-90 -160zM336 135h-54l-119 160l119 161h54l-90 -160z" />
    <glyph glyph-name="guillemotright.uc" horiz-adv-x="361" 
d="M25 135l90 160l-90 161h54l119 -160l-119 -161h-54zM163 135l90 160l-90 161h54l119 -160l-119 -161h-54z" />
    <glyph glyph-name="parenleft.uc" horiz-adv-x="298" 
d="M129 318v-29q0 -181 134 -310v-37q-31 15 -65.5 43t-70.5 70.5t-59 104t-23 128.5v31q0 70 23 133t59 106.5t70.5 71.5t65.5 43v-37q-134 -113 -134 -318z" />
    <glyph glyph-name="parenright.uc" horiz-adv-x="298" 
d="M169 289v29q0 205 -134 318v37q31 -15 65.5 -43t70.5 -71.5t59 -106.5t23 -133v-31q0 -67 -23 -128.5t-59 -104t-70.5 -70.5t-65.5 -43v37q134 129 134 310z" />
    <glyph glyph-name="bracketleft.uc" horiz-adv-x="361" 
d="M321 -58h-246v731h246v-38h-167v-659h167v-34z" />
    <glyph glyph-name="bracketright.uc" horiz-adv-x="361" 
d="M286 -58h-246v34h167v659h-167v38h246v-731z" />
    <glyph glyph-name="braceleft.uc" horiz-adv-x="304" 
d="M89 309v-3q68 -4 97.5 -36t29.5 -79q0 -27 -13.5 -70.5t-13.5 -72.5q0 -77 85 -71v-35q-167 -6 -167 105q0 35 21 85t21 71q0 32 -26 53t-78 25v53q52 4 78 25t26 53q0 21 -21 71t-21 85q0 111 167 105v-38q-45 3 -65 -13.5t-20 -54.5q0 -28 13.5 -72t13.5 -71
q0 -47 -29.5 -79t-97.5 -36z" />
    <glyph glyph-name="braceright.uc" horiz-adv-x="304" 
d="M230 306v3q-68 4 -97.5 36t-29.5 79q0 27 13.5 71t13.5 72q0 38 -20 54.5t-65 13.5v38q167 6 167 -105q0 -35 -21 -85t-21 -71q0 -32 26 -53t78 -25v-53q-52 -4 -78 -25t-26 -53q0 -21 21 -71t21 -85q0 -111 -167 -105v35q85 -6 85 71q0 29 -13.5 72.5t-13.5 70.5
q0 47 29.5 79t97.5 36z" />
    <glyph glyph-name="slash.uc" horiz-adv-x="316" 
d="M291 673l-210 -732h-56l210 732h56z" />
    <glyph glyph-name="backslash.uc" horiz-adv-x="327" 
d="M30 673h56l211 -732h-56z" />
    <glyph glyph-name="bar.uc" horiz-adv-x="236" 
d="M146 673v-732h-56v732h56z" />
    <glyph glyph-name="at.uc" horiz-adv-x="807" 
d="M428 685q148 0 243.5 -84t95.5 -226q0 -121 -47.5 -191t-126.5 -70q-50 0 -79 25.5t-32 65.5q-13 -46 -47 -71t-81 -25q-66 0 -104 46.5t-38 120.5q0 95 50.5 165.5t132.5 70.5q52 0 80 -29.5t34 -75.5q3 21 10 44.5t13 36.5l6 13h61l-40 -251q-15 -93 41 -93
q46 0 74.5 59t28.5 161q0 131 -77.5 197t-198.5 66q-142 0 -232.5 -100t-90.5 -253q0 -142 80 -223t217 -81q73 0 140.5 21t104.5 52v-45q-35 -32 -101.5 -52.5t-147.5 -20.5q-159 0 -258 92.5t-99 255.5q0 180 113.5 289.5t274.5 109.5zM369 159q42 0 74.5 36.5t41.5 100.5
l2 14q12 75 -15.5 110.5t-73.5 35.5t-77 -46.5t-31 -147.5q0 -103 79 -103z" />
    <glyph glyph-name="grave.uc" 
d="M193 782l55 -90l-14 -17l-100 49q-40 20 -40 53q0 20 12 32.5t31 12.5q31 0 56 -40z" />
    <glyph glyph-name="dieresis.uc" 
d="M108 681q-22 0 -37.5 15t-15.5 37q0 21 15.5 36.5t37.5 15.5q21 0 36.5 -15.5t15.5 -36.5q0 -22 -15.5 -37t-36.5 -15zM291 681q-21 0 -36.5 15t-15.5 37q0 21 15.5 36.5t36.5 15.5q22 0 37.5 -15.5t15.5 -36.5q0 -22 -15.5 -37t-37.5 -15z" />
    <glyph glyph-name="macron.uc" 
d="M82 709v46h236v-46h-236z" />
    <glyph glyph-name="acute.uc" 
d="M179 675l-16 15l49 92q21 40 54 40q19 0 31 -12.5t12 -32.5q0 -32 -40 -53z" />
    <glyph glyph-name="circumflex.uc" 
d="M309 680l-109 41l-109 -41l-22 22l109 99h44l109 -99z" />
    <glyph glyph-name="caron.uc" 
d="M69 779l22 22l109 -41l109 41l22 -22l-109 -99h-44z" />
    <glyph glyph-name="breve.uc" 
d="M270 790h39q4 -47 -24.5 -81.5t-84.5 -34.5t-84.5 34.5t-24.5 81.5h39q4 -51 70 -51t70 51z" />
    <glyph glyph-name="dotaccent.uc" 
d="M200 692q-23 0 -39 16t-16 38t16.5 38.5t38.5 16.5t38.5 -16.5t16.5 -38.5t-16 -38t-39 -16z" />
    <glyph glyph-name="ring.uc" 
d="M153 748q0 -60 47 -60q48 0 48 60t-48 60q-47 0 -47 -60zM109 748q0 38 26 64.5t65 26.5t65.5 -26.5t26.5 -64.5t-26.5 -64t-65.5 -26t-65 26t-26 64z" />
    <glyph glyph-name="tilde.uc" 
d="M76 686q-8 46 8 78t60 32q28 0 66 -19.5t54 -19.5t22 10.5t8 32.5h30q8 -45 -6.5 -77.5t-53.5 -32.5q-24 0 -64.5 19.5t-60.5 19.5q-12 0 -19 -5.5t-9.5 -13.5t-4.5 -24h-30z" />
    <glyph glyph-name="hungarumlaut.uc" 
d="M268 685h-30l27 89q15 48 49 48q19 0 29.5 -11t10.5 -28q0 -28 -25 -48zM128 685h-30l27 89q15 48 49 48q19 0 29.5 -11t10.5 -28q0 -28 -25 -48z" />
    <glyph glyph-name="Cacute.pl" horiz-adv-x="638" 
d="M336 -15q-127 0 -206.5 88.5t-79.5 248.5v2q0 151 79 240t213 89q113 0 167 -75q3 18 8 33t8 21l3 7h42v-185h-58q-7 76 -47.5 110t-119.5 34q-103 0 -154 -69t-51 -180v-40q0 -266 206 -266q80 0 126 37t53 104h53v-184h-42q-10 22 -17 68q-58 -83 -183 -83zM353 685
h-39l8 75q6 61 55 61q21 0 32 -12.5t11 -30.5q0 -26 -30 -56z" />
    <glyph glyph-name="Cacute.pl.alt" horiz-adv-x="599" 
d="M331 653q110 0 161 -74q4 18 8.5 33t7.5 21l3 6h42v-185h-58q-7 76 -46 110t-116 34q-99 0 -146 -68.5t-47 -178.5v-40q0 -270 214 -270q117 0 200 74v-46q-26 -34 -81 -59t-129 -25q-140 0 -217 88.5t-77 250.5v2q0 150 76 238.5t205 88.5zM340 685h-39l8 75q6 61 55 61
q21 0 32 -12.5t11 -30.5q0 -26 -30 -56z" />
    <glyph glyph-name="Nacute.pl" horiz-adv-x="701" 
d="M598 536v-536h-109l-314 595v-504q0 -29 13 -37.5t49 -8.5h44v-45h-256v45h37q28 0 40 10.5t12 42.5v438q0 32 -12 42.5t-40 10.5h-37v50h225l287 -558v462q0 29 -13 37.5t-49 8.5h-44v50h250v-50h-31q-28 0 -40 -10.5t-12 -42.5zM369 685h-39l8 75q6 61 55 61
q21 0 32 -12.5t11 -30.5q0 -26 -30 -56z" />
    <glyph glyph-name="Oacute.pl" horiz-adv-x="682" 
d="M341 -15q-131 0 -211 86.5t-80 249.5v2q0 153 76 241.5t215 88.5t215 -88.5t76 -241.5v-2q0 -163 -79 -249.5t-212 -86.5zM341 42q201 0 201 270v32q0 119 -49 186.5t-152 67.5t-152 -67.5t-49 -186.5v-32q0 -270 201 -270zM357 685h-39l8 75q6 61 55 61q21 0 32 -12.5
t11 -30.5q0 -26 -30 -56z" />
    <glyph glyph-name="Sacute.pl" horiz-adv-x="553" 
d="M276 47q66 0 110 29.5t44 90.5q0 57 -42 84q-23 15 -116 36t-123 37q-44 22 -64.5 56t-20.5 90q0 87 58 133t138 46q103 0 148 -70q3 17 8 32t8 21l3 7h42v-166h-60q-19 121 -144 121q-51 0 -89 -28t-38 -85q0 -31 10.5 -49t36.5 -32q33 -18 126 -37.5t128 -42.5
q69 -45 69 -142q0 -93 -62 -141t-161 -48q-120 0 -174 85q-4 -22 -10 -40.5t-9 -25.5l-4 -8h-43v189h63q21 -142 168 -142zM297 685h-39l8 75q6 61 55 61q21 0 32 -12.5t11 -30.5q0 -26 -30 -56z" />
    <glyph glyph-name="Zacute.pl" horiz-adv-x="553" 
d="M512 639v-68l-391 -520h232q66 0 86 21t20 95v23h55v-190h-479v68l387 516h-211q-59 0 -77 -17.5t-18 -85.5v-16h-55v174h451zM311 685h-39l8 75q6 61 55 61q21 0 32 -12.5t11 -30.5q0 -26 -30 -56z" />
    <glyph glyph-name="acute.pl" 
d="M210 539h-42l3 83q3 66 53 66q20 0 32.5 -12t12.5 -31q0 -20 -17 -45z" />
    <glyph glyph-name="acute.ucpl" 
d="M216 685h-39l8 75q6 61 55 61q21 0 32 -12.5t11 -30.5q0 -26 -30 -56z" />
    <glyph glyph-name="cacute.pl" horiz-adv-x="490" 
d="M432 49q-48 -60 -161 -60q-107 0 -169 69.5t-62 183.5v1q0 121 68.5 184.5t161.5 63.5q70 0 117.5 -29.5t47.5 -79.5q0 -21 -12.5 -34.5t-34.5 -13.5q-51 0 -51 58v32q-19 17 -64 17q-62 0 -103 -42.5t-41 -130.5v-36q0 -96 40 -141t125 -45q70 0 138 44v-41zM279 539
h-42l3 83q3 66 53 66q20 0 32.5 -12t12.5 -31q0 -20 -17 -45z" />
    <glyph glyph-name="f.short" horiz-adv-x="345" 
d="M270 39v-39h-239v39h27q26 0 34 8.5t8 34.5v349h-72v48h72v54q0 76 43 111.5t95 35.5q48 0 77.5 -19.5t29.5 -57.5q0 -20 -12.5 -33t-32.5 -13q-45 0 -45 48v33h-8q-33 0 -48 -23.5t-15 -73.5v-62h116v-48h-116v-347q0 -29 10.5 -37t51.5 -8h24z" />
    <glyph glyph-name="f_f.short" horiz-adv-x="619" 
d="M544 39v-39h-239v39h27q26 0 34 8.5t8 34.5v349h-190v-347q0 -29 10.5 -37t51.5 -8h24v-39h-239v39h27q26 0 34 8.5t8 34.5v349h-72v48h72v43q0 76 43 111.5t95 35.5q48 0 77.5 -19.5t29.5 -57.5q0 -20 -12.5 -33t-32.5 -13q-45 0 -45 48v33h-8q-33 0 -48 -23.5
t-15 -73.5v-51h190v54q0 76 43 111.5t95 35.5q48 0 77.5 -19.5t29.5 -57.5q0 -20 -12.5 -33t-32.5 -13q-45 0 -45 48v33h-8q-33 0 -48 -23.5t-15 -73.5v-62h116v-48h-116v-347q0 -29 10.5 -37t51.5 -8h24z" />
    <glyph glyph-name="nacute.pl" horiz-adv-x="578" 
d="M496 327v-248q0 -23 10 -31.5t45 -8.5h10v-39h-225v39h24q32 0 42 6.5t10 29.5v268q0 86 -94 86q-64 0 -106.5 -44.5t-42.5 -119.5v-190q0 -23 9.5 -29.5t42.5 -6.5h24v-39h-226v39h24q26 0 34 8.5t8 34.5v292q0 36 -11.5 46.5t-47.5 10.5h-7v48h136q14 -57 14 -117v-14
q12 67 60 105t112 38q72 0 113.5 -42t41.5 -122zM301 539h-42l3 83q3 66 53 66q20 0 32.5 -12t12.5 -31q0 -20 -17 -45z" />
    <glyph glyph-name="oacute.pl" horiz-adv-x="538" 
d="M269 -11q-99 0 -164 66t-65 190v1q0 111 63 178t166 67t166 -66.5t63 -177.5v-1q0 -125 -65 -191t-164 -66zM269 42q139 0 139 190v38q0 82 -36.5 124.5t-102.5 42.5t-102.5 -42.5t-36.5 -124.5v-38q0 -190 139 -190zM276 539h-42l3 83q3 66 53 66q20 0 32.5 -12
t12.5 -31q0 -20 -17 -45z" />
    <glyph glyph-name="sacute.pl" horiz-adv-x="452" 
d="M243 -11q-111 0 -144 73q-3 -20 -8 -35.5t-9 -20.5l-3 -6h-43v152h55q7 -53 43.5 -81.5t96.5 -28.5q53 0 81.5 23.5t28.5 64.5q0 36 -27 52q-19 11 -93 24t-99 25q-74 35 -74 124q0 65 46 100.5t112 35.5q97 0 117 -67q3 17 7 31t7 19l3 5h44v-136h-51q-10 44 -42 69
t-81 25q-91 0 -91 -78q0 -41 35 -57q25 -11 99.5 -22.5t102.5 -29.5q58 -37 58 -115q0 -69 -49.5 -107.5t-121.5 -38.5zM238 539h-42l3 83q3 66 53 66q20 0 32.5 -12t12.5 -31q0 -20 -17 -45z" />
    <glyph glyph-name="zacute.pl" horiz-adv-x="461" 
d="M426 417l-313 -369h164q62 0 80.5 19.5t18.5 88.5v11h52v-167h-402v60l310 368h-152q-56 0 -73.5 -17t-17.5 -82v-6h-52v156h385v-62zM253 539h-42l3 83q3 66 53 66q20 0 32.5 -12t12.5 -31q0 -20 -17 -45z" />
    </font>
</defs>
</svg>
