<svg xmlns="http://www.w3.org/2000/svg" xmlns:xlink="http://www.w3.org/1999/xlink" width="250" height="93" viewBox="0 0 250 93">
    <defs>
        <path id="a" d="M0 52.984V.361h96.24v52.623z"/>
    </defs>
    <g fill="none" fill-rule="evenodd">
        <path fill="#FFF" d="M107.761 64.007v6.304h-3.227v-14.74h4.981c2.663 0 4.923.65 4.923 3.69 0 3.753-2.683 4.746-6.677 4.746m1.029-7.157h-1.029v5.859c1.713 0 3.349-.608 3.349-3.04 0-2.212-1.211-2.82-2.32-2.82M124.443 70.313l-3.834-6.813h-.2v6.813h-3.229v-14.74h5.366c3.047 0 4.58 1.277 4.58 3.448 0 2.189-1.474 3.628-3.369 3.971l4.58 7.321h-3.894zm-3.088-13.463h-.946v5.736c1.775 0 3.408-.425 3.408-3.12 0-1.338-.302-2.616-2.462-2.616zM137.556 70.597c-4.237 0-8.029-2.11-8.029-7.482 0-4.36 3.026-7.825 8.333-7.825 5.222 0 8.15 2.795 8.15 7.825 0 4.359-3.814 7.482-8.454 7.482m.304-14.03c-3.814 0-4.743 3.79-4.743 6.933 0 4.036 2.058 5.799 4.439 5.799 2.864 0 4.882-2.474 4.882-6.772 0-3.061-1.534-5.96-4.578-5.96M152.2 64.007v6.304h-3.227v-14.74h4.984c2.661 0 4.92.65 4.92 3.69 0 3.753-2.682 4.746-6.676 4.746m1.027-7.157h-1.027v5.859c1.714 0 3.348-.608 3.348-3.04 0-2.212-1.21-2.82-2.321-2.82M161.62 70.313v-14.74h8.05v1.56h-4.82v4.787h4.716v1.58h-4.716v5.252h4.82v1.561zM180.539 70.313l-3.833-6.813h-.202v6.813h-3.226v-14.74h5.365c3.047 0 4.578 1.277 4.578 3.448 0 2.189-1.474 3.628-3.369 3.971l4.581 7.321h-3.894zm-3.087-13.463h-.948v5.736c1.775 0 3.408-.425 3.408-3.12 0-1.338-.303-2.616-2.46-2.616zM192.17 57.133v13.18h-3.246v-13.18h-3.873v-1.561h10.99v1.56zM205.95 63.56v6.753h-3.249v-6.225l-4.56-8.516h3.471l3.57 6.57 3.31-6.57h1.973zM110.248 25.199v8.416h8.36v2.782h-8.36v11.98h-5.714v-25.92h14.252v2.742zM137.18 48.378l-6.788-11.982h-.357v11.982h-5.713V22.454h9.5c5.393 0 8.108 2.247 8.108 6.062 0 3.85-2.608 6.381-5.965 6.99l8.108 12.872h-6.893zM131.716 24.7h-1.68v10.09c3.143 0 6.038-.748 6.038-5.49 0-2.353-.537-4.6-4.358-4.6zM162.005 48.378l-2.68-7.666h-8.573l-2.929 7.666h-3.464l10.714-25.924h2.894l10.43 25.924h-6.392zm-6.932-18.757l-3.463 8.808h6.893l-3.43-8.808zM176.47 48.877c-2.25 0-4.18-.356-6.252-1.676l1.18-4.812h.679c.392 2.531 2.678 4.207 5.25 4.207 2.93 0 4.464-1.606 4.464-3.746 0-2.565-1.964-3.67-4.25-4.706-3.214-1.496-7.144-2.923-7.144-8.38 0-4.565 3.357-7.81 8.678-7.81 2.5 0 4.431.5 6.144 1.785l-1.213 3.777h-.572c-.535-2.068-2.393-3.277-4.36-3.277-2.426 0-4.176.96-4.176 3.458 0 2.494 2.643 3.6 5.393 4.99 3 1.57 6.179 3.461 6.179 8.06 0 4.885-4.285 8.13-10 8.13M191.328 48.378V22.454h14.251v2.745h-8.537v8.416h8.36v2.781h-8.36v9.236h8.537v2.746zM224.69 48.378L217.9 36.396h-.356v11.982h-5.715V22.454h9.5c5.394 0 8.108 2.247 8.108 6.062 0 3.85-2.607 6.381-5.965 6.99l8.11 12.872h-6.894zM219.222 24.7h-1.678v10.09c3.142 0 6.037-.748 6.037-5.49 0-2.353-.536-4.6-4.36-4.6zM239.69 48.877c-2.25 0-4.178-.356-6.252-1.676l1.18-4.812h.678c.393 2.531 2.678 4.207 5.251 4.207 2.93 0 4.464-1.606 4.464-3.746 0-2.565-1.963-3.67-4.25-4.706-3.215-1.496-7.142-2.923-7.142-8.38 0-4.565 3.357-7.81 8.677-7.81 2.5 0 4.43.5 6.144 1.785l-1.214 3.777h-.572c-.535-2.068-2.394-3.277-4.358-3.277-2.428 0-4.178.96-4.178 3.458 0 2.494 2.643 3.6 5.395 4.99 2.998 1.57 6.177 3.461 6.177 8.06 0 4.885-4.285 8.13-10 8.13"/>
        <g transform="translate(0 40.159)">
            <mask id="b" fill="#fff">
                <use xlink:href="#a"/>
            </mask>
            <path fill="#ED1C24" d="M7.583 9.72C2.999 6.005 0 3.822 0 3.822c9.481-2.296 29.289-5.21 42.88-2.126.99.227 1.95.455 2.878.686-19.54 1.544-31.277 4.595-38.175 7.336m13.806 11.962a263.053 263.053 0 0 0-9.411-8.326C22.23 8.915 40.954 5.811 50.84 6.02c4.856.1 9.47.502 11.4 1.036-20.61 3.301-33.265 9.284-40.851 14.626m14.437 14.767c-3.401-3.896-7.013-7.638-10.584-11.108 10.835-8.424 26.55-12.91 42.03-15.183 2.18-.32 7.088-.782 7.376-.76-20.934 6.76-32.73 18.625-38.822 27.05M96.239 8.174c-3.415 1.144-29.226 14.08-48.284 44.811-2.304-4.009-5.146-8.023-8.272-11.931C51.945 21.216 73.348 11.03 96.239 8.173" mask="url(#b)"/>
        </g>
        <path fill="#FFF" d="M78.739 34.497c3.294 2.666 5.447 4.236 5.447 4.236-6.81 1.649-21.039 3.74-30.802 1.526-.713-.162-1.402-.325-2.069-.49 14.038-1.111 22.468-3.305 27.424-5.272m-9.917-8.593c2.39 2.22 4.695 4.24 6.759 5.983-7.364 3.187-20.815 5.416-27.916 5.27-3.49-.074-6.805-.363-8.189-.747 14.807-2.37 23.897-6.668 29.346-10.506M58.45 15.294c2.443 2.802 5.039 5.488 7.604 7.983-7.784 6.05-19.073 9.272-30.193 10.907-1.566.228-5.09.56-5.298.544 15.037-4.857 23.51-13.38 27.887-19.433m-43.937 20.38C37.783 25.898 47.955 0 47.955 0c1.856 4.002 4.589 8.07 7.724 11.988-8.903 14.406-24.52 21.728-41.166 23.687"/>
    </g>
</svg>
