<svg xmlns="http://www.w3.org/2000/svg" width="40" height="40" viewBox="0 0 40 40">
    <g fill="none" fill-rule="evenodd">
        <path fill="#FFF" d="M21.79 32V21.508h3.537l.53-4.088h-4.068v-2.61c0-1.184.33-1.991 2.036-1.991L26 12.818V9.16C25.624 9.11 24.333 9 22.83 9c-3.136 0-5.283 1.905-5.283 5.405v3.015H14v4.089h3.547V32h4.242z"/>
        <path fill-rule="nonzero" stroke="#FFF" stroke-width="2" d="M18.857 1.035h.001c-2.445.144-4.88.777-7.09 1.84A19.045 19.045 0 0 0 1.38 16.211a19.029 19.029 0 0 0 1.508 12.048A19.027 19.027 0 0 0 16.21 38.62c4.068.828 8.322.296 12.049-1.506a19.102 19.102 0 0 0 8.854-8.854 18.86 18.86 0 0 0 1.727-5.801 18.98 18.98 0 0 0-1.727-10.716 19.102 19.102 0 0 0-8.853-8.853 18.973 18.973 0 0 0-9.404-1.854z"/>
    </g>
</svg>
