<svg xmlns="http://www.w3.org/2000/svg" width="40" height="40" viewBox="0 0 40 40">
    <g fill="none" fill-rule="evenodd">
        <path stroke="#FFF" stroke-width="2" d="M18.857 1.035h.001c-2.445.144-4.88.777-7.09 1.84A19.045 19.045 0 0 0 1.38 16.211a19.029 19.029 0 0 0 1.508 12.048A19.027 19.027 0 0 0 16.21 38.62c4.068.828 8.322.296 12.049-1.506a19.102 19.102 0 0 0 8.854-8.854 18.86 18.86 0 0 0 1.727-5.801 18.98 18.98 0 0 0-1.727-10.716 19.102 19.102 0 0 0-8.853-8.853 18.973 18.973 0 0 0-9.404-1.854z"/>
        <path fill="#FFF" d="M30 22.143V29h-4.149v-6.398c0-1.607-.6-2.704-2.101-2.704-1.147 0-1.829.739-2.129 1.454-.11.256-.138.611-.138.97V29h-4.15s.056-10.836 0-11.959h4.15v1.695c-.008.013-.02.026-.027.039h.027v-.039c.551-.814 1.536-1.976 3.74-1.976 2.73 0 4.777 1.71 4.777 5.383zM13.478 11c1.498 0 2.42.933 2.448 2.16 0 1.2-.95 2.16-2.477 2.16h-.03c-1.467 0-2.419-.961-2.419-2.16 0-1.227.98-2.16 2.478-2.16zM11 29V16.76h4.222V29H11z"/>
    </g>
</svg>
