<svg id="Layer_1" data-name="Layer 1" xmlns="http://www.w3.org/2000/svg" width="36.96" height="36.96" viewBox="0 0 36.96 36.96"><defs><style>.cls-1{fill:#ed1c24;}</style></defs><title>icon-giftcard</title><path class="cls-1" d="M18.5,37A18.48,18.48,0,1,1,37,18.46,18.5,18.5,0,0,1,18.5,37Zm0-35.26a16.78,16.78,0,1,0,16.8,16.76A16.8,16.8,0,0,0,18.46,1.7Z"/><path class="cls-1" d="M9.55,22.58A4.91,4.91,0,0,1,7,21.87,5.89,5.89,0,0,1,4.3,16.64,6.06,6.06,0,0,1,7.22,11.5a4.39,4.39,0,0,1,4.32-.33l.06,0,8.29,5.43-8.28,5.44A4.39,4.39,0,0,1,9.55,22.58Zm.24-10.29A3.5,3.5,0,0,0,8,12.83a4.48,4.48,0,0,0-2.17,3.81,4.37,4.37,0,0,0,2,3.91,3.06,3.06,0,0,0,3,.19l6.25-4.11-6.28-4.11A2.23,2.23,0,0,0,9.79,12.29Z"/><path class="cls-1" d="M27.17,22.57a3.74,3.74,0,0,1-1.75-.42l-.06,0-8.29-5.43,8.28-5.44a4.61,4.61,0,0,1,4.58.2,5.86,5.86,0,0,1,2.72,5.23,6,6,0,0,1-2.91,5.14A5.06,5.06,0,0,1,27.17,22.57Zm-1-1.77a2.91,2.91,0,0,0,2.77-.31,4.48,4.48,0,0,0,2.17-3.81,4.37,4.37,0,0,0-2-3.91,3.1,3.1,0,0,0-3-.2l-6.25,4.12Z"/><path class="cls-1" d="M25.29,29a.75.75,0,0,1-.66-.38L17.81,17.05A.78.78,0,0,1,18.09,16a.77.77,0,0,1,1.05.28L26,27.85a.78.78,0,0,1-.28,1.06A.76.76,0,0,1,25.29,29Z"/><path class="cls-1" d="M11.79,29a.79.79,0,0,1-.39-.11.78.78,0,0,1-.28-1.06l6.69-11.42a.78.78,0,0,1,1.06-.28.77.77,0,0,1,.27,1.06L12.45,28.64A.76.76,0,0,1,11.79,29Z"/></svg>