<?xml version="1.0" encoding="utf-8"?>
<!-- Generator: Adobe Illustrator 16.0.0, SVG Export Plug-In . SVG Version: 6.00 Build 0)  -->
<!DOCTYPE svg PUBLIC "-//W3C//DTD SVG 1.1//EN" "http://www.w3.org/Graphics/SVG/1.1/DTD/svg11.dtd">
<svg version="1.1" id="Layer_1" xmlns="http://www.w3.org/2000/svg" xmlns:xlink="http://www.w3.org/1999/xlink" x="0px" y="0px"
	 width="22px" height="22px" viewBox="0 0 22 22" enable-background="new 0 0 22 22" xml:space="preserve">
<path fill="#807979" d="M17.575,15.606l-1.791-1.793l0.286-0.406c0.859-1.353,1.363-2.957,1.363-4.682C17.433,3.907,13.532,0,8.72,0
	C3.902,0,0,3.907,0,8.725c0,4.819,3.902,8.727,8.714,8.727c1.747,0,3.374-0.517,4.738-1.398l0.396-0.275L20.069,22L22,20.036
	L17.575,15.606 M13.601,3.85c1.301,1.3,2.017,3.031,2.017,4.87s-0.716,3.569-2.017,4.87c-1.301,1.3-3.031,2.016-4.87,2.016
	c-1.839,0-3.569-0.716-4.87-2.016c-1.3-1.301-2.016-3.031-2.016-4.87s0.716-3.57,2.016-4.87c1.301-1.3,3.031-2.017,4.87-2.017
	C10.57,1.833,12.3,2.55,13.601,3.85"/>
</svg>
