<?xml version="1.0" encoding="utf-8"?>
<!-- Generator: Adobe Illustrator 21.0.2, SVG Export Plug-In . SVG Version: 6.00 Build 0)  -->
<svg version="1.1" id="Layer_1" xmlns="http://www.w3.org/2000/svg" xmlns:xlink="http://www.w3.org/1999/xlink" x="0px" y="0px"
	 viewBox="0 0 100 100" style="enable-background:new 0 0 100 100;" xml:space="preserve">
<style type="text/css">
	.st0{fill:#FFFFFF;}
</style>
<title>icon-pinterest</title>
<path class="st0" d="M43.6,0.3C22.2,2.2,0.9,15.6,0,34.8c-0.6,11.7,3.7,20.5,18.1,23c6.2-8.5-2-10.4-3.3-16.6
	c-5.2-25.3,37.6-42.6,60-24.9c15.5,12.2,5.3,49.9-19.7,46c-23.9-3.7,11.7-33.7-7.4-39.6C32.2,17.9,23.9,37.3,31.3,47
	c-4.3,16.6-13.6,32.2-9.9,53c12.2-6.9,16.3-20.1,19.7-33.9c6.1,2.9,9.4,5.9,17.2,6.4c28.9,1.7,45-22.4,41.1-44.7
	C95.9,8,70.6-2,43.6,0.3z"/>
</svg>
