<svg id="Layer_1" data-name="Layer 1" xmlns="http://www.w3.org/2000/svg" viewBox="0 0 24.98 25"><defs><style>.cls-1{fill:#353535;}</style></defs><title>icon-ig-dark</title><path class="cls-1" d="M422.53,295.43c0,1.75,0,3.51,0,5.26a7,7,0,0,1-4.36,6.57,7.88,7.88,0,0,1-3.13.65c-3.39,0-6.78.05-10.17,0a7.42,7.42,0,0,1-6.16-3.22,6.29,6.29,0,0,1-1.17-3.73V290.12a6.78,6.78,0,0,1,4-6.34,7.65,7.65,0,0,1,3.56-.83c3.29,0,6.58,0,9.87,0a7.57,7.57,0,0,1,6.25,3.05,6.3,6.3,0,0,1,1.3,3.92Zm-23.11,0V301a4.33,4.33,0,0,0,.62,2.3A5.57,5.57,0,0,0,405,306c3.38.05,6.76,0,10.15,0a5.5,5.5,0,0,0,2.39-.53,5,5,0,0,0,3.18-4.87c0-3.58,0-7.15,0-10.73a4.54,4.54,0,0,0-.89-2.75,5.63,5.63,0,0,0-4.67-2.36c-3.37,0-6.75,0-10.12,0a5.94,5.94,0,0,0-2.09.4,5.16,5.16,0,0,0-3.49,5C399.46,292,399.42,293.69,399.42,295.43Z" transform="translate(-397.56 -282.94)"/><path class="cls-1" d="M410.07,300.77a5.79,5.79,0,1,1,5.86-5.8A5.83,5.83,0,0,1,410.07,300.77Zm0-1.86a3.93,3.93,0,1,0-4-3.93A4,4,0,0,0,410.07,298.9Z" transform="translate(-397.56 -282.94)"/><path class="cls-1" d="M416.61,287.42a1.29,1.29,0,1,1-1.23,1.29A1.26,1.26,0,0,1,416.61,287.42Z" transform="translate(-397.56 -282.94)"/></svg>