<svg xmlns="http://www.w3.org/2000/svg" xmlns:xlink="http://www.w3.org/1999/xlink" width="40" height="40" viewBox="0 0 40 40">
    <defs>
        <path id="a" d="M0 .173v12.173h19.9V.173H0z"/>
    </defs>
    <g fill="none" fill-rule="evenodd">
        <path fill-rule="nonzero" stroke="#FFF" stroke-width="2" d="M18.857 1.035h.001c-2.445.144-4.88.777-7.09 1.84A19.045 19.045 0 0 0 1.38 16.211a19.029 19.029 0 0 0 1.508 12.048A19.027 19.027 0 0 0 16.21 38.62c4.068.828 8.322.296 12.049-1.506a19.102 19.102 0 0 0 8.854-8.854 18.86 18.86 0 0 0 1.727-5.801 18.98 18.98 0 0 0-1.727-10.716 19.102 19.102 0 0 0-8.853-8.853 18.973 18.973 0 0 0-9.404-1.854z"/>
        <path fill="#FFF" d="M27.541 14.538a.665.665 0 0 1-.663.663H25.55a.665.665 0 0 1-.663-.663V13.21c0-.365.298-.663.663-.663h1.327c.365 0 .663.298.663.663v1.327zM25.257 10H14.643A4.657 4.657 0 0 0 10 14.644v1.603h5.487a5.793 5.793 0 0 1 8.926 0h5.488v-1.603A4.657 4.657 0 0 0 25.257 10z"/>
        <g transform="translate(10 17.555)">
            <mask id="b" fill="#fff">
                <use xlink:href="#a"/>
            </mask>
            <path fill="#FFF" d="M15.753 2.395c0 3.2-2.603 5.803-5.803 5.803a5.809 5.809 0 0 1-5.802-5.803c0-.787.158-1.537.443-2.222H0v7.529a4.657 4.657 0 0 0 4.643 4.644h10.614a4.657 4.657 0 0 0 4.644-4.644V.173H15.31c.285.685.443 1.435.443 2.222" mask="url(#b)"/>
        </g>
        <path fill="#FFF" d="M19.95 24.271a4.321 4.321 0 1 0 0-8.642 4.321 4.321 0 0 0 0 8.642"/>
    </g>
</svg>
