<?xml version="1.0" encoding="utf-8"?>
<!-- Generator: Adobe Illustrator 16.0.0, SVG Export Plug-In . SVG Version: 6.00 Build 0)  -->
<!DOCTYPE svg PUBLIC "-//W3C//DTD SVG 1.1//EN" "http://www.w3.org/Graphics/SVG/1.1/DTD/svg11.dtd">
<svg version="1.1" id="Layer_1" xmlns="http://www.w3.org/2000/svg" xmlns:xlink="http://www.w3.org/1999/xlink" x="0px" y="0px"
	 width="653.801px" height="702.755px" viewBox="274.967 -2.289 653.801 702.755"
	 enable-background="new 274.967 -2.289 653.801 702.755" xml:space="preserve">
<title>icon-giftcard</title>
<path fill="#666666" d="M915.232,144.198h-83.533c30.188-23.333,42.504-63.087,30.801-99.399
	c-16.152-31.646-50.043-50.165-85.4-46.666c-66.771,2.549-129.975,30.807-176.397,78.866
	c-23.097-24.514-51.076-43.908-82.135-56.935C489.182,6.804,457.46-0.494,425.233-1.402c-35.357-3.499-69.249,15.021-85.398,46.667
	c-11.703,36.313,0.613,76.066,30.801,99.4H287.1c-6.699,0-12.133,5.432-12.133,12.132c0,0.002,0,0.002,0,0.002v145.132
	c0,6.701,5.432,12.134,12.133,12.134l0,0h291.667v-170.8h46.666v170.8h291.199c6.701,0,12.135-5.432,12.135-12.132
	c0-0.002,0-0.002,0-0.002V155.399c-0.469-6.686-6.268-11.724-12.952-11.254C915.621,144.156,915.428,144.176,915.232,144.198z
	 M538.168,144.198c-22.58-0.772-44.785-6.007-65.334-15.398c-26.98-9.639-50.191-27.618-66.268-51.333
	c5.725-0.863,11.543-0.863,17.268,0c22.578,0.786,44.779,6.019,65.332,15.398c26.949,9.695,50.145,27.662,66.268,51.333
	c-5.84,0.084-11.659-0.701-17.268-2.333L538.168,144.198z M728.102,128.799c-20.557,9.37-42.756,14.603-65.334,15.398
	c-5.721,0.887-11.545,0.887-17.266,0c15.93-23.658,38.975-41.638,65.799-51.333c20.556-9.381,42.756-14.612,65.334-15.398
	c5.724-0.863,11.543-0.863,17.267,0c-16.334,22.748-39.326,39.867-65.802,48.999L728.102,128.799z"/>
<path fill="#666666" d="M623.566,361.664v338.334h237.065c6.701,0,12.133-5.432,12.133-12.133c0-0.001,0-0.001,0-0.001V361.198
	L623.566,361.664z"/>
<path fill="#666666" d="M327.699,361.664v326.668c0,6.699,5.432,12.134,12.133,12.134l0,0h240.801V362.133L327.699,361.664z"/>
</svg>
