<?xml version="1.0" encoding="utf-8"?>
<!-- Generator: Adobe Illustrator 16.0.0, SVG Export Plug-In . SVG Version: 6.00 Build 0)  -->
<!DOCTYPE svg PUBLIC "-//W3C//DTD SVG 1.1//EN" "http://www.w3.org/Graphics/SVG/1.1/DTD/svg11.dtd">
<svg version="1.1" id="Layer_1" xmlns="http://www.w3.org/2000/svg" xmlns:xlink="http://www.w3.org/1999/xlink" x="0px" y="0px"
	 width="863.06px" height="696.704px" viewBox="168.471 0 863.06 696.704" enable-background="new 168.471 0 863.06 696.704"
	 xml:space="preserve">
<title>icon-fr</title>
<polygon fill="#666666" points="168.471,605.294 249.176,605.294 249.176,328.176 527.117,328.176 527.117,260.236 249.176,260.236 
	249.176,67.941 565.823,67.941 565.823,0 168.471,0 "/>
<path fill="#666666" d="M607,153.176c13.178,0,25.117,0,35,0c66.158,0,109.119,11.803,128.883,35.411
	c20.814,27.046,31.324,60.617,29.646,94.705c0.52,19.438-2.406,38.817-8.646,57.235c-4.959,14.167-13.133,26.993-23.881,37.471
	c-11.789,10.452-25.908,17.937-41.176,21.823c-18.775,5.36-38.135,8.403-57.648,9.06l-64.233,2.471L607,153.176z M1031.117,680.234
	c-30.877-0.296-60.918-10.07-86.06-27.999c-38.094-32.811-71.731-70.463-100.059-112c-29.732-47.862-68.135-89.755-113.234-123.529
	c44.039-2.731,85.976-19.796,119.41-48.588c26.676-23.854,41.697-58.103,41.178-93.883c0.947-30.445-10.149-60.037-30.883-82.353
	c-22.301-23.748-50.844-40.729-82.354-49c-42.603-11.021-86.541-16.009-130.529-14.823c-31.568,0-74.117,1.235-127.648,3.706
	l-82.352,4.117v18.94h9.471c18.849-1.572,37.812,0.955,55.588,7.411c9.189,6.037,15.224,15.843,16.472,26.766
	c3.293,28.697,4.531,57.595,3.705,86.471v275.059c0.875,29.972-0.363,59.968-3.705,89.765c-1.611,11.552-8.047,21.877-17.705,28.411
	c-15.516,7.37-32.707,10.495-49.824,9.061h-18.117v18.939h268.472v-18.939h-26.767c-17.752,1.753-35.629-1.682-51.471-9.882
	c-9.457-7.451-15.416-18.479-16.469-30.472c-2.781-28.733-3.881-57.606-3.295-86.471V427.41h22.235
	c11.65-0.779,23.267,1.943,33.354,7.823c15.08,12.3,28.877,26.096,41.176,41.177c18.941,23.472,37.471,47.766,55.176,72.883
	c33.988,54.738,75.58,104.371,123.529,147.41h151.119L1031.117,680.234z"/>
</svg>
