<svg id="Layer_1" data-name="Layer 1" xmlns="http://www.w3.org/2000/svg" width="36.96" height="36.96" viewBox="0 0 36.96 36.96"><defs><style>.cls-1{fill:#ed1c24;}</style></defs><title>icon-fr</title><path class="cls-1" d="M18.48,37A18.48,18.48,0,1,1,37,18.48,18.5,18.5,0,0,1,18.48,37Zm0-35.26A16.78,16.78,0,1,0,35.26,18.48,16.8,16.8,0,0,0,18.48,1.7Z"/><path class="cls-1" d="M21.81,28.36H20.52V11.25H27a5.17,5.17,0,0,1,3.51,1.17,4.33,4.33,0,0,1,1.41,3.41A4.49,4.49,0,0,1,30.86,19,4.7,4.7,0,0,1,28,20.47l4.92,9.16H31.37l-4.85-9.14H24.81V19.34h2a4.06,4.06,0,0,0,2.72-.84,3.31,3.31,0,0,0,1.05-2.64,3.28,3.28,0,0,0-1.05-2.62,4.06,4.06,0,0,0-2.72-.84h-5Z"/><polygon class="cls-1" points="9.85 12.41 18.92 12.41 18.92 11.26 8.55 11.26 8.55 28.35 9.85 28.35 9.85 20.6 17.58 20.6 17.58 19.45 9.85 19.45 9.85 12.41"/></svg>