<svg xmlns="http://www.w3.org/2000/svg" width="40" height="40" viewBox="0 0 40 40">
    <g fill="none" fill-rule="nonzero">
        <path stroke="#FFF" stroke-width="2" d="M18.857 1.035h.001c-2.445.144-4.88.777-7.09 1.84A19.045 19.045 0 0 0 1.38 16.211a19.029 19.029 0 0 0 1.508 12.048A19.027 19.027 0 0 0 16.21 38.62c4.068.828 8.322.296 12.049-1.506a19.102 19.102 0 0 0 8.854-8.854 18.86 18.86 0 0 0 1.727-5.801 18.98 18.98 0 0 0-1.727-10.716 19.102 19.102 0 0 0-8.853-8.853 18.973 18.973 0 0 0-9.404-1.854z"/>
        <path fill="#FFF" d="M31.803 24.032c-.124 1.5-1.284 3.415-2.914 3.69-5.205.394-11.382.346-16.778 0-1.682-.205-2.79-2.194-2.914-3.69-.263-3.147-.263-4.94 0-8.087.124-1.496 1.258-3.47 2.914-3.65 5.332-.438 11.543-.346 16.778 0 1.877.066 2.79 1.955 2.914 3.455.263 3.147.263 5.135 0 8.282zm-13.601.47L25.1 20l-6.898-4.503v9.006z"/>
    </g>
</svg>
