<svg id="Capa_1" data-name="Capa 1" xmlns="http://www.w3.org/2000/svg" viewBox="0 0 98 98"><defs><style>.cls-1{fill:#fff;}</style></defs><title>icon-whatsapp</title><path id="WhatsApp" class="cls-1" d="M98,47.74a48.19,48.19,0,0,1-71.36,41.8L0,98,8.68,72.39a47.24,47.24,0,0,1-6.9-24.65,48.11,48.11,0,0,1,96.22,0ZM49.89,7.6A40.34,40.34,0,0,0,9.44,47.74a39.71,39.71,0,0,0,7.7,23.53L12.09,86.17l15.54-4.94a40.49,40.49,0,0,0,62.7-33.49A40.34,40.34,0,0,0,49.89,7.6ZM74.18,58.73c-.3-.49-1.08-.78-2.26-1.37s-7-3.42-8.06-3.81S62,53,61.21,54.15s-3,3.81-3.73,4.59-1.38.88-2.56.3a32.28,32.28,0,0,1-9.48-5.81,35.28,35.28,0,0,1-6.56-8.1c-.69-1.17-.07-1.8.52-2.39s1.18-1.37,1.77-2a7.84,7.84,0,0,0,1.18-2,2.13,2.13,0,0,0-.1-2.05C42,36.1,39.59,30.34,38.61,28s-2-2-2.65-2-1.47-.1-2.26-.1a4.35,4.35,0,0,0-3.15,1.46,13.08,13.08,0,0,0-4.13,9.76c0,5.76,4.22,11.32,4.82,12.1s8.16,13,20.14,17.67,12,3.12,14.15,2.92,7-2.83,8-5.56S74.48,59.22,74.18,58.73Z"/></svg>