<?xml version="1.0" encoding="utf-8"?>
<!-- Generator: Adobe Illustrator 16.0.0, SVG Export Plug-In . SVG Version: 6.00 Build 0)  -->
<!DOCTYPE svg PUBLIC "-//W3C//DTD SVG 1.1//EN" "http://www.w3.org/Graphics/SVG/1.1/DTD/svg11.dtd">
<svg version="1.1" id="Layer_1" xmlns="http://www.w3.org/2000/svg" xmlns:xlink="http://www.w3.org/1999/xlink" x="0px" y="0px"
	 width="27px" height="6.25px" viewBox="0 0 27 6.25" enable-background="new 0 0 27 6.25" xml:space="preserve">
<path fill="#807979" d="M3.125,0C1.4,0,0,1.4,0,3.125S1.4,6.25,3.125,6.25c1.726,0,3.125-1.4,3.125-3.125S4.851,0,3.125,0 M13.5,0
	c-1.725,0-3.125,1.4-3.125,3.125s1.4,3.125,3.125,3.125c1.726,0,3.125-1.4,3.125-3.125S15.226,0,13.5,0 M23.875,0
	C22.15,0,20.75,1.4,20.75,3.125s1.4,3.125,3.125,3.125C25.601,6.25,27,4.85,27,3.125S25.601,0,23.875,0"/>
</svg>
