<svg id="Layer_1" data-name="Layer 1" xmlns="http://www.w3.org/2000/svg" viewBox="0 0 123.05 100"><defs><style>.cls-1{fill:#fff;}</style></defs><title>icon-twitter</title><path class="cls-1" d="M123.05,11.84a50.4,50.4,0,0,1-14.5,4,25.29,25.29,0,0,0,11.1-14,50.57,50.57,0,0,1-16,6.13,25.26,25.26,0,0,0-43,23,71.67,71.67,0,0,1-52-26.37,25.28,25.28,0,0,0,7.81,33.71A25.14,25.14,0,0,1,4.95,35.17,25.26,25.26,0,0,0,25.19,60.24a25.3,25.3,0,0,1-11.4.43A25.26,25.26,0,0,0,37.38,78.2,50.76,50.76,0,0,1,0,88.66,71.47,71.47,0,0,0,38.7,100c46.87,0,73.35-39.59,71.75-75.09A51.4,51.4,0,0,0,123.05,11.84Z"/></svg>