<svg id="Layer_1" data-name="Layer 1" xmlns="http://www.w3.org/2000/svg" viewBox="0 0 48.5 21"><defs><style>.cls-1{fill:#ec1c24;}.cls-2{isolation:isolate;}.cls-3{fill:#fff;}</style></defs><title>tag-new</title><rect class="cls-1" width="48.5" height="21"/><g class="cls-2"><path class="cls-3" d="M16.91,15.18V6.85h1.64L22,12.41V6.85h1.56v8.33H21.84L18.48,9.75v5.43Z"/><path class="cls-3" d="M29,13.26l1.59.27a2.61,2.61,0,0,1-1,1.33,2.84,2.84,0,0,1-1.66.46,2.7,2.7,0,0,1-2.33-1,3.45,3.45,0,0,1-.6-2.08,3.33,3.33,0,0,1,.78-2.35,2.58,2.58,0,0,1,2-.85A2.68,2.68,0,0,1,30,9.9a3.94,3.94,0,0,1,.74,2.73h-4a1.61,1.61,0,0,0,.39,1.11,1.21,1.21,0,0,0,.92.39,1,1,0,0,0,.63-.2A1.26,1.26,0,0,0,29,13.26Zm.09-1.61a1.54,1.54,0,0,0-.36-1.05,1.15,1.15,0,0,0-1.69,0,1.47,1.47,0,0,0-.33,1Z"/><path class="cls-3" d="M33.36,15.18l-1.91-6H33l1.13,4,1-4h1.54l1,4,1.15-4h1.57l-1.94,6H37l-1-3.88-1,3.88Z"/></g><polygon class="cls-3" points="7.23 12.34 3.96 11.31 6.76 9.35 6.72 5.92 9.46 7.96 12.7 6.87 11.6 10.11 13.65 12.86 10.23 12.8 8.25 15.61 7.23 12.34"/></svg>